<?xml version="1.0" encoding="utf-8" standalone="no"?>
<!DOCTYPE svg PUBLIC "-//W3C//DTD SVG 1.1//EN"
  "http://www.w3.org/Graphics/SVG/1.1/DTD/svg11.dtd">
<svg xmlns:xlink="http://www.w3.org/1999/xlink" width="496.621875pt" height="203.976375pt" viewBox="0 0 496.621875 203.976375" xmlns="http://www.w3.org/2000/svg" version="1.1">
 <metadata>
  <rdf:RDF xmlns:dc="http://purl.org/dc/elements/1.1/" xmlns:cc="http://creativecommons.org/ns#" xmlns:rdf="http://www.w3.org/1999/02/22-rdf-syntax-ns#">
   <cc:Work>
    <dc:type rdf:resource="http://purl.org/dc/dcmitype/StillImage"/>
    <dc:date>2023-11-21T07:52:27.711128</dc:date>
    <dc:format>image/svg+xml</dc:format>
    <dc:creator>
     <cc:Agent>
      <dc:title>Matplotlib v3.8.2, https://matplotlib.org/</dc:title>
     </cc:Agent>
    </dc:creator>
   </cc:Work>
  </rdf:RDF>
 </metadata>
 <defs>
  <style type="text/css">*{stroke-linejoin: round; stroke-linecap: butt}</style>
 </defs>
 <g id="figure_1">
  <g id="patch_1">
   <path d="M 0 203.976375 
L 496.621875 203.976375 
L 496.621875 0 
L 0 0 
z
" style="fill: #ffffff"/>
  </g>
  <g id="axes_1">
   <g id="patch_2">
    <path d="M 34.240625 169.73575 
L 178.767708 169.73575 
L 178.767708 25.208667 
L 34.240625 25.208667 
z
" style="fill: #ffffff"/>
   </g>
   <g id="matplotlib.axis_1">
    <g id="xtick_1">
     <g id="line2d_1">
      <path d="M 58.328472 169.73575 
L 58.328472 25.208667 
" clip-path="url(#pc54b3cb942)" style="fill: none; stroke: #cccccc; stroke-width: 0.8; stroke-linecap: round"/>
     </g>
     <g id="text_1">
      <!-- 0 -->
      <g style="fill: #262626" transform="translate(61.087847 183.09825) rotate(-90) scale(0.1 -0.1)">
       <defs>
        <path id="DejaVuSans-30" d="M 2034 4250 
Q 1547 4250 1301 3770 
Q 1056 3291 1056 2328 
Q 1056 1369 1301 889 
Q 1547 409 2034 409 
Q 2525 409 2770 889 
Q 3016 1369 3016 2328 
Q 3016 3291 2770 3770 
Q 2525 4250 2034 4250 
z
M 2034 4750 
Q 2819 4750 3233 4129 
Q 3647 3509 3647 2328 
Q 3647 1150 3233 529 
Q 2819 -91 2034 -91 
Q 1250 -91 836 529 
Q 422 1150 422 2328 
Q 422 3509 836 4129 
Q 1250 4750 2034 4750 
z
" transform="scale(0.015625)"/>
       </defs>
       <use xlink:href="#DejaVuSans-30"/>
      </g>
     </g>
    </g>
    <g id="xtick_2">
     <g id="line2d_2">
      <path d="M 82.416319 169.73575 
L 82.416319 25.208667 
" clip-path="url(#pc54b3cb942)" style="fill: none; stroke: #cccccc; stroke-width: 0.8; stroke-linecap: round"/>
     </g>
     <g id="text_2">
      <!-- 1 -->
      <g style="fill: #262626" transform="translate(85.175694 183.09825) rotate(-90) scale(0.1 -0.1)">
       <defs>
        <path id="DejaVuSans-31" d="M 794 531 
L 1825 531 
L 1825 4091 
L 703 3866 
L 703 4441 
L 1819 4666 
L 2450 4666 
L 2450 531 
L 3481 531 
L 3481 0 
L 794 0 
L 794 531 
z
" transform="scale(0.015625)"/>
       </defs>
       <use xlink:href="#DejaVuSans-31"/>
      </g>
     </g>
    </g>
    <g id="xtick_3">
     <g id="line2d_3">
      <path d="M 106.504167 169.73575 
L 106.504167 25.208667 
" clip-path="url(#pc54b3cb942)" style="fill: none; stroke: #cccccc; stroke-width: 0.8; stroke-linecap: round"/>
     </g>
     <g id="text_3">
      <!-- 2 -->
      <g style="fill: #262626" transform="translate(109.263542 183.09825) rotate(-90) scale(0.1 -0.1)">
       <defs>
        <path id="DejaVuSans-32" d="M 1228 531 
L 3431 531 
L 3431 0 
L 469 0 
L 469 531 
Q 828 903 1448 1529 
Q 2069 2156 2228 2338 
Q 2531 2678 2651 2914 
Q 2772 3150 2772 3378 
Q 2772 3750 2511 3984 
Q 2250 4219 1831 4219 
Q 1534 4219 1204 4116 
Q 875 4013 500 3803 
L 500 4441 
Q 881 4594 1212 4672 
Q 1544 4750 1819 4750 
Q 2544 4750 2975 4387 
Q 3406 4025 3406 3419 
Q 3406 3131 3298 2873 
Q 3191 2616 2906 2266 
Q 2828 2175 2409 1742 
Q 1991 1309 1228 531 
z
" transform="scale(0.015625)"/>
       </defs>
       <use xlink:href="#DejaVuSans-32"/>
      </g>
     </g>
    </g>
    <g id="xtick_4">
     <g id="line2d_4">
      <path d="M 130.592014 169.73575 
L 130.592014 25.208667 
" clip-path="url(#pc54b3cb942)" style="fill: none; stroke: #cccccc; stroke-width: 0.8; stroke-linecap: round"/>
     </g>
     <g id="text_4">
      <!-- 3 -->
      <g style="fill: #262626" transform="translate(133.351389 183.09825) rotate(-90) scale(0.1 -0.1)">
       <defs>
        <path id="DejaVuSans-33" d="M 2597 2516 
Q 3050 2419 3304 2112 
Q 3559 1806 3559 1356 
Q 3559 666 3084 287 
Q 2609 -91 1734 -91 
Q 1441 -91 1130 -33 
Q 819 25 488 141 
L 488 750 
Q 750 597 1062 519 
Q 1375 441 1716 441 
Q 2309 441 2620 675 
Q 2931 909 2931 1356 
Q 2931 1769 2642 2001 
Q 2353 2234 1838 2234 
L 1294 2234 
L 1294 2753 
L 1863 2753 
Q 2328 2753 2575 2939 
Q 2822 3125 2822 3475 
Q 2822 3834 2567 4026 
Q 2313 4219 1838 4219 
Q 1578 4219 1281 4162 
Q 984 4106 628 3988 
L 628 4550 
Q 988 4650 1302 4700 
Q 1616 4750 1894 4750 
Q 2613 4750 3031 4423 
Q 3450 4097 3450 3541 
Q 3450 3153 3228 2886 
Q 3006 2619 2597 2516 
z
" transform="scale(0.015625)"/>
       </defs>
       <use xlink:href="#DejaVuSans-33"/>
      </g>
     </g>
    </g>
    <g id="xtick_5">
     <g id="line2d_5">
      <path d="M 154.679861 169.73575 
L 154.679861 25.208667 
" clip-path="url(#pc54b3cb942)" style="fill: none; stroke: #cccccc; stroke-width: 0.8; stroke-linecap: round"/>
     </g>
     <g id="text_5">
      <!-- 4 -->
      <g style="fill: #262626" transform="translate(157.439236 183.09825) rotate(-90) scale(0.1 -0.1)">
       <defs>
        <path id="DejaVuSans-34" d="M 2419 4116 
L 825 1625 
L 2419 1625 
L 2419 4116 
z
M 2253 4666 
L 3047 4666 
L 3047 1625 
L 3713 1625 
L 3713 1100 
L 3047 1100 
L 3047 0 
L 2419 0 
L 2419 1100 
L 313 1100 
L 313 1709 
L 2253 4666 
z
" transform="scale(0.015625)"/>
       </defs>
       <use xlink:href="#DejaVuSans-34"/>
      </g>
     </g>
    </g>
    <g id="text_6">
     <!-- Proposed label -->
     <g style="fill: #262626" transform="translate(69.803385 194.696688) scale(0.1 -0.1)">
      <defs>
       <path id="DejaVuSans-50" d="M 1259 4147 
L 1259 2394 
L 2053 2394 
Q 2494 2394 2734 2622 
Q 2975 2850 2975 3272 
Q 2975 3691 2734 3919 
Q 2494 4147 2053 4147 
L 1259 4147 
z
M 628 4666 
L 2053 4666 
Q 2838 4666 3239 4311 
Q 3641 3956 3641 3272 
Q 3641 2581 3239 2228 
Q 2838 1875 2053 1875 
L 1259 1875 
L 1259 0 
L 628 0 
L 628 4666 
z
" transform="scale(0.015625)"/>
       <path id="DejaVuSans-72" d="M 2631 2963 
Q 2534 3019 2420 3045 
Q 2306 3072 2169 3072 
Q 1681 3072 1420 2755 
Q 1159 2438 1159 1844 
L 1159 0 
L 581 0 
L 581 3500 
L 1159 3500 
L 1159 2956 
Q 1341 3275 1631 3429 
Q 1922 3584 2338 3584 
Q 2397 3584 2469 3576 
Q 2541 3569 2628 3553 
L 2631 2963 
z
" transform="scale(0.015625)"/>
       <path id="DejaVuSans-6f" d="M 1959 3097 
Q 1497 3097 1228 2736 
Q 959 2375 959 1747 
Q 959 1119 1226 758 
Q 1494 397 1959 397 
Q 2419 397 2687 759 
Q 2956 1122 2956 1747 
Q 2956 2369 2687 2733 
Q 2419 3097 1959 3097 
z
M 1959 3584 
Q 2709 3584 3137 3096 
Q 3566 2609 3566 1747 
Q 3566 888 3137 398 
Q 2709 -91 1959 -91 
Q 1206 -91 779 398 
Q 353 888 353 1747 
Q 353 2609 779 3096 
Q 1206 3584 1959 3584 
z
" transform="scale(0.015625)"/>
       <path id="DejaVuSans-70" d="M 1159 525 
L 1159 -1331 
L 581 -1331 
L 581 3500 
L 1159 3500 
L 1159 2969 
Q 1341 3281 1617 3432 
Q 1894 3584 2278 3584 
Q 2916 3584 3314 3078 
Q 3713 2572 3713 1747 
Q 3713 922 3314 415 
Q 2916 -91 2278 -91 
Q 1894 -91 1617 61 
Q 1341 213 1159 525 
z
M 3116 1747 
Q 3116 2381 2855 2742 
Q 2594 3103 2138 3103 
Q 1681 3103 1420 2742 
Q 1159 2381 1159 1747 
Q 1159 1113 1420 752 
Q 1681 391 2138 391 
Q 2594 391 2855 752 
Q 3116 1113 3116 1747 
z
" transform="scale(0.015625)"/>
       <path id="DejaVuSans-73" d="M 2834 3397 
L 2834 2853 
Q 2591 2978 2328 3040 
Q 2066 3103 1784 3103 
Q 1356 3103 1142 2972 
Q 928 2841 928 2578 
Q 928 2378 1081 2264 
Q 1234 2150 1697 2047 
L 1894 2003 
Q 2506 1872 2764 1633 
Q 3022 1394 3022 966 
Q 3022 478 2636 193 
Q 2250 -91 1575 -91 
Q 1294 -91 989 -36 
Q 684 19 347 128 
L 347 722 
Q 666 556 975 473 
Q 1284 391 1588 391 
Q 1994 391 2212 530 
Q 2431 669 2431 922 
Q 2431 1156 2273 1281 
Q 2116 1406 1581 1522 
L 1381 1569 
Q 847 1681 609 1914 
Q 372 2147 372 2553 
Q 372 3047 722 3315 
Q 1072 3584 1716 3584 
Q 2034 3584 2315 3537 
Q 2597 3491 2834 3397 
z
" transform="scale(0.015625)"/>
       <path id="DejaVuSans-65" d="M 3597 1894 
L 3597 1613 
L 953 1613 
Q 991 1019 1311 708 
Q 1631 397 2203 397 
Q 2534 397 2845 478 
Q 3156 559 3463 722 
L 3463 178 
Q 3153 47 2828 -22 
Q 2503 -91 2169 -91 
Q 1331 -91 842 396 
Q 353 884 353 1716 
Q 353 2575 817 3079 
Q 1281 3584 2069 3584 
Q 2775 3584 3186 3129 
Q 3597 2675 3597 1894 
z
M 3022 2063 
Q 3016 2534 2758 2815 
Q 2500 3097 2075 3097 
Q 1594 3097 1305 2825 
Q 1016 2553 972 2059 
L 3022 2063 
z
" transform="scale(0.015625)"/>
       <path id="DejaVuSans-64" d="M 2906 2969 
L 2906 4863 
L 3481 4863 
L 3481 0 
L 2906 0 
L 2906 525 
Q 2725 213 2448 61 
Q 2172 -91 1784 -91 
Q 1150 -91 751 415 
Q 353 922 353 1747 
Q 353 2572 751 3078 
Q 1150 3584 1784 3584 
Q 2172 3584 2448 3432 
Q 2725 3281 2906 2969 
z
M 947 1747 
Q 947 1113 1208 752 
Q 1469 391 1925 391 
Q 2381 391 2643 752 
Q 2906 1113 2906 1747 
Q 2906 2381 2643 2742 
Q 2381 3103 1925 3103 
Q 1469 3103 1208 2742 
Q 947 2381 947 1747 
z
" transform="scale(0.015625)"/>
       <path id="DejaVuSans-20" transform="scale(0.015625)"/>
       <path id="DejaVuSans-6c" d="M 603 4863 
L 1178 4863 
L 1178 0 
L 603 0 
L 603 4863 
z
" transform="scale(0.015625)"/>
       <path id="DejaVuSans-61" d="M 2194 1759 
Q 1497 1759 1228 1600 
Q 959 1441 959 1056 
Q 959 750 1161 570 
Q 1363 391 1709 391 
Q 2188 391 2477 730 
Q 2766 1069 2766 1631 
L 2766 1759 
L 2194 1759 
z
M 3341 1997 
L 3341 0 
L 2766 0 
L 2766 531 
Q 2569 213 2275 61 
Q 1981 -91 1556 -91 
Q 1019 -91 701 211 
Q 384 513 384 1019 
Q 384 1609 779 1909 
Q 1175 2209 1959 2209 
L 2766 2209 
L 2766 2266 
Q 2766 2663 2505 2880 
Q 2244 3097 1772 3097 
Q 1472 3097 1187 3025 
Q 903 2953 641 2809 
L 641 3341 
Q 956 3463 1253 3523 
Q 1550 3584 1831 3584 
Q 2591 3584 2966 3190 
Q 3341 2797 3341 1997 
z
" transform="scale(0.015625)"/>
       <path id="DejaVuSans-62" d="M 3116 1747 
Q 3116 2381 2855 2742 
Q 2594 3103 2138 3103 
Q 1681 3103 1420 2742 
Q 1159 2381 1159 1747 
Q 1159 1113 1420 752 
Q 1681 391 2138 391 
Q 2594 391 2855 752 
Q 3116 1113 3116 1747 
z
M 1159 2969 
Q 1341 3281 1617 3432 
Q 1894 3584 2278 3584 
Q 2916 3584 3314 3078 
Q 3713 2572 3713 1747 
Q 3713 922 3314 415 
Q 2916 -91 2278 -91 
Q 1894 -91 1617 61 
Q 1341 213 1159 525 
L 1159 0 
L 581 0 
L 581 4863 
L 1159 4863 
L 1159 2969 
z
" transform="scale(0.015625)"/>
      </defs>
      <use xlink:href="#DejaVuSans-50"/>
      <use xlink:href="#DejaVuSans-72" x="58.552734"/>
      <use xlink:href="#DejaVuSans-6f" x="97.416016"/>
      <use xlink:href="#DejaVuSans-70" x="158.597656"/>
      <use xlink:href="#DejaVuSans-6f" x="222.074219"/>
      <use xlink:href="#DejaVuSans-73" x="283.255859"/>
      <use xlink:href="#DejaVuSans-65" x="335.355469"/>
      <use xlink:href="#DejaVuSans-64" x="396.878906"/>
      <use xlink:href="#DejaVuSans-20" x="460.355469"/>
      <use xlink:href="#DejaVuSans-6c" x="492.142578"/>
      <use xlink:href="#DejaVuSans-61" x="519.925781"/>
      <use xlink:href="#DejaVuSans-62" x="581.205078"/>
      <use xlink:href="#DejaVuSans-65" x="644.681641"/>
      <use xlink:href="#DejaVuSans-6c" x="706.205078"/>
     </g>
    </g>
   </g>
   <g id="matplotlib.axis_2">
    <g id="ytick_1">
     <g id="line2d_6">
      <path d="M 34.240625 49.296514 
L 178.767708 49.296514 
" clip-path="url(#pc54b3cb942)" style="fill: none; stroke: #cccccc; stroke-width: 0.8; stroke-linecap: round"/>
     </g>
     <g id="text_7">
      <!-- 0 -->
      <g style="fill: #262626" transform="translate(20.878125 53.095733) scale(0.1 -0.1)">
       <use xlink:href="#DejaVuSans-30"/>
      </g>
     </g>
    </g>
    <g id="ytick_2">
     <g id="line2d_7">
      <path d="M 34.240625 73.384361 
L 178.767708 73.384361 
" clip-path="url(#pc54b3cb942)" style="fill: none; stroke: #cccccc; stroke-width: 0.8; stroke-linecap: round"/>
     </g>
     <g id="text_8">
      <!-- 1 -->
      <g style="fill: #262626" transform="translate(20.878125 77.18358) scale(0.1 -0.1)">
       <use xlink:href="#DejaVuSans-31"/>
      </g>
     </g>
    </g>
    <g id="ytick_3">
     <g id="line2d_8">
      <path d="M 34.240625 97.472208 
L 178.767708 97.472208 
" clip-path="url(#pc54b3cb942)" style="fill: none; stroke: #cccccc; stroke-width: 0.8; stroke-linecap: round"/>
     </g>
     <g id="text_9">
      <!-- 2 -->
      <g style="fill: #262626" transform="translate(20.878125 101.271427) scale(0.1 -0.1)">
       <use xlink:href="#DejaVuSans-32"/>
      </g>
     </g>
    </g>
    <g id="ytick_4">
     <g id="line2d_9">
      <path d="M 34.240625 121.560056 
L 178.767708 121.560056 
" clip-path="url(#pc54b3cb942)" style="fill: none; stroke: #cccccc; stroke-width: 0.8; stroke-linecap: round"/>
     </g>
     <g id="text_10">
      <!-- 3 -->
      <g style="fill: #262626" transform="translate(20.878125 125.359274) scale(0.1 -0.1)">
       <use xlink:href="#DejaVuSans-33"/>
      </g>
     </g>
    </g>
    <g id="ytick_5">
     <g id="line2d_10">
      <path d="M 34.240625 145.647903 
L 178.767708 145.647903 
" clip-path="url(#pc54b3cb942)" style="fill: none; stroke: #cccccc; stroke-width: 0.8; stroke-linecap: round"/>
     </g>
     <g id="text_11">
      <!-- 4 -->
      <g style="fill: #262626" transform="translate(20.878125 149.447122) scale(0.1 -0.1)">
       <use xlink:href="#DejaVuSans-34"/>
      </g>
     </g>
    </g>
    <g id="text_12">
     <!-- Estimated true label -->
     <g style="fill: #262626" transform="translate(14.798438 148.262833) rotate(-90) scale(0.1 -0.1)">
      <defs>
       <path id="DejaVuSans-45" d="M 628 4666 
L 3578 4666 
L 3578 4134 
L 1259 4134 
L 1259 2753 
L 3481 2753 
L 3481 2222 
L 1259 2222 
L 1259 531 
L 3634 531 
L 3634 0 
L 628 0 
L 628 4666 
z
" transform="scale(0.015625)"/>
       <path id="DejaVuSans-74" d="M 1172 4494 
L 1172 3500 
L 2356 3500 
L 2356 3053 
L 1172 3053 
L 1172 1153 
Q 1172 725 1289 603 
Q 1406 481 1766 481 
L 2356 481 
L 2356 0 
L 1766 0 
Q 1100 0 847 248 
Q 594 497 594 1153 
L 594 3053 
L 172 3053 
L 172 3500 
L 594 3500 
L 594 4494 
L 1172 4494 
z
" transform="scale(0.015625)"/>
       <path id="DejaVuSans-69" d="M 603 3500 
L 1178 3500 
L 1178 0 
L 603 0 
L 603 3500 
z
M 603 4863 
L 1178 4863 
L 1178 4134 
L 603 4134 
L 603 4863 
z
" transform="scale(0.015625)"/>
       <path id="DejaVuSans-6d" d="M 3328 2828 
Q 3544 3216 3844 3400 
Q 4144 3584 4550 3584 
Q 5097 3584 5394 3201 
Q 5691 2819 5691 2113 
L 5691 0 
L 5113 0 
L 5113 2094 
Q 5113 2597 4934 2840 
Q 4756 3084 4391 3084 
Q 3944 3084 3684 2787 
Q 3425 2491 3425 1978 
L 3425 0 
L 2847 0 
L 2847 2094 
Q 2847 2600 2669 2842 
Q 2491 3084 2119 3084 
Q 1678 3084 1418 2786 
Q 1159 2488 1159 1978 
L 1159 0 
L 581 0 
L 581 3500 
L 1159 3500 
L 1159 2956 
Q 1356 3278 1631 3431 
Q 1906 3584 2284 3584 
Q 2666 3584 2933 3390 
Q 3200 3197 3328 2828 
z
" transform="scale(0.015625)"/>
       <path id="DejaVuSans-75" d="M 544 1381 
L 544 3500 
L 1119 3500 
L 1119 1403 
Q 1119 906 1312 657 
Q 1506 409 1894 409 
Q 2359 409 2629 706 
Q 2900 1003 2900 1516 
L 2900 3500 
L 3475 3500 
L 3475 0 
L 2900 0 
L 2900 538 
Q 2691 219 2414 64 
Q 2138 -91 1772 -91 
Q 1169 -91 856 284 
Q 544 659 544 1381 
z
M 1991 3584 
L 1991 3584 
z
" transform="scale(0.015625)"/>
      </defs>
      <use xlink:href="#DejaVuSans-45"/>
      <use xlink:href="#DejaVuSans-73" x="63.183594"/>
      <use xlink:href="#DejaVuSans-74" x="115.283203"/>
      <use xlink:href="#DejaVuSans-69" x="154.492188"/>
      <use xlink:href="#DejaVuSans-6d" x="182.275391"/>
      <use xlink:href="#DejaVuSans-61" x="279.6875"/>
      <use xlink:href="#DejaVuSans-74" x="340.966797"/>
      <use xlink:href="#DejaVuSans-65" x="380.175781"/>
      <use xlink:href="#DejaVuSans-64" x="441.699219"/>
      <use xlink:href="#DejaVuSans-20" x="505.175781"/>
      <use xlink:href="#DejaVuSans-74" x="536.962891"/>
      <use xlink:href="#DejaVuSans-72" x="576.171875"/>
      <use xlink:href="#DejaVuSans-75" x="617.285156"/>
      <use xlink:href="#DejaVuSans-65" x="680.664062"/>
      <use xlink:href="#DejaVuSans-20" x="742.1875"/>
      <use xlink:href="#DejaVuSans-6c" x="773.974609"/>
      <use xlink:href="#DejaVuSans-61" x="801.757812"/>
      <use xlink:href="#DejaVuSans-62" x="863.037109"/>
      <use xlink:href="#DejaVuSans-65" x="926.513672"/>
      <use xlink:href="#DejaVuSans-6c" x="988.037109"/>
     </g>
    </g>
   </g>
   <g id="patch_3">
    <path d="M 53.198752 44.166794 
L 63.971165 44.166794 
L 63.971165 54.939206 
L 53.198752 54.939206 
z
" clip-path="url(#pc54b3cb942)" style="fill: #d0e1f2; stroke: #000000; stroke-linejoin: miter"/>
   </g>
   <g id="patch_4">
    <path d="M 77.286599 44.166794 
L 88.059012 44.166794 
L 88.059012 54.939206 
L 77.286599 54.939206 
z
" clip-path="url(#pc54b3cb942)" style="fill: #d0e1f2; stroke: #000000; stroke-linejoin: miter"/>
   </g>
   <g id="patch_5">
    <path d="M 101.374446 44.166794 
L 112.146859 44.166794 
L 112.146859 54.939206 
L 101.374446 54.939206 
z
" clip-path="url(#pc54b3cb942)" style="fill: #d0e1f2; stroke: #000000; stroke-linejoin: miter"/>
   </g>
   <g id="patch_6">
    <path d="M 125.462294 44.166794 
L 136.234706 44.166794 
L 136.234706 54.939206 
L 125.462294 54.939206 
z
" clip-path="url(#pc54b3cb942)" style="fill: #d0e1f2; stroke: #000000; stroke-linejoin: miter"/>
   </g>
   <g id="patch_7">
    <path d="M 149.550141 44.166794 
L 160.322554 44.166794 
L 160.322554 54.939206 
L 149.550141 54.939206 
z
" clip-path="url(#pc54b3cb942)" style="fill: #d0e1f2; stroke: #000000; stroke-linejoin: miter"/>
   </g>
   <g id="patch_8">
    <path d="M 53.198752 68.254641 
L 63.971165 68.254641 
L 63.971165 79.027054 
L 53.198752 79.027054 
z
" clip-path="url(#pc54b3cb942)" style="fill: #d0e1f2; stroke: #000000; stroke-linejoin: miter"/>
   </g>
   <g id="patch_9">
    <path d="M 77.286599 68.254641 
L 88.059012 68.254641 
L 88.059012 79.027054 
L 77.286599 79.027054 
z
" clip-path="url(#pc54b3cb942)" style="fill: #d0e1f2; stroke: #000000; stroke-linejoin: miter"/>
   </g>
   <g id="patch_10">
    <path d="M 101.374446 68.254641 
L 112.146859 68.254641 
L 112.146859 79.027054 
L 101.374446 79.027054 
z
" clip-path="url(#pc54b3cb942)" style="fill: #d0e1f2; stroke: #000000; stroke-linejoin: miter"/>
   </g>
   <g id="patch_11">
    <path d="M 125.462294 68.254641 
L 136.234706 68.254641 
L 136.234706 79.027054 
L 125.462294 79.027054 
z
" clip-path="url(#pc54b3cb942)" style="fill: #d0e1f2; stroke: #000000; stroke-linejoin: miter"/>
   </g>
   <g id="patch_12">
    <path d="M 149.550141 68.254641 
L 160.322554 68.254641 
L 160.322554 79.027054 
L 149.550141 79.027054 
z
" clip-path="url(#pc54b3cb942)" style="fill: #d0e1f2; stroke: #000000; stroke-linejoin: miter"/>
   </g>
   <g id="patch_13">
    <path d="M 53.198752 92.342488 
L 63.971165 92.342488 
L 63.971165 103.114901 
L 53.198752 103.114901 
z
" clip-path="url(#pc54b3cb942)" style="fill: #d0e1f2; stroke: #000000; stroke-linejoin: miter"/>
   </g>
   <g id="patch_14">
    <path d="M 77.286599 92.342488 
L 88.059012 92.342488 
L 88.059012 103.114901 
L 77.286599 103.114901 
z
" clip-path="url(#pc54b3cb942)" style="fill: #d0e1f2; stroke: #000000; stroke-linejoin: miter"/>
   </g>
   <g id="patch_15">
    <path d="M 101.374446 92.342488 
L 112.146859 92.342488 
L 112.146859 103.114901 
L 101.374446 103.114901 
z
" clip-path="url(#pc54b3cb942)" style="fill: #d0e1f2; stroke: #000000; stroke-linejoin: miter"/>
   </g>
   <g id="patch_16">
    <path d="M 125.462294 92.342488 
L 136.234706 92.342488 
L 136.234706 103.114901 
L 125.462294 103.114901 
z
" clip-path="url(#pc54b3cb942)" style="fill: #d0e1f2; stroke: #000000; stroke-linejoin: miter"/>
   </g>
   <g id="patch_17">
    <path d="M 149.550141 92.342488 
L 160.322554 92.342488 
L 160.322554 103.114901 
L 149.550141 103.114901 
z
" clip-path="url(#pc54b3cb942)" style="fill: #d0e1f2; stroke: #000000; stroke-linejoin: miter"/>
   </g>
   <g id="patch_18">
    <path d="M 53.198752 116.430335 
L 63.971165 116.430335 
L 63.971165 127.202748 
L 53.198752 127.202748 
z
" clip-path="url(#pc54b3cb942)" style="fill: #d0e1f2; stroke: #000000; stroke-linejoin: miter"/>
   </g>
   <g id="patch_19">
    <path d="M 77.286599 116.430335 
L 88.059012 116.430335 
L 88.059012 127.202748 
L 77.286599 127.202748 
z
" clip-path="url(#pc54b3cb942)" style="fill: #d0e1f2; stroke: #000000; stroke-linejoin: miter"/>
   </g>
   <g id="patch_20">
    <path d="M 101.374446 116.430335 
L 112.146859 116.430335 
L 112.146859 127.202748 
L 101.374446 127.202748 
z
" clip-path="url(#pc54b3cb942)" style="fill: #d0e1f2; stroke: #000000; stroke-linejoin: miter"/>
   </g>
   <g id="patch_21">
    <path d="M 125.462294 116.430335 
L 136.234706 116.430335 
L 136.234706 127.202748 
L 125.462294 127.202748 
z
" clip-path="url(#pc54b3cb942)" style="fill: #d0e1f2; stroke: #000000; stroke-linejoin: miter"/>
   </g>
   <g id="patch_22">
    <path d="M 149.550141 116.430335 
L 160.322554 116.430335 
L 160.322554 127.202748 
L 149.550141 127.202748 
z
" clip-path="url(#pc54b3cb942)" style="fill: #d0e1f2; stroke: #000000; stroke-linejoin: miter"/>
   </g>
   <g id="patch_23">
    <path d="M 53.198752 140.518182 
L 63.971165 140.518182 
L 63.971165 151.290595 
L 53.198752 151.290595 
z
" clip-path="url(#pc54b3cb942)" style="fill: #d0e1f2; stroke: #000000; stroke-linejoin: miter"/>
   </g>
   <g id="patch_24">
    <path d="M 77.286599 140.518182 
L 88.059012 140.518182 
L 88.059012 151.290595 
L 77.286599 151.290595 
z
" clip-path="url(#pc54b3cb942)" style="fill: #d0e1f2; stroke: #000000; stroke-linejoin: miter"/>
   </g>
   <g id="patch_25">
    <path d="M 101.374446 140.518182 
L 112.146859 140.518182 
L 112.146859 151.290595 
L 101.374446 151.290595 
z
" clip-path="url(#pc54b3cb942)" style="fill: #d0e1f2; stroke: #000000; stroke-linejoin: miter"/>
   </g>
   <g id="patch_26">
    <path d="M 125.462294 140.518182 
L 136.234706 140.518182 
L 136.234706 151.290595 
L 125.462294 151.290595 
z
" clip-path="url(#pc54b3cb942)" style="fill: #d0e1f2; stroke: #000000; stroke-linejoin: miter"/>
   </g>
   <g id="patch_27">
    <path d="M 149.550141 140.518182 
L 160.322554 140.518182 
L 160.322554 151.290595 
L 149.550141 151.290595 
z
" clip-path="url(#pc54b3cb942)" style="fill: #d0e1f2; stroke: #000000; stroke-linejoin: miter"/>
   </g>
   <g id="patch_28">
    <path d="M 34.240625 169.73575 
L 34.240625 25.208667 
" style="fill: none; stroke: #cccccc; stroke-width: 0.8; stroke-linejoin: miter; stroke-linecap: square"/>
   </g>
   <g id="patch_29">
    <path d="M 178.767708 169.73575 
L 178.767708 25.208667 
" style="fill: none; stroke: #cccccc; stroke-width: 0.8; stroke-linejoin: miter; stroke-linecap: square"/>
   </g>
   <g id="patch_30">
    <path d="M 34.240625 169.73575 
L 178.767708 169.73575 
" style="fill: none; stroke: #cccccc; stroke-width: 0.8; stroke-linejoin: miter; stroke-linecap: square"/>
   </g>
   <g id="patch_31">
    <path d="M 34.240625 25.208667 
L 178.767708 25.208667 
" style="fill: none; stroke: #cccccc; stroke-width: 0.8; stroke-linejoin: miter; stroke-linecap: square"/>
   </g>
   <g id="text_13">
    <!-- Spammer worker -->
    <g style="fill: #262626" transform="translate(54.995104 16.318125) scale(0.12 -0.12)">
     <defs>
      <path id="DejaVuSans-53" d="M 3425 4513 
L 3425 3897 
Q 3066 4069 2747 4153 
Q 2428 4238 2131 4238 
Q 1616 4238 1336 4038 
Q 1056 3838 1056 3469 
Q 1056 3159 1242 3001 
Q 1428 2844 1947 2747 
L 2328 2669 
Q 3034 2534 3370 2195 
Q 3706 1856 3706 1288 
Q 3706 609 3251 259 
Q 2797 -91 1919 -91 
Q 1588 -91 1214 -16 
Q 841 59 441 206 
L 441 856 
Q 825 641 1194 531 
Q 1563 422 1919 422 
Q 2459 422 2753 634 
Q 3047 847 3047 1241 
Q 3047 1584 2836 1778 
Q 2625 1972 2144 2069 
L 1759 2144 
Q 1053 2284 737 2584 
Q 422 2884 422 3419 
Q 422 4038 858 4394 
Q 1294 4750 2059 4750 
Q 2388 4750 2728 4690 
Q 3069 4631 3425 4513 
z
" transform="scale(0.015625)"/>
      <path id="DejaVuSans-77" d="M 269 3500 
L 844 3500 
L 1563 769 
L 2278 3500 
L 2956 3500 
L 3675 769 
L 4391 3500 
L 4966 3500 
L 4050 0 
L 3372 0 
L 2619 2869 
L 1863 0 
L 1184 0 
L 269 3500 
z
" transform="scale(0.015625)"/>
      <path id="DejaVuSans-6b" d="M 581 4863 
L 1159 4863 
L 1159 1991 
L 2875 3500 
L 3609 3500 
L 1753 1863 
L 3688 0 
L 2938 0 
L 1159 1709 
L 1159 0 
L 581 0 
L 581 4863 
z
" transform="scale(0.015625)"/>
     </defs>
     <use xlink:href="#DejaVuSans-53"/>
     <use xlink:href="#DejaVuSans-70" x="63.476562"/>
     <use xlink:href="#DejaVuSans-61" x="126.953125"/>
     <use xlink:href="#DejaVuSans-6d" x="188.232422"/>
     <use xlink:href="#DejaVuSans-6d" x="285.644531"/>
     <use xlink:href="#DejaVuSans-65" x="383.056641"/>
     <use xlink:href="#DejaVuSans-72" x="444.580078"/>
     <use xlink:href="#DejaVuSans-20" x="485.693359"/>
     <use xlink:href="#DejaVuSans-77" x="517.480469"/>
     <use xlink:href="#DejaVuSans-6f" x="599.267578"/>
     <use xlink:href="#DejaVuSans-72" x="660.449219"/>
     <use xlink:href="#DejaVuSans-6b" x="701.5625"/>
     <use xlink:href="#DejaVuSans-65" x="755.847656"/>
     <use xlink:href="#DejaVuSans-72" x="817.371094"/>
    </g>
   </g>
  </g>
  <g id="axes_2">
   <g id="patch_32">
    <path d="M 189.567708 169.73575 
L 334.094792 169.73575 
L 334.094792 25.208667 
L 189.567708 25.208667 
z
" style="fill: #ffffff"/>
   </g>
   <g id="matplotlib.axis_3">
    <g id="xtick_6">
     <g id="line2d_11">
      <path d="M 213.655556 169.73575 
L 213.655556 25.208667 
" clip-path="url(#p83e72fc9b5)" style="fill: none; stroke: #cccccc; stroke-width: 0.8; stroke-linecap: round"/>
     </g>
     <g id="text_14">
      <!-- 0 -->
      <g style="fill: #262626" transform="translate(216.414931 183.09825) rotate(-90) scale(0.1 -0.1)">
       <use xlink:href="#DejaVuSans-30"/>
      </g>
     </g>
    </g>
    <g id="xtick_7">
     <g id="line2d_12">
      <path d="M 237.743403 169.73575 
L 237.743403 25.208667 
" clip-path="url(#p83e72fc9b5)" style="fill: none; stroke: #cccccc; stroke-width: 0.8; stroke-linecap: round"/>
     </g>
     <g id="text_15">
      <!-- 1 -->
      <g style="fill: #262626" transform="translate(240.502778 183.09825) rotate(-90) scale(0.1 -0.1)">
       <use xlink:href="#DejaVuSans-31"/>
      </g>
     </g>
    </g>
    <g id="xtick_8">
     <g id="line2d_13">
      <path d="M 261.83125 169.73575 
L 261.83125 25.208667 
" clip-path="url(#p83e72fc9b5)" style="fill: none; stroke: #cccccc; stroke-width: 0.8; stroke-linecap: round"/>
     </g>
     <g id="text_16">
      <!-- 2 -->
      <g style="fill: #262626" transform="translate(264.590625 183.09825) rotate(-90) scale(0.1 -0.1)">
       <use xlink:href="#DejaVuSans-32"/>
      </g>
     </g>
    </g>
    <g id="xtick_9">
     <g id="line2d_14">
      <path d="M 285.919097 169.73575 
L 285.919097 25.208667 
" clip-path="url(#p83e72fc9b5)" style="fill: none; stroke: #cccccc; stroke-width: 0.8; stroke-linecap: round"/>
     </g>
     <g id="text_17">
      <!-- 3 -->
      <g style="fill: #262626" transform="translate(288.678472 183.09825) rotate(-90) scale(0.1 -0.1)">
       <use xlink:href="#DejaVuSans-33"/>
      </g>
     </g>
    </g>
    <g id="xtick_10">
     <g id="line2d_15">
      <path d="M 310.006944 169.73575 
L 310.006944 25.208667 
" clip-path="url(#p83e72fc9b5)" style="fill: none; stroke: #cccccc; stroke-width: 0.8; stroke-linecap: round"/>
     </g>
     <g id="text_18">
      <!-- 4 -->
      <g style="fill: #262626" transform="translate(312.766319 183.09825) rotate(-90) scale(0.1 -0.1)">
       <use xlink:href="#DejaVuSans-34"/>
      </g>
     </g>
    </g>
    <g id="text_19">
     <!-- Proposed label -->
     <g style="fill: #262626" transform="translate(225.130469 194.696688) scale(0.1 -0.1)">
      <use xlink:href="#DejaVuSans-50"/>
      <use xlink:href="#DejaVuSans-72" x="58.552734"/>
      <use xlink:href="#DejaVuSans-6f" x="97.416016"/>
      <use xlink:href="#DejaVuSans-70" x="158.597656"/>
      <use xlink:href="#DejaVuSans-6f" x="222.074219"/>
      <use xlink:href="#DejaVuSans-73" x="283.255859"/>
      <use xlink:href="#DejaVuSans-65" x="335.355469"/>
      <use xlink:href="#DejaVuSans-64" x="396.878906"/>
      <use xlink:href="#DejaVuSans-20" x="460.355469"/>
      <use xlink:href="#DejaVuSans-6c" x="492.142578"/>
      <use xlink:href="#DejaVuSans-61" x="519.925781"/>
      <use xlink:href="#DejaVuSans-62" x="581.205078"/>
      <use xlink:href="#DejaVuSans-65" x="644.681641"/>
      <use xlink:href="#DejaVuSans-6c" x="706.205078"/>
     </g>
    </g>
   </g>
   <g id="matplotlib.axis_4">
    <g id="ytick_6">
     <g id="line2d_16">
      <path d="M 189.567708 49.296514 
L 334.094792 49.296514 
" clip-path="url(#p83e72fc9b5)" style="fill: none; stroke: #cccccc; stroke-width: 0.8; stroke-linecap: round"/>
     </g>
    </g>
    <g id="ytick_7">
     <g id="line2d_17">
      <path d="M 189.567708 73.384361 
L 334.094792 73.384361 
" clip-path="url(#p83e72fc9b5)" style="fill: none; stroke: #cccccc; stroke-width: 0.8; stroke-linecap: round"/>
     </g>
    </g>
    <g id="ytick_8">
     <g id="line2d_18">
      <path d="M 189.567708 97.472208 
L 334.094792 97.472208 
" clip-path="url(#p83e72fc9b5)" style="fill: none; stroke: #cccccc; stroke-width: 0.8; stroke-linecap: round"/>
     </g>
    </g>
    <g id="ytick_9">
     <g id="line2d_19">
      <path d="M 189.567708 121.560056 
L 334.094792 121.560056 
" clip-path="url(#p83e72fc9b5)" style="fill: none; stroke: #cccccc; stroke-width: 0.8; stroke-linecap: round"/>
     </g>
    </g>
    <g id="ytick_10">
     <g id="line2d_20">
      <path d="M 189.567708 145.647903 
L 334.094792 145.647903 
" clip-path="url(#p83e72fc9b5)" style="fill: none; stroke: #cccccc; stroke-width: 0.8; stroke-linecap: round"/>
     </g>
    </g>
   </g>
   <g id="patch_33">
    <path d="M 203.063008 38.703966 
L 225.307358 38.703966 
L 225.307358 60.948317 
L 203.063008 60.948317 
z
" clip-path="url(#p83e72fc9b5)" style="fill: #0c56a0; stroke: #000000; stroke-linejoin: miter"/>
   </g>
   <g id="patch_34">
    <path d="M 235.832871 47.385982 
L 239.844988 47.385982 
L 239.844988 51.398099 
L 235.832871 51.398099 
z
" clip-path="url(#p83e72fc9b5)" style="fill: #f1f7fd; stroke: #000000; stroke-linejoin: miter"/>
   </g>
   <g id="patch_35">
    <path d="M 260.259841 47.725105 
L 263.5598 47.725105 
L 263.5598 51.025064 
L 260.259841 51.025064 
z
" clip-path="url(#p83e72fc9b5)" style="fill: #f3f8fe; stroke: #000000; stroke-linejoin: miter"/>
   </g>
   <g id="patch_36">
    <path d="M 283.197514 46.574931 
L 288.912839 46.574931 
L 288.912839 52.290255 
L 283.197514 52.290255 
z
" clip-path="url(#p83e72fc9b5)" style="fill: #ebf3fb; stroke: #000000; stroke-linejoin: miter"/>
   </g>
   <g id="patch_37">
    <path d="M 307.590002 46.879571 
L 312.665581 46.879571 
L 312.665581 51.955151 
L 307.590002 51.955151 
z
" clip-path="url(#p83e72fc9b5)" style="fill: #eef5fc; stroke: #000000; stroke-linejoin: miter"/>
   </g>
   <g id="patch_38">
    <path d="M 208.070461 67.799267 
L 219.799159 67.799267 
L 219.799159 79.527965 
L 208.070461 79.527965 
z
" clip-path="url(#p83e72fc9b5)" style="fill: #c8dcf0; stroke: #000000; stroke-linejoin: miter"/>
   </g>
   <g id="patch_39">
    <path d="M 230.444572 66.08553 
L 245.772117 66.08553 
L 245.772117 81.413075 
L 230.444572 81.413075 
z
" clip-path="url(#p83e72fc9b5)" style="fill: #91c3de; stroke: #000000; stroke-linejoin: miter"/>
   </g>
   <g id="patch_40">
    <path d="M 255.503351 67.056462 
L 268.791939 67.056462 
L 268.791939 80.34505 
L 255.503351 80.34505 
z
" clip-path="url(#p83e72fc9b5)" style="fill: #b4d3e9; stroke: #000000; stroke-linejoin: miter"/>
   </g>
   <g id="patch_41">
    <path d="M 285.736035 73.201299 
L 286.120466 73.201299 
L 286.120466 73.58573 
L 285.736035 73.58573 
z
" clip-path="url(#p83e72fc9b5)" style="fill: #f6faff; stroke: #000000; stroke-linejoin: miter"/>
   </g>
   <g id="patch_42">
    <path d="M 307.355884 70.7333 
L 312.923111 70.7333 
L 312.923111 76.300528 
L 307.355884 76.300528 
z
" clip-path="url(#p83e72fc9b5)" style="fill: #ecf4fb; stroke: #000000; stroke-linejoin: miter"/>
   </g>
   <g id="patch_43">
    <path d="M 207.190698 91.007351 
L 220.766898 91.007351 
L 220.766898 104.583551 
L 207.190698 104.583551 
z
" clip-path="url(#p83e72fc9b5)" style="fill: #afd1e7; stroke: #000000; stroke-linejoin: miter"/>
   </g>
   <g id="patch_44">
    <path d="M 236.088398 95.817203 
L 239.563908 95.817203 
L 239.563908 99.292714 
L 236.088398 99.292714 
z
" clip-path="url(#p83e72fc9b5)" style="fill: #f2f8fd; stroke: #000000; stroke-linejoin: miter"/>
   </g>
   <g id="patch_45">
    <path d="M 254.993419 90.634377 
L 269.352864 90.634377 
L 269.352864 104.993823 
L 254.993419 104.993823 
z
" clip-path="url(#p83e72fc9b5)" style="fill: #a4cce3; stroke: #000000; stroke-linejoin: miter"/>
   </g>
   <g id="patch_46">
    <path d="M 281.049515 92.602626 
L 291.275638 92.602626 
L 291.275638 102.828749 
L 281.049515 102.828749 
z
" clip-path="url(#p83e72fc9b5)" style="fill: #d3e4f3; stroke: #000000; stroke-linejoin: miter"/>
   </g>
   <g id="patch_47">
    <path d="M 305.936567 93.401831 
L 314.484359 93.401831 
L 314.484359 101.949623 
L 305.936567 101.949623 
z
" clip-path="url(#p83e72fc9b5)" style="fill: #ddeaf7; stroke: #000000; stroke-linejoin: miter"/>
   </g>
   <g id="patch_48">
    <path d="M 208.012452 115.916952 
L 219.862969 115.916952 
L 219.862969 127.767469 
L 208.012452 127.767469 
z
" clip-path="url(#p83e72fc9b5)" style="fill: #c7dcef; stroke: #000000; stroke-linejoin: miter"/>
   </g>
   <g id="patch_49">
    <path d="M 233.83312 117.649773 
L 242.044714 117.649773 
L 242.044714 125.861366 
L 233.83312 125.861366 
z
" clip-path="url(#p83e72fc9b5)" style="fill: #dfecf7; stroke: #000000; stroke-linejoin: miter"/>
   </g>
   <g id="patch_50">
    <path d="M 257.250151 116.978957 
L 266.870459 116.978957 
L 266.870459 126.599264 
L 257.250151 126.599264 
z
" clip-path="url(#p83e72fc9b5)" style="fill: #d7e6f5; stroke: #000000; stroke-linejoin: miter"/>
   </g>
   <g id="patch_51">
    <path d="M 279.886937 115.527895 
L 292.554474 115.527895 
L 292.554474 128.195432 
L 279.886937 128.195432 
z
" clip-path="url(#p83e72fc9b5)" style="fill: #bdd7ec; stroke: #000000; stroke-linejoin: miter"/>
   </g>
   <g id="patch_52">
    <path d="M 304.804848 116.357959 
L 315.72925 116.357959 
L 315.72925 127.282361 
L 304.804848 127.282361 
z
" clip-path="url(#p83e72fc9b5)" style="fill: #cee0f2; stroke: #000000; stroke-linejoin: miter"/>
   </g>
   <g id="patch_53">
    <path d="M 208.721308 140.713656 
L 219.083228 140.713656 
L 219.083228 151.075575 
L 208.721308 151.075575 
z
" clip-path="url(#p83e72fc9b5)" style="fill: #d2e3f3; stroke: #000000; stroke-linejoin: miter"/>
   </g>
   <g id="patch_54">
    <path d="M 232.585372 140.489872 
L 243.417236 140.489872 
L 243.417236 151.321736 
L 232.585372 151.321736 
z
" clip-path="url(#p83e72fc9b5)" style="fill: #cfe1f2; stroke: #000000; stroke-linejoin: miter"/>
   </g>
   <g id="patch_55">
    <path d="M 257.305943 141.122596 
L 266.809087 141.122596 
L 266.809087 150.62574 
L 257.305943 150.62574 
z
" clip-path="url(#p83e72fc9b5)" style="fill: #d8e7f5; stroke: #000000; stroke-linejoin: miter"/>
   </g>
   <g id="patch_56">
    <path d="M 282.401285 142.13009 
L 289.788691 142.13009 
L 289.788691 149.517496 
L 282.401285 149.517496 
z
" clip-path="url(#p83e72fc9b5)" style="fill: #e4eff9; stroke: #000000; stroke-linejoin: miter"/>
   </g>
   <g id="patch_57">
    <path d="M 303.095745 138.736703 
L 317.609264 138.736703 
L 317.609264 153.250222 
L 303.095745 153.250222 
z
" clip-path="url(#p83e72fc9b5)" style="fill: #a1cbe2; stroke: #000000; stroke-linejoin: miter"/>
   </g>
   <g id="patch_58">
    <path d="M 189.567708 169.73575 
L 189.567708 25.208667 
" style="fill: none; stroke: #cccccc; stroke-width: 0.8; stroke-linejoin: miter; stroke-linecap: square"/>
   </g>
   <g id="patch_59">
    <path d="M 334.094792 169.73575 
L 334.094792 25.208667 
" style="fill: none; stroke: #cccccc; stroke-width: 0.8; stroke-linejoin: miter; stroke-linecap: square"/>
   </g>
   <g id="patch_60">
    <path d="M 189.567708 169.73575 
L 334.094792 169.73575 
" style="fill: none; stroke: #cccccc; stroke-width: 0.8; stroke-linejoin: miter; stroke-linecap: square"/>
   </g>
   <g id="patch_61">
    <path d="M 189.567708 25.208667 
L 334.094792 25.208667 
" style="fill: none; stroke: #cccccc; stroke-width: 0.8; stroke-linejoin: miter; stroke-linecap: square"/>
   </g>
   <g id="text_20">
    <!-- Common worker -->
    <g style="fill: #262626" transform="translate(212.440937 16.318125) scale(0.12 -0.12)">
     <defs>
      <path id="DejaVuSans-43" d="M 4122 4306 
L 4122 3641 
Q 3803 3938 3442 4084 
Q 3081 4231 2675 4231 
Q 1875 4231 1450 3742 
Q 1025 3253 1025 2328 
Q 1025 1406 1450 917 
Q 1875 428 2675 428 
Q 3081 428 3442 575 
Q 3803 722 4122 1019 
L 4122 359 
Q 3791 134 3420 21 
Q 3050 -91 2638 -91 
Q 1578 -91 968 557 
Q 359 1206 359 2328 
Q 359 3453 968 4101 
Q 1578 4750 2638 4750 
Q 3056 4750 3426 4639 
Q 3797 4528 4122 4306 
z
" transform="scale(0.015625)"/>
      <path id="DejaVuSans-6e" d="M 3513 2113 
L 3513 0 
L 2938 0 
L 2938 2094 
Q 2938 2591 2744 2837 
Q 2550 3084 2163 3084 
Q 1697 3084 1428 2787 
Q 1159 2491 1159 1978 
L 1159 0 
L 581 0 
L 581 3500 
L 1159 3500 
L 1159 2956 
Q 1366 3272 1645 3428 
Q 1925 3584 2291 3584 
Q 2894 3584 3203 3211 
Q 3513 2838 3513 2113 
z
" transform="scale(0.015625)"/>
     </defs>
     <use xlink:href="#DejaVuSans-43"/>
     <use xlink:href="#DejaVuSans-6f" x="69.824219"/>
     <use xlink:href="#DejaVuSans-6d" x="131.005859"/>
     <use xlink:href="#DejaVuSans-6d" x="228.417969"/>
     <use xlink:href="#DejaVuSans-6f" x="325.830078"/>
     <use xlink:href="#DejaVuSans-6e" x="387.011719"/>
     <use xlink:href="#DejaVuSans-20" x="450.390625"/>
     <use xlink:href="#DejaVuSans-77" x="482.177734"/>
     <use xlink:href="#DejaVuSans-6f" x="563.964844"/>
     <use xlink:href="#DejaVuSans-72" x="625.146484"/>
     <use xlink:href="#DejaVuSans-6b" x="666.259766"/>
     <use xlink:href="#DejaVuSans-65" x="720.544922"/>
     <use xlink:href="#DejaVuSans-72" x="782.068359"/>
    </g>
   </g>
  </g>
  <g id="axes_3">
   <g id="patch_62">
    <path d="M 344.894792 169.73575 
L 489.421875 169.73575 
L 489.421875 25.208667 
L 344.894792 25.208667 
z
" style="fill: #ffffff"/>
   </g>
   <g id="matplotlib.axis_5">
    <g id="xtick_11">
     <g id="line2d_21">
      <path d="M 368.982639 169.73575 
L 368.982639 25.208667 
" clip-path="url(#pe81a17fae3)" style="fill: none; stroke: #cccccc; stroke-width: 0.8; stroke-linecap: round"/>
     </g>
     <g id="text_21">
      <!-- 0 -->
      <g style="fill: #262626" transform="translate(371.742014 183.09825) rotate(-90) scale(0.1 -0.1)">
       <use xlink:href="#DejaVuSans-30"/>
      </g>
     </g>
    </g>
    <g id="xtick_12">
     <g id="line2d_22">
      <path d="M 393.070486 169.73575 
L 393.070486 25.208667 
" clip-path="url(#pe81a17fae3)" style="fill: none; stroke: #cccccc; stroke-width: 0.8; stroke-linecap: round"/>
     </g>
     <g id="text_22">
      <!-- 1 -->
      <g style="fill: #262626" transform="translate(395.829861 183.09825) rotate(-90) scale(0.1 -0.1)">
       <use xlink:href="#DejaVuSans-31"/>
      </g>
     </g>
    </g>
    <g id="xtick_13">
     <g id="line2d_23">
      <path d="M 417.158333 169.73575 
L 417.158333 25.208667 
" clip-path="url(#pe81a17fae3)" style="fill: none; stroke: #cccccc; stroke-width: 0.8; stroke-linecap: round"/>
     </g>
     <g id="text_23">
      <!-- 2 -->
      <g style="fill: #262626" transform="translate(419.917708 183.09825) rotate(-90) scale(0.1 -0.1)">
       <use xlink:href="#DejaVuSans-32"/>
      </g>
     </g>
    </g>
    <g id="xtick_14">
     <g id="line2d_24">
      <path d="M 441.246181 169.73575 
L 441.246181 25.208667 
" clip-path="url(#pe81a17fae3)" style="fill: none; stroke: #cccccc; stroke-width: 0.8; stroke-linecap: round"/>
     </g>
     <g id="text_24">
      <!-- 3 -->
      <g style="fill: #262626" transform="translate(444.005556 183.09825) rotate(-90) scale(0.1 -0.1)">
       <use xlink:href="#DejaVuSans-33"/>
      </g>
     </g>
    </g>
    <g id="xtick_15">
     <g id="line2d_25">
      <path d="M 465.334028 169.73575 
L 465.334028 25.208667 
" clip-path="url(#pe81a17fae3)" style="fill: none; stroke: #cccccc; stroke-width: 0.8; stroke-linecap: round"/>
     </g>
     <g id="text_25">
      <!-- 4 -->
      <g style="fill: #262626" transform="translate(468.093403 183.09825) rotate(-90) scale(0.1 -0.1)">
       <use xlink:href="#DejaVuSans-34"/>
      </g>
     </g>
    </g>
    <g id="text_26">
     <!-- Proposed label -->
     <g style="fill: #262626" transform="translate(380.457552 194.696688) scale(0.1 -0.1)">
      <use xlink:href="#DejaVuSans-50"/>
      <use xlink:href="#DejaVuSans-72" x="58.552734"/>
      <use xlink:href="#DejaVuSans-6f" x="97.416016"/>
      <use xlink:href="#DejaVuSans-70" x="158.597656"/>
      <use xlink:href="#DejaVuSans-6f" x="222.074219"/>
      <use xlink:href="#DejaVuSans-73" x="283.255859"/>
      <use xlink:href="#DejaVuSans-65" x="335.355469"/>
      <use xlink:href="#DejaVuSans-64" x="396.878906"/>
      <use xlink:href="#DejaVuSans-20" x="460.355469"/>
      <use xlink:href="#DejaVuSans-6c" x="492.142578"/>
      <use xlink:href="#DejaVuSans-61" x="519.925781"/>
      <use xlink:href="#DejaVuSans-62" x="581.205078"/>
      <use xlink:href="#DejaVuSans-65" x="644.681641"/>
      <use xlink:href="#DejaVuSans-6c" x="706.205078"/>
     </g>
    </g>
   </g>
   <g id="matplotlib.axis_6">
    <g id="ytick_11">
     <g id="line2d_26">
      <path d="M 344.894792 49.296514 
L 489.421875 49.296514 
" clip-path="url(#pe81a17fae3)" style="fill: none; stroke: #cccccc; stroke-width: 0.8; stroke-linecap: round"/>
     </g>
    </g>
    <g id="ytick_12">
     <g id="line2d_27">
      <path d="M 344.894792 73.384361 
L 489.421875 73.384361 
" clip-path="url(#pe81a17fae3)" style="fill: none; stroke: #cccccc; stroke-width: 0.8; stroke-linecap: round"/>
     </g>
    </g>
    <g id="ytick_13">
     <g id="line2d_28">
      <path d="M 344.894792 97.472208 
L 489.421875 97.472208 
" clip-path="url(#pe81a17fae3)" style="fill: none; stroke: #cccccc; stroke-width: 0.8; stroke-linecap: round"/>
     </g>
    </g>
    <g id="ytick_14">
     <g id="line2d_29">
      <path d="M 344.894792 121.560056 
L 489.421875 121.560056 
" clip-path="url(#pe81a17fae3)" style="fill: none; stroke: #cccccc; stroke-width: 0.8; stroke-linecap: round"/>
     </g>
    </g>
    <g id="ytick_15">
     <g id="line2d_30">
      <path d="M 344.894792 145.647903 
L 489.421875 145.647903 
" clip-path="url(#pe81a17fae3)" style="fill: none; stroke: #cccccc; stroke-width: 0.8; stroke-linecap: round"/>
     </g>
    </g>
   </g>
   <g id="patch_63">
    <path d="M 357.512235 37.82611 
L 381.600083 37.82611 
L 381.600083 61.913958 
L 357.512235 61.913958 
z
" clip-path="url(#pe81a17fae3)" style="fill: #08306b; stroke: #000000; stroke-linejoin: miter"/>
   </g>
   <g id="patch_64">
    <path d="M 393.069339 49.295367 
L 393.071748 49.295367 
L 393.071748 49.297776 
L 393.069339 49.297776 
z
" clip-path="url(#pe81a17fae3)" style="fill: #f7fbff; stroke: #000000; stroke-linejoin: miter"/>
   </g>
   <g id="patch_65">
    <path d="M 417.157186 49.295367 
L 417.159595 49.295367 
L 417.159595 49.297776 
L 417.157186 49.297776 
z
" clip-path="url(#pe81a17fae3)" style="fill: #f7fbff; stroke: #000000; stroke-linejoin: miter"/>
   </g>
   <g id="patch_66">
    <path d="M 441.245034 49.295367 
L 441.247442 49.295367 
L 441.247442 49.297776 
L 441.245034 49.297776 
z
" clip-path="url(#pe81a17fae3)" style="fill: #f7fbff; stroke: #000000; stroke-linejoin: miter"/>
   </g>
   <g id="patch_67">
    <path d="M 465.332881 49.295367 
L 465.33529 49.295367 
L 465.33529 49.297776 
L 465.332881 49.297776 
z
" clip-path="url(#pe81a17fae3)" style="fill: #f7fbff; stroke: #000000; stroke-linejoin: miter"/>
   </g>
   <g id="patch_68">
    <path d="M 368.981492 73.383214 
L 368.983901 73.383214 
L 368.983901 73.385623 
L 368.981492 73.385623 
z
" clip-path="url(#pe81a17fae3)" style="fill: #f7fbff; stroke: #000000; stroke-linejoin: miter"/>
   </g>
   <g id="patch_69">
    <path d="M 381.600083 61.913958 
L 405.68793 61.913958 
L 405.68793 86.001805 
L 381.600083 86.001805 
z
" clip-path="url(#pe81a17fae3)" style="fill: #08306b; stroke: #000000; stroke-linejoin: miter"/>
   </g>
   <g id="patch_70">
    <path d="M 417.157186 73.383214 
L 417.159595 73.383214 
L 417.159595 73.385623 
L 417.157186 73.385623 
z
" clip-path="url(#pe81a17fae3)" style="fill: #f7fbff; stroke: #000000; stroke-linejoin: miter"/>
   </g>
   <g id="patch_71">
    <path d="M 441.245034 73.383214 
L 441.247442 73.383214 
L 441.247442 73.385623 
L 441.245034 73.385623 
z
" clip-path="url(#pe81a17fae3)" style="fill: #f7fbff; stroke: #000000; stroke-linejoin: miter"/>
   </g>
   <g id="patch_72">
    <path d="M 465.332881 73.383214 
L 465.33529 73.383214 
L 465.33529 73.385623 
L 465.332881 73.385623 
z
" clip-path="url(#pe81a17fae3)" style="fill: #f7fbff; stroke: #000000; stroke-linejoin: miter"/>
   </g>
   <g id="patch_73">
    <path d="M 368.981492 97.471061 
L 368.983901 97.471061 
L 368.983901 97.47347 
L 368.981492 97.47347 
z
" clip-path="url(#pe81a17fae3)" style="fill: #f7fbff; stroke: #000000; stroke-linejoin: miter"/>
   </g>
   <g id="patch_74">
    <path d="M 393.069339 97.471061 
L 393.071748 97.471061 
L 393.071748 97.47347 
L 393.069339 97.47347 
z
" clip-path="url(#pe81a17fae3)" style="fill: #f7fbff; stroke: #000000; stroke-linejoin: miter"/>
   </g>
   <g id="patch_75">
    <path d="M 405.68793 86.001805 
L 429.775777 86.001805 
L 429.775777 110.089652 
L 405.68793 110.089652 
z
" clip-path="url(#pe81a17fae3)" style="fill: #08306b; stroke: #000000; stroke-linejoin: miter"/>
   </g>
   <g id="patch_76">
    <path d="M 441.245034 97.471061 
L 441.247442 97.471061 
L 441.247442 97.47347 
L 441.245034 97.47347 
z
" clip-path="url(#pe81a17fae3)" style="fill: #f7fbff; stroke: #000000; stroke-linejoin: miter"/>
   </g>
   <g id="patch_77">
    <path d="M 465.332881 97.471061 
L 465.33529 97.471061 
L 465.33529 97.47347 
L 465.332881 97.47347 
z
" clip-path="url(#pe81a17fae3)" style="fill: #f7fbff; stroke: #000000; stroke-linejoin: miter"/>
   </g>
   <g id="patch_78">
    <path d="M 368.981492 121.558909 
L 368.983901 121.558909 
L 368.983901 121.561317 
L 368.981492 121.561317 
z
" clip-path="url(#pe81a17fae3)" style="fill: #f7fbff; stroke: #000000; stroke-linejoin: miter"/>
   </g>
   <g id="patch_79">
    <path d="M 393.069339 121.558909 
L 393.071748 121.558909 
L 393.071748 121.561317 
L 393.069339 121.561317 
z
" clip-path="url(#pe81a17fae3)" style="fill: #f7fbff; stroke: #000000; stroke-linejoin: miter"/>
   </g>
   <g id="patch_80">
    <path d="M 417.157186 121.558909 
L 417.159595 121.558909 
L 417.159595 121.561317 
L 417.157186 121.561317 
z
" clip-path="url(#pe81a17fae3)" style="fill: #f7fbff; stroke: #000000; stroke-linejoin: miter"/>
   </g>
   <g id="patch_81">
    <path d="M 429.775777 110.089652 
L 453.863624 110.089652 
L 453.863624 134.177499 
L 429.775777 134.177499 
z
" clip-path="url(#pe81a17fae3)" style="fill: #08306b; stroke: #000000; stroke-linejoin: miter"/>
   </g>
   <g id="patch_82">
    <path d="M 465.332881 121.558909 
L 465.33529 121.558909 
L 465.33529 121.561317 
L 465.332881 121.561317 
z
" clip-path="url(#pe81a17fae3)" style="fill: #f7fbff; stroke: #000000; stroke-linejoin: miter"/>
   </g>
   <g id="patch_83">
    <path d="M 368.981492 145.646756 
L 368.983901 145.646756 
L 368.983901 145.649165 
L 368.981492 145.649165 
z
" clip-path="url(#pe81a17fae3)" style="fill: #f7fbff; stroke: #000000; stroke-linejoin: miter"/>
   </g>
   <g id="patch_84">
    <path d="M 393.069339 145.646756 
L 393.071748 145.646756 
L 393.071748 145.649165 
L 393.069339 145.649165 
z
" clip-path="url(#pe81a17fae3)" style="fill: #f7fbff; stroke: #000000; stroke-linejoin: miter"/>
   </g>
   <g id="patch_85">
    <path d="M 417.157186 145.646756 
L 417.159595 145.646756 
L 417.159595 145.649165 
L 417.157186 145.649165 
z
" clip-path="url(#pe81a17fae3)" style="fill: #f7fbff; stroke: #000000; stroke-linejoin: miter"/>
   </g>
   <g id="patch_86">
    <path d="M 441.245034 145.646756 
L 441.247442 145.646756 
L 441.247442 145.649165 
L 441.245034 145.649165 
z
" clip-path="url(#pe81a17fae3)" style="fill: #f7fbff; stroke: #000000; stroke-linejoin: miter"/>
   </g>
   <g id="patch_87">
    <path d="M 453.863624 134.177499 
L 477.951472 134.177499 
L 477.951472 158.265347 
L 453.863624 158.265347 
z
" clip-path="url(#pe81a17fae3)" style="fill: #08306b; stroke: #000000; stroke-linejoin: miter"/>
   </g>
   <g id="patch_88">
    <path d="M 344.894792 169.73575 
L 344.894792 25.208667 
" style="fill: none; stroke: #cccccc; stroke-width: 0.8; stroke-linejoin: miter; stroke-linecap: square"/>
   </g>
   <g id="patch_89">
    <path d="M 489.421875 169.73575 
L 489.421875 25.208667 
" style="fill: none; stroke: #cccccc; stroke-width: 0.8; stroke-linejoin: miter; stroke-linecap: square"/>
   </g>
   <g id="patch_90">
    <path d="M 344.894792 169.73575 
L 489.421875 169.73575 
" style="fill: none; stroke: #cccccc; stroke-width: 0.8; stroke-linejoin: miter; stroke-linecap: square"/>
   </g>
   <g id="patch_91">
    <path d="M 344.894792 25.208667 
L 489.421875 25.208667 
" style="fill: none; stroke: #cccccc; stroke-width: 0.8; stroke-linejoin: miter; stroke-linecap: square"/>
   </g>
   <g id="text_27">
    <!-- Expert worker -->
    <g style="fill: #262626" transform="translate(375.129271 16.318125) scale(0.12 -0.12)">
     <defs>
      <path id="DejaVuSans-78" d="M 3513 3500 
L 2247 1797 
L 3578 0 
L 2900 0 
L 1881 1375 
L 863 0 
L 184 0 
L 1544 1831 
L 300 3500 
L 978 3500 
L 1906 2253 
L 2834 3500 
L 3513 3500 
z
" transform="scale(0.015625)"/>
     </defs>
     <use xlink:href="#DejaVuSans-45"/>
     <use xlink:href="#DejaVuSans-78" x="63.183594"/>
     <use xlink:href="#DejaVuSans-70" x="122.363281"/>
     <use xlink:href="#DejaVuSans-65" x="185.839844"/>
     <use xlink:href="#DejaVuSans-72" x="247.363281"/>
     <use xlink:href="#DejaVuSans-74" x="288.476562"/>
     <use xlink:href="#DejaVuSans-20" x="327.685547"/>
     <use xlink:href="#DejaVuSans-77" x="359.472656"/>
     <use xlink:href="#DejaVuSans-6f" x="441.259766"/>
     <use xlink:href="#DejaVuSans-72" x="502.441406"/>
     <use xlink:href="#DejaVuSans-6b" x="543.554688"/>
     <use xlink:href="#DejaVuSans-65" x="597.839844"/>
     <use xlink:href="#DejaVuSans-72" x="659.363281"/>
    </g>
   </g>
  </g>
 </g>
 <defs>
  <clipPath id="pc54b3cb942">
   <rect x="34.240625" y="25.208667" width="144.527083" height="144.527083"/>
  </clipPath>
  <clipPath id="p83e72fc9b5">
   <rect x="189.567708" y="25.208667" width="144.527083" height="144.527083"/>
  </clipPath>
  <clipPath id="pe81a17fae3">
   <rect x="344.894792" y="25.208667" width="144.527083" height="144.527083"/>
  </clipPath>
 </defs>
</svg>
