<?xml version="1.0" encoding="utf-8" standalone="no"?>
<!DOCTYPE svg PUBLIC "-//W3C//DTD SVG 1.1//EN"
  "http://www.w3.org/Graphics/SVG/1.1/DTD/svg11.dtd">
<svg xmlns:xlink="http://www.w3.org/1999/xlink" width="533.3875pt" height="533.734375pt" viewBox="0 0 533.3875 533.734375" xmlns="http://www.w3.org/2000/svg" version="1.1">
 <metadata>
  <rdf:RDF xmlns:dc="http://purl.org/dc/elements/1.1/" xmlns:cc="http://creativecommons.org/ns#" xmlns:rdf="http://www.w3.org/1999/02/22-rdf-syntax-ns#">
   <cc:Work>
    <dc:type rdf:resource="http://purl.org/dc/dcmitype/StillImage"/>
    <dc:date>2023-04-12T08:15:36.516984</dc:date>
    <dc:format>image/svg+xml</dc:format>
    <dc:creator>
     <cc:Agent>
      <dc:title>Matplotlib v3.7.1, https://matplotlib.org/</dc:title>
     </cc:Agent>
    </dc:creator>
   </cc:Work>
  </rdf:RDF>
 </metadata>
 <defs>
  <style type="text/css">*{stroke-linejoin: round; stroke-linecap: butt}</style>
 </defs>
 <g id="figure_1">
  <g id="patch_1">
   <path d="M 0 533.734375 
L 533.3875 533.734375 
L 533.3875 0 
L 0 0 
z
" style="fill: #ffffff"/>
  </g>
  <g id="axes_1">
   <g id="patch_2">
    <path d="M 50.14375 166.766667 
L 205.491667 166.766667 
L 205.491667 7.2 
L 50.14375 7.2 
z
" style="fill: #ffffff"/>
   </g>
   <g id="matplotlib.axis_1">
    <g id="xtick_1">
     <g id="line2d_1">
      <path d="M 90.6969 166.766667 
L 90.6969 7.2 
" clip-path="url(#p0fc6134249)" style="fill: none; stroke: #cccccc; stroke-width: 0.8; stroke-linecap: round"/>
     </g>
    </g>
    <g id="xtick_2">
     <g id="line2d_2">
      <path d="M 139.506844 166.766667 
L 139.506844 7.2 
" clip-path="url(#p0fc6134249)" style="fill: none; stroke: #cccccc; stroke-width: 0.8; stroke-linecap: round"/>
     </g>
    </g>
    <g id="xtick_3">
     <g id="line2d_3">
      <path d="M 188.316788 166.766667 
L 188.316788 7.2 
" clip-path="url(#p0fc6134249)" style="fill: none; stroke: #cccccc; stroke-width: 0.8; stroke-linecap: round"/>
     </g>
    </g>
   </g>
   <g id="patch_3">
    <path d="M 50.14375 166.766667 
L 205.491667 166.766667 
" style="fill: none; stroke: #cccccc; stroke-width: 0.8; stroke-linejoin: miter; stroke-linecap: square"/>
   </g>
  </g>
  <g id="axes_2">
   <g id="patch_4">
    <path d="M 50.14375 331.333333 
L 205.491667 331.333333 
L 205.491667 171.766667 
L 50.14375 171.766667 
z
" style="fill: #ffffff"/>
   </g>
   <g id="matplotlib.axis_2">
    <g id="xtick_4">
     <g id="line2d_4">
      <path d="M 90.6969 331.333333 
L 90.6969 171.766667 
" clip-path="url(#pdb674c745c)" style="fill: none; stroke: #cccccc; stroke-width: 0.8; stroke-linecap: round"/>
     </g>
    </g>
    <g id="xtick_5">
     <g id="line2d_5">
      <path d="M 139.506844 331.333333 
L 139.506844 171.766667 
" clip-path="url(#pdb674c745c)" style="fill: none; stroke: #cccccc; stroke-width: 0.8; stroke-linecap: round"/>
     </g>
    </g>
    <g id="xtick_6">
     <g id="line2d_6">
      <path d="M 188.316788 331.333333 
L 188.316788 171.766667 
" clip-path="url(#pdb674c745c)" style="fill: none; stroke: #cccccc; stroke-width: 0.8; stroke-linecap: round"/>
     </g>
    </g>
   </g>
   <g id="matplotlib.axis_3">
    <g id="ytick_1">
     <g id="line2d_7">
      <path d="M 50.14375 324.080303 
L 205.491667 324.080303 
" clip-path="url(#pdb674c745c)" style="fill: none; stroke: #cccccc; stroke-width: 0.8; stroke-linecap: round"/>
     </g>
     <g id="text_1">
      <!-- 0.0 -->
      <g style="fill: #262626" transform="translate(27.240625 327.879522) scale(0.1 -0.1)">
       <defs>
        <path id="DejaVuSans-30" d="M 2034 4250 
Q 1547 4250 1301 3770 
Q 1056 3291 1056 2328 
Q 1056 1369 1301 889 
Q 1547 409 2034 409 
Q 2525 409 2770 889 
Q 3016 1369 3016 2328 
Q 3016 3291 2770 3770 
Q 2525 4250 2034 4250 
z
M 2034 4750 
Q 2819 4750 3233 4129 
Q 3647 3509 3647 2328 
Q 3647 1150 3233 529 
Q 2819 -91 2034 -91 
Q 1250 -91 836 529 
Q 422 1150 422 2328 
Q 422 3509 836 4129 
Q 1250 4750 2034 4750 
z
" transform="scale(0.015625)"/>
        <path id="DejaVuSans-2e" d="M 684 794 
L 1344 794 
L 1344 0 
L 684 0 
L 684 794 
z
" transform="scale(0.015625)"/>
       </defs>
       <use xlink:href="#DejaVuSans-30"/>
       <use xlink:href="#DejaVuSans-2e" x="63.623047"/>
       <use xlink:href="#DejaVuSans-30" x="95.410156"/>
      </g>
     </g>
    </g>
    <g id="ytick_2">
     <g id="line2d_8">
      <path d="M 50.14375 284.800247 
L 205.491667 284.800247 
" clip-path="url(#pdb674c745c)" style="fill: none; stroke: #cccccc; stroke-width: 0.8; stroke-linecap: round"/>
     </g>
     <g id="text_2">
      <!-- 0.2 -->
      <g style="fill: #262626" transform="translate(27.240625 288.599466) scale(0.1 -0.1)">
       <defs>
        <path id="DejaVuSans-32" d="M 1228 531 
L 3431 531 
L 3431 0 
L 469 0 
L 469 531 
Q 828 903 1448 1529 
Q 2069 2156 2228 2338 
Q 2531 2678 2651 2914 
Q 2772 3150 2772 3378 
Q 2772 3750 2511 3984 
Q 2250 4219 1831 4219 
Q 1534 4219 1204 4116 
Q 875 4013 500 3803 
L 500 4441 
Q 881 4594 1212 4672 
Q 1544 4750 1819 4750 
Q 2544 4750 2975 4387 
Q 3406 4025 3406 3419 
Q 3406 3131 3298 2873 
Q 3191 2616 2906 2266 
Q 2828 2175 2409 1742 
Q 1991 1309 1228 531 
z
" transform="scale(0.015625)"/>
       </defs>
       <use xlink:href="#DejaVuSans-30"/>
       <use xlink:href="#DejaVuSans-2e" x="63.623047"/>
       <use xlink:href="#DejaVuSans-32" x="95.410156"/>
      </g>
     </g>
    </g>
    <g id="ytick_3">
     <g id="line2d_9">
      <path d="M 50.14375 245.520191 
L 205.491667 245.520191 
" clip-path="url(#pdb674c745c)" style="fill: none; stroke: #cccccc; stroke-width: 0.8; stroke-linecap: round"/>
     </g>
     <g id="text_3">
      <!-- 0.4 -->
      <g style="fill: #262626" transform="translate(27.240625 249.319409) scale(0.1 -0.1)">
       <defs>
        <path id="DejaVuSans-34" d="M 2419 4116 
L 825 1625 
L 2419 1625 
L 2419 4116 
z
M 2253 4666 
L 3047 4666 
L 3047 1625 
L 3713 1625 
L 3713 1100 
L 3047 1100 
L 3047 0 
L 2419 0 
L 2419 1100 
L 313 1100 
L 313 1709 
L 2253 4666 
z
" transform="scale(0.015625)"/>
       </defs>
       <use xlink:href="#DejaVuSans-30"/>
       <use xlink:href="#DejaVuSans-2e" x="63.623047"/>
       <use xlink:href="#DejaVuSans-34" x="95.410156"/>
      </g>
     </g>
    </g>
    <g id="ytick_4">
     <g id="line2d_10">
      <path d="M 50.14375 206.240135 
L 205.491667 206.240135 
" clip-path="url(#pdb674c745c)" style="fill: none; stroke: #cccccc; stroke-width: 0.8; stroke-linecap: round"/>
     </g>
     <g id="text_4">
      <!-- 0.6 -->
      <g style="fill: #262626" transform="translate(27.240625 210.039353) scale(0.1 -0.1)">
       <defs>
        <path id="DejaVuSans-36" d="M 2113 2584 
Q 1688 2584 1439 2293 
Q 1191 2003 1191 1497 
Q 1191 994 1439 701 
Q 1688 409 2113 409 
Q 2538 409 2786 701 
Q 3034 994 3034 1497 
Q 3034 2003 2786 2293 
Q 2538 2584 2113 2584 
z
M 3366 4563 
L 3366 3988 
Q 3128 4100 2886 4159 
Q 2644 4219 2406 4219 
Q 1781 4219 1451 3797 
Q 1122 3375 1075 2522 
Q 1259 2794 1537 2939 
Q 1816 3084 2150 3084 
Q 2853 3084 3261 2657 
Q 3669 2231 3669 1497 
Q 3669 778 3244 343 
Q 2819 -91 2113 -91 
Q 1303 -91 875 529 
Q 447 1150 447 2328 
Q 447 3434 972 4092 
Q 1497 4750 2381 4750 
Q 2619 4750 2861 4703 
Q 3103 4656 3366 4563 
z
" transform="scale(0.015625)"/>
       </defs>
       <use xlink:href="#DejaVuSans-30"/>
       <use xlink:href="#DejaVuSans-2e" x="63.623047"/>
       <use xlink:href="#DejaVuSans-36" x="95.410156"/>
      </g>
     </g>
    </g>
    <g id="text_5">
     <!-- spam_score -->
     <g style="fill: #262626" transform="translate(20.882812 281.196094) rotate(-90) scale(0.1 -0.1)">
      <defs>
       <path id="DejaVuSans-73" d="M 2834 3397 
L 2834 2853 
Q 2591 2978 2328 3040 
Q 2066 3103 1784 3103 
Q 1356 3103 1142 2972 
Q 928 2841 928 2578 
Q 928 2378 1081 2264 
Q 1234 2150 1697 2047 
L 1894 2003 
Q 2506 1872 2764 1633 
Q 3022 1394 3022 966 
Q 3022 478 2636 193 
Q 2250 -91 1575 -91 
Q 1294 -91 989 -36 
Q 684 19 347 128 
L 347 722 
Q 666 556 975 473 
Q 1284 391 1588 391 
Q 1994 391 2212 530 
Q 2431 669 2431 922 
Q 2431 1156 2273 1281 
Q 2116 1406 1581 1522 
L 1381 1569 
Q 847 1681 609 1914 
Q 372 2147 372 2553 
Q 372 3047 722 3315 
Q 1072 3584 1716 3584 
Q 2034 3584 2315 3537 
Q 2597 3491 2834 3397 
z
" transform="scale(0.015625)"/>
       <path id="DejaVuSans-70" d="M 1159 525 
L 1159 -1331 
L 581 -1331 
L 581 3500 
L 1159 3500 
L 1159 2969 
Q 1341 3281 1617 3432 
Q 1894 3584 2278 3584 
Q 2916 3584 3314 3078 
Q 3713 2572 3713 1747 
Q 3713 922 3314 415 
Q 2916 -91 2278 -91 
Q 1894 -91 1617 61 
Q 1341 213 1159 525 
z
M 3116 1747 
Q 3116 2381 2855 2742 
Q 2594 3103 2138 3103 
Q 1681 3103 1420 2742 
Q 1159 2381 1159 1747 
Q 1159 1113 1420 752 
Q 1681 391 2138 391 
Q 2594 391 2855 752 
Q 3116 1113 3116 1747 
z
" transform="scale(0.015625)"/>
       <path id="DejaVuSans-61" d="M 2194 1759 
Q 1497 1759 1228 1600 
Q 959 1441 959 1056 
Q 959 750 1161 570 
Q 1363 391 1709 391 
Q 2188 391 2477 730 
Q 2766 1069 2766 1631 
L 2766 1759 
L 2194 1759 
z
M 3341 1997 
L 3341 0 
L 2766 0 
L 2766 531 
Q 2569 213 2275 61 
Q 1981 -91 1556 -91 
Q 1019 -91 701 211 
Q 384 513 384 1019 
Q 384 1609 779 1909 
Q 1175 2209 1959 2209 
L 2766 2209 
L 2766 2266 
Q 2766 2663 2505 2880 
Q 2244 3097 1772 3097 
Q 1472 3097 1187 3025 
Q 903 2953 641 2809 
L 641 3341 
Q 956 3463 1253 3523 
Q 1550 3584 1831 3584 
Q 2591 3584 2966 3190 
Q 3341 2797 3341 1997 
z
" transform="scale(0.015625)"/>
       <path id="DejaVuSans-6d" d="M 3328 2828 
Q 3544 3216 3844 3400 
Q 4144 3584 4550 3584 
Q 5097 3584 5394 3201 
Q 5691 2819 5691 2113 
L 5691 0 
L 5113 0 
L 5113 2094 
Q 5113 2597 4934 2840 
Q 4756 3084 4391 3084 
Q 3944 3084 3684 2787 
Q 3425 2491 3425 1978 
L 3425 0 
L 2847 0 
L 2847 2094 
Q 2847 2600 2669 2842 
Q 2491 3084 2119 3084 
Q 1678 3084 1418 2786 
Q 1159 2488 1159 1978 
L 1159 0 
L 581 0 
L 581 3500 
L 1159 3500 
L 1159 2956 
Q 1356 3278 1631 3431 
Q 1906 3584 2284 3584 
Q 2666 3584 2933 3390 
Q 3200 3197 3328 2828 
z
" transform="scale(0.015625)"/>
       <path id="DejaVuSans-5f" d="M 3263 -1063 
L 3263 -1509 
L -63 -1509 
L -63 -1063 
L 3263 -1063 
z
" transform="scale(0.015625)"/>
       <path id="DejaVuSans-63" d="M 3122 3366 
L 3122 2828 
Q 2878 2963 2633 3030 
Q 2388 3097 2138 3097 
Q 1578 3097 1268 2742 
Q 959 2388 959 1747 
Q 959 1106 1268 751 
Q 1578 397 2138 397 
Q 2388 397 2633 464 
Q 2878 531 3122 666 
L 3122 134 
Q 2881 22 2623 -34 
Q 2366 -91 2075 -91 
Q 1284 -91 818 406 
Q 353 903 353 1747 
Q 353 2603 823 3093 
Q 1294 3584 2113 3584 
Q 2378 3584 2631 3529 
Q 2884 3475 3122 3366 
z
" transform="scale(0.015625)"/>
       <path id="DejaVuSans-6f" d="M 1959 3097 
Q 1497 3097 1228 2736 
Q 959 2375 959 1747 
Q 959 1119 1226 758 
Q 1494 397 1959 397 
Q 2419 397 2687 759 
Q 2956 1122 2956 1747 
Q 2956 2369 2687 2733 
Q 2419 3097 1959 3097 
z
M 1959 3584 
Q 2709 3584 3137 3096 
Q 3566 2609 3566 1747 
Q 3566 888 3137 398 
Q 2709 -91 1959 -91 
Q 1206 -91 779 398 
Q 353 888 353 1747 
Q 353 2609 779 3096 
Q 1206 3584 1959 3584 
z
" transform="scale(0.015625)"/>
       <path id="DejaVuSans-72" d="M 2631 2963 
Q 2534 3019 2420 3045 
Q 2306 3072 2169 3072 
Q 1681 3072 1420 2755 
Q 1159 2438 1159 1844 
L 1159 0 
L 581 0 
L 581 3500 
L 1159 3500 
L 1159 2956 
Q 1341 3275 1631 3429 
Q 1922 3584 2338 3584 
Q 2397 3584 2469 3576 
Q 2541 3569 2628 3553 
L 2631 2963 
z
" transform="scale(0.015625)"/>
       <path id="DejaVuSans-65" d="M 3597 1894 
L 3597 1613 
L 953 1613 
Q 991 1019 1311 708 
Q 1631 397 2203 397 
Q 2534 397 2845 478 
Q 3156 559 3463 722 
L 3463 178 
Q 3153 47 2828 -22 
Q 2503 -91 2169 -91 
Q 1331 -91 842 396 
Q 353 884 353 1716 
Q 353 2575 817 3079 
Q 1281 3584 2069 3584 
Q 2775 3584 3186 3129 
Q 3597 2675 3597 1894 
z
M 3022 2063 
Q 3016 2534 2758 2815 
Q 2500 3097 2075 3097 
Q 1594 3097 1305 2825 
Q 1016 2553 972 2059 
L 3022 2063 
z
" transform="scale(0.015625)"/>
      </defs>
      <use xlink:href="#DejaVuSans-73"/>
      <use xlink:href="#DejaVuSans-70" x="52.099609"/>
      <use xlink:href="#DejaVuSans-61" x="115.576172"/>
      <use xlink:href="#DejaVuSans-6d" x="176.855469"/>
      <use xlink:href="#DejaVuSans-5f" x="274.267578"/>
      <use xlink:href="#DejaVuSans-73" x="324.267578"/>
      <use xlink:href="#DejaVuSans-63" x="376.367188"/>
      <use xlink:href="#DejaVuSans-6f" x="431.347656"/>
      <use xlink:href="#DejaVuSans-72" x="492.529297"/>
      <use xlink:href="#DejaVuSans-65" x="531.392578"/>
     </g>
    </g>
   </g>
   <g id="PathCollection_1">
    <defs>
     <path id="me9b8d3df5c" d="M 0 3 
C 0.795609 3 1.55874 2.683901 2.12132 2.12132 
C 2.683901 1.55874 3 0.795609 3 0 
C 3 -0.795609 2.683901 -1.55874 2.12132 -2.12132 
C 1.55874 -2.683901 0.795609 -3 0 -3 
C -0.795609 -3 -1.55874 -2.683901 -2.12132 -2.12132 
C -2.683901 -1.55874 -3 -0.795609 -3 0 
C -3 0.795609 -2.683901 1.55874 -2.12132 2.12132 
C -1.55874 2.683901 -0.795609 3 0 3 
z
" style="stroke: #ffffff; stroke-width: 0.48"/>
    </defs>
    <g clip-path="url(#pdb674c745c)">
     <use xlink:href="#me9b8d3df5c" x="90.6969" y="324.080303" style="fill: #1f77b4; stroke: #ffffff; stroke-width: 0.48"/>
     <use xlink:href="#me9b8d3df5c" x="163.843199" y="184.559743" style="fill: #1f77b4; stroke: #ffffff; stroke-width: 0.48"/>
     <use xlink:href="#me9b8d3df5c" x="90.6969" y="324.080303" style="fill: #1f77b4; stroke: #ffffff; stroke-width: 0.48"/>
     <use xlink:href="#me9b8d3df5c" x="129.743547" y="202.961286" style="fill: #1f77b4; stroke: #ffffff; stroke-width: 0.48"/>
     <use xlink:href="#me9b8d3df5c" x="153.696323" y="214.68569" style="fill: #1f77b4; stroke: #ffffff; stroke-width: 0.48"/>
     <use xlink:href="#me9b8d3df5c" x="147.297095" y="207.207061" style="fill: #1f77b4; stroke: #ffffff; stroke-width: 0.48"/>
     <use xlink:href="#me9b8d3df5c" x="164.938516" y="181.291788" style="fill: #1f77b4; stroke: #ffffff; stroke-width: 0.48"/>
     <use xlink:href="#me9b8d3df5c" x="153.661056" y="206.506243" style="fill: #1f77b4; stroke: #ffffff; stroke-width: 0.48"/>
     <use xlink:href="#me9b8d3df5c" x="160.379915" y="197.49388" style="fill: #1f77b4; stroke: #ffffff; stroke-width: 0.48"/>
     <use xlink:href="#me9b8d3df5c" x="150.831411" y="200.43734" style="fill: #1f77b4; stroke: #ffffff; stroke-width: 0.48"/>
     <use xlink:href="#me9b8d3df5c" x="159.222592" y="199.629363" style="fill: #1f77b4; stroke: #ffffff; stroke-width: 0.48"/>
     <use xlink:href="#me9b8d3df5c" x="151.694748" y="215.506018" style="fill: #1f77b4; stroke: #ffffff; stroke-width: 0.48"/>
     <use xlink:href="#me9b8d3df5c" x="156.853582" y="206.894884" style="fill: #1f77b4; stroke: #ffffff; stroke-width: 0.48"/>
     <use xlink:href="#me9b8d3df5c" x="148.642234" y="220.37459" style="fill: #1f77b4; stroke: #ffffff; stroke-width: 0.48"/>
     <use xlink:href="#me9b8d3df5c" x="150.310818" y="198.575769" style="fill: #1f77b4; stroke: #ffffff; stroke-width: 0.48"/>
     <use xlink:href="#me9b8d3df5c" x="155.560174" y="189.554954" style="fill: #1f77b4; stroke: #ffffff; stroke-width: 0.48"/>
     <use xlink:href="#me9b8d3df5c" x="155.634011" y="187.717639" style="fill: #1f77b4; stroke: #ffffff; stroke-width: 0.48"/>
     <use xlink:href="#me9b8d3df5c" x="157.076914" y="193.902348" style="fill: #1f77b4; stroke: #ffffff; stroke-width: 0.48"/>
     <use xlink:href="#me9b8d3df5c" x="162.975887" y="179.019697" style="fill: #1f77b4; stroke: #ffffff; stroke-width: 0.48"/>
     <use xlink:href="#me9b8d3df5c" x="152.603394" y="208.443544" style="fill: #1f77b4; stroke: #ffffff; stroke-width: 0.48"/>
     <use xlink:href="#me9b8d3df5c" x="163.597671" y="187.696688" style="fill: #1f77b4; stroke: #ffffff; stroke-width: 0.48"/>
     <use xlink:href="#me9b8d3df5c" x="157.1647" y="202.083416" style="fill: #1f77b4; stroke: #ffffff; stroke-width: 0.48"/>
     <use xlink:href="#me9b8d3df5c" x="156.660354" y="206.428026" style="fill: #1f77b4; stroke: #ffffff; stroke-width: 0.48"/>
     <use xlink:href="#me9b8d3df5c" x="159.318757" y="198.699127" style="fill: #1f77b4; stroke: #ffffff; stroke-width: 0.48"/>
     <use xlink:href="#me9b8d3df5c" x="141.086932" y="218.83426" style="fill: #1f77b4; stroke: #ffffff; stroke-width: 0.48"/>
     <use xlink:href="#me9b8d3df5c" x="148.92722" y="201.641927" style="fill: #1f77b4; stroke: #ffffff; stroke-width: 0.48"/>
     <use xlink:href="#me9b8d3df5c" x="145.759801" y="207.638468" style="fill: #1f77b4; stroke: #ffffff; stroke-width: 0.48"/>
     <use xlink:href="#me9b8d3df5c" x="160.349259" y="197.436537" style="fill: #1f77b4; stroke: #ffffff; stroke-width: 0.48"/>
     <use xlink:href="#me9b8d3df5c" x="134.643834" y="237.874228" style="fill: #1f77b4; stroke: #ffffff; stroke-width: 0.48"/>
     <use xlink:href="#me9b8d3df5c" x="142.945079" y="220.547345" style="fill: #1f77b4; stroke: #ffffff; stroke-width: 0.48"/>
     <use xlink:href="#me9b8d3df5c" x="146.346997" y="215.330126" style="fill: #1f77b4; stroke: #ffffff; stroke-width: 0.48"/>
     <use xlink:href="#me9b8d3df5c" x="115.101873" y="259.704658" style="fill: #1f77b4; stroke: #ffffff; stroke-width: 0.48"/>
     <use xlink:href="#me9b8d3df5c" x="139.987021" y="219.232192" style="fill: #1f77b4; stroke: #ffffff; stroke-width: 0.48"/>
     <use xlink:href="#me9b8d3df5c" x="110.220878" y="210.604588" style="fill: #1f77b4; stroke: #ffffff; stroke-width: 0.48"/>
     <use xlink:href="#me9b8d3df5c" x="153.280783" y="188.846334" style="fill: #1f77b4; stroke: #ffffff; stroke-width: 0.48"/>
     <use xlink:href="#me9b8d3df5c" x="151.408477" y="213.574052" style="fill: #1f77b4; stroke: #ffffff; stroke-width: 0.48"/>
     <use xlink:href="#me9b8d3df5c" x="163.552588" y="179.499298" style="fill: #1f77b4; stroke: #ffffff; stroke-width: 0.48"/>
     <use xlink:href="#me9b8d3df5c" x="151.475898" y="203.381146" style="fill: #1f77b4; stroke: #ffffff; stroke-width: 0.48"/>
     <use xlink:href="#me9b8d3df5c" x="149.268833" y="190.964557" style="fill: #1f77b4; stroke: #ffffff; stroke-width: 0.48"/>
     <use xlink:href="#me9b8d3df5c" x="150.491633" y="211.562918" style="fill: #1f77b4; stroke: #ffffff; stroke-width: 0.48"/>
     <use xlink:href="#me9b8d3df5c" x="159.358825" y="186.964897" style="fill: #1f77b4; stroke: #ffffff; stroke-width: 0.48"/>
     <use xlink:href="#me9b8d3df5c" x="144.547402" y="212.158657" style="fill: #1f77b4; stroke: #ffffff; stroke-width: 0.48"/>
     <use xlink:href="#me9b8d3df5c" x="154.402326" y="205.250548" style="fill: #1f77b4; stroke: #ffffff; stroke-width: 0.48"/>
     <use xlink:href="#me9b8d3df5c" x="148.12204" y="203.761659" style="fill: #1f77b4; stroke: #ffffff; stroke-width: 0.48"/>
     <use xlink:href="#me9b8d3df5c" x="137.103852" y="215.166904" style="fill: #1f77b4; stroke: #ffffff; stroke-width: 0.48"/>
     <use xlink:href="#me9b8d3df5c" x="109.877547" y="231.21039" style="fill: #1f77b4; stroke: #ffffff; stroke-width: 0.48"/>
     <use xlink:href="#me9b8d3df5c" x="151.891151" y="201.43705" style="fill: #1f77b4; stroke: #ffffff; stroke-width: 0.48"/>
     <use xlink:href="#me9b8d3df5c" x="144.016498" y="208.668536" style="fill: #1f77b4; stroke: #ffffff; stroke-width: 0.48"/>
     <use xlink:href="#me9b8d3df5c" x="142.442864" y="213.455948" style="fill: #1f77b4; stroke: #ffffff; stroke-width: 0.48"/>
     <use xlink:href="#me9b8d3df5c" x="90.6969" y="324.080303" style="fill: #1f77b4; stroke: #ffffff; stroke-width: 0.48"/>
     <use xlink:href="#me9b8d3df5c" x="139.506844" y="195.329008" style="fill: #1f77b4; stroke: #ffffff; stroke-width: 0.48"/>
     <use xlink:href="#me9b8d3df5c" x="129.744855" y="245.520191" style="fill: #1f77b4; stroke: #ffffff; stroke-width: 0.48"/>
     <use xlink:href="#me9b8d3df5c" x="139.506844" y="184.417881" style="fill: #1f77b4; stroke: #ffffff; stroke-width: 0.48"/>
     <use xlink:href="#me9b8d3df5c" x="119.982867" y="249.884641" style="fill: #1f77b4; stroke: #ffffff; stroke-width: 0.48"/>
     <use xlink:href="#me9b8d3df5c" x="139.506844" y="195.329008" style="fill: #1f77b4; stroke: #ffffff; stroke-width: 0.48"/>
     <use xlink:href="#me9b8d3df5c" x="110.220878" y="232.426839" style="fill: #1f77b4; stroke: #ffffff; stroke-width: 0.48"/>
     <use xlink:href="#me9b8d3df5c" x="90.6969" y="324.080303" style="fill: #1f77b4; stroke: #ffffff; stroke-width: 0.48"/>
     <use xlink:href="#me9b8d3df5c" x="90.6969" y="324.080303" style="fill: #1f77b4; stroke: #ffffff; stroke-width: 0.48"/>
     <use xlink:href="#me9b8d3df5c" x="119.982867" y="265.160219" style="fill: #1f77b4; stroke: #ffffff; stroke-width: 0.48"/>
     <use xlink:href="#me9b8d3df5c" x="124.863861" y="244.429078" style="fill: #1f77b4; stroke: #ffffff; stroke-width: 0.48"/>
     <use xlink:href="#me9b8d3df5c" x="115.118283" y="277.15501" style="fill: #1f77b4; stroke: #ffffff; stroke-width: 0.48"/>
     <use xlink:href="#me9b8d3df5c" x="119.982867" y="249.884641" style="fill: #1f77b4; stroke: #ffffff; stroke-width: 0.48"/>
     <use xlink:href="#me9b8d3df5c" x="90.6969" y="324.080303" style="fill: #1f77b4; stroke: #ffffff; stroke-width: 0.48"/>
     <use xlink:href="#me9b8d3df5c" x="119.982867" y="225.880163" style="fill: #1f77b4; stroke: #ffffff; stroke-width: 0.48"/>
     <use xlink:href="#me9b8d3df5c" x="90.6969" y="324.080303" style="fill: #1f77b4; stroke: #ffffff; stroke-width: 0.48"/>
     <use xlink:href="#me9b8d3df5c" x="90.6969" y="324.080303" style="fill: #1f77b4; stroke: #ffffff; stroke-width: 0.48"/>
     <use xlink:href="#me9b8d3df5c" x="90.6969" y="324.080303" style="fill: #1f77b4; stroke: #ffffff; stroke-width: 0.48"/>
     <use xlink:href="#me9b8d3df5c" x="110.220878" y="256.462547" style="fill: #1f77b4; stroke: #ffffff; stroke-width: 0.48"/>
     <use xlink:href="#me9b8d3df5c" x="90.6969" y="324.080303" style="fill: #1f77b4; stroke: #ffffff; stroke-width: 0.48"/>
     <use xlink:href="#me9b8d3df5c" x="90.6969" y="324.080303" style="fill: #1f77b4; stroke: #ffffff; stroke-width: 0.48"/>
     <use xlink:href="#me9b8d3df5c" x="90.6969" y="324.080303" style="fill: #1f77b4; stroke: #ffffff; stroke-width: 0.48"/>
     <use xlink:href="#me9b8d3df5c" x="90.6969" y="324.080303" style="fill: #1f77b4; stroke: #ffffff; stroke-width: 0.48"/>
     <use xlink:href="#me9b8d3df5c" x="90.6969" y="324.080303" style="fill: #1f77b4; stroke: #ffffff; stroke-width: 0.48"/>
     <use xlink:href="#me9b8d3df5c" x="90.6969" y="324.080303" style="fill: #1f77b4; stroke: #ffffff; stroke-width: 0.48"/>
     <use xlink:href="#me9b8d3df5c" x="90.6969" y="324.080303" style="fill: #1f77b4; stroke: #ffffff; stroke-width: 0.48"/>
     <use xlink:href="#me9b8d3df5c" x="90.6969" y="324.080303" style="fill: #1f77b4; stroke: #ffffff; stroke-width: 0.48"/>
     <use xlink:href="#me9b8d3df5c" x="90.6969" y="324.080303" style="fill: #1f77b4; stroke: #ffffff; stroke-width: 0.48"/>
    </g>
   </g>
   <g id="patch_5">
    <path d="M 50.14375 331.333333 
L 50.14375 171.766667 
" style="fill: none; stroke: #cccccc; stroke-width: 0.8; stroke-linejoin: miter; stroke-linecap: square"/>
   </g>
   <g id="patch_6">
    <path d="M 50.14375 331.333333 
L 205.491667 331.333333 
" style="fill: none; stroke: #cccccc; stroke-width: 0.8; stroke-linejoin: miter; stroke-linecap: square"/>
   </g>
   <g id="text_6">
    <!-- $\rho$ = 0.95 -->
    <g style="fill: #262626" transform="translate(65.678542 187.723333) scale(0.1 -0.1)">
     <defs>
      <path id="DejaVuSans-Oblique-3c1" d="M 1203 2875 
Q 1453 3194 1981 3475 
Q 2188 3584 2756 3584 
Q 3394 3584 3694 3078 
Q 3994 2572 3834 1747 
Q 3672 922 3175 415 
Q 2678 -91 2041 -91 
Q 1656 -91 1409 63 
Q 1163 213 1044 525 
L 681 -1331 
L 103 -1331 
L 697 1716 
Q 838 2438 1203 2875 
z
M 3238 1747 
Q 3359 2381 3169 2744 
Q 2978 3103 2522 3103 
Q 2066 3103 1734 2744 
Q 1403 2381 1281 1747 
Q 1156 1113 1347 750 
Q 1538 391 1994 391 
Q 2450 391 2781 750 
Q 3113 1113 3238 1747 
z
" transform="scale(0.015625)"/>
      <path id="DejaVuSans-20" transform="scale(0.015625)"/>
      <path id="DejaVuSans-3d" d="M 678 2906 
L 4684 2906 
L 4684 2381 
L 678 2381 
L 678 2906 
z
M 678 1631 
L 4684 1631 
L 4684 1100 
L 678 1100 
L 678 1631 
z
" transform="scale(0.015625)"/>
      <path id="DejaVuSans-39" d="M 703 97 
L 703 672 
Q 941 559 1184 500 
Q 1428 441 1663 441 
Q 2288 441 2617 861 
Q 2947 1281 2994 2138 
Q 2813 1869 2534 1725 
Q 2256 1581 1919 1581 
Q 1219 1581 811 2004 
Q 403 2428 403 3163 
Q 403 3881 828 4315 
Q 1253 4750 1959 4750 
Q 2769 4750 3195 4129 
Q 3622 3509 3622 2328 
Q 3622 1225 3098 567 
Q 2575 -91 1691 -91 
Q 1453 -91 1209 -44 
Q 966 3 703 97 
z
M 1959 2075 
Q 2384 2075 2632 2365 
Q 2881 2656 2881 3163 
Q 2881 3666 2632 3958 
Q 2384 4250 1959 4250 
Q 1534 4250 1286 3958 
Q 1038 3666 1038 3163 
Q 1038 2656 1286 2365 
Q 1534 2075 1959 2075 
z
" transform="scale(0.015625)"/>
      <path id="DejaVuSans-35" d="M 691 4666 
L 3169 4666 
L 3169 4134 
L 1269 4134 
L 1269 2991 
Q 1406 3038 1543 3061 
Q 1681 3084 1819 3084 
Q 2600 3084 3056 2656 
Q 3513 2228 3513 1497 
Q 3513 744 3044 326 
Q 2575 -91 1722 -91 
Q 1428 -91 1123 -41 
Q 819 9 494 109 
L 494 744 
Q 775 591 1075 516 
Q 1375 441 1709 441 
Q 2250 441 2565 725 
Q 2881 1009 2881 1497 
Q 2881 1984 2565 2268 
Q 2250 2553 1709 2553 
Q 1456 2553 1204 2497 
Q 953 2441 691 2322 
L 691 4666 
z
" transform="scale(0.015625)"/>
     </defs>
     <use xlink:href="#DejaVuSans-Oblique-3c1" transform="translate(0 0.78125)"/>
     <use xlink:href="#DejaVuSans-20" transform="translate(63.476562 0.78125)"/>
     <use xlink:href="#DejaVuSans-3d" transform="translate(95.263672 0.78125)"/>
     <use xlink:href="#DejaVuSans-20" transform="translate(179.052734 0.78125)"/>
     <use xlink:href="#DejaVuSans-30" transform="translate(210.839844 0.78125)"/>
     <use xlink:href="#DejaVuSans-2e" transform="translate(274.462891 0.78125)"/>
     <use xlink:href="#DejaVuSans-39" transform="translate(306.25 0.78125)"/>
     <use xlink:href="#DejaVuSans-35" transform="translate(369.873047 0.78125)"/>
    </g>
   </g>
  </g>
  <g id="axes_3">
   <g id="patch_7">
    <path d="M 210.491667 331.333333 
L 365.839583 331.333333 
L 365.839583 171.766667 
L 210.491667 171.766667 
z
" style="fill: #ffffff"/>
   </g>
   <g id="matplotlib.axis_4">
    <g id="xtick_7">
     <g id="line2d_11">
      <path d="M 250.992803 331.333333 
L 250.992803 171.766667 
" clip-path="url(#p89202c6ff4)" style="fill: none; stroke: #cccccc; stroke-width: 0.8; stroke-linecap: round"/>
     </g>
    </g>
    <g id="xtick_8">
     <g id="line2d_12">
      <path d="M 301.321785 331.333333 
L 301.321785 171.766667 
" clip-path="url(#p89202c6ff4)" style="fill: none; stroke: #cccccc; stroke-width: 0.8; stroke-linecap: round"/>
     </g>
    </g>
    <g id="xtick_9">
     <g id="line2d_13">
      <path d="M 351.650768 331.333333 
L 351.650768 171.766667 
" clip-path="url(#p89202c6ff4)" style="fill: none; stroke: #cccccc; stroke-width: 0.8; stroke-linecap: round"/>
     </g>
    </g>
   </g>
   <g id="patch_8">
    <path d="M 210.491667 331.333333 
L 365.839583 331.333333 
" style="fill: none; stroke: #cccccc; stroke-width: 0.8; stroke-linejoin: miter; stroke-linecap: square"/>
   </g>
  </g>
  <g id="axes_4">
   <g id="patch_9">
    <path d="M 50.14375 495.9 
L 205.491667 495.9 
L 205.491667 336.333333 
L 50.14375 336.333333 
z
" style="fill: #ffffff"/>
   </g>
   <g id="matplotlib.axis_5">
    <g id="xtick_10">
     <g id="line2d_14">
      <path d="M 90.6969 495.9 
L 90.6969 336.333333 
" clip-path="url(#pad2233ad42)" style="fill: none; stroke: #cccccc; stroke-width: 0.8; stroke-linecap: round"/>
     </g>
     <g id="text_7">
      <!-- 0 -->
      <g style="fill: #262626" transform="translate(87.51565 510.498438) scale(0.1 -0.1)">
       <use xlink:href="#DejaVuSans-30"/>
      </g>
     </g>
    </g>
    <g id="xtick_11">
     <g id="line2d_15">
      <path d="M 139.506844 495.9 
L 139.506844 336.333333 
" clip-path="url(#pad2233ad42)" style="fill: none; stroke: #cccccc; stroke-width: 0.8; stroke-linecap: round"/>
     </g>
     <g id="text_8">
      <!-- 5 -->
      <g style="fill: #262626" transform="translate(136.325594 510.498438) scale(0.1 -0.1)">
       <use xlink:href="#DejaVuSans-35"/>
      </g>
     </g>
    </g>
    <g id="xtick_12">
     <g id="line2d_16">
      <path d="M 188.316788 495.9 
L 188.316788 336.333333 
" clip-path="url(#pad2233ad42)" style="fill: none; stroke: #cccccc; stroke-width: 0.8; stroke-linecap: round"/>
     </g>
     <g id="text_9">
      <!-- 10 -->
      <g style="fill: #262626" transform="translate(181.954288 510.498438) scale(0.1 -0.1)">
       <defs>
        <path id="DejaVuSans-31" d="M 794 531 
L 1825 531 
L 1825 4091 
L 703 3866 
L 703 4441 
L 1819 4666 
L 2450 4666 
L 2450 531 
L 3481 531 
L 3481 0 
L 794 0 
L 794 531 
z
" transform="scale(0.015625)"/>
       </defs>
       <use xlink:href="#DejaVuSans-31"/>
       <use xlink:href="#DejaVuSans-30" x="63.623047"/>
      </g>
     </g>
    </g>
    <g id="text_10">
     <!-- trace_confusion -->
     <g style="fill: #262626" transform="translate(88.284115 524.176563) scale(0.1 -0.1)">
      <defs>
       <path id="DejaVuSans-74" d="M 1172 4494 
L 1172 3500 
L 2356 3500 
L 2356 3053 
L 1172 3053 
L 1172 1153 
Q 1172 725 1289 603 
Q 1406 481 1766 481 
L 2356 481 
L 2356 0 
L 1766 0 
Q 1100 0 847 248 
Q 594 497 594 1153 
L 594 3053 
L 172 3053 
L 172 3500 
L 594 3500 
L 594 4494 
L 1172 4494 
z
" transform="scale(0.015625)"/>
       <path id="DejaVuSans-6e" d="M 3513 2113 
L 3513 0 
L 2938 0 
L 2938 2094 
Q 2938 2591 2744 2837 
Q 2550 3084 2163 3084 
Q 1697 3084 1428 2787 
Q 1159 2491 1159 1978 
L 1159 0 
L 581 0 
L 581 3500 
L 1159 3500 
L 1159 2956 
Q 1366 3272 1645 3428 
Q 1925 3584 2291 3584 
Q 2894 3584 3203 3211 
Q 3513 2838 3513 2113 
z
" transform="scale(0.015625)"/>
       <path id="DejaVuSans-66" d="M 2375 4863 
L 2375 4384 
L 1825 4384 
Q 1516 4384 1395 4259 
Q 1275 4134 1275 3809 
L 1275 3500 
L 2222 3500 
L 2222 3053 
L 1275 3053 
L 1275 0 
L 697 0 
L 697 3053 
L 147 3053 
L 147 3500 
L 697 3500 
L 697 3744 
Q 697 4328 969 4595 
Q 1241 4863 1831 4863 
L 2375 4863 
z
" transform="scale(0.015625)"/>
       <path id="DejaVuSans-75" d="M 544 1381 
L 544 3500 
L 1119 3500 
L 1119 1403 
Q 1119 906 1312 657 
Q 1506 409 1894 409 
Q 2359 409 2629 706 
Q 2900 1003 2900 1516 
L 2900 3500 
L 3475 3500 
L 3475 0 
L 2900 0 
L 2900 538 
Q 2691 219 2414 64 
Q 2138 -91 1772 -91 
Q 1169 -91 856 284 
Q 544 659 544 1381 
z
M 1991 3584 
L 1991 3584 
z
" transform="scale(0.015625)"/>
       <path id="DejaVuSans-69" d="M 603 3500 
L 1178 3500 
L 1178 0 
L 603 0 
L 603 3500 
z
M 603 4863 
L 1178 4863 
L 1178 4134 
L 603 4134 
L 603 4863 
z
" transform="scale(0.015625)"/>
      </defs>
      <use xlink:href="#DejaVuSans-74"/>
      <use xlink:href="#DejaVuSans-72" x="39.208984"/>
      <use xlink:href="#DejaVuSans-61" x="80.322266"/>
      <use xlink:href="#DejaVuSans-63" x="141.601562"/>
      <use xlink:href="#DejaVuSans-65" x="196.582031"/>
      <use xlink:href="#DejaVuSans-5f" x="258.105469"/>
      <use xlink:href="#DejaVuSans-63" x="308.105469"/>
      <use xlink:href="#DejaVuSans-6f" x="363.085938"/>
      <use xlink:href="#DejaVuSans-6e" x="424.267578"/>
      <use xlink:href="#DejaVuSans-66" x="487.646484"/>
      <use xlink:href="#DejaVuSans-75" x="522.851562"/>
      <use xlink:href="#DejaVuSans-73" x="586.230469"/>
      <use xlink:href="#DejaVuSans-69" x="638.330078"/>
      <use xlink:href="#DejaVuSans-6f" x="666.113281"/>
      <use xlink:href="#DejaVuSans-6e" x="727.294922"/>
     </g>
    </g>
   </g>
   <g id="matplotlib.axis_6">
    <g id="ytick_5">
     <g id="line2d_17">
      <path d="M 50.14375 480.066728 
L 205.491667 480.066728 
" clip-path="url(#pad2233ad42)" style="fill: none; stroke: #cccccc; stroke-width: 0.8; stroke-linecap: round"/>
     </g>
     <g id="text_11">
      <!-- 0.00 -->
      <g style="fill: #262626" transform="translate(20.878125 483.865947) scale(0.1 -0.1)">
       <use xlink:href="#DejaVuSans-30"/>
       <use xlink:href="#DejaVuSans-2e" x="63.623047"/>
       <use xlink:href="#DejaVuSans-30" x="95.410156"/>
       <use xlink:href="#DejaVuSans-30" x="159.033203"/>
      </g>
     </g>
    </g>
    <g id="ytick_6">
     <g id="line2d_18">
      <path d="M 50.14375 454.154193 
L 205.491667 454.154193 
" clip-path="url(#pad2233ad42)" style="fill: none; stroke: #cccccc; stroke-width: 0.8; stroke-linecap: round"/>
     </g>
     <g id="text_12">
      <!-- 0.25 -->
      <g style="fill: #262626" transform="translate(20.878125 457.953412) scale(0.1 -0.1)">
       <use xlink:href="#DejaVuSans-30"/>
       <use xlink:href="#DejaVuSans-2e" x="63.623047"/>
       <use xlink:href="#DejaVuSans-32" x="95.410156"/>
       <use xlink:href="#DejaVuSans-35" x="159.033203"/>
      </g>
     </g>
    </g>
    <g id="ytick_7">
     <g id="line2d_19">
      <path d="M 50.14375 428.241658 
L 205.491667 428.241658 
" clip-path="url(#pad2233ad42)" style="fill: none; stroke: #cccccc; stroke-width: 0.8; stroke-linecap: round"/>
     </g>
     <g id="text_13">
      <!-- 0.50 -->
      <g style="fill: #262626" transform="translate(20.878125 432.040877) scale(0.1 -0.1)">
       <use xlink:href="#DejaVuSans-30"/>
       <use xlink:href="#DejaVuSans-2e" x="63.623047"/>
       <use xlink:href="#DejaVuSans-35" x="95.410156"/>
       <use xlink:href="#DejaVuSans-30" x="159.033203"/>
      </g>
     </g>
    </g>
    <g id="ytick_8">
     <g id="line2d_20">
      <path d="M 50.14375 402.329123 
L 205.491667 402.329123 
" clip-path="url(#pad2233ad42)" style="fill: none; stroke: #cccccc; stroke-width: 0.8; stroke-linecap: round"/>
     </g>
     <g id="text_14">
      <!-- 0.75 -->
      <g style="fill: #262626" transform="translate(20.878125 406.128342) scale(0.1 -0.1)">
       <defs>
        <path id="DejaVuSans-37" d="M 525 4666 
L 3525 4666 
L 3525 4397 
L 1831 0 
L 1172 0 
L 2766 4134 
L 525 4134 
L 525 4666 
z
" transform="scale(0.015625)"/>
       </defs>
       <use xlink:href="#DejaVuSans-30"/>
       <use xlink:href="#DejaVuSans-2e" x="63.623047"/>
       <use xlink:href="#DejaVuSans-37" x="95.410156"/>
       <use xlink:href="#DejaVuSans-35" x="159.033203"/>
      </g>
     </g>
    </g>
    <g id="ytick_9">
     <g id="line2d_21">
      <path d="M 50.14375 376.416588 
L 205.491667 376.416588 
" clip-path="url(#pad2233ad42)" style="fill: none; stroke: #cccccc; stroke-width: 0.8; stroke-linecap: round"/>
     </g>
     <g id="text_15">
      <!-- 1.00 -->
      <g style="fill: #262626" transform="translate(20.878125 380.215806) scale(0.1 -0.1)">
       <use xlink:href="#DejaVuSans-31"/>
       <use xlink:href="#DejaVuSans-2e" x="63.623047"/>
       <use xlink:href="#DejaVuSans-30" x="95.410156"/>
       <use xlink:href="#DejaVuSans-30" x="159.033203"/>
      </g>
     </g>
    </g>
    <g id="ytick_10">
     <g id="line2d_22">
      <path d="M 50.14375 350.504053 
L 205.491667 350.504053 
" clip-path="url(#pad2233ad42)" style="fill: none; stroke: #cccccc; stroke-width: 0.8; stroke-linecap: round"/>
     </g>
     <g id="text_16">
      <!-- 1.25 -->
      <g style="fill: #262626" transform="translate(20.878125 354.303271) scale(0.1 -0.1)">
       <use xlink:href="#DejaVuSans-31"/>
       <use xlink:href="#DejaVuSans-2e" x="63.623047"/>
       <use xlink:href="#DejaVuSans-32" x="95.410156"/>
       <use xlink:href="#DejaVuSans-35" x="159.033203"/>
      </g>
     </g>
    </g>
    <g id="text_17">
     <!-- glad -->
     <g style="fill: #262626" transform="translate(14.798438 426.918229) rotate(-90) scale(0.1 -0.1)">
      <defs>
       <path id="DejaVuSans-67" d="M 2906 1791 
Q 2906 2416 2648 2759 
Q 2391 3103 1925 3103 
Q 1463 3103 1205 2759 
Q 947 2416 947 1791 
Q 947 1169 1205 825 
Q 1463 481 1925 481 
Q 2391 481 2648 825 
Q 2906 1169 2906 1791 
z
M 3481 434 
Q 3481 -459 3084 -895 
Q 2688 -1331 1869 -1331 
Q 1566 -1331 1297 -1286 
Q 1028 -1241 775 -1147 
L 775 -588 
Q 1028 -725 1275 -790 
Q 1522 -856 1778 -856 
Q 2344 -856 2625 -561 
Q 2906 -266 2906 331 
L 2906 616 
Q 2728 306 2450 153 
Q 2172 0 1784 0 
Q 1141 0 747 490 
Q 353 981 353 1791 
Q 353 2603 747 3093 
Q 1141 3584 1784 3584 
Q 2172 3584 2450 3431 
Q 2728 3278 2906 2969 
L 2906 3500 
L 3481 3500 
L 3481 434 
z
" transform="scale(0.015625)"/>
       <path id="DejaVuSans-6c" d="M 603 4863 
L 1178 4863 
L 1178 0 
L 603 0 
L 603 4863 
z
" transform="scale(0.015625)"/>
       <path id="DejaVuSans-64" d="M 2906 2969 
L 2906 4863 
L 3481 4863 
L 3481 0 
L 2906 0 
L 2906 525 
Q 2725 213 2448 61 
Q 2172 -91 1784 -91 
Q 1150 -91 751 415 
Q 353 922 353 1747 
Q 353 2572 751 3078 
Q 1150 3584 1784 3584 
Q 2172 3584 2448 3432 
Q 2725 3281 2906 2969 
z
M 947 1747 
Q 947 1113 1208 752 
Q 1469 391 1925 391 
Q 2381 391 2643 752 
Q 2906 1113 2906 1747 
Q 2906 2381 2643 2742 
Q 2381 3103 1925 3103 
Q 1469 3103 1208 2742 
Q 947 2381 947 1747 
z
" transform="scale(0.015625)"/>
      </defs>
      <use xlink:href="#DejaVuSans-67"/>
      <use xlink:href="#DejaVuSans-6c" x="63.476562"/>
      <use xlink:href="#DejaVuSans-61" x="91.259766"/>
      <use xlink:href="#DejaVuSans-64" x="152.539062"/>
     </g>
    </g>
   </g>
   <g id="PathCollection_2">
    <g clip-path="url(#pad2233ad42)">
     <use xlink:href="#me9b8d3df5c" x="90.6969" y="376.416588" style="fill: #1f77b4; stroke: #ffffff; stroke-width: 0.48"/>
     <use xlink:href="#me9b8d3df5c" x="163.843199" y="385.918516" style="fill: #1f77b4; stroke: #ffffff; stroke-width: 0.48"/>
     <use xlink:href="#me9b8d3df5c" x="90.6969" y="376.416588" style="fill: #1f77b4; stroke: #ffffff; stroke-width: 0.48"/>
     <use xlink:href="#me9b8d3df5c" x="129.743547" y="411.126293" style="fill: #1f77b4; stroke: #ffffff; stroke-width: 0.48"/>
     <use xlink:href="#me9b8d3df5c" x="153.696323" y="389.922238" style="fill: #1f77b4; stroke: #ffffff; stroke-width: 0.48"/>
     <use xlink:href="#me9b8d3df5c" x="147.297095" y="403.801872" style="fill: #1f77b4; stroke: #ffffff; stroke-width: 0.48"/>
     <use xlink:href="#me9b8d3df5c" x="164.938516" y="381.67931" style="fill: #1f77b4; stroke: #ffffff; stroke-width: 0.48"/>
     <use xlink:href="#me9b8d3df5c" x="153.661056" y="366.947589" style="fill: #1f77b4; stroke: #ffffff; stroke-width: 0.48"/>
     <use xlink:href="#me9b8d3df5c" x="160.379915" y="380.253033" style="fill: #1f77b4; stroke: #ffffff; stroke-width: 0.48"/>
     <use xlink:href="#me9b8d3df5c" x="150.831411" y="379.069838" style="fill: #1f77b4; stroke: #ffffff; stroke-width: 0.48"/>
     <use xlink:href="#me9b8d3df5c" x="159.222592" y="395.666985" style="fill: #1f77b4; stroke: #ffffff; stroke-width: 0.48"/>
     <use xlink:href="#me9b8d3df5c" x="151.694748" y="372.722979" style="fill: #1f77b4; stroke: #ffffff; stroke-width: 0.48"/>
     <use xlink:href="#me9b8d3df5c" x="156.853582" y="402.98045" style="fill: #1f77b4; stroke: #ffffff; stroke-width: 0.48"/>
     <use xlink:href="#me9b8d3df5c" x="148.642234" y="408.116419" style="fill: #1f77b4; stroke: #ffffff; stroke-width: 0.48"/>
     <use xlink:href="#me9b8d3df5c" x="150.310818" y="412.886866" style="fill: #1f77b4; stroke: #ffffff; stroke-width: 0.48"/>
     <use xlink:href="#me9b8d3df5c" x="155.560174" y="410.16537" style="fill: #1f77b4; stroke: #ffffff; stroke-width: 0.48"/>
     <use xlink:href="#me9b8d3df5c" x="155.634011" y="389.820294" style="fill: #1f77b4; stroke: #ffffff; stroke-width: 0.48"/>
     <use xlink:href="#me9b8d3df5c" x="157.076914" y="389.579047" style="fill: #1f77b4; stroke: #ffffff; stroke-width: 0.48"/>
     <use xlink:href="#me9b8d3df5c" x="162.975887" y="350.772207" style="fill: #1f77b4; stroke: #ffffff; stroke-width: 0.48"/>
     <use xlink:href="#me9b8d3df5c" x="152.603394" y="407.23244" style="fill: #1f77b4; stroke: #ffffff; stroke-width: 0.48"/>
     <use xlink:href="#me9b8d3df5c" x="163.597671" y="384.958127" style="fill: #1f77b4; stroke: #ffffff; stroke-width: 0.48"/>
     <use xlink:href="#me9b8d3df5c" x="157.1647" y="392.28995" style="fill: #1f77b4; stroke: #ffffff; stroke-width: 0.48"/>
     <use xlink:href="#me9b8d3df5c" x="156.660354" y="378.65233" style="fill: #1f77b4; stroke: #ffffff; stroke-width: 0.48"/>
     <use xlink:href="#me9b8d3df5c" x="159.318757" y="386.26745" style="fill: #1f77b4; stroke: #ffffff; stroke-width: 0.48"/>
     <use xlink:href="#me9b8d3df5c" x="141.086932" y="426.697783" style="fill: #1f77b4; stroke: #ffffff; stroke-width: 0.48"/>
     <use xlink:href="#me9b8d3df5c" x="148.92722" y="420.832696" style="fill: #1f77b4; stroke: #ffffff; stroke-width: 0.48"/>
     <use xlink:href="#me9b8d3df5c" x="145.759801" y="397.182062" style="fill: #1f77b4; stroke: #ffffff; stroke-width: 0.48"/>
     <use xlink:href="#me9b8d3df5c" x="160.349259" y="391.119939" style="fill: #1f77b4; stroke: #ffffff; stroke-width: 0.48"/>
     <use xlink:href="#me9b8d3df5c" x="134.643834" y="344.618928" style="fill: #1f77b4; stroke: #ffffff; stroke-width: 0.48"/>
     <use xlink:href="#me9b8d3df5c" x="142.945079" y="408.948933" style="fill: #1f77b4; stroke: #ffffff; stroke-width: 0.48"/>
     <use xlink:href="#me9b8d3df5c" x="146.346997" y="396.78894" style="fill: #1f77b4; stroke: #ffffff; stroke-width: 0.48"/>
     <use xlink:href="#me9b8d3df5c" x="115.101873" y="404.41276" style="fill: #1f77b4; stroke: #ffffff; stroke-width: 0.48"/>
     <use xlink:href="#me9b8d3df5c" x="139.987021" y="421.43307" style="fill: #1f77b4; stroke: #ffffff; stroke-width: 0.48"/>
     <use xlink:href="#me9b8d3df5c" x="110.220878" y="422.671786" style="fill: #1f77b4; stroke: #ffffff; stroke-width: 0.48"/>
     <use xlink:href="#me9b8d3df5c" x="153.280783" y="398.074841" style="fill: #1f77b4; stroke: #ffffff; stroke-width: 0.48"/>
     <use xlink:href="#me9b8d3df5c" x="151.408477" y="397.264212" style="fill: #1f77b4; stroke: #ffffff; stroke-width: 0.48"/>
     <use xlink:href="#me9b8d3df5c" x="163.552588" y="345.67956" style="fill: #1f77b4; stroke: #ffffff; stroke-width: 0.48"/>
     <use xlink:href="#me9b8d3df5c" x="151.475898" y="396.699243" style="fill: #1f77b4; stroke: #ffffff; stroke-width: 0.48"/>
     <use xlink:href="#me9b8d3df5c" x="149.268833" y="375.347283" style="fill: #1f77b4; stroke: #ffffff; stroke-width: 0.48"/>
     <use xlink:href="#me9b8d3df5c" x="150.491633" y="411.931678" style="fill: #1f77b4; stroke: #ffffff; stroke-width: 0.48"/>
     <use xlink:href="#me9b8d3df5c" x="159.358825" y="344.457692" style="fill: #1f77b4; stroke: #ffffff; stroke-width: 0.48"/>
     <use xlink:href="#me9b8d3df5c" x="144.547402" y="392.004674" style="fill: #1f77b4; stroke: #ffffff; stroke-width: 0.48"/>
     <use xlink:href="#me9b8d3df5c" x="154.402326" y="371.876727" style="fill: #1f77b4; stroke: #ffffff; stroke-width: 0.48"/>
     <use xlink:href="#me9b8d3df5c" x="148.12204" y="372.851721" style="fill: #1f77b4; stroke: #ffffff; stroke-width: 0.48"/>
     <use xlink:href="#me9b8d3df5c" x="137.103852" y="448.222606" style="fill: #1f77b4; stroke: #ffffff; stroke-width: 0.48"/>
     <use xlink:href="#me9b8d3df5c" x="109.877547" y="488.64697" style="fill: #1f77b4; stroke: #ffffff; stroke-width: 0.48"/>
     <use xlink:href="#me9b8d3df5c" x="151.891151" y="408.380282" style="fill: #1f77b4; stroke: #ffffff; stroke-width: 0.48"/>
     <use xlink:href="#me9b8d3df5c" x="144.016498" y="440.747337" style="fill: #1f77b4; stroke: #ffffff; stroke-width: 0.48"/>
     <use xlink:href="#me9b8d3df5c" x="142.442864" y="440.147052" style="fill: #1f77b4; stroke: #ffffff; stroke-width: 0.48"/>
     <use xlink:href="#me9b8d3df5c" x="90.6969" y="376.416588" style="fill: #1f77b4; stroke: #ffffff; stroke-width: 0.48"/>
     <use xlink:href="#me9b8d3df5c" x="139.506844" y="380.627755" style="fill: #1f77b4; stroke: #ffffff; stroke-width: 0.48"/>
     <use xlink:href="#me9b8d3df5c" x="129.744855" y="352.877785" style="fill: #1f77b4; stroke: #ffffff; stroke-width: 0.48"/>
     <use xlink:href="#me9b8d3df5c" x="139.506844" y="432.693835" style="fill: #1f77b4; stroke: #ffffff; stroke-width: 0.48"/>
     <use xlink:href="#me9b8d3df5c" x="119.982867" y="350.939612" style="fill: #1f77b4; stroke: #ffffff; stroke-width: 0.48"/>
     <use xlink:href="#me9b8d3df5c" x="139.506844" y="405.06401" style="fill: #1f77b4; stroke: #ffffff; stroke-width: 0.48"/>
     <use xlink:href="#me9b8d3df5c" x="110.220878" y="445.784626" style="fill: #1f77b4; stroke: #ffffff; stroke-width: 0.48"/>
     <use xlink:href="#me9b8d3df5c" x="90.6969" y="376.416588" style="fill: #1f77b4; stroke: #ffffff; stroke-width: 0.48"/>
     <use xlink:href="#me9b8d3df5c" x="90.6969" y="376.416588" style="fill: #1f77b4; stroke: #ffffff; stroke-width: 0.48"/>
     <use xlink:href="#me9b8d3df5c" x="119.982867" y="353.528054" style="fill: #1f77b4; stroke: #ffffff; stroke-width: 0.48"/>
     <use xlink:href="#me9b8d3df5c" x="124.863861" y="408.212529" style="fill: #1f77b4; stroke: #ffffff; stroke-width: 0.48"/>
     <use xlink:href="#me9b8d3df5c" x="115.118283" y="343.586364" style="fill: #1f77b4; stroke: #ffffff; stroke-width: 0.48"/>
     <use xlink:href="#me9b8d3df5c" x="119.982867" y="366.24514" style="fill: #1f77b4; stroke: #ffffff; stroke-width: 0.48"/>
     <use xlink:href="#me9b8d3df5c" x="90.6969" y="376.416588" style="fill: #1f77b4; stroke: #ffffff; stroke-width: 0.48"/>
     <use xlink:href="#me9b8d3df5c" x="119.982867" y="392.440548" style="fill: #1f77b4; stroke: #ffffff; stroke-width: 0.48"/>
     <use xlink:href="#me9b8d3df5c" x="90.6969" y="376.416588" style="fill: #1f77b4; stroke: #ffffff; stroke-width: 0.48"/>
     <use xlink:href="#me9b8d3df5c" x="90.6969" y="376.416588" style="fill: #1f77b4; stroke: #ffffff; stroke-width: 0.48"/>
     <use xlink:href="#me9b8d3df5c" x="90.6969" y="376.416588" style="fill: #1f77b4; stroke: #ffffff; stroke-width: 0.48"/>
     <use xlink:href="#me9b8d3df5c" x="110.220878" y="379.741677" style="fill: #1f77b4; stroke: #ffffff; stroke-width: 0.48"/>
     <use xlink:href="#me9b8d3df5c" x="90.6969" y="376.416588" style="fill: #1f77b4; stroke: #ffffff; stroke-width: 0.48"/>
     <use xlink:href="#me9b8d3df5c" x="90.6969" y="376.416588" style="fill: #1f77b4; stroke: #ffffff; stroke-width: 0.48"/>
     <use xlink:href="#me9b8d3df5c" x="90.6969" y="376.416588" style="fill: #1f77b4; stroke: #ffffff; stroke-width: 0.48"/>
     <use xlink:href="#me9b8d3df5c" x="90.6969" y="376.416588" style="fill: #1f77b4; stroke: #ffffff; stroke-width: 0.48"/>
     <use xlink:href="#me9b8d3df5c" x="90.6969" y="376.416588" style="fill: #1f77b4; stroke: #ffffff; stroke-width: 0.48"/>
     <use xlink:href="#me9b8d3df5c" x="90.6969" y="376.416588" style="fill: #1f77b4; stroke: #ffffff; stroke-width: 0.48"/>
     <use xlink:href="#me9b8d3df5c" x="90.6969" y="376.416588" style="fill: #1f77b4; stroke: #ffffff; stroke-width: 0.48"/>
     <use xlink:href="#me9b8d3df5c" x="90.6969" y="376.416588" style="fill: #1f77b4; stroke: #ffffff; stroke-width: 0.48"/>
     <use xlink:href="#me9b8d3df5c" x="90.6969" y="376.416588" style="fill: #1f77b4; stroke: #ffffff; stroke-width: 0.48"/>
    </g>
   </g>
   <g id="patch_10">
    <path d="M 50.14375 495.9 
L 50.14375 336.333333 
" style="fill: none; stroke: #cccccc; stroke-width: 0.8; stroke-linejoin: miter; stroke-linecap: square"/>
   </g>
   <g id="patch_11">
    <path d="M 50.14375 495.9 
L 205.491667 495.9 
" style="fill: none; stroke: #cccccc; stroke-width: 0.8; stroke-linejoin: miter; stroke-linecap: square"/>
   </g>
   <g id="text_18">
    <!-- $\rho$ = -0.14 -->
    <g style="fill: #262626" transform="translate(65.678542 352.29) scale(0.1 -0.1)">
     <defs>
      <path id="DejaVuSans-2d" d="M 313 2009 
L 1997 2009 
L 1997 1497 
L 313 1497 
L 313 2009 
z
" transform="scale(0.015625)"/>
     </defs>
     <use xlink:href="#DejaVuSans-Oblique-3c1" transform="translate(0 0.78125)"/>
     <use xlink:href="#DejaVuSans-20" transform="translate(63.476562 0.78125)"/>
     <use xlink:href="#DejaVuSans-3d" transform="translate(95.263672 0.78125)"/>
     <use xlink:href="#DejaVuSans-20" transform="translate(179.052734 0.78125)"/>
     <use xlink:href="#DejaVuSans-2d" transform="translate(210.839844 0.78125)"/>
     <use xlink:href="#DejaVuSans-30" transform="translate(246.923828 0.78125)"/>
     <use xlink:href="#DejaVuSans-2e" transform="translate(310.546875 0.78125)"/>
     <use xlink:href="#DejaVuSans-31" transform="translate(342.333984 0.78125)"/>
     <use xlink:href="#DejaVuSans-34" transform="translate(405.957031 0.78125)"/>
    </g>
   </g>
  </g>
  <g id="axes_5">
   <g id="patch_12">
    <path d="M 210.491667 495.9 
L 365.839583 495.9 
L 365.839583 336.333333 
L 210.491667 336.333333 
z
" style="fill: #ffffff"/>
   </g>
   <g id="matplotlib.axis_7">
    <g id="xtick_13">
     <g id="line2d_23">
      <path d="M 250.992803 495.9 
L 250.992803 336.333333 
" clip-path="url(#pd4b4f2b412)" style="fill: none; stroke: #cccccc; stroke-width: 0.8; stroke-linecap: round"/>
     </g>
     <g id="text_19">
      <!-- 0.0 -->
      <g style="fill: #262626" transform="translate(243.04124 510.498438) scale(0.1 -0.1)">
       <use xlink:href="#DejaVuSans-30"/>
       <use xlink:href="#DejaVuSans-2e" x="63.623047"/>
       <use xlink:href="#DejaVuSans-30" x="95.410156"/>
      </g>
     </g>
    </g>
    <g id="xtick_14">
     <g id="line2d_24">
      <path d="M 301.321785 495.9 
L 301.321785 336.333333 
" clip-path="url(#pd4b4f2b412)" style="fill: none; stroke: #cccccc; stroke-width: 0.8; stroke-linecap: round"/>
     </g>
     <g id="text_20">
      <!-- 0.5 -->
      <g style="fill: #262626" transform="translate(293.370223 510.498438) scale(0.1 -0.1)">
       <use xlink:href="#DejaVuSans-30"/>
       <use xlink:href="#DejaVuSans-2e" x="63.623047"/>
       <use xlink:href="#DejaVuSans-35" x="95.410156"/>
      </g>
     </g>
    </g>
    <g id="xtick_15">
     <g id="line2d_25">
      <path d="M 351.650768 495.9 
L 351.650768 336.333333 
" clip-path="url(#pd4b4f2b412)" style="fill: none; stroke: #cccccc; stroke-width: 0.8; stroke-linecap: round"/>
     </g>
     <g id="text_21">
      <!-- 1.0 -->
      <g style="fill: #262626" transform="translate(343.699206 510.498438) scale(0.1 -0.1)">
       <use xlink:href="#DejaVuSans-31"/>
       <use xlink:href="#DejaVuSans-2e" x="63.623047"/>
       <use xlink:href="#DejaVuSans-30" x="95.410156"/>
      </g>
     </g>
    </g>
    <g id="text_22">
     <!-- spam_score -->
     <g style="fill: #262626" transform="translate(258.519531 523.898438) scale(0.1 -0.1)">
      <use xlink:href="#DejaVuSans-73"/>
      <use xlink:href="#DejaVuSans-70" x="52.099609"/>
      <use xlink:href="#DejaVuSans-61" x="115.576172"/>
      <use xlink:href="#DejaVuSans-6d" x="176.855469"/>
      <use xlink:href="#DejaVuSans-5f" x="274.267578"/>
      <use xlink:href="#DejaVuSans-73" x="324.267578"/>
      <use xlink:href="#DejaVuSans-63" x="376.367188"/>
      <use xlink:href="#DejaVuSans-6f" x="431.347656"/>
      <use xlink:href="#DejaVuSans-72" x="492.529297"/>
      <use xlink:href="#DejaVuSans-65" x="531.392578"/>
     </g>
    </g>
   </g>
   <g id="matplotlib.axis_8">
    <g id="ytick_11">
     <g id="line2d_26">
      <path d="M 210.491667 480.066728 
L 365.839583 480.066728 
" clip-path="url(#pd4b4f2b412)" style="fill: none; stroke: #cccccc; stroke-width: 0.8; stroke-linecap: round"/>
     </g>
    </g>
    <g id="ytick_12">
     <g id="line2d_27">
      <path d="M 210.491667 454.154193 
L 365.839583 454.154193 
" clip-path="url(#pd4b4f2b412)" style="fill: none; stroke: #cccccc; stroke-width: 0.8; stroke-linecap: round"/>
     </g>
    </g>
    <g id="ytick_13">
     <g id="line2d_28">
      <path d="M 210.491667 428.241658 
L 365.839583 428.241658 
" clip-path="url(#pd4b4f2b412)" style="fill: none; stroke: #cccccc; stroke-width: 0.8; stroke-linecap: round"/>
     </g>
    </g>
    <g id="ytick_14">
     <g id="line2d_29">
      <path d="M 210.491667 402.329123 
L 365.839583 402.329123 
" clip-path="url(#pd4b4f2b412)" style="fill: none; stroke: #cccccc; stroke-width: 0.8; stroke-linecap: round"/>
     </g>
    </g>
    <g id="ytick_15">
     <g id="line2d_30">
      <path d="M 210.491667 376.416588 
L 365.839583 376.416588 
" clip-path="url(#pd4b4f2b412)" style="fill: none; stroke: #cccccc; stroke-width: 0.8; stroke-linecap: round"/>
     </g>
    </g>
    <g id="ytick_16">
     <g id="line2d_31">
      <path d="M 210.491667 350.504053 
L 365.839583 350.504053 
" clip-path="url(#pd4b4f2b412)" style="fill: none; stroke: #cccccc; stroke-width: 0.8; stroke-linecap: round"/>
     </g>
    </g>
   </g>
   <g id="PathCollection_3">
    <g clip-path="url(#pd4b4f2b412)">
     <use xlink:href="#me9b8d3df5c" x="250.992803" y="376.416588" style="fill: #1f77b4; stroke: #ffffff; stroke-width: 0.48"/>
     <use xlink:href="#me9b8d3df5c" x="322.499094" y="385.918516" style="fill: #1f77b4; stroke: #ffffff; stroke-width: 0.48"/>
     <use xlink:href="#me9b8d3df5c" x="250.992803" y="376.416588" style="fill: #1f77b4; stroke: #ffffff; stroke-width: 0.48"/>
     <use xlink:href="#me9b8d3df5c" x="313.068039" y="411.126293" style="fill: #1f77b4; stroke: #ffffff; stroke-width: 0.48"/>
     <use xlink:href="#me9b8d3df5c" x="307.059113" y="389.922238" style="fill: #1f77b4; stroke: #ffffff; stroke-width: 0.48"/>
     <use xlink:href="#me9b8d3df5c" x="310.892018" y="403.801872" style="fill: #1f77b4; stroke: #ffffff; stroke-width: 0.48"/>
     <use xlink:href="#me9b8d3df5c" x="324.173968" y="381.67931" style="fill: #1f77b4; stroke: #ffffff; stroke-width: 0.48"/>
     <use xlink:href="#me9b8d3df5c" x="311.251198" y="366.947589" style="fill: #1f77b4; stroke: #ffffff; stroke-width: 0.48"/>
     <use xlink:href="#me9b8d3df5c" x="315.870163" y="380.253033" style="fill: #1f77b4; stroke: #ffffff; stroke-width: 0.48"/>
     <use xlink:href="#me9b8d3df5c" x="314.361598" y="379.069838" style="fill: #1f77b4; stroke: #ffffff; stroke-width: 0.48"/>
     <use xlink:href="#me9b8d3df5c" x="314.775698" y="395.666985" style="fill: #1f77b4; stroke: #ffffff; stroke-width: 0.48"/>
     <use xlink:href="#me9b8d3df5c" x="306.638684" y="372.722979" style="fill: #1f77b4; stroke: #ffffff; stroke-width: 0.48"/>
     <use xlink:href="#me9b8d3df5c" x="311.052014" y="402.98045" style="fill: #1f77b4; stroke: #ffffff; stroke-width: 0.48"/>
     <use xlink:href="#me9b8d3df5c" x="304.14347" y="408.116419" style="fill: #1f77b4; stroke: #ffffff; stroke-width: 0.48"/>
     <use xlink:href="#me9b8d3df5c" x="315.315679" y="412.886866" style="fill: #1f77b4; stroke: #ffffff; stroke-width: 0.48"/>
     <use xlink:href="#me9b8d3df5c" x="319.938977" y="410.16537" style="fill: #1f77b4; stroke: #ffffff; stroke-width: 0.48"/>
     <use xlink:href="#me9b8d3df5c" x="320.880627" y="389.820294" style="fill: #1f77b4; stroke: #ffffff; stroke-width: 0.48"/>
     <use xlink:href="#me9b8d3df5c" x="317.710875" y="389.579047" style="fill: #1f77b4; stroke: #ffffff; stroke-width: 0.48"/>
     <use xlink:href="#me9b8d3df5c" x="325.338447" y="350.772207" style="fill: #1f77b4; stroke: #ffffff; stroke-width: 0.48"/>
     <use xlink:href="#me9b8d3df5c" x="310.258303" y="407.23244" style="fill: #1f77b4; stroke: #ffffff; stroke-width: 0.48"/>
     <use xlink:href="#me9b8d3df5c" x="320.891365" y="384.958127" style="fill: #1f77b4; stroke: #ffffff; stroke-width: 0.48"/>
     <use xlink:href="#me9b8d3df5c" x="313.51796" y="392.28995" style="fill: #1f77b4; stroke: #ffffff; stroke-width: 0.48"/>
     <use xlink:href="#me9b8d3df5c" x="311.291285" y="378.65233" style="fill: #1f77b4; stroke: #ffffff; stroke-width: 0.48"/>
     <use xlink:href="#me9b8d3df5c" x="315.252457" y="386.26745" style="fill: #1f77b4; stroke: #ffffff; stroke-width: 0.48"/>
     <use xlink:href="#me9b8d3df5c" x="304.932912" y="426.697783" style="fill: #1f77b4; stroke: #ffffff; stroke-width: 0.48"/>
     <use xlink:href="#me9b8d3df5c" x="313.74423" y="420.832696" style="fill: #1f77b4; stroke: #ffffff; stroke-width: 0.48"/>
     <use xlink:href="#me9b8d3df5c" x="310.670916" y="397.182062" style="fill: #1f77b4; stroke: #ffffff; stroke-width: 0.48"/>
     <use xlink:href="#me9b8d3df5c" x="315.899552" y="391.119939" style="fill: #1f77b4; stroke: #ffffff; stroke-width: 0.48"/>
     <use xlink:href="#me9b8d3df5c" x="295.174655" y="344.618928" style="fill: #1f77b4; stroke: #ffffff; stroke-width: 0.48"/>
     <use xlink:href="#me9b8d3df5c" x="304.054931" y="408.948933" style="fill: #1f77b4; stroke: #ffffff; stroke-width: 0.48"/>
     <use xlink:href="#me9b8d3df5c" x="306.728831" y="396.78894" style="fill: #1f77b4; stroke: #ffffff; stroke-width: 0.48"/>
     <use xlink:href="#me9b8d3df5c" x="283.986246" y="404.41276" style="fill: #1f77b4; stroke: #ffffff; stroke-width: 0.48"/>
     <use xlink:href="#me9b8d3df5c" x="304.728966" y="421.43307" style="fill: #1f77b4; stroke: #ffffff; stroke-width: 0.48"/>
     <use xlink:href="#me9b8d3df5c" x="309.150737" y="422.671786" style="fill: #1f77b4; stroke: #ffffff; stroke-width: 0.48"/>
     <use xlink:href="#me9b8d3df5c" x="320.302155" y="398.074841" style="fill: #1f77b4; stroke: #ffffff; stroke-width: 0.48"/>
     <use xlink:href="#me9b8d3df5c" x="307.628844" y="397.264212" style="fill: #1f77b4; stroke: #ffffff; stroke-width: 0.48"/>
     <use xlink:href="#me9b8d3df5c" x="325.092645" y="345.67956" style="fill: #1f77b4; stroke: #ffffff; stroke-width: 0.48"/>
     <use xlink:href="#me9b8d3df5c" x="312.852855" y="396.699243" style="fill: #1f77b4; stroke: #ffffff; stroke-width: 0.48"/>
     <use xlink:href="#me9b8d3df5c" x="319.216535" y="375.347283" style="fill: #1f77b4; stroke: #ffffff; stroke-width: 0.48"/>
     <use xlink:href="#me9b8d3df5c" x="308.659579" y="411.931678" style="fill: #1f77b4; stroke: #ffffff; stroke-width: 0.48"/>
     <use xlink:href="#me9b8d3df5c" x="321.266418" y="344.457692" style="fill: #1f77b4; stroke: #ffffff; stroke-width: 0.48"/>
     <use xlink:href="#me9b8d3df5c" x="308.354254" y="392.004674" style="fill: #1f77b4; stroke: #ffffff; stroke-width: 0.48"/>
     <use xlink:href="#me9b8d3df5c" x="311.894759" y="371.876727" style="fill: #1f77b4; stroke: #ffffff; stroke-width: 0.48"/>
     <use xlink:href="#me9b8d3df5c" x="312.657837" y="372.851721" style="fill: #1f77b4; stroke: #ffffff; stroke-width: 0.48"/>
     <use xlink:href="#me9b8d3df5c" x="306.812484" y="448.222606" style="fill: #1f77b4; stroke: #ffffff; stroke-width: 0.48"/>
     <use xlink:href="#me9b8d3df5c" x="298.589967" y="488.64697" style="fill: #1f77b4; stroke: #ffffff; stroke-width: 0.48"/>
     <use xlink:href="#me9b8d3df5c" x="313.849232" y="408.380282" style="fill: #1f77b4; stroke: #ffffff; stroke-width: 0.48"/>
     <use xlink:href="#me9b8d3df5c" x="310.142991" y="440.747337" style="fill: #1f77b4; stroke: #ffffff; stroke-width: 0.48"/>
     <use xlink:href="#me9b8d3df5c" x="307.689374" y="440.147052" style="fill: #1f77b4; stroke: #ffffff; stroke-width: 0.48"/>
     <use xlink:href="#me9b8d3df5c" x="250.992803" y="376.416588" style="fill: #1f77b4; stroke: #ffffff; stroke-width: 0.48"/>
     <use xlink:href="#me9b8d3df5c" x="316.979691" y="380.627755" style="fill: #1f77b4; stroke: #ffffff; stroke-width: 0.48"/>
     <use xlink:href="#me9b8d3df5c" x="291.255989" y="352.877785" style="fill: #1f77b4; stroke: #ffffff; stroke-width: 0.48"/>
     <use xlink:href="#me9b8d3df5c" x="322.5718" y="432.693835" style="fill: #1f77b4; stroke: #ffffff; stroke-width: 0.48"/>
     <use xlink:href="#me9b8d3df5c" x="289.019145" y="350.939612" style="fill: #1f77b4; stroke: #ffffff; stroke-width: 0.48"/>
     <use xlink:href="#me9b8d3df5c" x="316.979691" y="405.06401" style="fill: #1f77b4; stroke: #ffffff; stroke-width: 0.48"/>
     <use xlink:href="#me9b8d3df5c" x="297.96652" y="445.784626" style="fill: #1f77b4; stroke: #ffffff; stroke-width: 0.48"/>
     <use xlink:href="#me9b8d3df5c" x="250.992803" y="376.416588" style="fill: #1f77b4; stroke: #ffffff; stroke-width: 0.48"/>
     <use xlink:href="#me9b8d3df5c" x="250.992803" y="376.416588" style="fill: #1f77b4; stroke: #ffffff; stroke-width: 0.48"/>
     <use xlink:href="#me9b8d3df5c" x="281.190192" y="353.528054" style="fill: #1f77b4; stroke: #ffffff; stroke-width: 0.48"/>
     <use xlink:href="#me9b8d3df5c" x="291.8152" y="408.212529" style="fill: #1f77b4; stroke: #ffffff; stroke-width: 0.48"/>
     <use xlink:href="#me9b8d3df5c" x="275.042689" y="343.586364" style="fill: #1f77b4; stroke: #ffffff; stroke-width: 0.48"/>
     <use xlink:href="#me9b8d3df5c" x="289.019145" y="366.24514" style="fill: #1f77b4; stroke: #ffffff; stroke-width: 0.48"/>
     <use xlink:href="#me9b8d3df5c" x="250.992803" y="376.416588" style="fill: #1f77b4; stroke: #ffffff; stroke-width: 0.48"/>
     <use xlink:href="#me9b8d3df5c" x="301.321785" y="392.440548" style="fill: #1f77b4; stroke: #ffffff; stroke-width: 0.48"/>
     <use xlink:href="#me9b8d3df5c" x="250.992803" y="376.416588" style="fill: #1f77b4; stroke: #ffffff; stroke-width: 0.48"/>
     <use xlink:href="#me9b8d3df5c" x="250.992803" y="376.416588" style="fill: #1f77b4; stroke: #ffffff; stroke-width: 0.48"/>
     <use xlink:href="#me9b8d3df5c" x="250.992803" y="376.416588" style="fill: #1f77b4; stroke: #ffffff; stroke-width: 0.48"/>
     <use xlink:href="#me9b8d3df5c" x="285.647874" y="379.741677" style="fill: #1f77b4; stroke: #ffffff; stroke-width: 0.48"/>
     <use xlink:href="#me9b8d3df5c" x="250.992803" y="376.416588" style="fill: #1f77b4; stroke: #ffffff; stroke-width: 0.48"/>
     <use xlink:href="#me9b8d3df5c" x="250.992803" y="376.416588" style="fill: #1f77b4; stroke: #ffffff; stroke-width: 0.48"/>
     <use xlink:href="#me9b8d3df5c" x="250.992803" y="376.416588" style="fill: #1f77b4; stroke: #ffffff; stroke-width: 0.48"/>
     <use xlink:href="#me9b8d3df5c" x="250.992803" y="376.416588" style="fill: #1f77b4; stroke: #ffffff; stroke-width: 0.48"/>
     <use xlink:href="#me9b8d3df5c" x="250.992803" y="376.416588" style="fill: #1f77b4; stroke: #ffffff; stroke-width: 0.48"/>
     <use xlink:href="#me9b8d3df5c" x="250.992803" y="376.416588" style="fill: #1f77b4; stroke: #ffffff; stroke-width: 0.48"/>
     <use xlink:href="#me9b8d3df5c" x="250.992803" y="376.416588" style="fill: #1f77b4; stroke: #ffffff; stroke-width: 0.48"/>
     <use xlink:href="#me9b8d3df5c" x="250.992803" y="376.416588" style="fill: #1f77b4; stroke: #ffffff; stroke-width: 0.48"/>
     <use xlink:href="#me9b8d3df5c" x="250.992803" y="376.416588" style="fill: #1f77b4; stroke: #ffffff; stroke-width: 0.48"/>
    </g>
   </g>
   <g id="patch_13">
    <path d="M 210.491667 495.9 
L 210.491667 336.333333 
" style="fill: none; stroke: #cccccc; stroke-width: 0.8; stroke-linejoin: miter; stroke-linecap: square"/>
   </g>
   <g id="patch_14">
    <path d="M 210.491667 495.9 
L 365.839583 495.9 
" style="fill: none; stroke: #cccccc; stroke-width: 0.8; stroke-linejoin: miter; stroke-linecap: square"/>
   </g>
   <g id="text_23">
    <!-- $\rho$ = -0.29 -->
    <g style="fill: #262626" transform="translate(226.026458 352.29) scale(0.1 -0.1)">
     <use xlink:href="#DejaVuSans-Oblique-3c1" transform="translate(0 0.78125)"/>
     <use xlink:href="#DejaVuSans-20" transform="translate(63.476562 0.78125)"/>
     <use xlink:href="#DejaVuSans-3d" transform="translate(95.263672 0.78125)"/>
     <use xlink:href="#DejaVuSans-20" transform="translate(179.052734 0.78125)"/>
     <use xlink:href="#DejaVuSans-2d" transform="translate(210.839844 0.78125)"/>
     <use xlink:href="#DejaVuSans-30" transform="translate(246.923828 0.78125)"/>
     <use xlink:href="#DejaVuSans-2e" transform="translate(310.546875 0.78125)"/>
     <use xlink:href="#DejaVuSans-32" transform="translate(336.833984 0.78125)"/>
     <use xlink:href="#DejaVuSans-39" transform="translate(398.707031 0.78125)"/>
    </g>
   </g>
  </g>
  <g id="axes_6">
   <g id="patch_15">
    <path d="M 370.839583 495.9 
L 526.1875 495.9 
L 526.1875 336.333333 
L 370.839583 336.333333 
z
" style="fill: #ffffff"/>
   </g>
   <g id="matplotlib.axis_9">
    <g id="xtick_16">
     <g id="line2d_32">
      <path d="M 371.066354 495.9 
L 371.066354 336.333333 
" clip-path="url(#pe6e14fa76c)" style="fill: none; stroke: #cccccc; stroke-width: 0.8; stroke-linecap: round"/>
     </g>
     <g id="text_24">
      <!-- 0.5 -->
      <g style="fill: #262626" transform="translate(358.924948 510.498438) scale(0.1 -0.1)">
       <defs>
        <path id="DejaVuSans-2212" d="M 678 2272 
L 4684 2272 
L 4684 1741 
L 678 1741 
L 678 2272 
z
" transform="scale(0.015625)"/>
       </defs>
       <use xlink:href="#DejaVuSans-2212"/>
       <use xlink:href="#DejaVuSans-30" x="83.789062"/>
       <use xlink:href="#DejaVuSans-2e" x="147.412109"/>
       <use xlink:href="#DejaVuSans-35" x="179.199219"/>
      </g>
     </g>
    </g>
    <g id="xtick_17">
     <g id="line2d_33">
      <path d="M 405.734472 495.9 
L 405.734472 336.333333 
" clip-path="url(#pe6e14fa76c)" style="fill: none; stroke: #cccccc; stroke-width: 0.8; stroke-linecap: round"/>
     </g>
     <g id="text_25">
      <!-- 0.0 -->
      <g style="fill: #262626" transform="translate(397.78291 510.498438) scale(0.1 -0.1)">
       <use xlink:href="#DejaVuSans-30"/>
       <use xlink:href="#DejaVuSans-2e" x="63.623047"/>
       <use xlink:href="#DejaVuSans-30" x="95.410156"/>
      </g>
     </g>
    </g>
    <g id="xtick_18">
     <g id="line2d_34">
      <path d="M 440.40259 495.9 
L 440.40259 336.333333 
" clip-path="url(#pe6e14fa76c)" style="fill: none; stroke: #cccccc; stroke-width: 0.8; stroke-linecap: round"/>
     </g>
     <g id="text_26">
      <!-- 0.5 -->
      <g style="fill: #262626" transform="translate(432.451028 510.498438) scale(0.1 -0.1)">
       <use xlink:href="#DejaVuSans-30"/>
       <use xlink:href="#DejaVuSans-2e" x="63.623047"/>
       <use xlink:href="#DejaVuSans-35" x="95.410156"/>
      </g>
     </g>
    </g>
    <g id="xtick_19">
     <g id="line2d_35">
      <path d="M 475.070708 495.9 
L 475.070708 336.333333 
" clip-path="url(#pe6e14fa76c)" style="fill: none; stroke: #cccccc; stroke-width: 0.8; stroke-linecap: round"/>
     </g>
     <g id="text_27">
      <!-- 1.0 -->
      <g style="fill: #262626" transform="translate(467.119146 510.498438) scale(0.1 -0.1)">
       <use xlink:href="#DejaVuSans-31"/>
       <use xlink:href="#DejaVuSans-2e" x="63.623047"/>
       <use xlink:href="#DejaVuSans-30" x="95.410156"/>
      </g>
     </g>
    </g>
    <g id="xtick_20">
     <g id="line2d_36">
      <path d="M 509.738826 495.9 
L 509.738826 336.333333 
" clip-path="url(#pe6e14fa76c)" style="fill: none; stroke: #cccccc; stroke-width: 0.8; stroke-linecap: round"/>
     </g>
     <g id="text_28">
      <!-- 1.5 -->
      <g style="fill: #262626" transform="translate(501.787264 510.498438) scale(0.1 -0.1)">
       <use xlink:href="#DejaVuSans-31"/>
       <use xlink:href="#DejaVuSans-2e" x="63.623047"/>
       <use xlink:href="#DejaVuSans-35" x="95.410156"/>
      </g>
     </g>
    </g>
    <g id="text_29">
     <!-- glad -->
     <g style="fill: #262626" transform="translate(437.711979 524.176563) scale(0.1 -0.1)">
      <use xlink:href="#DejaVuSans-67"/>
      <use xlink:href="#DejaVuSans-6c" x="63.476562"/>
      <use xlink:href="#DejaVuSans-61" x="91.259766"/>
      <use xlink:href="#DejaVuSans-64" x="152.539062"/>
     </g>
    </g>
   </g>
   <g id="patch_16">
    <path d="M 370.839583 495.9 
L 526.1875 495.9 
" style="fill: none; stroke: #cccccc; stroke-width: 0.8; stroke-linejoin: miter; stroke-linecap: square"/>
   </g>
  </g>
  <g id="axes_7">
   <g id="PolyCollection_1">
    <defs>
     <path id="m53a668a8bf" d="M 57.205019 -367.775051 
L 57.205019 -366.967708 
L 57.914694 -366.967708 
L 58.624369 -366.967708 
L 59.334045 -366.967708 
L 60.04372 -366.967708 
L 60.753395 -366.967708 
L 61.463071 -366.967708 
L 62.172746 -366.967708 
L 62.882421 -366.967708 
L 63.592096 -366.967708 
L 64.301772 -366.967708 
L 65.011447 -366.967708 
L 65.721122 -366.967708 
L 66.430797 -366.967708 
L 67.140473 -366.967708 
L 67.850148 -366.967708 
L 68.559823 -366.967708 
L 69.269499 -366.967708 
L 69.979174 -366.967708 
L 70.688849 -366.967708 
L 71.398524 -366.967708 
L 72.1082 -366.967708 
L 72.817875 -366.967708 
L 73.52755 -366.967708 
L 74.237225 -366.967708 
L 74.946901 -366.967708 
L 75.656576 -366.967708 
L 76.366251 -366.967708 
L 77.075927 -366.967708 
L 77.785602 -366.967708 
L 78.495277 -366.967708 
L 79.204952 -366.967708 
L 79.914628 -366.967708 
L 80.624303 -366.967708 
L 81.333978 -366.967708 
L 82.043653 -366.967708 
L 82.753329 -366.967708 
L 83.463004 -366.967708 
L 84.172679 -366.967708 
L 84.882354 -366.967708 
L 85.59203 -366.967708 
L 86.301705 -366.967708 
L 87.01138 -366.967708 
L 87.721056 -366.967708 
L 88.430731 -366.967708 
L 89.140406 -366.967708 
L 89.850081 -366.967708 
L 90.559757 -366.967708 
L 91.269432 -366.967708 
L 91.979107 -366.967708 
L 92.688782 -366.967708 
L 93.398458 -366.967708 
L 94.108133 -366.967708 
L 94.817808 -366.967708 
L 95.527484 -366.967708 
L 96.237159 -366.967708 
L 96.946834 -366.967708 
L 97.656509 -366.967708 
L 98.366185 -366.967708 
L 99.07586 -366.967708 
L 99.785535 -366.967708 
L 100.49521 -366.967708 
L 101.204886 -366.967708 
L 101.914561 -366.967708 
L 102.624236 -366.967708 
L 103.333912 -366.967708 
L 104.043587 -366.967708 
L 104.753262 -366.967708 
L 105.462937 -366.967708 
L 106.172613 -366.967708 
L 106.882288 -366.967708 
L 107.591963 -366.967708 
L 108.301638 -366.967708 
L 109.011314 -366.967708 
L 109.720989 -366.967708 
L 110.430664 -366.967708 
L 111.140339 -366.967708 
L 111.850015 -366.967708 
L 112.55969 -366.967708 
L 113.269365 -366.967708 
L 113.979041 -366.967708 
L 114.688716 -366.967708 
L 115.398391 -366.967708 
L 116.108066 -366.967708 
L 116.817742 -366.967708 
L 117.527417 -366.967708 
L 118.237092 -366.967708 
L 118.946767 -366.967708 
L 119.656443 -366.967708 
L 120.366118 -366.967708 
L 121.075793 -366.967708 
L 121.785469 -366.967708 
L 122.495144 -366.967708 
L 123.204819 -366.967708 
L 123.914494 -366.967708 
L 124.62417 -366.967708 
L 125.333845 -366.967708 
L 126.04352 -366.967708 
L 126.753195 -366.967708 
L 127.462871 -366.967708 
L 128.172546 -366.967708 
L 128.882221 -366.967708 
L 129.591897 -366.967708 
L 130.301572 -366.967708 
L 131.011247 -366.967708 
L 131.720922 -366.967708 
L 132.430598 -366.967708 
L 133.140273 -366.967708 
L 133.849948 -366.967708 
L 134.559623 -366.967708 
L 135.269299 -366.967708 
L 135.978974 -366.967708 
L 136.688649 -366.967708 
L 137.398324 -366.967708 
L 138.108 -366.967708 
L 138.817675 -366.967708 
L 139.52735 -366.967708 
L 140.237026 -366.967708 
L 140.946701 -366.967708 
L 141.656376 -366.967708 
L 142.366051 -366.967708 
L 143.075727 -366.967708 
L 143.785402 -366.967708 
L 144.495077 -366.967708 
L 145.204752 -366.967708 
L 145.914428 -366.967708 
L 146.624103 -366.967708 
L 147.333778 -366.967708 
L 148.043454 -366.967708 
L 148.753129 -366.967708 
L 149.462804 -366.967708 
L 150.172479 -366.967708 
L 150.882155 -366.967708 
L 151.59183 -366.967708 
L 152.301505 -366.967708 
L 153.01118 -366.967708 
L 153.720856 -366.967708 
L 154.430531 -366.967708 
L 155.140206 -366.967708 
L 155.849882 -366.967708 
L 156.559557 -366.967708 
L 157.269232 -366.967708 
L 157.978907 -366.967708 
L 158.688583 -366.967708 
L 159.398258 -366.967708 
L 160.107933 -366.967708 
L 160.817608 -366.967708 
L 161.527284 -366.967708 
L 162.236959 -366.967708 
L 162.946634 -366.967708 
L 163.656309 -366.967708 
L 164.365985 -366.967708 
L 165.07566 -366.967708 
L 165.785335 -366.967708 
L 166.495011 -366.967708 
L 167.204686 -366.967708 
L 167.914361 -366.967708 
L 168.624036 -366.967708 
L 169.333712 -366.967708 
L 170.043387 -366.967708 
L 170.753062 -366.967708 
L 171.462737 -366.967708 
L 172.172413 -366.967708 
L 172.882088 -366.967708 
L 173.591763 -366.967708 
L 174.301439 -366.967708 
L 175.011114 -366.967708 
L 175.720789 -366.967708 
L 176.430464 -366.967708 
L 177.14014 -366.967708 
L 177.849815 -366.967708 
L 178.55949 -366.967708 
L 179.269165 -366.967708 
L 179.978841 -366.967708 
L 180.688516 -366.967708 
L 181.398191 -366.967708 
L 182.107867 -366.967708 
L 182.817542 -366.967708 
L 183.527217 -366.967708 
L 184.236892 -366.967708 
L 184.946568 -366.967708 
L 185.656243 -366.967708 
L 186.365918 -366.967708 
L 187.075593 -366.967708 
L 187.785269 -366.967708 
L 188.494944 -366.967708 
L 189.204619 -366.967708 
L 189.914294 -366.967708 
L 190.62397 -366.967708 
L 191.333645 -366.967708 
L 192.04332 -366.967708 
L 192.752996 -366.967708 
L 193.462671 -366.967708 
L 194.172346 -366.967708 
L 194.882021 -366.967708 
L 195.591697 -366.967708 
L 196.301372 -366.967708 
L 197.011047 -366.967708 
L 197.720722 -366.967708 
L 198.430398 -366.967708 
L 198.430398 -367.216244 
L 198.430398 -367.216244 
L 197.720722 -367.273098 
L 197.011047 -367.341579 
L 196.301372 -367.423738 
L 195.591697 -367.521919 
L 194.882021 -367.638785 
L 194.172346 -367.777344 
L 193.462671 -367.940976 
L 192.752996 -368.133459 
L 192.04332 -368.358991 
L 191.333645 -368.62221 
L 190.62397 -368.928206 
L 189.914294 -369.282539 
L 189.204619 -369.691237 
L 188.494944 -370.160794 
L 187.785269 -370.698161 
L 187.075593 -371.310725 
L 186.365918 -372.006276 
L 185.656243 -372.792967 
L 184.946568 -373.679257 
L 184.236892 -374.67385 
L 183.527217 -375.785607 
L 182.817542 -377.023461 
L 182.107867 -378.396307 
L 181.398191 -379.912888 
L 180.688516 -381.58166 
L 179.978841 -383.410657 
L 179.269165 -385.407345 
L 178.55949 -387.578461 
L 177.849815 -389.929857 
L 177.14014 -392.466338 
L 176.430464 -395.191503 
L 175.720789 -398.107585 
L 175.011114 -401.215306 
L 174.301439 -404.513731 
L 173.591763 -408.000149 
L 172.882088 -411.669964 
L 172.172413 -415.516603 
L 171.462737 -419.531455 
L 170.753062 -423.703831 
L 170.043387 -428.020953 
L 169.333712 -432.467974 
L 168.624036 -437.028027 
L 167.914361 -441.682309 
L 167.204686 -446.410197 
L 166.495011 -451.18939 
L 165.785335 -455.99609 
L 165.07566 -460.805206 
L 164.365985 -465.590584 
L 163.656309 -470.325264 
L 162.946634 -474.981756 
L 162.236959 -479.532326 
L 161.527284 -483.949301 
L 160.817608 -488.205378 
L 160.107933 -492.27393 
L 159.398258 -496.12932 
L 158.688583 -499.747194 
L 157.978907 -503.104769 
L 157.269232 -506.181103 
L 156.559557 -508.957341 
L 155.849882 -511.416935 
L 155.140206 -513.545838 
L 154.430531 -515.332663 
L 153.720856 -516.768806 
L 153.01118 -517.848539 
L 152.301505 -518.569062 
L 151.59183 -518.930516 
L 150.882155 -518.935962 
L 150.172479 -518.591323 
L 149.462804 -517.905288 
L 148.753129 -516.889191 
L 148.043454 -515.556847 
L 147.333778 -513.924373 
L 146.624103 -512.009979 
L 145.914428 -509.833735 
L 145.204752 -507.417323 
L 144.495077 -504.783783 
L 143.785402 -501.95723 
L 143.075727 -498.96259 
L 142.366051 -495.825308 
L 141.656376 -492.571079 
L 140.946701 -489.225567 
L 140.237026 -485.814142 
L 139.52735 -482.361626 
L 138.817675 -478.892046 
L 138.108 -475.428416 
L 137.398324 -471.992525 
L 136.688649 -468.604753 
L 135.978974 -465.283908 
L 135.269299 -462.047089 
L 134.559623 -458.90957 
L 133.849948 -455.884716 
L 133.140273 -452.983922 
L 132.430598 -450.216585 
L 131.720922 -447.590095 
L 131.011247 -445.109868 
L 130.301572 -442.779391 
L 129.591897 -440.600304 
L 128.882221 -438.572505 
L 128.172546 -436.694274 
L 127.462871 -434.962431 
L 126.753195 -433.372496 
L 126.04352 -431.918883 
L 125.333845 -430.595097 
L 124.62417 -429.393946 
L 123.914494 -428.307763 
L 123.204819 -427.328619 
L 122.495144 -426.448551 
L 121.785469 -425.659775 
L 121.075793 -424.954885 
L 120.366118 -424.327051 
L 119.656443 -423.770184 
L 118.946767 -423.279088 
L 118.237092 -422.849579 
L 117.527417 -422.478575 
L 116.817742 -422.164156 
L 116.108066 -421.905579 
L 115.398391 -421.703268 
L 114.688716 -421.558749 
L 113.979041 -421.474562 
L 113.269365 -421.454125 
L 112.55969 -421.501566 
L 111.850015 -421.621518 
L 111.140339 -421.818894 
L 110.430664 -422.098628 
L 109.720989 -422.465405 
L 109.011314 -422.923379 
L 108.301638 -423.475887 
L 107.591963 -424.125169 
L 106.882288 -424.872105 
L 106.172613 -425.715962 
L 105.462937 -426.654191 
L 104.753262 -427.682243 
L 104.043587 -428.793444 
L 103.333912 -429.978917 
L 102.624236 -431.227556 
L 101.914561 -432.526072 
L 101.204886 -433.859088 
L 100.49521 -435.209304 
L 99.785535 -436.557719 
L 99.07586 -437.883913 
L 98.366185 -439.166371 
L 97.656509 -440.382862 
L 96.946834 -441.510843 
L 96.237159 -442.527893 
L 95.527484 -443.412158 
L 94.817808 -444.142795 
L 94.108133 -444.700413 
L 93.398458 -445.067484 
L 92.688782 -445.22872 
L 91.979107 -445.171413 
L 91.269432 -444.885711 
L 90.559757 -444.364842 
L 89.850081 -443.605262 
L 89.140406 -442.606737 
L 88.430731 -441.372351 
L 87.721056 -439.908442 
L 87.01138 -438.224462 
L 86.301705 -436.332779 
L 85.59203 -434.248417 
L 84.882354 -431.988742 
L 84.172679 -429.57311 
L 83.463004 -427.022481 
L 82.753329 -424.359008 
L 82.043653 -421.605624 
L 81.333978 -418.785626 
L 80.624303 -415.922262 
L 79.914628 -413.038353 
L 79.204952 -410.155928 
L 78.495277 -407.295912 
L 77.785602 -404.477835 
L 77.075927 -401.719609 
L 76.366251 -399.037333 
L 75.656576 -396.445163 
L 74.946901 -393.955222 
L 74.237225 -391.577562 
L 73.52755 -389.320167 
L 72.817875 -387.189 
L 72.1082 -385.188084 
L 71.398524 -383.319616 
L 70.688849 -381.584102 
L 69.979174 -379.980516 
L 69.269499 -378.506471 
L 68.559823 -377.158397 
L 67.850148 -375.931726 
L 67.140473 -374.82107 
L 66.430797 -373.820403 
L 65.721122 -372.92322 
L 65.011447 -372.122701 
L 64.301772 -371.411846 
L 63.592096 -370.783608 
L 62.882421 -370.230999 
L 62.172746 -369.747188 
L 61.463071 -369.325578 
L 60.753395 -368.959868 
L 60.04372 -368.644104 
L 59.334045 -368.372708 
L 58.624369 -368.140506 
L 57.914694 -367.942736 
L 57.205019 -367.775051 
z
" style="stroke: #1f77b4"/>
    </defs>
    <g clip-path="url(#p0fc6134249)">
     <use xlink:href="#m53a668a8bf" x="0" y="533.734375" style="fill: #1f77b4; fill-opacity: 0.25; stroke: #1f77b4"/>
    </g>
   </g>
  </g>
  <g id="axes_8">
   <g id="PolyCollection_2">
    <defs>
     <path id="m40058b3d17" d="M 217.552936 -203.094914 
L 217.552936 -202.401042 
L 218.262611 -202.401042 
L 218.972286 -202.401042 
L 219.681961 -202.401042 
L 220.391637 -202.401042 
L 221.101312 -202.401042 
L 221.810987 -202.401042 
L 222.520662 -202.401042 
L 223.230338 -202.401042 
L 223.940013 -202.401042 
L 224.649688 -202.401042 
L 225.359364 -202.401042 
L 226.069039 -202.401042 
L 226.778714 -202.401042 
L 227.488389 -202.401042 
L 228.198065 -202.401042 
L 228.90774 -202.401042 
L 229.617415 -202.401042 
L 230.32709 -202.401042 
L 231.036766 -202.401042 
L 231.746441 -202.401042 
L 232.456116 -202.401042 
L 233.165792 -202.401042 
L 233.875467 -202.401042 
L 234.585142 -202.401042 
L 235.294817 -202.401042 
L 236.004493 -202.401042 
L 236.714168 -202.401042 
L 237.423843 -202.401042 
L 238.133518 -202.401042 
L 238.843194 -202.401042 
L 239.552869 -202.401042 
L 240.262544 -202.401042 
L 240.97222 -202.401042 
L 241.681895 -202.401042 
L 242.39157 -202.401042 
L 243.101245 -202.401042 
L 243.810921 -202.401042 
L 244.520596 -202.401042 
L 245.230271 -202.401042 
L 245.939946 -202.401042 
L 246.649622 -202.401042 
L 247.359297 -202.401042 
L 248.068972 -202.401042 
L 248.778647 -202.401042 
L 249.488323 -202.401042 
L 250.197998 -202.401042 
L 250.907673 -202.401042 
L 251.617349 -202.401042 
L 252.327024 -202.401042 
L 253.036699 -202.401042 
L 253.746374 -202.401042 
L 254.45605 -202.401042 
L 255.165725 -202.401042 
L 255.8754 -202.401042 
L 256.585075 -202.401042 
L 257.294751 -202.401042 
L 258.004426 -202.401042 
L 258.714101 -202.401042 
L 259.423777 -202.401042 
L 260.133452 -202.401042 
L 260.843127 -202.401042 
L 261.552802 -202.401042 
L 262.262478 -202.401042 
L 262.972153 -202.401042 
L 263.681828 -202.401042 
L 264.391503 -202.401042 
L 265.101179 -202.401042 
L 265.810854 -202.401042 
L 266.520529 -202.401042 
L 267.230205 -202.401042 
L 267.93988 -202.401042 
L 268.649555 -202.401042 
L 269.35923 -202.401042 
L 270.068906 -202.401042 
L 270.778581 -202.401042 
L 271.488256 -202.401042 
L 272.197931 -202.401042 
L 272.907607 -202.401042 
L 273.617282 -202.401042 
L 274.326957 -202.401042 
L 275.036632 -202.401042 
L 275.746308 -202.401042 
L 276.455983 -202.401042 
L 277.165658 -202.401042 
L 277.875334 -202.401042 
L 278.585009 -202.401042 
L 279.294684 -202.401042 
L 280.004359 -202.401042 
L 280.714035 -202.401042 
L 281.42371 -202.401042 
L 282.133385 -202.401042 
L 282.84306 -202.401042 
L 283.552736 -202.401042 
L 284.262411 -202.401042 
L 284.972086 -202.401042 
L 285.681762 -202.401042 
L 286.391437 -202.401042 
L 287.101112 -202.401042 
L 287.810787 -202.401042 
L 288.520463 -202.401042 
L 289.230138 -202.401042 
L 289.939813 -202.401042 
L 290.649488 -202.401042 
L 291.359164 -202.401042 
L 292.068839 -202.401042 
L 292.778514 -202.401042 
L 293.48819 -202.401042 
L 294.197865 -202.401042 
L 294.90754 -202.401042 
L 295.617215 -202.401042 
L 296.326891 -202.401042 
L 297.036566 -202.401042 
L 297.746241 -202.401042 
L 298.455916 -202.401042 
L 299.165592 -202.401042 
L 299.875267 -202.401042 
L 300.584942 -202.401042 
L 301.294618 -202.401042 
L 302.004293 -202.401042 
L 302.713968 -202.401042 
L 303.423643 -202.401042 
L 304.133319 -202.401042 
L 304.842994 -202.401042 
L 305.552669 -202.401042 
L 306.262344 -202.401042 
L 306.97202 -202.401042 
L 307.681695 -202.401042 
L 308.39137 -202.401042 
L 309.101045 -202.401042 
L 309.810721 -202.401042 
L 310.520396 -202.401042 
L 311.230071 -202.401042 
L 311.939747 -202.401042 
L 312.649422 -202.401042 
L 313.359097 -202.401042 
L 314.068772 -202.401042 
L 314.778448 -202.401042 
L 315.488123 -202.401042 
L 316.197798 -202.401042 
L 316.907473 -202.401042 
L 317.617149 -202.401042 
L 318.326824 -202.401042 
L 319.036499 -202.401042 
L 319.746175 -202.401042 
L 320.45585 -202.401042 
L 321.165525 -202.401042 
L 321.8752 -202.401042 
L 322.584876 -202.401042 
L 323.294551 -202.401042 
L 324.004226 -202.401042 
L 324.713901 -202.401042 
L 325.423577 -202.401042 
L 326.133252 -202.401042 
L 326.842927 -202.401042 
L 327.552603 -202.401042 
L 328.262278 -202.401042 
L 328.971953 -202.401042 
L 329.681628 -202.401042 
L 330.391304 -202.401042 
L 331.100979 -202.401042 
L 331.810654 -202.401042 
L 332.520329 -202.401042 
L 333.230005 -202.401042 
L 333.93968 -202.401042 
L 334.649355 -202.401042 
L 335.35903 -202.401042 
L 336.068706 -202.401042 
L 336.778381 -202.401042 
L 337.488056 -202.401042 
L 338.197732 -202.401042 
L 338.907407 -202.401042 
L 339.617082 -202.401042 
L 340.326757 -202.401042 
L 341.036433 -202.401042 
L 341.746108 -202.401042 
L 342.455783 -202.401042 
L 343.165458 -202.401042 
L 343.875134 -202.401042 
L 344.584809 -202.401042 
L 345.294484 -202.401042 
L 346.00416 -202.401042 
L 346.713835 -202.401042 
L 347.42351 -202.401042 
L 348.133185 -202.401042 
L 348.842861 -202.401042 
L 349.552536 -202.401042 
L 350.262211 -202.401042 
L 350.971886 -202.401042 
L 351.681562 -202.401042 
L 352.391237 -202.401042 
L 353.100912 -202.401042 
L 353.810588 -202.401042 
L 354.520263 -202.401042 
L 355.229938 -202.401042 
L 355.939613 -202.401042 
L 356.649289 -202.401042 
L 357.358964 -202.401042 
L 358.068639 -202.401042 
L 358.778314 -202.401042 
L 358.778314 -202.625003 
L 358.778314 -202.625003 
L 358.068639 -202.676626 
L 357.358964 -202.738913 
L 356.649289 -202.813771 
L 355.939613 -202.903388 
L 355.229938 -203.010255 
L 354.520263 -203.137197 
L 353.810588 -203.2874 
L 353.100912 -203.464434 
L 352.391237 -203.672285 
L 351.681562 -203.915371 
L 350.971886 -204.198564 
L 350.262211 -204.527207 
L 349.552536 -204.907118 
L 348.842861 -205.344602 
L 348.133185 -205.846438 
L 347.42351 -206.419872 
L 346.713835 -207.072592 
L 346.00416 -207.812698 
L 345.294484 -208.648654 
L 344.584809 -209.589232 
L 343.875134 -210.643445 
L 343.165458 -211.820459 
L 342.455783 -213.129501 
L 341.746108 -214.579746 
L 341.036433 -216.180196 
L 340.326757 -217.939543 
L 339.617082 -219.866025 
L 338.907407 -221.967269 
L 338.197732 -224.250128 
L 337.488056 -226.720512 
L 336.778381 -229.383216 
L 336.068706 -232.241749 
L 335.35903 -235.29816 
L 334.649355 -238.552882 
L 333.93968 -242.004572 
L 333.230005 -245.649973 
L 332.520329 -249.483793 
L 331.810654 -253.498595 
L 331.100979 -257.684724 
L 330.391304 -262.030251 
L 329.681628 -266.520953 
L 328.971953 -271.140318 
L 328.262278 -275.869595 
L 327.552603 -280.687871 
L 326.842927 -285.572186 
L 326.133252 -290.497694 
L 325.423577 -295.437848 
L 324.713901 -300.364629 
L 324.004226 -305.248805 
L 323.294551 -310.060226 
L 322.584876 -314.768136 
L 321.8752 -319.34152 
L 321.165525 -323.749462 
L 320.45585 -327.961513 
L 319.746175 -331.94808 
L 319.036499 -335.680794 
L 318.326824 -339.132892 
L 317.617149 -342.279573 
L 316.907473 -345.098338 
L 316.197798 -347.569303 
L 315.488123 -349.675483 
L 314.778448 -351.403026 
L 314.068772 -352.741417 
L 313.359097 -353.683624 
L 312.649422 -354.226194 
L 311.939747 -354.369296 
L 311.230071 -354.116704 
L 310.520396 -353.475731 
L 309.810721 -352.4571 
L 309.101045 -351.074767 
L 308.39137 -349.345691 
L 307.681695 -347.289562 
L 306.97202 -344.928489 
L 306.262344 -342.28665 
L 305.552669 -339.389923 
L 304.842994 -336.265493 
L 304.133319 -332.941452 
L 303.423643 -329.446394 
L 302.713968 -325.809018 
L 302.004293 -322.057745 
L 301.294618 -318.22035 
L 300.584942 -314.323633 
L 299.875267 -310.39311 
L 299.165592 -306.452754 
L 298.455916 -302.524773 
L 297.746241 -298.62943 
L 297.036566 -294.784917 
L 296.326891 -291.007271 
L 295.617215 -287.310339 
L 294.90754 -283.705782 
L 294.197865 -280.203134 
L 293.48819 -276.809882 
L 292.778514 -273.531595 
L 292.068839 -270.372076 
L 291.359164 -267.333538 
L 290.649488 -264.416803 
L 289.939813 -261.621509 
L 289.230138 -258.94633 
L 288.520463 -256.389196 
L 287.810787 -253.947513 
L 287.101112 -251.618373 
L 286.391437 -249.398756 
L 285.681762 -247.285719 
L 284.972086 -245.276561 
L 284.262411 -243.368977 
L 283.552736 -241.561182 
L 282.84306 -239.852017 
L 282.133385 -238.241026 
L 281.42371 -236.728512 
L 280.714035 -235.315564 
L 280.004359 -234.004061 
L 279.294684 -232.796648 
L 278.585009 -231.696693 
L 277.875334 -230.708215 
L 277.165658 -229.83579 
L 276.455983 -229.084441 
L 275.746308 -228.459504 
L 275.036632 -227.966478 
L 274.326957 -227.610856 
L 273.617282 -227.397951 
L 272.907607 -227.332701 
L 272.197931 -227.419479 
L 271.488256 -227.661884 
L 270.778581 -228.062548 
L 270.068906 -228.622935 
L 269.35923 -229.343153 
L 268.649555 -230.221781 
L 267.93988 -231.255712 
L 267.230205 -232.440016 
L 266.520529 -233.767837 
L 265.810854 -235.230317 
L 265.101179 -236.81656 
L 264.391503 -238.51363 
L 263.681828 -240.306601 
L 262.972153 -242.178643 
L 262.262478 -244.111158 
L 261.552802 -246.083964 
L 260.843127 -248.075515 
L 260.133452 -250.063169 
L 259.423777 -252.023494 
L 258.714101 -253.9326 
L 258.004426 -255.766503 
L 257.294751 -257.501499 
L 256.585075 -259.114557 
L 255.8754 -260.583707 
L 255.165725 -261.888418 
L 254.45605 -263.009962 
L 253.746374 -263.931748 
L 253.036699 -264.639618 
L 252.327024 -265.122106 
L 251.617349 -265.370639 
L 250.907673 -265.379685 
L 250.197998 -265.146837 
L 249.488323 -264.672844 
L 248.778647 -263.961568 
L 248.068972 -263.019885 
L 247.359297 -261.857525 
L 246.649622 -260.486863 
L 245.939946 -258.922649 
L 245.230271 -257.181713 
L 244.520596 -255.282623 
L 243.810921 -253.245329 
L 243.101245 -251.090783 
L 242.39157 -248.840565 
L 241.681895 -246.5165 
L 240.97222 -244.140297 
L 240.262544 -241.733206 
L 239.552869 -239.315701 
L 238.843194 -236.907198 
L 238.133518 -234.525809 
L 237.423843 -232.188141 
L 236.714168 -229.909138 
L 236.004493 -227.701961 
L 235.294817 -225.577923 
L 234.585142 -223.546453 
L 233.875467 -221.61511 
L 233.165792 -219.789626 
L 232.456116 -218.073984 
L 231.746441 -216.470521 
L 231.036766 -214.980051 
L 230.32709 -213.602012 
L 229.617415 -212.334613 
L 228.90774 -211.175002 
L 228.198065 -210.119423 
L 227.488389 -209.163382 
L 226.778714 -208.301802 
L 226.069039 -207.529172 
L 225.359364 -206.839683 
L 224.649688 -206.227359 
L 223.940013 -205.686167 
L 223.230338 -205.210112 
L 222.520662 -204.793328 
L 221.810987 -204.430142 
L 221.101312 -204.115132 
L 220.391637 -203.843168 
L 219.681961 -203.609448 
L 218.972286 -203.40951 
L 218.262611 -203.239248 
L 217.552936 -203.094914 
z
" style="stroke: #1f77b4"/>
    </defs>
    <g clip-path="url(#p89202c6ff4)">
     <use xlink:href="#m40058b3d17" x="0" y="533.734375" style="fill: #1f77b4; fill-opacity: 0.25; stroke: #1f77b4"/>
    </g>
   </g>
  </g>
  <g id="axes_9">
   <g id="PolyCollection_3">
    <defs>
     <path id="m403baeedcb" d="M 377.900852 -37.880228 
L 377.900852 -37.834375 
L 378.610528 -37.834375 
L 379.320203 -37.834375 
L 380.029878 -37.834375 
L 380.739553 -37.834375 
L 381.449229 -37.834375 
L 382.158904 -37.834375 
L 382.868579 -37.834375 
L 383.578254 -37.834375 
L 384.28793 -37.834375 
L 384.997605 -37.834375 
L 385.70728 -37.834375 
L 386.416956 -37.834375 
L 387.126631 -37.834375 
L 387.836306 -37.834375 
L 388.545981 -37.834375 
L 389.255657 -37.834375 
L 389.965332 -37.834375 
L 390.675007 -37.834375 
L 391.384682 -37.834375 
L 392.094358 -37.834375 
L 392.804033 -37.834375 
L 393.513708 -37.834375 
L 394.223383 -37.834375 
L 394.933059 -37.834375 
L 395.642734 -37.834375 
L 396.352409 -37.834375 
L 397.062085 -37.834375 
L 397.77176 -37.834375 
L 398.481435 -37.834375 
L 399.19111 -37.834375 
L 399.900786 -37.834375 
L 400.610461 -37.834375 
L 401.320136 -37.834375 
L 402.029811 -37.834375 
L 402.739487 -37.834375 
L 403.449162 -37.834375 
L 404.158837 -37.834375 
L 404.868513 -37.834375 
L 405.578188 -37.834375 
L 406.287863 -37.834375 
L 406.997538 -37.834375 
L 407.707214 -37.834375 
L 408.416889 -37.834375 
L 409.126564 -37.834375 
L 409.836239 -37.834375 
L 410.545915 -37.834375 
L 411.25559 -37.834375 
L 411.965265 -37.834375 
L 412.674941 -37.834375 
L 413.384616 -37.834375 
L 414.094291 -37.834375 
L 414.803966 -37.834375 
L 415.513642 -37.834375 
L 416.223317 -37.834375 
L 416.932992 -37.834375 
L 417.642667 -37.834375 
L 418.352343 -37.834375 
L 419.062018 -37.834375 
L 419.771693 -37.834375 
L 420.481368 -37.834375 
L 421.191044 -37.834375 
L 421.900719 -37.834375 
L 422.610394 -37.834375 
L 423.32007 -37.834375 
L 424.029745 -37.834375 
L 424.73942 -37.834375 
L 425.449095 -37.834375 
L 426.158771 -37.834375 
L 426.868446 -37.834375 
L 427.578121 -37.834375 
L 428.287796 -37.834375 
L 428.997472 -37.834375 
L 429.707147 -37.834375 
L 430.416822 -37.834375 
L 431.126498 -37.834375 
L 431.836173 -37.834375 
L 432.545848 -37.834375 
L 433.255523 -37.834375 
L 433.965199 -37.834375 
L 434.674874 -37.834375 
L 435.384549 -37.834375 
L 436.094224 -37.834375 
L 436.8039 -37.834375 
L 437.513575 -37.834375 
L 438.22325 -37.834375 
L 438.932926 -37.834375 
L 439.642601 -37.834375 
L 440.352276 -37.834375 
L 441.061951 -37.834375 
L 441.771627 -37.834375 
L 442.481302 -37.834375 
L 443.190977 -37.834375 
L 443.900652 -37.834375 
L 444.610328 -37.834375 
L 445.320003 -37.834375 
L 446.029678 -37.834375 
L 446.739353 -37.834375 
L 447.449029 -37.834375 
L 448.158704 -37.834375 
L 448.868379 -37.834375 
L 449.578055 -37.834375 
L 450.28773 -37.834375 
L 450.997405 -37.834375 
L 451.70708 -37.834375 
L 452.416756 -37.834375 
L 453.126431 -37.834375 
L 453.836106 -37.834375 
L 454.545781 -37.834375 
L 455.255457 -37.834375 
L 455.965132 -37.834375 
L 456.674807 -37.834375 
L 457.384483 -37.834375 
L 458.094158 -37.834375 
L 458.803833 -37.834375 
L 459.513508 -37.834375 
L 460.223184 -37.834375 
L 460.932859 -37.834375 
L 461.642534 -37.834375 
L 462.352209 -37.834375 
L 463.061885 -37.834375 
L 463.77156 -37.834375 
L 464.481235 -37.834375 
L 465.190911 -37.834375 
L 465.900586 -37.834375 
L 466.610261 -37.834375 
L 467.319936 -37.834375 
L 468.029612 -37.834375 
L 468.739287 -37.834375 
L 469.448962 -37.834375 
L 470.158637 -37.834375 
L 470.868313 -37.834375 
L 471.577988 -37.834375 
L 472.287663 -37.834375 
L 472.997338 -37.834375 
L 473.707014 -37.834375 
L 474.416689 -37.834375 
L 475.126364 -37.834375 
L 475.83604 -37.834375 
L 476.545715 -37.834375 
L 477.25539 -37.834375 
L 477.965065 -37.834375 
L 478.674741 -37.834375 
L 479.384416 -37.834375 
L 480.094091 -37.834375 
L 480.803766 -37.834375 
L 481.513442 -37.834375 
L 482.223117 -37.834375 
L 482.932792 -37.834375 
L 483.642468 -37.834375 
L 484.352143 -37.834375 
L 485.061818 -37.834375 
L 485.771493 -37.834375 
L 486.481169 -37.834375 
L 487.190844 -37.834375 
L 487.900519 -37.834375 
L 488.610194 -37.834375 
L 489.31987 -37.834375 
L 490.029545 -37.834375 
L 490.73922 -37.834375 
L 491.448896 -37.834375 
L 492.158571 -37.834375 
L 492.868246 -37.834375 
L 493.577921 -37.834375 
L 494.287597 -37.834375 
L 494.997272 -37.834375 
L 495.706947 -37.834375 
L 496.416622 -37.834375 
L 497.126298 -37.834375 
L 497.835973 -37.834375 
L 498.545648 -37.834375 
L 499.255323 -37.834375 
L 499.964999 -37.834375 
L 500.674674 -37.834375 
L 501.384349 -37.834375 
L 502.094025 -37.834375 
L 502.8037 -37.834375 
L 503.513375 -37.834375 
L 504.22305 -37.834375 
L 504.932726 -37.834375 
L 505.642401 -37.834375 
L 506.352076 -37.834375 
L 507.061751 -37.834375 
L 507.771427 -37.834375 
L 508.481102 -37.834375 
L 509.190777 -37.834375 
L 509.900453 -37.834375 
L 510.610128 -37.834375 
L 511.319803 -37.834375 
L 512.029478 -37.834375 
L 512.739154 -37.834375 
L 513.448829 -37.834375 
L 514.158504 -37.834375 
L 514.868179 -37.834375 
L 515.577855 -37.834375 
L 516.28753 -37.834375 
L 516.997205 -37.834375 
L 517.706881 -37.834375 
L 518.416556 -37.834375 
L 519.126231 -37.834375 
L 519.126231 -37.990972 
L 519.126231 -37.990972 
L 518.416556 -38.045333 
L 517.706881 -38.116051 
L 516.997205 -38.207157 
L 516.28753 -38.323389 
L 515.577855 -38.470229 
L 514.868179 -38.653923 
L 514.158504 -38.881464 
L 513.448829 -39.160536 
L 512.739154 -39.499415 
L 512.029478 -39.906817 
L 511.319803 -40.391684 
L 510.610128 -40.962918 
L 509.900453 -41.629059 
L 509.190777 -42.397909 
L 508.481102 -43.276123 
L 507.771427 -44.268779 
L 507.061751 -45.378946 
L 506.352076 -46.607285 
L 505.642401 -47.951699 
L 504.932726 -49.407072 
L 504.22305 -50.965136 
L 503.513375 -52.614471 
L 502.8037 -54.340688 
L 502.094025 -56.1268 
L 501.384349 -57.953789 
L 500.674674 -59.801371 
L 499.964999 -61.648941 
L 499.255323 -63.476675 
L 498.545648 -65.266739 
L 497.835973 -67.004557 
L 497.126298 -68.680079 
L 496.416622 -70.288968 
L 495.706947 -71.833634 
L 494.997272 -73.324047 
L 494.287597 -74.778233 
L 493.577921 -76.222424 
L 492.868246 -77.690774 
L 492.158571 -79.224633 
L 491.448896 -80.871351 
L 490.73922 -82.682636 
L 490.029545 -84.712488 
L 489.31987 -87.01478 
L 488.610194 -89.64059 
L 487.900519 -92.635365 
L 487.190844 -96.036091 
L 486.481169 -99.868586 
L 485.771493 -104.14509 
L 485.061818 -108.862296 
L 484.352143 -113.999967 
L 483.642468 -119.520267 
L 482.932792 -125.367875 
L 482.223117 -131.470953 
L 481.513442 -137.742964 
L 480.803766 -144.085273 
L 480.094091 -150.39047 
L 479.384416 -156.546228 
L 478.674741 -162.439539 
L 477.965065 -167.961092 
L 477.25539 -173.009569 
L 476.545715 -177.495618 
L 475.83604 -181.345288 
L 475.126364 -184.502737 
L 474.416689 -186.932058 
L 473.707014 -188.618154 
L 472.997338 -189.566614 
L 472.287663 -189.802629 
L 471.577988 -189.369048 
L 470.868313 -188.323703 
L 470.158637 -186.736187 
L 469.448962 -184.684299 
L 468.739287 -182.250345 
L 468.029612 -179.51753 
L 467.319936 -176.566594 
L 466.610261 -173.472871 
L 465.900586 -170.303872 
L 465.190911 -167.117461 
L 464.481235 -163.960673 
L 463.77156 -160.869141 
L 463.061885 -157.867109 
L 462.352209 -154.967963 
L 461.642534 -152.175178 
L 460.932859 -149.483614 
L 460.223184 -146.881042 
L 459.513508 -144.349818 
L 458.803833 -141.868609 
L 458.094158 -139.414106 
L 457.384483 -136.962635 
L 456.674807 -134.491632 
L 455.965132 -131.980924 
L 455.255457 -129.413785 
L 454.545781 -126.777738 
L 453.836106 -124.065108 
L 453.126431 -121.273291 
L 452.416756 -118.404784 
L 451.70708 -115.466965 
L 450.997405 -112.47166 
L 450.28773 -109.434536 
L 449.578055 -106.37435 
L 448.868379 -103.312107 
L 448.158704 -100.270174 
L 447.449029 -97.271384 
L 446.739353 -94.338185 
L 446.029678 -91.491855 
L 445.320003 -88.751819 
L 444.610328 -86.135085 
L 443.900652 -83.655799 
L 443.190977 -81.324935 
L 442.481302 -79.150106 
L 441.771627 -77.135486 
L 441.061951 -75.281836 
L 440.352276 -73.586618 
L 439.642601 -72.044185 
L 438.932926 -70.646039 
L 438.22325 -69.381143 
L 437.513575 -68.236282 
L 436.8039 -67.196469 
L 436.094224 -66.245394 
L 435.384549 -65.365897 
L 434.674874 -64.540467 
L 433.965199 -63.751759 
L 433.255523 -62.9831 
L 432.545848 -62.218989 
L 431.836173 -61.445556 
L 431.126498 -60.650966 
L 430.416822 -59.825757 
L 429.707147 -58.963087 
L 428.997472 -58.058876 
L 428.287796 -57.111853 
L 427.578121 -56.123474 
L 426.868446 -55.097752 
L 426.158771 -54.040976 
L 425.449095 -52.96136 
L 424.73942 -51.868624 
L 424.029745 -50.773535 
L 423.32007 -49.687446 
L 422.610394 -48.621824 
L 421.900719 -47.587832 
L 421.191044 -46.595941 
L 420.481368 -45.655619 
L 419.771693 -44.775088 
L 419.062018 -43.961158 
L 418.352343 -43.219133 
L 417.642667 -42.552796 
L 416.932992 -41.964438 
L 416.223317 -41.45495 
L 415.513642 -41.023935 
L 414.803966 -40.669848 
L 414.094291 -40.39014 
L 413.384616 -40.181397 
L 412.674941 -40.039469 
L 411.965265 -39.95958 
L 411.25559 -39.936422 
L 410.545915 -39.964228 
L 409.836239 -40.036838 
L 409.126564 -40.147748 
L 408.416889 -40.290166 
L 407.707214 -40.45707 
L 406.997538 -40.64128 
L 406.287863 -40.835547 
L 405.578188 -41.032658 
L 404.868513 -41.225562 
L 404.158837 -41.407517 
L 403.449162 -41.57224 
L 402.739487 -41.714065 
L 402.029811 -41.828101 
L 401.320136 -41.91036 
L 400.610461 -41.95788 
L 399.900786 -41.9688 
L 399.19111 -41.9424 
L 398.481435 -41.879102 
L 397.77176 -41.780417 
L 397.062085 -41.648857 
L 396.352409 -41.487801 
L 395.642734 -41.301335 
L 394.933059 -41.094062 
L 394.223383 -40.870909 
L 393.513708 -40.636924 
L 392.804033 -40.397085 
L 392.094358 -40.156125 
L 391.384682 -39.918389 
L 390.675007 -39.687711 
L 389.965332 -39.467337 
L 389.255657 -39.25987 
L 388.545981 -39.067262 
L 387.836306 -38.890823 
L 387.126631 -38.731268 
L 386.416956 -38.588773 
L 385.70728 -38.463052 
L 384.997605 -38.35344 
L 384.28793 -38.258979 
L 383.578254 -38.178497 
L 382.868579 -38.110693 
L 382.158904 -38.054198 
L 381.449229 -38.007637 
L 380.739553 -37.969676 
L 380.029878 -37.939056 
L 379.320203 -37.914617 
L 378.610528 -37.895315 
L 377.900852 -37.880228 
z
" style="stroke: #1f77b4"/>
    </defs>
    <g clip-path="url(#pe6e14fa76c)">
     <use xlink:href="#m403baeedcb" x="0" y="533.734375" style="fill: #1f77b4; fill-opacity: 0.25; stroke: #1f77b4"/>
    </g>
   </g>
  </g>
 </g>
 <defs>
  <clipPath id="p0fc6134249">
   <rect x="50.14375" y="7.2" width="155.347917" height="159.566667"/>
  </clipPath>
  <clipPath id="pdb674c745c">
   <rect x="50.14375" y="171.766667" width="155.347917" height="159.566667"/>
  </clipPath>
  <clipPath id="p89202c6ff4">
   <rect x="210.491667" y="171.766667" width="155.347917" height="159.566667"/>
  </clipPath>
  <clipPath id="pad2233ad42">
   <rect x="50.14375" y="336.333333" width="155.347917" height="159.566667"/>
  </clipPath>
  <clipPath id="pd4b4f2b412">
   <rect x="210.491667" y="336.333333" width="155.347917" height="159.566667"/>
  </clipPath>
  <clipPath id="pe6e14fa76c">
   <rect x="370.839583" y="336.333333" width="155.347917" height="159.566667"/>
  </clipPath>
 </defs>
</svg>
