<?xml version="1.0" encoding="utf-8" standalone="no"?>
<!DOCTYPE svg PUBLIC "-//W3C//DTD SVG 1.1//EN"
  "http://www.w3.org/Graphics/SVG/1.1/DTD/svg11.dtd">
<svg xmlns:xlink="http://www.w3.org/1999/xlink" width="496.621875pt" height="203.976375pt" viewBox="0 0 496.621875 203.976375" xmlns="http://www.w3.org/2000/svg" version="1.1">
 <metadata>
  <rdf:RDF xmlns:dc="http://purl.org/dc/elements/1.1/" xmlns:cc="http://creativecommons.org/ns#" xmlns:rdf="http://www.w3.org/1999/02/22-rdf-syntax-ns#">
   <cc:Work>
    <dc:type rdf:resource="http://purl.org/dc/dcmitype/StillImage"/>
    <dc:date>2023-07-21T08:24:31.852499</dc:date>
    <dc:format>image/svg+xml</dc:format>
    <dc:creator>
     <cc:Agent>
      <dc:title>Matplotlib v3.7.2, https://matplotlib.org/</dc:title>
     </cc:Agent>
    </dc:creator>
   </cc:Work>
  </rdf:RDF>
 </metadata>
 <defs>
  <style type="text/css">*{stroke-linejoin: round; stroke-linecap: butt}</style>
 </defs>
 <g id="figure_1">
  <g id="patch_1">
   <path d="M 0 203.976375 
L 496.621875 203.976375 
L 496.621875 0 
L 0 0 
z
" style="fill: #ffffff"/>
  </g>
  <g id="axes_1">
   <g id="patch_2">
    <path d="M 34.240625 169.73575 
L 178.767708 169.73575 
L 178.767708 25.208667 
L 34.240625 25.208667 
z
" style="fill: #ffffff"/>
   </g>
   <g id="matplotlib.axis_1">
    <g id="xtick_1">
     <g id="line2d_1">
      <path d="M 63.146042 169.73575 
L 63.146042 25.208667 
" clip-path="url(#p8ea526e710)" style="fill: none; stroke: #cccccc; stroke-width: 0.8; stroke-linecap: round"/>
     </g>
     <g id="text_1">
      <!-- 0 -->
      <g style="fill: #262626" transform="translate(65.905417 183.09825) rotate(-90) scale(0.1 -0.1)">
       <defs>
        <path id="DejaVuSans-30" d="M 2034 4250 
Q 1547 4250 1301 3770 
Q 1056 3291 1056 2328 
Q 1056 1369 1301 889 
Q 1547 409 2034 409 
Q 2525 409 2770 889 
Q 3016 1369 3016 2328 
Q 3016 3291 2770 3770 
Q 2525 4250 2034 4250 
z
M 2034 4750 
Q 2819 4750 3233 4129 
Q 3647 3509 3647 2328 
Q 3647 1150 3233 529 
Q 2819 -91 2034 -91 
Q 1250 -91 836 529 
Q 422 1150 422 2328 
Q 422 3509 836 4129 
Q 1250 4750 2034 4750 
z
" transform="scale(0.015625)"/>
       </defs>
       <use xlink:href="#DejaVuSans-30"/>
      </g>
     </g>
    </g>
    <g id="xtick_2">
     <g id="line2d_2">
      <path d="M 92.051458 169.73575 
L 92.051458 25.208667 
" clip-path="url(#p8ea526e710)" style="fill: none; stroke: #cccccc; stroke-width: 0.8; stroke-linecap: round"/>
     </g>
     <g id="text_2">
      <!-- 1 -->
      <g style="fill: #262626" transform="translate(94.810833 183.09825) rotate(-90) scale(0.1 -0.1)">
       <defs>
        <path id="DejaVuSans-31" d="M 794 531 
L 1825 531 
L 1825 4091 
L 703 3866 
L 703 4441 
L 1819 4666 
L 2450 4666 
L 2450 531 
L 3481 531 
L 3481 0 
L 794 0 
L 794 531 
z
" transform="scale(0.015625)"/>
       </defs>
       <use xlink:href="#DejaVuSans-31"/>
      </g>
     </g>
    </g>
    <g id="xtick_3">
     <g id="line2d_3">
      <path d="M 120.956875 169.73575 
L 120.956875 25.208667 
" clip-path="url(#p8ea526e710)" style="fill: none; stroke: #cccccc; stroke-width: 0.8; stroke-linecap: round"/>
     </g>
     <g id="text_3">
      <!-- 2 -->
      <g style="fill: #262626" transform="translate(123.71625 183.09825) rotate(-90) scale(0.1 -0.1)">
       <defs>
        <path id="DejaVuSans-32" d="M 1228 531 
L 3431 531 
L 3431 0 
L 469 0 
L 469 531 
Q 828 903 1448 1529 
Q 2069 2156 2228 2338 
Q 2531 2678 2651 2914 
Q 2772 3150 2772 3378 
Q 2772 3750 2511 3984 
Q 2250 4219 1831 4219 
Q 1534 4219 1204 4116 
Q 875 4013 500 3803 
L 500 4441 
Q 881 4594 1212 4672 
Q 1544 4750 1819 4750 
Q 2544 4750 2975 4387 
Q 3406 4025 3406 3419 
Q 3406 3131 3298 2873 
Q 3191 2616 2906 2266 
Q 2828 2175 2409 1742 
Q 1991 1309 1228 531 
z
" transform="scale(0.015625)"/>
       </defs>
       <use xlink:href="#DejaVuSans-32"/>
      </g>
     </g>
    </g>
    <g id="xtick_4">
     <g id="line2d_4">
      <path d="M 149.862292 169.73575 
L 149.862292 25.208667 
" clip-path="url(#p8ea526e710)" style="fill: none; stroke: #cccccc; stroke-width: 0.8; stroke-linecap: round"/>
     </g>
     <g id="text_4">
      <!-- 3 -->
      <g style="fill: #262626" transform="translate(152.621667 183.09825) rotate(-90) scale(0.1 -0.1)">
       <defs>
        <path id="DejaVuSans-33" d="M 2597 2516 
Q 3050 2419 3304 2112 
Q 3559 1806 3559 1356 
Q 3559 666 3084 287 
Q 2609 -91 1734 -91 
Q 1441 -91 1130 -33 
Q 819 25 488 141 
L 488 750 
Q 750 597 1062 519 
Q 1375 441 1716 441 
Q 2309 441 2620 675 
Q 2931 909 2931 1356 
Q 2931 1769 2642 2001 
Q 2353 2234 1838 2234 
L 1294 2234 
L 1294 2753 
L 1863 2753 
Q 2328 2753 2575 2939 
Q 2822 3125 2822 3475 
Q 2822 3834 2567 4026 
Q 2313 4219 1838 4219 
Q 1578 4219 1281 4162 
Q 984 4106 628 3988 
L 628 4550 
Q 988 4650 1302 4700 
Q 1616 4750 1894 4750 
Q 2613 4750 3031 4423 
Q 3450 4097 3450 3541 
Q 3450 3153 3228 2886 
Q 3006 2619 2597 2516 
z
" transform="scale(0.015625)"/>
       </defs>
       <use xlink:href="#DejaVuSans-33"/>
      </g>
     </g>
    </g>
    <g id="text_5">
     <!-- Proposed label -->
     <g style="fill: #262626" transform="translate(69.803385 194.696688) scale(0.1 -0.1)">
      <defs>
       <path id="DejaVuSans-50" d="M 1259 4147 
L 1259 2394 
L 2053 2394 
Q 2494 2394 2734 2622 
Q 2975 2850 2975 3272 
Q 2975 3691 2734 3919 
Q 2494 4147 2053 4147 
L 1259 4147 
z
M 628 4666 
L 2053 4666 
Q 2838 4666 3239 4311 
Q 3641 3956 3641 3272 
Q 3641 2581 3239 2228 
Q 2838 1875 2053 1875 
L 1259 1875 
L 1259 0 
L 628 0 
L 628 4666 
z
" transform="scale(0.015625)"/>
       <path id="DejaVuSans-72" d="M 2631 2963 
Q 2534 3019 2420 3045 
Q 2306 3072 2169 3072 
Q 1681 3072 1420 2755 
Q 1159 2438 1159 1844 
L 1159 0 
L 581 0 
L 581 3500 
L 1159 3500 
L 1159 2956 
Q 1341 3275 1631 3429 
Q 1922 3584 2338 3584 
Q 2397 3584 2469 3576 
Q 2541 3569 2628 3553 
L 2631 2963 
z
" transform="scale(0.015625)"/>
       <path id="DejaVuSans-6f" d="M 1959 3097 
Q 1497 3097 1228 2736 
Q 959 2375 959 1747 
Q 959 1119 1226 758 
Q 1494 397 1959 397 
Q 2419 397 2687 759 
Q 2956 1122 2956 1747 
Q 2956 2369 2687 2733 
Q 2419 3097 1959 3097 
z
M 1959 3584 
Q 2709 3584 3137 3096 
Q 3566 2609 3566 1747 
Q 3566 888 3137 398 
Q 2709 -91 1959 -91 
Q 1206 -91 779 398 
Q 353 888 353 1747 
Q 353 2609 779 3096 
Q 1206 3584 1959 3584 
z
" transform="scale(0.015625)"/>
       <path id="DejaVuSans-70" d="M 1159 525 
L 1159 -1331 
L 581 -1331 
L 581 3500 
L 1159 3500 
L 1159 2969 
Q 1341 3281 1617 3432 
Q 1894 3584 2278 3584 
Q 2916 3584 3314 3078 
Q 3713 2572 3713 1747 
Q 3713 922 3314 415 
Q 2916 -91 2278 -91 
Q 1894 -91 1617 61 
Q 1341 213 1159 525 
z
M 3116 1747 
Q 3116 2381 2855 2742 
Q 2594 3103 2138 3103 
Q 1681 3103 1420 2742 
Q 1159 2381 1159 1747 
Q 1159 1113 1420 752 
Q 1681 391 2138 391 
Q 2594 391 2855 752 
Q 3116 1113 3116 1747 
z
" transform="scale(0.015625)"/>
       <path id="DejaVuSans-73" d="M 2834 3397 
L 2834 2853 
Q 2591 2978 2328 3040 
Q 2066 3103 1784 3103 
Q 1356 3103 1142 2972 
Q 928 2841 928 2578 
Q 928 2378 1081 2264 
Q 1234 2150 1697 2047 
L 1894 2003 
Q 2506 1872 2764 1633 
Q 3022 1394 3022 966 
Q 3022 478 2636 193 
Q 2250 -91 1575 -91 
Q 1294 -91 989 -36 
Q 684 19 347 128 
L 347 722 
Q 666 556 975 473 
Q 1284 391 1588 391 
Q 1994 391 2212 530 
Q 2431 669 2431 922 
Q 2431 1156 2273 1281 
Q 2116 1406 1581 1522 
L 1381 1569 
Q 847 1681 609 1914 
Q 372 2147 372 2553 
Q 372 3047 722 3315 
Q 1072 3584 1716 3584 
Q 2034 3584 2315 3537 
Q 2597 3491 2834 3397 
z
" transform="scale(0.015625)"/>
       <path id="DejaVuSans-65" d="M 3597 1894 
L 3597 1613 
L 953 1613 
Q 991 1019 1311 708 
Q 1631 397 2203 397 
Q 2534 397 2845 478 
Q 3156 559 3463 722 
L 3463 178 
Q 3153 47 2828 -22 
Q 2503 -91 2169 -91 
Q 1331 -91 842 396 
Q 353 884 353 1716 
Q 353 2575 817 3079 
Q 1281 3584 2069 3584 
Q 2775 3584 3186 3129 
Q 3597 2675 3597 1894 
z
M 3022 2063 
Q 3016 2534 2758 2815 
Q 2500 3097 2075 3097 
Q 1594 3097 1305 2825 
Q 1016 2553 972 2059 
L 3022 2063 
z
" transform="scale(0.015625)"/>
       <path id="DejaVuSans-64" d="M 2906 2969 
L 2906 4863 
L 3481 4863 
L 3481 0 
L 2906 0 
L 2906 525 
Q 2725 213 2448 61 
Q 2172 -91 1784 -91 
Q 1150 -91 751 415 
Q 353 922 353 1747 
Q 353 2572 751 3078 
Q 1150 3584 1784 3584 
Q 2172 3584 2448 3432 
Q 2725 3281 2906 2969 
z
M 947 1747 
Q 947 1113 1208 752 
Q 1469 391 1925 391 
Q 2381 391 2643 752 
Q 2906 1113 2906 1747 
Q 2906 2381 2643 2742 
Q 2381 3103 1925 3103 
Q 1469 3103 1208 2742 
Q 947 2381 947 1747 
z
" transform="scale(0.015625)"/>
       <path id="DejaVuSans-20" transform="scale(0.015625)"/>
       <path id="DejaVuSans-6c" d="M 603 4863 
L 1178 4863 
L 1178 0 
L 603 0 
L 603 4863 
z
" transform="scale(0.015625)"/>
       <path id="DejaVuSans-61" d="M 2194 1759 
Q 1497 1759 1228 1600 
Q 959 1441 959 1056 
Q 959 750 1161 570 
Q 1363 391 1709 391 
Q 2188 391 2477 730 
Q 2766 1069 2766 1631 
L 2766 1759 
L 2194 1759 
z
M 3341 1997 
L 3341 0 
L 2766 0 
L 2766 531 
Q 2569 213 2275 61 
Q 1981 -91 1556 -91 
Q 1019 -91 701 211 
Q 384 513 384 1019 
Q 384 1609 779 1909 
Q 1175 2209 1959 2209 
L 2766 2209 
L 2766 2266 
Q 2766 2663 2505 2880 
Q 2244 3097 1772 3097 
Q 1472 3097 1187 3025 
Q 903 2953 641 2809 
L 641 3341 
Q 956 3463 1253 3523 
Q 1550 3584 1831 3584 
Q 2591 3584 2966 3190 
Q 3341 2797 3341 1997 
z
" transform="scale(0.015625)"/>
       <path id="DejaVuSans-62" d="M 3116 1747 
Q 3116 2381 2855 2742 
Q 2594 3103 2138 3103 
Q 1681 3103 1420 2742 
Q 1159 2381 1159 1747 
Q 1159 1113 1420 752 
Q 1681 391 2138 391 
Q 2594 391 2855 752 
Q 3116 1113 3116 1747 
z
M 1159 2969 
Q 1341 3281 1617 3432 
Q 1894 3584 2278 3584 
Q 2916 3584 3314 3078 
Q 3713 2572 3713 1747 
Q 3713 922 3314 415 
Q 2916 -91 2278 -91 
Q 1894 -91 1617 61 
Q 1341 213 1159 525 
L 1159 0 
L 581 0 
L 581 4863 
L 1159 4863 
L 1159 2969 
z
" transform="scale(0.015625)"/>
      </defs>
      <use xlink:href="#DejaVuSans-50"/>
      <use xlink:href="#DejaVuSans-72" x="58.552734"/>
      <use xlink:href="#DejaVuSans-6f" x="97.416016"/>
      <use xlink:href="#DejaVuSans-70" x="158.597656"/>
      <use xlink:href="#DejaVuSans-6f" x="222.074219"/>
      <use xlink:href="#DejaVuSans-73" x="283.255859"/>
      <use xlink:href="#DejaVuSans-65" x="335.355469"/>
      <use xlink:href="#DejaVuSans-64" x="396.878906"/>
      <use xlink:href="#DejaVuSans-20" x="460.355469"/>
      <use xlink:href="#DejaVuSans-6c" x="492.142578"/>
      <use xlink:href="#DejaVuSans-61" x="519.925781"/>
      <use xlink:href="#DejaVuSans-62" x="581.205078"/>
      <use xlink:href="#DejaVuSans-65" x="644.681641"/>
      <use xlink:href="#DejaVuSans-6c" x="706.205078"/>
     </g>
    </g>
   </g>
   <g id="matplotlib.axis_2">
    <g id="ytick_1">
     <g id="line2d_5">
      <path d="M 34.240625 54.114083 
L 178.767708 54.114083 
" clip-path="url(#p8ea526e710)" style="fill: none; stroke: #cccccc; stroke-width: 0.8; stroke-linecap: round"/>
     </g>
     <g id="text_6">
      <!-- 0 -->
      <g style="fill: #262626" transform="translate(20.878125 57.913302) scale(0.1 -0.1)">
       <use xlink:href="#DejaVuSans-30"/>
      </g>
     </g>
    </g>
    <g id="ytick_2">
     <g id="line2d_6">
      <path d="M 34.240625 83.0195 
L 178.767708 83.0195 
" clip-path="url(#p8ea526e710)" style="fill: none; stroke: #cccccc; stroke-width: 0.8; stroke-linecap: round"/>
     </g>
     <g id="text_7">
      <!-- 1 -->
      <g style="fill: #262626" transform="translate(20.878125 86.818719) scale(0.1 -0.1)">
       <use xlink:href="#DejaVuSans-31"/>
      </g>
     </g>
    </g>
    <g id="ytick_3">
     <g id="line2d_7">
      <path d="M 34.240625 111.924917 
L 178.767708 111.924917 
" clip-path="url(#p8ea526e710)" style="fill: none; stroke: #cccccc; stroke-width: 0.8; stroke-linecap: round"/>
     </g>
     <g id="text_8">
      <!-- 2 -->
      <g style="fill: #262626" transform="translate(20.878125 115.724135) scale(0.1 -0.1)">
       <use xlink:href="#DejaVuSans-32"/>
      </g>
     </g>
    </g>
    <g id="ytick_4">
     <g id="line2d_8">
      <path d="M 34.240625 140.830333 
L 178.767708 140.830333 
" clip-path="url(#p8ea526e710)" style="fill: none; stroke: #cccccc; stroke-width: 0.8; stroke-linecap: round"/>
     </g>
     <g id="text_9">
      <!-- 3 -->
      <g style="fill: #262626" transform="translate(20.878125 144.629552) scale(0.1 -0.1)">
       <use xlink:href="#DejaVuSans-33"/>
      </g>
     </g>
    </g>
    <g id="text_10">
     <!-- True label -->
     <g style="fill: #262626" transform="translate(14.798438 121.771427) rotate(-90) scale(0.1 -0.1)">
      <defs>
       <path id="DejaVuSans-54" d="M -19 4666 
L 3928 4666 
L 3928 4134 
L 2272 4134 
L 2272 0 
L 1638 0 
L 1638 4134 
L -19 4134 
L -19 4666 
z
" transform="scale(0.015625)"/>
       <path id="DejaVuSans-75" d="M 544 1381 
L 544 3500 
L 1119 3500 
L 1119 1403 
Q 1119 906 1312 657 
Q 1506 409 1894 409 
Q 2359 409 2629 706 
Q 2900 1003 2900 1516 
L 2900 3500 
L 3475 3500 
L 3475 0 
L 2900 0 
L 2900 538 
Q 2691 219 2414 64 
Q 2138 -91 1772 -91 
Q 1169 -91 856 284 
Q 544 659 544 1381 
z
M 1991 3584 
L 1991 3584 
z
" transform="scale(0.015625)"/>
      </defs>
      <use xlink:href="#DejaVuSans-54"/>
      <use xlink:href="#DejaVuSans-72" x="46.333984"/>
      <use xlink:href="#DejaVuSans-75" x="87.447266"/>
      <use xlink:href="#DejaVuSans-65" x="150.826172"/>
      <use xlink:href="#DejaVuSans-20" x="212.349609"/>
      <use xlink:href="#DejaVuSans-6c" x="244.136719"/>
      <use xlink:href="#DejaVuSans-61" x="271.919922"/>
      <use xlink:href="#DejaVuSans-62" x="333.199219"/>
      <use xlink:href="#DejaVuSans-65" x="396.675781"/>
      <use xlink:href="#DejaVuSans-6c" x="458.199219"/>
     </g>
    </g>
   </g>
   <g id="patch_3">
    <path d="M 51.95883 42.926871 
L 75.451975 42.926871 
L 75.451975 66.420017 
L 51.95883 66.420017 
z
" clip-path="url(#p8ea526e710)" style="fill: #3888c1; stroke: #000000; stroke-linejoin: miter"/>
   </g>
   <g id="patch_4">
    <path d="M 84.770719 46.833344 
L 100.060272 46.833344 
L 100.060272 62.122897 
L 84.770719 62.122897 
z
" clip-path="url(#p8ea526e710)" style="fill: #bcd7eb; stroke: #000000; stroke-linejoin: miter"/>
   </g>
   <g id="patch_5">
    <path d="M 118.119499 51.276707 
L 124.077988 51.276707 
L 124.077988 57.235197 
L 118.119499 57.235197 
z
" clip-path="url(#p8ea526e710)" style="fill: #eef5fc; stroke: #000000; stroke-linejoin: miter"/>
   </g>
   <g id="patch_6">
    <path d="M 148.060226 52.312018 
L 151.844564 52.312018 
L 151.844564 56.096355 
L 148.060226 56.096355 
z
" clip-path="url(#p8ea526e710)" style="fill: #f3f8fe; stroke: #000000; stroke-linejoin: miter"/>
   </g>
   <g id="patch_7">
    <path d="M 51.95883 71.832288 
L 75.451975 71.832288 
L 75.451975 95.325433 
L 51.95883 95.325433 
z
" clip-path="url(#p8ea526e710)" style="fill: #3888c1; stroke: #000000; stroke-linejoin: miter"/>
   </g>
   <g id="patch_8">
    <path d="M 84.770719 75.73876 
L 100.060272 75.73876 
L 100.060272 91.028313 
L 84.770719 91.028313 
z
" clip-path="url(#p8ea526e710)" style="fill: #bcd7eb; stroke: #000000; stroke-linejoin: miter"/>
   </g>
   <g id="patch_9">
    <path d="M 118.119499 80.182124 
L 124.077988 80.182124 
L 124.077988 86.140613 
L 118.119499 86.140613 
z
" clip-path="url(#p8ea526e710)" style="fill: #eef5fc; stroke: #000000; stroke-linejoin: miter"/>
   </g>
   <g id="patch_10">
    <path d="M 148.060226 81.217434 
L 151.844564 81.217434 
L 151.844564 85.001772 
L 148.060226 85.001772 
z
" clip-path="url(#p8ea526e710)" style="fill: #f3f8fe; stroke: #000000; stroke-linejoin: miter"/>
   </g>
   <g id="patch_11">
    <path d="M 51.95883 100.737705 
L 75.451975 100.737705 
L 75.451975 124.23085 
L 51.95883 124.23085 
z
" clip-path="url(#p8ea526e710)" style="fill: #3888c1; stroke: #000000; stroke-linejoin: miter"/>
   </g>
   <g id="patch_12">
    <path d="M 84.770719 104.644177 
L 100.060272 104.644177 
L 100.060272 119.93373 
L 84.770719 119.93373 
z
" clip-path="url(#p8ea526e710)" style="fill: #bcd7eb; stroke: #000000; stroke-linejoin: miter"/>
   </g>
   <g id="patch_13">
    <path d="M 118.119499 109.087541 
L 124.077988 109.087541 
L 124.077988 115.04603 
L 118.119499 115.04603 
z
" clip-path="url(#p8ea526e710)" style="fill: #eef5fc; stroke: #000000; stroke-linejoin: miter"/>
   </g>
   <g id="patch_14">
    <path d="M 148.060226 110.122851 
L 151.844564 110.122851 
L 151.844564 113.907189 
L 148.060226 113.907189 
z
" clip-path="url(#p8ea526e710)" style="fill: #f3f8fe; stroke: #000000; stroke-linejoin: miter"/>
   </g>
   <g id="patch_15">
    <path d="M 51.95883 129.643121 
L 75.451975 129.643121 
L 75.451975 153.136267 
L 51.95883 153.136267 
z
" clip-path="url(#p8ea526e710)" style="fill: #3888c1; stroke: #000000; stroke-linejoin: miter"/>
   </g>
   <g id="patch_16">
    <path d="M 84.770719 133.549594 
L 100.060272 133.549594 
L 100.060272 148.839147 
L 84.770719 148.839147 
z
" clip-path="url(#p8ea526e710)" style="fill: #bcd7eb; stroke: #000000; stroke-linejoin: miter"/>
   </g>
   <g id="patch_17">
    <path d="M 118.119499 137.992957 
L 124.077988 137.992957 
L 124.077988 143.951447 
L 118.119499 143.951447 
z
" clip-path="url(#p8ea526e710)" style="fill: #eef5fc; stroke: #000000; stroke-linejoin: miter"/>
   </g>
   <g id="patch_18">
    <path d="M 148.060226 139.028268 
L 151.844564 139.028268 
L 151.844564 142.812605 
L 148.060226 142.812605 
z
" clip-path="url(#p8ea526e710)" style="fill: #f3f8fe; stroke: #000000; stroke-linejoin: miter"/>
   </g>
   <g id="patch_19">
    <path d="M 34.240625 169.73575 
L 34.240625 25.208667 
" style="fill: none; stroke: #cccccc; stroke-width: 0.8; stroke-linejoin: miter; stroke-linecap: square"/>
   </g>
   <g id="patch_20">
    <path d="M 178.767708 169.73575 
L 178.767708 25.208667 
" style="fill: none; stroke: #cccccc; stroke-width: 0.8; stroke-linejoin: miter; stroke-linecap: square"/>
   </g>
   <g id="patch_21">
    <path d="M 34.240625 169.73575 
L 178.767708 169.73575 
" style="fill: none; stroke: #cccccc; stroke-width: 0.8; stroke-linejoin: miter; stroke-linecap: square"/>
   </g>
   <g id="patch_22">
    <path d="M 34.240625 25.208667 
L 178.767708 25.208667 
" style="fill: none; stroke: #cccccc; stroke-width: 0.8; stroke-linejoin: miter; stroke-linecap: square"/>
   </g>
   <g id="text_11">
    <!-- Spammer worker -->
    <g style="fill: #262626" transform="translate(54.995104 16.318125) scale(0.12 -0.12)">
     <defs>
      <path id="DejaVuSans-53" d="M 3425 4513 
L 3425 3897 
Q 3066 4069 2747 4153 
Q 2428 4238 2131 4238 
Q 1616 4238 1336 4038 
Q 1056 3838 1056 3469 
Q 1056 3159 1242 3001 
Q 1428 2844 1947 2747 
L 2328 2669 
Q 3034 2534 3370 2195 
Q 3706 1856 3706 1288 
Q 3706 609 3251 259 
Q 2797 -91 1919 -91 
Q 1588 -91 1214 -16 
Q 841 59 441 206 
L 441 856 
Q 825 641 1194 531 
Q 1563 422 1919 422 
Q 2459 422 2753 634 
Q 3047 847 3047 1241 
Q 3047 1584 2836 1778 
Q 2625 1972 2144 2069 
L 1759 2144 
Q 1053 2284 737 2584 
Q 422 2884 422 3419 
Q 422 4038 858 4394 
Q 1294 4750 2059 4750 
Q 2388 4750 2728 4690 
Q 3069 4631 3425 4513 
z
" transform="scale(0.015625)"/>
      <path id="DejaVuSans-6d" d="M 3328 2828 
Q 3544 3216 3844 3400 
Q 4144 3584 4550 3584 
Q 5097 3584 5394 3201 
Q 5691 2819 5691 2113 
L 5691 0 
L 5113 0 
L 5113 2094 
Q 5113 2597 4934 2840 
Q 4756 3084 4391 3084 
Q 3944 3084 3684 2787 
Q 3425 2491 3425 1978 
L 3425 0 
L 2847 0 
L 2847 2094 
Q 2847 2600 2669 2842 
Q 2491 3084 2119 3084 
Q 1678 3084 1418 2786 
Q 1159 2488 1159 1978 
L 1159 0 
L 581 0 
L 581 3500 
L 1159 3500 
L 1159 2956 
Q 1356 3278 1631 3431 
Q 1906 3584 2284 3584 
Q 2666 3584 2933 3390 
Q 3200 3197 3328 2828 
z
" transform="scale(0.015625)"/>
      <path id="DejaVuSans-77" d="M 269 3500 
L 844 3500 
L 1563 769 
L 2278 3500 
L 2956 3500 
L 3675 769 
L 4391 3500 
L 4966 3500 
L 4050 0 
L 3372 0 
L 2619 2869 
L 1863 0 
L 1184 0 
L 269 3500 
z
" transform="scale(0.015625)"/>
      <path id="DejaVuSans-6b" d="M 581 4863 
L 1159 4863 
L 1159 1991 
L 2875 3500 
L 3609 3500 
L 1753 1863 
L 3688 0 
L 2938 0 
L 1159 1709 
L 1159 0 
L 581 0 
L 581 4863 
z
" transform="scale(0.015625)"/>
     </defs>
     <use xlink:href="#DejaVuSans-53"/>
     <use xlink:href="#DejaVuSans-70" x="63.476562"/>
     <use xlink:href="#DejaVuSans-61" x="126.953125"/>
     <use xlink:href="#DejaVuSans-6d" x="188.232422"/>
     <use xlink:href="#DejaVuSans-6d" x="285.644531"/>
     <use xlink:href="#DejaVuSans-65" x="383.056641"/>
     <use xlink:href="#DejaVuSans-72" x="444.580078"/>
     <use xlink:href="#DejaVuSans-20" x="485.693359"/>
     <use xlink:href="#DejaVuSans-77" x="517.480469"/>
     <use xlink:href="#DejaVuSans-6f" x="599.267578"/>
     <use xlink:href="#DejaVuSans-72" x="660.449219"/>
     <use xlink:href="#DejaVuSans-6b" x="701.5625"/>
     <use xlink:href="#DejaVuSans-65" x="755.847656"/>
     <use xlink:href="#DejaVuSans-72" x="817.371094"/>
    </g>
   </g>
  </g>
  <g id="axes_2">
   <g id="patch_23">
    <path d="M 189.567708 169.73575 
L 334.094792 169.73575 
L 334.094792 25.208667 
L 189.567708 25.208667 
z
" style="fill: #ffffff"/>
   </g>
   <g id="matplotlib.axis_3">
    <g id="xtick_5">
     <g id="line2d_9">
      <path d="M 218.473125 169.73575 
L 218.473125 25.208667 
" clip-path="url(#p4da7a6fa75)" style="fill: none; stroke: #cccccc; stroke-width: 0.8; stroke-linecap: round"/>
     </g>
     <g id="text_12">
      <!-- 0 -->
      <g style="fill: #262626" transform="translate(221.2325 183.09825) rotate(-90) scale(0.1 -0.1)">
       <use xlink:href="#DejaVuSans-30"/>
      </g>
     </g>
    </g>
    <g id="xtick_6">
     <g id="line2d_10">
      <path d="M 247.378542 169.73575 
L 247.378542 25.208667 
" clip-path="url(#p4da7a6fa75)" style="fill: none; stroke: #cccccc; stroke-width: 0.8; stroke-linecap: round"/>
     </g>
     <g id="text_13">
      <!-- 1 -->
      <g style="fill: #262626" transform="translate(250.137917 183.09825) rotate(-90) scale(0.1 -0.1)">
       <use xlink:href="#DejaVuSans-31"/>
      </g>
     </g>
    </g>
    <g id="xtick_7">
     <g id="line2d_11">
      <path d="M 276.283958 169.73575 
L 276.283958 25.208667 
" clip-path="url(#p4da7a6fa75)" style="fill: none; stroke: #cccccc; stroke-width: 0.8; stroke-linecap: round"/>
     </g>
     <g id="text_14">
      <!-- 2 -->
      <g style="fill: #262626" transform="translate(279.043333 183.09825) rotate(-90) scale(0.1 -0.1)">
       <use xlink:href="#DejaVuSans-32"/>
      </g>
     </g>
    </g>
    <g id="xtick_8">
     <g id="line2d_12">
      <path d="M 305.189375 169.73575 
L 305.189375 25.208667 
" clip-path="url(#p4da7a6fa75)" style="fill: none; stroke: #cccccc; stroke-width: 0.8; stroke-linecap: round"/>
     </g>
     <g id="text_15">
      <!-- 3 -->
      <g style="fill: #262626" transform="translate(307.94875 183.09825) rotate(-90) scale(0.1 -0.1)">
       <use xlink:href="#DejaVuSans-33"/>
      </g>
     </g>
    </g>
    <g id="text_16">
     <!-- Proposed label -->
     <g style="fill: #262626" transform="translate(225.130469 194.696687) scale(0.1 -0.1)">
      <use xlink:href="#DejaVuSans-50"/>
      <use xlink:href="#DejaVuSans-72" x="58.552734"/>
      <use xlink:href="#DejaVuSans-6f" x="97.416016"/>
      <use xlink:href="#DejaVuSans-70" x="158.597656"/>
      <use xlink:href="#DejaVuSans-6f" x="222.074219"/>
      <use xlink:href="#DejaVuSans-73" x="283.255859"/>
      <use xlink:href="#DejaVuSans-65" x="335.355469"/>
      <use xlink:href="#DejaVuSans-64" x="396.878906"/>
      <use xlink:href="#DejaVuSans-20" x="460.355469"/>
      <use xlink:href="#DejaVuSans-6c" x="492.142578"/>
      <use xlink:href="#DejaVuSans-61" x="519.925781"/>
      <use xlink:href="#DejaVuSans-62" x="581.205078"/>
      <use xlink:href="#DejaVuSans-65" x="644.681641"/>
      <use xlink:href="#DejaVuSans-6c" x="706.205078"/>
     </g>
    </g>
   </g>
   <g id="matplotlib.axis_4">
    <g id="ytick_5">
     <g id="line2d_13">
      <path d="M 189.567708 54.114083 
L 334.094792 54.114083 
" clip-path="url(#p4da7a6fa75)" style="fill: none; stroke: #cccccc; stroke-width: 0.8; stroke-linecap: round"/>
     </g>
    </g>
    <g id="ytick_6">
     <g id="line2d_14">
      <path d="M 189.567708 83.0195 
L 334.094792 83.0195 
" clip-path="url(#p4da7a6fa75)" style="fill: none; stroke: #cccccc; stroke-width: 0.8; stroke-linecap: round"/>
     </g>
    </g>
    <g id="ytick_7">
     <g id="line2d_15">
      <path d="M 189.567708 111.924917 
L 334.094792 111.924917 
" clip-path="url(#p4da7a6fa75)" style="fill: none; stroke: #cccccc; stroke-width: 0.8; stroke-linecap: round"/>
     </g>
    </g>
    <g id="ytick_8">
     <g id="line2d_16">
      <path d="M 189.567708 140.830333 
L 334.094792 140.830333 
" clip-path="url(#p4da7a6fa75)" style="fill: none; stroke: #cccccc; stroke-width: 0.8; stroke-linecap: round"/>
     </g>
    </g>
   </g>
   <g id="patch_24">
    <path d="M 216.0914 51.732359 
L 221.093022 51.732359 
L 221.093022 56.73398 
L 216.0914 56.73398 
z
" clip-path="url(#p4da7a6fa75)" style="fill: #f1f7fd; stroke: #000000; stroke-linejoin: miter"/>
   </g>
   <g id="patch_25">
    <path d="M 235.19355 41.929092 
L 260.782033 41.929092 
L 260.782033 67.517574 
L 235.19355 67.517574 
z
" clip-path="url(#p4da7a6fa75)" style="fill: #1a68ae; stroke: #000000; stroke-linejoin: miter"/>
   </g>
   <g id="patch_26">
    <path d="M 271.761036 49.591161 
L 281.259172 49.591161 
L 281.259172 59.089297 
L 271.761036 59.089297 
z
" clip-path="url(#p4da7a6fa75)" style="fill: #e1edf8; stroke: #000000; stroke-linejoin: miter"/>
   </g>
   <g id="patch_27">
    <path d="M 301.334824 50.259532 
L 309.429382 50.259532 
L 309.429382 58.35409 
L 301.334824 58.35409 
z
" clip-path="url(#p4da7a6fa75)" style="fill: #e7f1fa; stroke: #000000; stroke-linejoin: miter"/>
   </g>
   <g id="patch_28">
    <path d="M 204.741088 69.287463 
L 233.578366 69.287463 
L 233.578366 98.124741 
L 204.741088 98.124741 
z
" clip-path="url(#p4da7a6fa75)" style="fill: #08316d; stroke: #000000; stroke-linejoin: miter"/>
   </g>
   <g id="patch_29">
    <path d="M 247.377165 83.018124 
L 247.380056 83.018124 
L 247.380056 83.021014 
L 247.377165 83.021014 
z
" clip-path="url(#p4da7a6fa75)" style="fill: #f7fbff; stroke: #000000; stroke-linejoin: miter"/>
   </g>
   <g id="patch_30">
    <path d="M 276.282582 83.018124 
L 276.285472 83.018124 
L 276.285472 83.021014 
L 276.282582 83.021014 
z
" clip-path="url(#p4da7a6fa75)" style="fill: #f7fbff; stroke: #000000; stroke-linejoin: miter"/>
   </g>
   <g id="patch_31">
    <path d="M 304.244824 82.074949 
L 306.228381 82.074949 
L 306.228381 84.058506 
L 304.244824 84.058506 
z
" clip-path="url(#p4da7a6fa75)" style="fill: #f5fafe; stroke: #000000; stroke-linejoin: miter"/>
   </g>
   <g id="patch_32">
    <path d="M 218.471749 111.92354 
L 218.474639 111.92354 
L 218.474639 111.926431 
L 218.471749 111.926431 
z
" clip-path="url(#p4da7a6fa75)" style="fill: #f7fbff; stroke: #000000; stroke-linejoin: miter"/>
   </g>
   <g id="patch_33">
    <path d="M 247.377165 111.92354 
L 247.380056 111.92354 
L 247.380056 111.926431 
L 247.377165 111.926431 
z
" clip-path="url(#p4da7a6fa75)" style="fill: #f7fbff; stroke: #000000; stroke-linejoin: miter"/>
   </g>
   <g id="patch_34">
    <path d="M 262.519474 98.160433 
L 291.424891 98.160433 
L 291.424891 127.065849 
L 262.519474 127.065849 
z
" clip-path="url(#p4da7a6fa75)" style="fill: #08306b; stroke: #000000; stroke-linejoin: miter"/>
   </g>
   <g id="patch_35">
    <path d="M 305.187999 111.92354 
L 305.190889 111.92354 
L 305.190889 111.926431 
L 305.187999 111.926431 
z
" clip-path="url(#p4da7a6fa75)" style="fill: #f7fbff; stroke: #000000; stroke-linejoin: miter"/>
   </g>
   <g id="patch_36">
    <path d="M 218.471749 140.828957 
L 218.474639 140.828957 
L 218.474639 140.831847 
L 218.471749 140.831847 
z
" clip-path="url(#p4da7a6fa75)" style="fill: #f7fbff; stroke: #000000; stroke-linejoin: miter"/>
   </g>
   <g id="patch_37">
    <path d="M 247.377165 140.828957 
L 247.380056 140.828957 
L 247.380056 140.831847 
L 247.377165 140.831847 
z
" clip-path="url(#p4da7a6fa75)" style="fill: #f7fbff; stroke: #000000; stroke-linejoin: miter"/>
   </g>
   <g id="patch_38">
    <path d="M 273.547087 138.093462 
L 279.294517 138.093462 
L 279.294517 143.840892 
L 273.547087 143.840892 
z
" clip-path="url(#p4da7a6fa75)" style="fill: #eef5fc; stroke: #000000; stroke-linejoin: miter"/>
   </g>
   <g id="patch_39">
    <path d="M 291.699729 127.340687 
L 320.027986 127.340687 
L 320.027986 155.668944 
L 291.699729 155.668944 
z
" clip-path="url(#p4da7a6fa75)" style="fill: #083a7a; stroke: #000000; stroke-linejoin: miter"/>
   </g>
   <g id="patch_40">
    <path d="M 189.567708 169.73575 
L 189.567708 25.208667 
" style="fill: none; stroke: #cccccc; stroke-width: 0.8; stroke-linejoin: miter; stroke-linecap: square"/>
   </g>
   <g id="patch_41">
    <path d="M 334.094792 169.73575 
L 334.094792 25.208667 
" style="fill: none; stroke: #cccccc; stroke-width: 0.8; stroke-linejoin: miter; stroke-linecap: square"/>
   </g>
   <g id="patch_42">
    <path d="M 189.567708 169.73575 
L 334.094792 169.73575 
" style="fill: none; stroke: #cccccc; stroke-width: 0.8; stroke-linejoin: miter; stroke-linecap: square"/>
   </g>
   <g id="patch_43">
    <path d="M 189.567708 25.208667 
L 334.094792 25.208667 
" style="fill: none; stroke: #cccccc; stroke-width: 0.8; stroke-linejoin: miter; stroke-linecap: square"/>
   </g>
   <g id="text_17">
    <!-- Confused worker -->
    <g style="fill: #262626" transform="translate(211.259687 16.318125) scale(0.12 -0.12)">
     <defs>
      <path id="DejaVuSans-43" d="M 4122 4306 
L 4122 3641 
Q 3803 3938 3442 4084 
Q 3081 4231 2675 4231 
Q 1875 4231 1450 3742 
Q 1025 3253 1025 2328 
Q 1025 1406 1450 917 
Q 1875 428 2675 428 
Q 3081 428 3442 575 
Q 3803 722 4122 1019 
L 4122 359 
Q 3791 134 3420 21 
Q 3050 -91 2638 -91 
Q 1578 -91 968 557 
Q 359 1206 359 2328 
Q 359 3453 968 4101 
Q 1578 4750 2638 4750 
Q 3056 4750 3426 4639 
Q 3797 4528 4122 4306 
z
" transform="scale(0.015625)"/>
      <path id="DejaVuSans-6e" d="M 3513 2113 
L 3513 0 
L 2938 0 
L 2938 2094 
Q 2938 2591 2744 2837 
Q 2550 3084 2163 3084 
Q 1697 3084 1428 2787 
Q 1159 2491 1159 1978 
L 1159 0 
L 581 0 
L 581 3500 
L 1159 3500 
L 1159 2956 
Q 1366 3272 1645 3428 
Q 1925 3584 2291 3584 
Q 2894 3584 3203 3211 
Q 3513 2838 3513 2113 
z
" transform="scale(0.015625)"/>
      <path id="DejaVuSans-66" d="M 2375 4863 
L 2375 4384 
L 1825 4384 
Q 1516 4384 1395 4259 
Q 1275 4134 1275 3809 
L 1275 3500 
L 2222 3500 
L 2222 3053 
L 1275 3053 
L 1275 0 
L 697 0 
L 697 3053 
L 147 3053 
L 147 3500 
L 697 3500 
L 697 3744 
Q 697 4328 969 4595 
Q 1241 4863 1831 4863 
L 2375 4863 
z
" transform="scale(0.015625)"/>
     </defs>
     <use xlink:href="#DejaVuSans-43"/>
     <use xlink:href="#DejaVuSans-6f" x="69.824219"/>
     <use xlink:href="#DejaVuSans-6e" x="131.005859"/>
     <use xlink:href="#DejaVuSans-66" x="194.384766"/>
     <use xlink:href="#DejaVuSans-75" x="229.589844"/>
     <use xlink:href="#DejaVuSans-73" x="292.96875"/>
     <use xlink:href="#DejaVuSans-65" x="345.068359"/>
     <use xlink:href="#DejaVuSans-64" x="406.591797"/>
     <use xlink:href="#DejaVuSans-20" x="470.068359"/>
     <use xlink:href="#DejaVuSans-77" x="501.855469"/>
     <use xlink:href="#DejaVuSans-6f" x="583.642578"/>
     <use xlink:href="#DejaVuSans-72" x="644.824219"/>
     <use xlink:href="#DejaVuSans-6b" x="685.9375"/>
     <use xlink:href="#DejaVuSans-65" x="740.222656"/>
     <use xlink:href="#DejaVuSans-72" x="801.746094"/>
    </g>
   </g>
  </g>
  <g id="axes_3">
   <g id="patch_44">
    <path d="M 344.894792 169.73575 
L 489.421875 169.73575 
L 489.421875 25.208667 
L 344.894792 25.208667 
z
" style="fill: #ffffff"/>
   </g>
   <g id="matplotlib.axis_5">
    <g id="xtick_9">
     <g id="line2d_17">
      <path d="M 373.800208 169.73575 
L 373.800208 25.208667 
" clip-path="url(#p6c441cd051)" style="fill: none; stroke: #cccccc; stroke-width: 0.8; stroke-linecap: round"/>
     </g>
     <g id="text_18">
      <!-- 0 -->
      <g style="fill: #262626" transform="translate(376.559583 183.09825) rotate(-90) scale(0.1 -0.1)">
       <use xlink:href="#DejaVuSans-30"/>
      </g>
     </g>
    </g>
    <g id="xtick_10">
     <g id="line2d_18">
      <path d="M 402.705625 169.73575 
L 402.705625 25.208667 
" clip-path="url(#p6c441cd051)" style="fill: none; stroke: #cccccc; stroke-width: 0.8; stroke-linecap: round"/>
     </g>
     <g id="text_19">
      <!-- 1 -->
      <g style="fill: #262626" transform="translate(405.465 183.09825) rotate(-90) scale(0.1 -0.1)">
       <use xlink:href="#DejaVuSans-31"/>
      </g>
     </g>
    </g>
    <g id="xtick_11">
     <g id="line2d_19">
      <path d="M 431.611042 169.73575 
L 431.611042 25.208667 
" clip-path="url(#p6c441cd051)" style="fill: none; stroke: #cccccc; stroke-width: 0.8; stroke-linecap: round"/>
     </g>
     <g id="text_20">
      <!-- 2 -->
      <g style="fill: #262626" transform="translate(434.370417 183.09825) rotate(-90) scale(0.1 -0.1)">
       <use xlink:href="#DejaVuSans-32"/>
      </g>
     </g>
    </g>
    <g id="xtick_12">
     <g id="line2d_20">
      <path d="M 460.516458 169.73575 
L 460.516458 25.208667 
" clip-path="url(#p6c441cd051)" style="fill: none; stroke: #cccccc; stroke-width: 0.8; stroke-linecap: round"/>
     </g>
     <g id="text_21">
      <!-- 3 -->
      <g style="fill: #262626" transform="translate(463.275833 183.09825) rotate(-90) scale(0.1 -0.1)">
       <use xlink:href="#DejaVuSans-33"/>
      </g>
     </g>
    </g>
    <g id="text_22">
     <!-- Proposed label -->
     <g style="fill: #262626" transform="translate(380.457552 194.696687) scale(0.1 -0.1)">
      <use xlink:href="#DejaVuSans-50"/>
      <use xlink:href="#DejaVuSans-72" x="58.552734"/>
      <use xlink:href="#DejaVuSans-6f" x="97.416016"/>
      <use xlink:href="#DejaVuSans-70" x="158.597656"/>
      <use xlink:href="#DejaVuSans-6f" x="222.074219"/>
      <use xlink:href="#DejaVuSans-73" x="283.255859"/>
      <use xlink:href="#DejaVuSans-65" x="335.355469"/>
      <use xlink:href="#DejaVuSans-64" x="396.878906"/>
      <use xlink:href="#DejaVuSans-20" x="460.355469"/>
      <use xlink:href="#DejaVuSans-6c" x="492.142578"/>
      <use xlink:href="#DejaVuSans-61" x="519.925781"/>
      <use xlink:href="#DejaVuSans-62" x="581.205078"/>
      <use xlink:href="#DejaVuSans-65" x="644.681641"/>
      <use xlink:href="#DejaVuSans-6c" x="706.205078"/>
     </g>
    </g>
   </g>
   <g id="matplotlib.axis_6">
    <g id="ytick_9">
     <g id="line2d_21">
      <path d="M 344.894792 54.114083 
L 489.421875 54.114083 
" clip-path="url(#p6c441cd051)" style="fill: none; stroke: #cccccc; stroke-width: 0.8; stroke-linecap: round"/>
     </g>
    </g>
    <g id="ytick_10">
     <g id="line2d_22">
      <path d="M 344.894792 83.0195 
L 489.421875 83.0195 
" clip-path="url(#p6c441cd051)" style="fill: none; stroke: #cccccc; stroke-width: 0.8; stroke-linecap: round"/>
     </g>
    </g>
    <g id="ytick_11">
     <g id="line2d_23">
      <path d="M 344.894792 111.924917 
L 489.421875 111.924917 
" clip-path="url(#p6c441cd051)" style="fill: none; stroke: #cccccc; stroke-width: 0.8; stroke-linecap: round"/>
     </g>
    </g>
    <g id="ytick_12">
     <g id="line2d_24">
      <path d="M 344.894792 140.830333 
L 489.421875 140.830333 
" clip-path="url(#p6c441cd051)" style="fill: none; stroke: #cccccc; stroke-width: 0.8; stroke-linecap: round"/>
     </g>
    </g>
   </g>
   <g id="patch_45">
    <path d="M 361.615217 41.929092 
L 387.203699 41.929092 
L 387.203699 67.517574 
L 361.615217 67.517574 
z
" clip-path="url(#p6c441cd051)" style="fill: #1a68ae; stroke: #000000; stroke-linejoin: miter"/>
   </g>
   <g id="patch_46">
    <path d="M 400.3239 51.732359 
L 405.325522 51.732359 
L 405.325522 56.73398 
L 400.3239 56.73398 
z
" clip-path="url(#p6c441cd051)" style="fill: #f1f7fd; stroke: #000000; stroke-linejoin: miter"/>
   </g>
   <g id="patch_47">
    <path d="M 427.08812 49.591161 
L 436.586256 49.591161 
L 436.586256 59.089297 
L 427.08812 59.089297 
z
" clip-path="url(#p6c441cd051)" style="fill: #e1edf8; stroke: #000000; stroke-linejoin: miter"/>
   </g>
   <g id="patch_48">
    <path d="M 456.661907 50.259532 
L 464.756465 50.259532 
L 464.756465 58.35409 
L 456.661907 58.35409 
z
" clip-path="url(#p6c441cd051)" style="fill: #e7f1fa; stroke: #000000; stroke-linejoin: miter"/>
   </g>
   <g id="patch_49">
    <path d="M 373.798832 83.018124 
L 373.801722 83.018124 
L 373.801722 83.021014 
L 373.798832 83.021014 
z
" clip-path="url(#p6c441cd051)" style="fill: #f7fbff; stroke: #000000; stroke-linejoin: miter"/>
   </g>
   <g id="patch_50">
    <path d="M 388.973588 69.287463 
L 417.810866 69.287463 
L 417.810866 98.124741 
L 388.973588 98.124741 
z
" clip-path="url(#p6c441cd051)" style="fill: #08316d; stroke: #000000; stroke-linejoin: miter"/>
   </g>
   <g id="patch_51">
    <path d="M 431.609665 83.018124 
L 431.612556 83.018124 
L 431.612556 83.021014 
L 431.609665 83.021014 
z
" clip-path="url(#p6c441cd051)" style="fill: #f7fbff; stroke: #000000; stroke-linejoin: miter"/>
   </g>
   <g id="patch_52">
    <path d="M 459.571907 82.074949 
L 461.555465 82.074949 
L 461.555465 84.058506 
L 459.571907 84.058506 
z
" clip-path="url(#p6c441cd051)" style="fill: #f5fafe; stroke: #000000; stroke-linejoin: miter"/>
   </g>
   <g id="patch_53">
    <path d="M 373.798832 111.92354 
L 373.801722 111.92354 
L 373.801722 111.926431 
L 373.798832 111.926431 
z
" clip-path="url(#p6c441cd051)" style="fill: #f7fbff; stroke: #000000; stroke-linejoin: miter"/>
   </g>
   <g id="patch_54">
    <path d="M 402.704249 111.92354 
L 402.707139 111.92354 
L 402.707139 111.926431 
L 402.704249 111.926431 
z
" clip-path="url(#p6c441cd051)" style="fill: #f7fbff; stroke: #000000; stroke-linejoin: miter"/>
   </g>
   <g id="patch_55">
    <path d="M 417.846558 98.160433 
L 446.751974 98.160433 
L 446.751974 127.065849 
L 417.846558 127.065849 
z
" clip-path="url(#p6c441cd051)" style="fill: #08306b; stroke: #000000; stroke-linejoin: miter"/>
   </g>
   <g id="patch_56">
    <path d="M 460.515082 111.92354 
L 460.517972 111.92354 
L 460.517972 111.926431 
L 460.515082 111.926431 
z
" clip-path="url(#p6c441cd051)" style="fill: #f7fbff; stroke: #000000; stroke-linejoin: miter"/>
   </g>
   <g id="patch_57">
    <path d="M 373.798832 140.828957 
L 373.801722 140.828957 
L 373.801722 140.831847 
L 373.798832 140.831847 
z
" clip-path="url(#p6c441cd051)" style="fill: #f7fbff; stroke: #000000; stroke-linejoin: miter"/>
   </g>
   <g id="patch_58">
    <path d="M 402.704249 140.828957 
L 402.707139 140.828957 
L 402.707139 140.831847 
L 402.704249 140.831847 
z
" clip-path="url(#p6c441cd051)" style="fill: #f7fbff; stroke: #000000; stroke-linejoin: miter"/>
   </g>
   <g id="patch_59">
    <path d="M 428.87417 138.093462 
L 434.6216 138.093462 
L 434.6216 143.840892 
L 428.87417 143.840892 
z
" clip-path="url(#p6c441cd051)" style="fill: #eef5fc; stroke: #000000; stroke-linejoin: miter"/>
   </g>
   <g id="patch_60">
    <path d="M 447.026812 127.340687 
L 475.355069 127.340687 
L 475.355069 155.668944 
L 447.026812 155.668944 
z
" clip-path="url(#p6c441cd051)" style="fill: #083a7a; stroke: #000000; stroke-linejoin: miter"/>
   </g>
   <g id="patch_61">
    <path d="M 344.894792 169.73575 
L 344.894792 25.208667 
" style="fill: none; stroke: #cccccc; stroke-width: 0.8; stroke-linejoin: miter; stroke-linecap: square"/>
   </g>
   <g id="patch_62">
    <path d="M 489.421875 169.73575 
L 489.421875 25.208667 
" style="fill: none; stroke: #cccccc; stroke-width: 0.8; stroke-linejoin: miter; stroke-linecap: square"/>
   </g>
   <g id="patch_63">
    <path d="M 344.894792 169.73575 
L 489.421875 169.73575 
" style="fill: none; stroke: #cccccc; stroke-width: 0.8; stroke-linejoin: miter; stroke-linecap: square"/>
   </g>
   <g id="patch_64">
    <path d="M 344.894792 25.208667 
L 489.421875 25.208667 
" style="fill: none; stroke: #cccccc; stroke-width: 0.8; stroke-linejoin: miter; stroke-linecap: square"/>
   </g>
   <g id="text_23">
    <!-- Expert worker -->
    <g style="fill: #262626" transform="translate(375.129271 16.318125) scale(0.12 -0.12)">
     <defs>
      <path id="DejaVuSans-45" d="M 628 4666 
L 3578 4666 
L 3578 4134 
L 1259 4134 
L 1259 2753 
L 3481 2753 
L 3481 2222 
L 1259 2222 
L 1259 531 
L 3634 531 
L 3634 0 
L 628 0 
L 628 4666 
z
" transform="scale(0.015625)"/>
      <path id="DejaVuSans-78" d="M 3513 3500 
L 2247 1797 
L 3578 0 
L 2900 0 
L 1881 1375 
L 863 0 
L 184 0 
L 1544 1831 
L 300 3500 
L 978 3500 
L 1906 2253 
L 2834 3500 
L 3513 3500 
z
" transform="scale(0.015625)"/>
      <path id="DejaVuSans-74" d="M 1172 4494 
L 1172 3500 
L 2356 3500 
L 2356 3053 
L 1172 3053 
L 1172 1153 
Q 1172 725 1289 603 
Q 1406 481 1766 481 
L 2356 481 
L 2356 0 
L 1766 0 
Q 1100 0 847 248 
Q 594 497 594 1153 
L 594 3053 
L 172 3053 
L 172 3500 
L 594 3500 
L 594 4494 
L 1172 4494 
z
" transform="scale(0.015625)"/>
     </defs>
     <use xlink:href="#DejaVuSans-45"/>
     <use xlink:href="#DejaVuSans-78" x="63.183594"/>
     <use xlink:href="#DejaVuSans-70" x="122.363281"/>
     <use xlink:href="#DejaVuSans-65" x="185.839844"/>
     <use xlink:href="#DejaVuSans-72" x="247.363281"/>
     <use xlink:href="#DejaVuSans-74" x="288.476562"/>
     <use xlink:href="#DejaVuSans-20" x="327.685547"/>
     <use xlink:href="#DejaVuSans-77" x="359.472656"/>
     <use xlink:href="#DejaVuSans-6f" x="441.259766"/>
     <use xlink:href="#DejaVuSans-72" x="502.441406"/>
     <use xlink:href="#DejaVuSans-6b" x="543.554688"/>
     <use xlink:href="#DejaVuSans-65" x="597.839844"/>
     <use xlink:href="#DejaVuSans-72" x="659.363281"/>
    </g>
   </g>
  </g>
 </g>
 <defs>
  <clipPath id="p8ea526e710">
   <rect x="34.240625" y="25.208667" width="144.527083" height="144.527083"/>
  </clipPath>
  <clipPath id="p4da7a6fa75">
   <rect x="189.567708" y="25.208667" width="144.527083" height="144.527083"/>
  </clipPath>
  <clipPath id="p6c441cd051">
   <rect x="344.894792" y="25.208667" width="144.527083" height="144.527083"/>
  </clipPath>
 </defs>
</svg>
