<?xml version="1.0" encoding="utf-8" standalone="no"?>
<!DOCTYPE svg PUBLIC "-//W3C//DTD SVG 1.1//EN"
  "http://www.w3.org/Graphics/SVG/1.1/DTD/svg11.dtd">
<svg xmlns:xlink="http://www.w3.org/1999/xlink" width="533.6pt" height="533.6pt" viewBox="0 0 533.6 533.6" xmlns="http://www.w3.org/2000/svg" version="1.1">
 <metadata>
  <rdf:RDF xmlns:dc="http://purl.org/dc/elements/1.1/" xmlns:cc="http://creativecommons.org/ns#" xmlns:rdf="http://www.w3.org/1999/02/22-rdf-syntax-ns#">
   <cc:Work>
    <dc:type rdf:resource="http://purl.org/dc/dcmitype/StillImage"/>
    <dc:date>2023-04-03T20:09:38.043776</dc:date>
    <dc:format>image/svg+xml</dc:format>
    <dc:creator>
     <cc:Agent>
      <dc:title>Matplotlib v3.5.3, https://matplotlib.org/</dc:title>
     </cc:Agent>
    </dc:creator>
   </cc:Work>
  </rdf:RDF>
 </metadata>
 <defs>
  <style type="text/css">*{stroke-linejoin: round; stroke-linecap: butt}</style>
 </defs>
 <g id="figure_1">
  <g id="patch_1">
   <path d="M 0 533.6 
L 533.6 533.6 
L 533.6 0 
L 0 0 
z
" style="fill: #ffffff"/>
  </g>
  <g id="axes_1">
   <g id="patch_2">
    <path d="M 47.534499 164.643836 
L 203.739657 164.643836 
L 203.739657 7.2 
L 47.534499 7.2 
z
" style="fill: #ffffff"/>
   </g>
   <g id="matplotlib.axis_1">
    <g id="xtick_1">
     <g id="line2d_1">
      <path d="M 50.768516 164.643836 
L 50.768516 7.2 
" clip-path="url(#p683644fe1d)" style="fill: none; stroke: #cccccc; stroke-width: 0.8; stroke-linecap: round"/>
     </g>
    </g>
    <g id="xtick_2">
     <g id="line2d_2">
      <path d="M 83.192796 164.643836 
L 83.192796 7.2 
" clip-path="url(#p683644fe1d)" style="fill: none; stroke: #cccccc; stroke-width: 0.8; stroke-linecap: round"/>
     </g>
    </g>
    <g id="xtick_3">
     <g id="line2d_3">
      <path d="M 115.617076 164.643836 
L 115.617076 7.2 
" clip-path="url(#p683644fe1d)" style="fill: none; stroke: #cccccc; stroke-width: 0.8; stroke-linecap: round"/>
     </g>
    </g>
    <g id="xtick_4">
     <g id="line2d_4">
      <path d="M 148.041356 164.643836 
L 148.041356 7.2 
" clip-path="url(#p683644fe1d)" style="fill: none; stroke: #cccccc; stroke-width: 0.8; stroke-linecap: round"/>
     </g>
    </g>
    <g id="xtick_5">
     <g id="line2d_5">
      <path d="M 180.465636 164.643836 
L 180.465636 7.2 
" clip-path="url(#p683644fe1d)" style="fill: none; stroke: #cccccc; stroke-width: 0.8; stroke-linecap: round"/>
     </g>
    </g>
   </g>
   <g id="patch_3">
    <path d="M 47.534499 164.643836 
L 203.739657 164.643836 
" style="fill: none; stroke: #cccccc; stroke-width: 0.8; stroke-linejoin: miter; stroke-linecap: square"/>
   </g>
  </g>
  <g id="axes_2">
   <g id="patch_4">
    <path d="M 47.534499 331.166241 
L 203.739657 331.166241 
L 203.739657 173.722405 
L 47.534499 173.722405 
z
" style="fill: #ffffff"/>
   </g>
   <g id="matplotlib.axis_2">
    <g id="xtick_6">
     <g id="line2d_6">
      <path d="M 50.768516 331.166241 
L 50.768516 173.722405 
" clip-path="url(#p2bd730cd9b)" style="fill: none; stroke: #cccccc; stroke-width: 0.8; stroke-linecap: round"/>
     </g>
    </g>
    <g id="xtick_7">
     <g id="line2d_7">
      <path d="M 83.192796 331.166241 
L 83.192796 173.722405 
" clip-path="url(#p2bd730cd9b)" style="fill: none; stroke: #cccccc; stroke-width: 0.8; stroke-linecap: round"/>
     </g>
    </g>
    <g id="xtick_8">
     <g id="line2d_8">
      <path d="M 115.617076 331.166241 
L 115.617076 173.722405 
" clip-path="url(#p2bd730cd9b)" style="fill: none; stroke: #cccccc; stroke-width: 0.8; stroke-linecap: round"/>
     </g>
    </g>
    <g id="xtick_9">
     <g id="line2d_9">
      <path d="M 148.041356 331.166241 
L 148.041356 173.722405 
" clip-path="url(#p2bd730cd9b)" style="fill: none; stroke: #cccccc; stroke-width: 0.8; stroke-linecap: round"/>
     </g>
    </g>
    <g id="xtick_10">
     <g id="line2d_10">
      <path d="M 180.465636 331.166241 
L 180.465636 173.722405 
" clip-path="url(#p2bd730cd9b)" style="fill: none; stroke: #cccccc; stroke-width: 0.8; stroke-linecap: round"/>
     </g>
    </g>
   </g>
   <g id="matplotlib.axis_3">
    <g id="ytick_1">
     <g id="line2d_11">
      <path d="M 47.534499 329.811045 
L 203.739657 329.811045 
" clip-path="url(#p2bd730cd9b)" style="fill: none; stroke: #cccccc; stroke-width: 0.8; stroke-linecap: round"/>
     </g>
     <g id="text_1">
      <!-- $\mathdefault{0.0}$ -->
      <g style="fill: #262626" transform="translate(27.80442 333.270294)scale(0.1 -0.1)">
       <defs>
        <path id="CMR17-30" d="M 2688 2025 
C 2688 2416 2682 3080 2413 3591 
C 2176 4039 1798 4198 1466 4198 
C 1158 4198 768 4058 525 3597 
C 269 3118 243 2524 243 2025 
C 243 1661 250 1106 448 619 
C 723 -39 1216 -128 1466 -128 
C 1760 -128 2208 -7 2470 600 
C 2662 1042 2688 1559 2688 2025 
z
M 1466 -26 
C 1056 -26 813 325 723 812 
C 653 1188 653 1738 653 2096 
C 653 2588 653 2997 736 3387 
C 858 3929 1216 4096 1466 4096 
C 1728 4096 2067 3923 2189 3400 
C 2272 3036 2278 2607 2278 2096 
C 2278 1680 2278 1169 2202 792 
C 2067 95 1690 -26 1466 -26 
z
" transform="scale(0.015625)"/>
        <path id="CMMI12-3a" d="M 1178 307 
C 1178 492 1024 619 870 619 
C 685 619 557 466 557 313 
C 557 128 710 0 864 0 
C 1050 0 1178 153 1178 307 
z
" transform="scale(0.015625)"/>
       </defs>
       <use xlink:href="#CMR17-30" transform="scale(0.996264)"/>
       <use xlink:href="#CMMI12-3a" transform="translate(45.690477 0)scale(0.996264)"/>
       <use xlink:href="#CMR17-30" transform="translate(72.787654 0)scale(0.996264)"/>
      </g>
     </g>
    </g>
    <g id="ytick_2">
     <g id="line2d_12">
      <path d="M 47.534499 298.71392 
L 203.739657 298.71392 
" clip-path="url(#p2bd730cd9b)" style="fill: none; stroke: #cccccc; stroke-width: 0.8; stroke-linecap: round"/>
     </g>
     <g id="text_2">
      <!-- $\mathdefault{0.2}$ -->
      <g style="fill: #262626" transform="translate(27.80442 302.173169)scale(0.1 -0.1)">
       <defs>
        <path id="CMR17-32" d="M 2669 989 
L 2554 989 
C 2490 536 2438 459 2413 420 
C 2381 369 1920 369 1830 369 
L 602 369 
C 832 619 1280 1072 1824 1597 
C 2214 1967 2669 2402 2669 3035 
C 2669 3790 2067 4224 1395 4224 
C 691 4224 262 3604 262 3030 
C 262 2780 448 2748 525 2748 
C 589 2748 781 2787 781 3010 
C 781 3207 614 3264 525 3264 
C 486 3264 448 3258 422 3245 
C 544 3790 915 4058 1306 4058 
C 1862 4058 2227 3617 2227 3035 
C 2227 2479 1901 2000 1536 1584 
L 262 146 
L 262 0 
L 2515 0 
L 2669 989 
z
" transform="scale(0.015625)"/>
       </defs>
       <use xlink:href="#CMR17-30" transform="scale(0.996264)"/>
       <use xlink:href="#CMMI12-3a" transform="translate(45.690477 0)scale(0.996264)"/>
       <use xlink:href="#CMR17-32" transform="translate(72.787654 0)scale(0.996264)"/>
      </g>
     </g>
    </g>
    <g id="ytick_3">
     <g id="line2d_13">
      <path d="M 47.534499 267.616794 
L 203.739657 267.616794 
" clip-path="url(#p2bd730cd9b)" style="fill: none; stroke: #cccccc; stroke-width: 0.8; stroke-linecap: round"/>
     </g>
     <g id="text_3">
      <!-- $\mathdefault{0.4}$ -->
      <g style="fill: #262626" transform="translate(27.80442 271.076043)scale(0.1 -0.1)">
       <defs>
        <path id="CMR17-34" d="M 2150 4122 
C 2150 4256 2144 4256 2029 4256 
L 128 1254 
L 128 1088 
L 1779 1088 
L 1779 457 
C 1779 224 1766 160 1318 160 
L 1197 160 
L 1197 0 
C 1402 0 1747 0 1965 0 
C 2182 0 2528 0 2733 0 
L 2733 160 
L 2611 160 
C 2163 160 2150 224 2150 457 
L 2150 1088 
L 2803 1088 
L 2803 1254 
L 2150 1254 
L 2150 4122 
z
M 1798 3703 
L 1798 1254 
L 256 1254 
L 1798 3703 
z
" transform="scale(0.015625)"/>
       </defs>
       <use xlink:href="#CMR17-30" transform="scale(0.996264)"/>
       <use xlink:href="#CMMI12-3a" transform="translate(45.690477 0)scale(0.996264)"/>
       <use xlink:href="#CMR17-34" transform="translate(72.787654 0)scale(0.996264)"/>
      </g>
     </g>
    </g>
    <g id="ytick_4">
     <g id="line2d_14">
      <path d="M 47.534499 236.519668 
L 203.739657 236.519668 
" clip-path="url(#p2bd730cd9b)" style="fill: none; stroke: #cccccc; stroke-width: 0.8; stroke-linecap: round"/>
     </g>
     <g id="text_4">
      <!-- $\mathdefault{0.6}$ -->
      <g style="fill: #262626" transform="translate(27.80442 239.978917)scale(0.1 -0.1)">
       <defs>
        <path id="CMR17-36" d="M 678 2176 
C 678 3690 1395 4032 1811 4032 
C 1946 4032 2272 4009 2400 3776 
C 2298 3776 2106 3776 2106 3553 
C 2106 3381 2246 3323 2336 3323 
C 2394 3323 2566 3348 2566 3560 
C 2566 3954 2246 4179 1805 4179 
C 1043 4179 243 3390 243 1984 
C 243 253 966 -128 1478 -128 
C 2099 -128 2688 427 2688 1283 
C 2688 2081 2170 2662 1517 2662 
C 1126 2662 838 2407 678 1960 
L 678 2176 
z
M 1478 25 
C 691 25 691 1200 691 1436 
C 691 1896 909 2560 1504 2560 
C 1613 2560 1926 2560 2138 2120 
C 2253 1870 2253 1609 2253 1289 
C 2253 944 2253 690 2118 434 
C 1978 171 1773 25 1478 25 
z
" transform="scale(0.015625)"/>
       </defs>
       <use xlink:href="#CMR17-30" transform="scale(0.996264)"/>
       <use xlink:href="#CMMI12-3a" transform="translate(45.690477 0)scale(0.996264)"/>
       <use xlink:href="#CMR17-36" transform="translate(72.787654 0)scale(0.996264)"/>
      </g>
     </g>
    </g>
    <g id="ytick_5">
     <g id="line2d_15">
      <path d="M 47.534499 205.422542 
L 203.739657 205.422542 
" clip-path="url(#p2bd730cd9b)" style="fill: none; stroke: #cccccc; stroke-width: 0.8; stroke-linecap: round"/>
     </g>
     <g id="text_5">
      <!-- $\mathdefault{0.8}$ -->
      <g style="fill: #262626" transform="translate(27.80442 208.881792)scale(0.1 -0.1)">
       <defs>
        <path id="CMR17-38" d="M 1741 2264 
C 2144 2467 2554 2773 2554 3263 
C 2554 3841 1990 4179 1472 4179 
C 890 4179 378 3759 378 3180 
C 378 3021 416 2747 666 2505 
C 730 2442 998 2251 1171 2130 
C 883 1983 211 1634 211 934 
C 211 279 838 -128 1459 -128 
C 2144 -128 2720 362 2720 1010 
C 2720 1590 2330 1857 2074 2029 
L 1741 2264 
z
M 902 2822 
C 851 2854 595 3051 595 3351 
C 595 3739 998 4032 1459 4032 
C 1965 4032 2336 3676 2336 3262 
C 2336 2669 1670 2331 1638 2331 
C 1632 2331 1626 2331 1574 2370 
L 902 2822 
z
M 2080 1519 
C 2176 1449 2483 1240 2483 851 
C 2483 381 2010 25 1472 25 
C 890 25 448 438 448 940 
C 448 1443 838 1862 1280 2060 
L 2080 1519 
z
" transform="scale(0.015625)"/>
       </defs>
       <use xlink:href="#CMR17-30" transform="scale(0.996264)"/>
       <use xlink:href="#CMMI12-3a" transform="translate(45.690477 0)scale(0.996264)"/>
       <use xlink:href="#CMR17-38" transform="translate(72.787654 0)scale(0.996264)"/>
      </g>
     </g>
    </g>
    <g id="ytick_6">
     <g id="line2d_16">
      <path d="M 47.534499 174.325417 
L 203.739657 174.325417 
" clip-path="url(#p2bd730cd9b)" style="fill: none; stroke: #cccccc; stroke-width: 0.8; stroke-linecap: round"/>
     </g>
     <g id="text_6">
      <!-- $\mathdefault{1.0}$ -->
      <g style="fill: #262626" transform="translate(27.80442 177.784666)scale(0.1 -0.1)">
       <defs>
        <path id="CMR17-31" d="M 1702 4058 
C 1702 4192 1696 4192 1606 4192 
C 1357 3916 979 3827 621 3827 
C 602 3827 570 3827 563 3808 
C 557 3795 557 3782 557 3648 
C 755 3648 1088 3686 1344 3839 
L 1344 461 
C 1344 236 1331 160 781 160 
L 589 160 
L 589 0 
C 896 0 1216 0 1523 0 
C 1830 0 2150 0 2458 0 
L 2458 160 
L 2266 160 
C 1715 160 1702 230 1702 458 
L 1702 4058 
z
" transform="scale(0.015625)"/>
       </defs>
       <use xlink:href="#CMR17-31" transform="scale(0.996264)"/>
       <use xlink:href="#CMMI12-3a" transform="translate(45.690477 0)scale(0.996264)"/>
       <use xlink:href="#CMR17-30" transform="translate(72.787654 0)scale(0.996264)"/>
      </g>
     </g>
    </g>
    <g id="text_7">
     <!-- spam_score -->
     <g style="fill: #262626" transform="translate(21.867242 275.463584)rotate(-90)scale(0.1 -0.1)">
      <defs>
       <path id="CMSS17-73" d="M 2061 2627 
C 1683 2807 1389 2807 1197 2807 
C 742 2807 198 2648 198 2003 
C 198 1359 902 1218 1094 1179 
C 1389 1122 1715 1058 1715 740 
C 1715 337 1254 337 1171 337 
C 915 337 563 407 243 638 
L 166 210 
C 531 0 883 -64 1178 -64 
C 1965 -64 2163 416 2163 781 
C 2163 1094 1984 1305 1862 1401 
C 1651 1568 1574 1587 1050 1696 
C 960 1709 646 1779 646 2066 
C 646 2432 1050 2432 1139 2432 
C 1555 2432 1811 2303 1984 2208 
L 2061 2627 
z
" transform="scale(0.015625)"/>
       <path id="CMSS17-70" d="M 966 333 
C 1178 129 1466 -5 1773 -5 
C 2368 -5 2880 603 2880 1412 
C 2880 2159 2496 2816 1946 2816 
C 1626 2816 1242 2702 954 2472 
L 954 2765 
L 480 2765 
L 480 -1216 
L 966 -1216 
L 966 333 
z
M 966 2100 
C 1018 2176 1235 2415 1587 2415 
C 2035 2415 2394 1960 2394 1412 
C 2394 787 1958 384 1530 384 
C 1402 384 1267 415 1139 523 
C 966 674 966 768 966 857 
L 966 2100 
z
" transform="scale(0.015625)"/>
       <path id="CMSS17-61" d="M 2406 1791 
C 2406 2392 1978 2808 1402 2808 
C 1120 2808 813 2757 461 2553 
L 499 2135 
C 659 2248 934 2432 1395 2432 
C 1722 2432 1920 2180 1920 1782 
L 1920 1536 
C 896 1536 256 1238 256 726 
C 256 461 416 -64 947 -64 
C 1043 -64 1562 -64 1933 217 
L 1933 -19 
L 2406 -19 
L 2406 1791 
z
M 1920 816 
C 1920 701 1920 548 1728 434 
C 1562 325 1350 325 1261 325 
C 941 325 723 511 723 744 
C 723 1211 1722 1211 1920 1211 
L 1920 816 
z
" transform="scale(0.015625)"/>
       <path id="CMSS17-6d" d="M 4288 1877 
C 4288 2308 4179 2816 3462 2816 
C 2982 2816 2694 2516 2566 2331 
C 2451 2670 2182 2816 1798 2816 
C 1363 2816 1088 2568 941 2389 
L 941 2758 
L 474 2758 
L 474 0 
L 960 0 
L 960 1559 
C 960 1939 1101 2428 1555 2428 
C 2138 2428 2138 2016 2138 1829 
L 2138 0 
L 2624 0 
L 2624 1559 
C 2624 1939 2765 2428 3219 2428 
C 3802 2428 3802 2016 3802 1829 
L 3802 0 
L 4288 0 
L 4288 1877 
z
" transform="scale(0.015625)"/>
       <path id="CMSS17-63" d="M 2464 2541 
C 2464 2585 2170 2714 2093 2739 
C 1882 2816 1613 2816 1542 2816 
C 710 2816 211 2093 211 1363 
C 211 595 768 -64 1517 -64 
C 1946 -64 2253 76 2502 242 
L 2464 664 
C 2189 453 1869 337 1523 337 
C 1024 337 698 774 698 1369 
C 698 1831 909 2414 1549 2414 
C 1901 2414 2099 2343 2394 2145 
L 2464 2541 
z
" transform="scale(0.015625)"/>
       <path id="CMSS17-6f" d="M 2829 1356 
C 2829 2176 2221 2816 1504 2816 
C 768 2816 173 2157 173 1356 
C 173 544 787 -64 1498 -64 
C 2227 -64 2829 563 2829 1356 
z
M 1504 337 
C 1050 337 659 709 659 1408 
C 659 2151 1114 2427 1498 2427 
C 1914 2427 2342 2126 2342 1408 
C 2342 683 1926 337 1504 337 
z
" transform="scale(0.015625)"/>
       <path id="CMSS17-72" d="M 954 1363 
C 954 1965 1395 2368 1958 2368 
L 1958 2789 
C 1549 2789 1165 2585 934 2253 
L 934 2758 
L 480 2758 
L 480 0 
L 954 0 
L 954 1363 
z
" transform="scale(0.015625)"/>
       <path id="CMSS17-65" d="M 2502 1377 
C 2502 1590 2490 2003 2285 2345 
C 2061 2713 1696 2816 1421 2816 
C 755 2816 192 2188 192 1375 
C 192 582 774 -64 1510 -64 
C 1798 -64 2150 19 2470 248 
C 2470 274 2458 414 2451 420 
C 2451 433 2432 630 2432 656 
C 2125 407 1773 325 1517 325 
C 1107 325 666 667 646 1377 
L 2502 1377 
z
M 698 1728 
C 781 2084 1062 2421 1421 2421 
C 1517 2421 1965 2421 2080 1728 
L 698 1728 
z
" transform="scale(0.015625)"/>
      </defs>
      <use xlink:href="#CMSS17-73" transform="scale(0.996264)"/>
      <use xlink:href="#CMSS17-70" transform="translate(35.913542 0)scale(0.996264)"/>
      <use xlink:href="#CMSS17-61" transform="translate(84.118485 0)scale(0.996264)"/>
      <use xlink:href="#CMSS17-6d" transform="translate(129.040406 0)scale(0.996264)"/>
      <use xlink:href="#CMSS17-73" transform="translate(236.997155 0)scale(0.996264)"/>
      <use xlink:href="#CMSS17-63" transform="translate(272.910697 0)scale(0.996264)"/>
      <use xlink:href="#CMSS17-6f" transform="translate(314.54952 0)scale(0.996264)"/>
      <use xlink:href="#CMSS17-72" transform="translate(358.790689 0)scale(0.996264)"/>
      <use xlink:href="#CMSS17-65" transform="translate(390.700462 0)scale(0.996264)"/>
      <path d="M 208.890671 0 
L 236.997155 0 
L 236.997155 0.3985 
L 208.890671 0.3985 
L 208.890671 0 
z
"/>
     </g>
    </g>
   </g>
   <g id="PathCollection_1">
    <defs>
     <path id="m22bc38c6e5" d="M 0 3 
C 0.795609 3 1.55874 2.683901 2.12132 2.12132 
C 2.683901 1.55874 3 0.795609 3 0 
C 3 -0.795609 2.683901 -1.55874 2.12132 -2.12132 
C 1.55874 -2.683901 0.795609 -3 0 -3 
C -0.795609 -3 -1.55874 -2.683901 -2.12132 -2.12132 
C -2.683901 -1.55874 -3 -0.795609 -3 0 
C -3 0.795609 -2.683901 1.55874 -2.12132 2.12132 
C -1.55874 2.683901 -0.795609 3 0 3 
z
" style="stroke: #ffffff; stroke-width: 0.48"/>
    </defs>
    <g clip-path="url(#p2bd730cd9b)">
     <use xlink:href="#m22bc38c6e5" x="153.985808" y="212.298462" style="fill: #1f77b4; stroke: #ffffff; stroke-width: 0.48"/>
     <use xlink:href="#m22bc38c6e5" x="162.779665" y="180.878943" style="fill: #1f77b4; stroke: #ffffff; stroke-width: 0.48"/>
     <use xlink:href="#m22bc38c6e5" x="159.235481" y="195.021479" style="fill: #1f77b4; stroke: #ffffff; stroke-width: 0.48"/>
     <use xlink:href="#m22bc38c6e5" x="152.31956" y="210.593399" style="fill: #1f77b4; stroke: #ffffff; stroke-width: 0.48"/>
     <use xlink:href="#m22bc38c6e5" x="159.299787" y="194.57694" style="fill: #1f77b4; stroke: #ffffff; stroke-width: 0.48"/>
     <use xlink:href="#m22bc38c6e5" x="153.850707" y="213.060774" style="fill: #1f77b4; stroke: #ffffff; stroke-width: 0.48"/>
     <use xlink:href="#m22bc38c6e5" x="148.095985" y="234.191046" style="fill: #1f77b4; stroke: #ffffff; stroke-width: 0.48"/>
     <use xlink:href="#m22bc38c6e5" x="151.526739" y="219.179941" style="fill: #1f77b4; stroke: #ffffff; stroke-width: 0.48"/>
     <use xlink:href="#m22bc38c6e5" x="155.201718" y="210.13702" style="fill: #1f77b4; stroke: #ffffff; stroke-width: 0.48"/>
     <use xlink:href="#m22bc38c6e5" x="129.255853" y="278.457514" style="fill: #1f77b4; stroke: #ffffff; stroke-width: 0.48"/>
     <use xlink:href="#m22bc38c6e5" x="141.008001" y="236.810555" style="fill: #1f77b4; stroke: #ffffff; stroke-width: 0.48"/>
     <use xlink:href="#m22bc38c6e5" x="141.761075" y="252.091737" style="fill: #1f77b4; stroke: #ffffff; stroke-width: 0.48"/>
     <use xlink:href="#m22bc38c6e5" x="138.987824" y="254.945515" style="fill: #1f77b4; stroke: #ffffff; stroke-width: 0.48"/>
     <use xlink:href="#m22bc38c6e5" x="133.815379" y="267.19093" style="fill: #1f77b4; stroke: #ffffff; stroke-width: 0.48"/>
     <use xlink:href="#m22bc38c6e5" x="139.737336" y="247.021411" style="fill: #1f77b4; stroke: #ffffff; stroke-width: 0.48"/>
     <use xlink:href="#m22bc38c6e5" x="139.849313" y="258.607292" style="fill: #1f77b4; stroke: #ffffff; stroke-width: 0.48"/>
     <use xlink:href="#m22bc38c6e5" x="127.487167" y="290.701034" style="fill: #1f77b4; stroke: #ffffff; stroke-width: 0.48"/>
     <use xlink:href="#m22bc38c6e5" x="138.96074" y="256.139327" style="fill: #1f77b4; stroke: #ffffff; stroke-width: 0.48"/>
     <use xlink:href="#m22bc38c6e5" x="115.791188" y="284.799641" style="fill: #1f77b4; stroke: #ffffff; stroke-width: 0.48"/>
     <use xlink:href="#m22bc38c6e5" x="111.760555" y="293.578331" style="fill: #1f77b4; stroke: #ffffff; stroke-width: 0.48"/>
     <use xlink:href="#m22bc38c6e5" x="120.798136" y="287.288053" style="fill: #1f77b4; stroke: #ffffff; stroke-width: 0.48"/>
     <use xlink:href="#m22bc38c6e5" x="113.850338" y="305.060142" style="fill: #1f77b4; stroke: #ffffff; stroke-width: 0.48"/>
     <use xlink:href="#m22bc38c6e5" x="116.438883" y="301.823012" style="fill: #1f77b4; stroke: #ffffff; stroke-width: 0.48"/>
     <use xlink:href="#m22bc38c6e5" x="112.082051" y="286.787791" style="fill: #1f77b4; stroke: #ffffff; stroke-width: 0.48"/>
     <use xlink:href="#m22bc38c6e5" x="100.543667" y="305.388721" style="fill: #1f77b4; stroke: #ffffff; stroke-width: 0.48"/>
     <use xlink:href="#m22bc38c6e5" x="96.001673" y="312.023195" style="fill: #1f77b4; stroke: #ffffff; stroke-width: 0.48"/>
     <use xlink:href="#m22bc38c6e5" x="100.953329" y="296.775953" style="fill: #1f77b4; stroke: #ffffff; stroke-width: 0.48"/>
     <use xlink:href="#m22bc38c6e5" x="102.796286" y="290.956393" style="fill: #1f77b4; stroke: #ffffff; stroke-width: 0.48"/>
     <use xlink:href="#m22bc38c6e5" x="105.993086" y="314.66374" style="fill: #1f77b4; stroke: #ffffff; stroke-width: 0.48"/>
     <use xlink:href="#m22bc38c6e5" x="91.06726" y="290.857151" style="fill: #1f77b4; stroke: #ffffff; stroke-width: 0.48"/>
     <use xlink:href="#m22bc38c6e5" x="102.457869" y="302.548374" style="fill: #1f77b4; stroke: #ffffff; stroke-width: 0.48"/>
     <use xlink:href="#m22bc38c6e5" x="93.460542" y="310.957145" style="fill: #1f77b4; stroke: #ffffff; stroke-width: 0.48"/>
     <use xlink:href="#m22bc38c6e5" x="99.402049" y="309.035136" style="fill: #1f77b4; stroke: #ffffff; stroke-width: 0.48"/>
     <use xlink:href="#m22bc38c6e5" x="100.400077" y="312.327594" style="fill: #1f77b4; stroke: #ffffff; stroke-width: 0.48"/>
     <use xlink:href="#m22bc38c6e5" x="94.095527" y="309.763018" style="fill: #1f77b4; stroke: #ffffff; stroke-width: 0.48"/>
     <use xlink:href="#m22bc38c6e5" x="94.908681" y="310.320005" style="fill: #1f77b4; stroke: #ffffff; stroke-width: 0.48"/>
     <use xlink:href="#m22bc38c6e5" x="88.494491" y="298.920874" style="fill: #1f77b4; stroke: #ffffff; stroke-width: 0.48"/>
     <use xlink:href="#m22bc38c6e5" x="103.732197" y="320.834657" style="fill: #1f77b4; stroke: #ffffff; stroke-width: 0.48"/>
     <use xlink:href="#m22bc38c6e5" x="103.912125" y="316.379554" style="fill: #1f77b4; stroke: #ffffff; stroke-width: 0.48"/>
     <use xlink:href="#m22bc38c6e5" x="99.07157" y="324.009703" style="fill: #1f77b4; stroke: #ffffff; stroke-width: 0.48"/>
    </g>
   </g>
   <g id="patch_5">
    <path d="M 47.534499 331.166241 
L 47.534499 173.722405 
" style="fill: none; stroke: #cccccc; stroke-width: 0.8; stroke-linejoin: miter; stroke-linecap: square"/>
   </g>
   <g id="patch_6">
    <path d="M 47.534499 331.166241 
L 203.739657 331.166241 
" style="fill: none; stroke: #cccccc; stroke-width: 0.8; stroke-linejoin: miter; stroke-linecap: square"/>
   </g>
   <g id="text_8">
    <!-- $\rho$ = 0.94 -->
    <g style="fill: #262626" transform="translate(63.155015 189.466789)scale(0.1 -0.1)">
     <defs>
      <path id="CMMI12-1a" d="M 198 -1107 
C 192 -1139 179 -1177 179 -1216 
C 179 -1312 256 -1376 352 -1376 
C 448 -1376 538 -1312 576 -1222 
C 602 -1164 781 -397 986 390 
C 1114 70 1350 -64 1600 -64 
C 2323 -64 3142 830 3142 1795 
C 3142 2478 2726 2816 2285 2816 
C 1722 2816 1037 2235 826 1385 
L 198 -1107 
z
M 1594 64 
C 1158 64 1050 569 1050 645 
C 1050 684 1210 1295 1229 1391 
C 1555 2670 2182 2670 2278 2670 
C 2566 2670 2726 2410 2726 2036 
C 2726 1712 2554 1084 2445 819 
C 2253 381 1920 64 1594 64 
z
" transform="scale(0.015625)"/>
      <path id="CMSS17-3d" d="M 4147 2017 
C 4243 2017 4339 2017 4339 2125 
C 4339 2240 4230 2240 4122 2240 
L 550 2240 
C 442 2240 333 2240 333 2125 
C 333 2017 429 2017 525 2017 
L 4147 2017 
z
M 4122 896 
C 4230 896 4339 896 4339 1011 
C 4339 1119 4243 1119 4147 1119 
L 525 1119 
C 429 1119 333 1119 333 1011 
C 333 896 442 896 550 896 
L 4122 896 
z
" transform="scale(0.015625)"/>
      <path id="CMSS17-30" d="M 2758 2044 
C 2758 2405 2752 3077 2490 3596 
C 2227 4096 1805 4229 1504 4229 
C 1069 4229 698 3975 506 3570 
C 301 3146 243 2709 243 2044 
C 243 1589 262 1031 493 543 
C 755 5 1197 -128 1498 -128 
C 1894 -128 2278 81 2496 518 
C 2720 974 2758 1474 2758 2044 
z
M 1498 261 
C 1011 261 864 811 819 995 
C 742 1310 730 1614 730 2114 
C 730 2506 730 2948 851 3297 
C 998 3701 1254 3840 1498 3840 
C 1971 3840 2125 3372 2176 3208 
C 2272 2873 2272 2481 2272 2114 
C 2272 1526 2272 261 1498 261 
z
" transform="scale(0.015625)"/>
      <path id="CMSS17-2e" d="M 1088 510 
L 576 510 
L 576 0 
L 1088 0 
L 1088 510 
z
" transform="scale(0.015625)"/>
      <path id="CMSS17-39" d="M 435 174 
C 614 21 845 -128 1235 -128 
C 2010 -128 2752 721 2752 2095 
C 2752 3932 1952 4229 1523 4229 
C 1094 4229 819 4041 582 3741 
C 301 3397 250 3090 250 2733 
C 250 2307 326 2045 506 1745 
C 749 1357 973 1275 1222 1275 
C 1600 1275 1978 1459 2234 1776 
C 2189 902 1798 267 1235 267 
C 1005 267 819 339 634 516 
L 435 174 
z
M 2214 2746 
C 2221 2703 2221 2622 2221 2596 
C 2221 2074 1914 1664 1466 1664 
C 1171 1664 1018 1813 902 2006 
C 762 2249 755 2485 755 2733 
C 755 2976 755 3244 934 3511 
C 1069 3703 1235 3840 1523 3840 
C 2112 3840 2208 3000 2214 2746 
z
" transform="scale(0.015625)"/>
      <path id="CMSS17-34" d="M 2253 1088 
L 2835 1088 
L 2835 1477 
L 2253 1477 
L 2253 4192 
L 1690 4192 
L 166 1477 
L 166 1088 
L 1747 1088 
L 1747 0 
L 2253 0 
L 2253 1088 
z
M 659 1477 
C 1030 2127 1766 3439 1766 3885 
L 1766 1477 
L 659 1477 
z
" transform="scale(0.015625)"/>
     </defs>
     <use xlink:href="#CMMI12-1a" transform="scale(0.996264)"/>
     <use xlink:href="#CMSS17-3d" transform="translate(81.543486 0)scale(0.996264)"/>
     <use xlink:href="#CMSS17-30" transform="translate(185.640533 0)scale(0.996264)"/>
     <use xlink:href="#CMSS17-2e" transform="translate(232.484157 0)scale(0.996264)"/>
     <use xlink:href="#CMSS17-39" transform="translate(258.508362 0)scale(0.996264)"/>
     <use xlink:href="#CMSS17-34" transform="translate(305.351985 0)scale(0.996264)"/>
    </g>
   </g>
  </g>
  <g id="axes_3">
   <g id="patch_7">
    <path d="M 208.864671 331.166241 
L 365.069828 331.166241 
L 365.069828 173.722405 
L 208.864671 173.722405 
z
" style="fill: #ffffff"/>
   </g>
   <g id="matplotlib.axis_4">
    <g id="xtick_11">
     <g id="line2d_17">
      <path d="M 245.115977 331.166241 
L 245.115977 173.722405 
" clip-path="url(#pb31ea00ad7)" style="fill: none; stroke: #cccccc; stroke-width: 0.8; stroke-linecap: round"/>
     </g>
    </g>
    <g id="xtick_12">
     <g id="line2d_18">
      <path d="M 287.170696 331.166241 
L 287.170696 173.722405 
" clip-path="url(#pb31ea00ad7)" style="fill: none; stroke: #cccccc; stroke-width: 0.8; stroke-linecap: round"/>
     </g>
    </g>
    <g id="xtick_13">
     <g id="line2d_19">
      <path d="M 329.225414 331.166241 
L 329.225414 173.722405 
" clip-path="url(#pb31ea00ad7)" style="fill: none; stroke: #cccccc; stroke-width: 0.8; stroke-linecap: round"/>
     </g>
    </g>
   </g>
   <g id="patch_8">
    <path d="M 208.864671 331.166241 
L 365.069828 331.166241 
" style="fill: none; stroke: #cccccc; stroke-width: 0.8; stroke-linejoin: miter; stroke-linecap: square"/>
   </g>
  </g>
  <g id="axes_4">
   <g id="patch_9">
    <path d="M 47.534499 497.688647 
L 203.739657 497.688647 
L 203.739657 340.244811 
L 47.534499 340.244811 
z
" style="fill: #ffffff"/>
   </g>
   <g id="matplotlib.axis_5">
    <g id="xtick_14">
     <g id="line2d_20">
      <path d="M 50.768516 497.688647 
L 50.768516 340.244811 
" clip-path="url(#p7701fb7ca8)" style="fill: none; stroke: #cccccc; stroke-width: 0.8; stroke-linecap: round"/>
     </g>
     <g id="text_9">
      <!-- $\mathdefault{−2}$ -->
      <g style="fill: #262626" transform="translate(44.403477 511.607145)scale(0.1 -0.1)">
       <defs>
        <path id="CMSY10-0" d="M 4218 1472 
C 4326 1472 4442 1472 4442 1600 
C 4442 1728 4326 1728 4218 1728 
L 755 1728 
C 646 1728 531 1728 531 1600 
C 531 1472 646 1472 755 1472 
L 4218 1472 
z
" transform="scale(0.015625)"/>
       </defs>
       <use xlink:href="#CMSY10-0" transform="scale(0.996264)"/>
       <use xlink:href="#CMR17-32" transform="translate(77.487468 0)scale(0.996264)"/>
      </g>
     </g>
    </g>
    <g id="xtick_15">
     <g id="line2d_21">
      <path d="M 83.192796 497.688647 
L 83.192796 340.244811 
" clip-path="url(#p7701fb7ca8)" style="fill: none; stroke: #cccccc; stroke-width: 0.8; stroke-linecap: round"/>
     </g>
     <g id="text_10">
      <!-- $\mathdefault{0}$ -->
      <g style="fill: #262626" transform="translate(80.702129 511.607145)scale(0.1 -0.1)">
       <use xlink:href="#CMR17-30" transform="scale(0.996264)"/>
      </g>
     </g>
    </g>
    <g id="xtick_16">
     <g id="line2d_22">
      <path d="M 115.617076 497.688647 
L 115.617076 340.244811 
" clip-path="url(#p7701fb7ca8)" style="fill: none; stroke: #cccccc; stroke-width: 0.8; stroke-linecap: round"/>
     </g>
     <g id="text_11">
      <!-- $\mathdefault{2}$ -->
      <g style="fill: #262626" transform="translate(113.126409 511.607145)scale(0.1 -0.1)">
       <use xlink:href="#CMR17-32" transform="scale(0.996264)"/>
      </g>
     </g>
    </g>
    <g id="xtick_17">
     <g id="line2d_23">
      <path d="M 148.041356 497.688647 
L 148.041356 340.244811 
" clip-path="url(#p7701fb7ca8)" style="fill: none; stroke: #cccccc; stroke-width: 0.8; stroke-linecap: round"/>
     </g>
     <g id="text_12">
      <!-- $\mathdefault{4}$ -->
      <g style="fill: #262626" transform="translate(145.550689 511.607145)scale(0.1 -0.1)">
       <use xlink:href="#CMR17-34" transform="scale(0.996264)"/>
      </g>
     </g>
    </g>
    <g id="xtick_18">
     <g id="line2d_24">
      <path d="M 180.465636 497.688647 
L 180.465636 340.244811 
" clip-path="url(#p7701fb7ca8)" style="fill: none; stroke: #cccccc; stroke-width: 0.8; stroke-linecap: round"/>
     </g>
     <g id="text_13">
      <!-- $\mathdefault{6}$ -->
      <g style="fill: #262626" transform="translate(177.974969 511.607145)scale(0.1 -0.1)">
       <use xlink:href="#CMR17-36" transform="scale(0.996264)"/>
      </g>
     </g>
    </g>
    <g id="text_14">
     <!-- trace_confusion -->
     <g style="fill: #262626" transform="translate(93.983509 524.462822)scale(0.1 -0.1)">
      <defs>
       <path id="CMSS17-74" d="M 1069 2368 
L 1901 2368 
L 1901 2737 
L 1069 2737 
L 1069 3520 
L 614 3520 
L 614 2737 
L 109 2737 
L 109 2368 
L 602 2368 
L 602 749 
C 602 384 685 -64 1107 -64 
C 1427 -64 1722 25 2003 172 
L 1901 548 
C 1747 414 1562 337 1363 337 
C 1082 337 1069 696 1069 856 
L 1069 2368 
z
" transform="scale(0.015625)"/>
       <path id="CMSS17-6e" d="M 2618 1877 
C 2618 2283 2522 2816 1798 2816 
C 1389 2816 1120 2606 941 2389 
L 941 2758 
L 474 2758 
L 474 0 
L 960 0 
L 960 1559 
C 960 1964 1114 2428 1549 2428 
C 2112 2428 2131 2048 2131 1829 
L 2131 0 
L 2618 0 
L 2618 1877 
z
" transform="scale(0.015625)"/>
       <path id="CMSS17-66" d="M 1075 2368 
L 1722 2368 
L 1722 2737 
L 1062 2737 
L 1062 3559 
C 1062 4014 1408 4092 1606 4092 
C 1670 4092 1850 4092 2080 4009 
L 2080 4429 
C 1933 4461 1754 4480 1613 4480 
C 1018 4480 602 3993 602 3359 
L 602 2737 
L 160 2737 
L 160 2368 
L 602 2368 
L 602 0 
L 1075 0 
L 1075 2368 
z
" transform="scale(0.015625)"/>
       <path id="CMSS17-75" d="M 2618 2739 
L 2131 2739 
L 2131 972 
C 2131 498 1786 306 1421 306 
C 998 306 960 447 960 709 
L 960 2739 
L 474 2739 
L 474 678 
C 474 179 646 -64 1088 -64 
C 1306 -64 1798 -13 2144 306 
L 2144 0 
L 2618 0 
L 2618 2739 
z
" transform="scale(0.015625)"/>
       <path id="CMSS17-69" d="M 979 4183 
L 442 4183 
L 442 3648 
L 979 3648 
L 979 4183 
z
M 947 2739 
L 474 2739 
L 474 0 
L 947 0 
L 947 2739 
z
" transform="scale(0.015625)"/>
      </defs>
      <use xlink:href="#CMSS17-74" transform="scale(0.996264)"/>
      <use xlink:href="#CMSS17-72" transform="translate(33.831567 0)scale(0.996264)"/>
      <use xlink:href="#CMSS17-61" transform="translate(65.741339 0)scale(0.996264)"/>
      <use xlink:href="#CMSS17-63" transform="translate(110.66326 0)scale(0.996264)"/>
      <use xlink:href="#CMSS17-65" transform="translate(152.302082 0)scale(0.996264)"/>
      <use xlink:href="#CMSS17-63" transform="translate(227.668399 0)scale(0.996264)"/>
      <use xlink:href="#CMSS17-6f" transform="translate(269.307221 0)scale(0.996264)"/>
      <use xlink:href="#CMSS17-6e" transform="translate(316.150845 0)scale(0.996264)"/>
      <use xlink:href="#CMSS17-66" transform="translate(364.355788 0)scale(0.996264)"/>
      <use xlink:href="#CMSS17-75" transform="translate(392.982447 0)scale(0.996264)"/>
      <use xlink:href="#CMSS17-73" transform="translate(441.18739 0)scale(0.996264)"/>
      <use xlink:href="#CMSS17-69" transform="translate(477.100932 0)scale(0.996264)"/>
      <use xlink:href="#CMSS17-6f" transform="translate(499.281655 0)scale(0.996264)"/>
      <use xlink:href="#CMSS17-6e" transform="translate(546.125278 0)scale(0.996264)"/>
      <path d="M 199.561915 0 
L 227.668399 0 
L 227.668399 0.3985 
L 199.561915 0.3985 
L 199.561915 0 
z
"/>
     </g>
    </g>
   </g>
   <g id="matplotlib.axis_6">
    <g id="ytick_7">
     <g id="line2d_25">
      <path d="M 47.534499 487.220307 
L 203.739657 487.220307 
" clip-path="url(#p7701fb7ca8)" style="fill: none; stroke: #cccccc; stroke-width: 0.8; stroke-linecap: round"/>
     </g>
     <g id="text_15">
      <!-- $\mathdefault{−1.0}$ -->
      <g style="fill: #262626" transform="translate(20.055677 490.679556)scale(0.1 -0.1)">
       <use xlink:href="#CMSY10-0" transform="scale(0.996264)"/>
       <use xlink:href="#CMR17-31" transform="translate(77.487468 0)scale(0.996264)"/>
       <use xlink:href="#CMMI12-3a" transform="translate(123.177945 0)scale(0.996264)"/>
       <use xlink:href="#CMR17-30" transform="translate(150.275122 0)scale(0.996264)"/>
      </g>
     </g>
    </g>
    <g id="ytick_8">
     <g id="line2d_26">
      <path d="M 47.534499 458.875688 
L 203.739657 458.875688 
" clip-path="url(#p7701fb7ca8)" style="fill: none; stroke: #cccccc; stroke-width: 0.8; stroke-linecap: round"/>
     </g>
     <g id="text_16">
      <!-- $\mathdefault{−0.5}$ -->
      <g style="fill: #262626" transform="translate(20.055677 462.334937)scale(0.1 -0.1)">
       <defs>
        <path id="CMR17-35" d="M 730 3692 
C 794 3666 1056 3584 1325 3584 
C 1920 3584 2246 3911 2432 4100 
C 2432 4157 2432 4192 2394 4192 
C 2387 4192 2374 4192 2323 4163 
C 2099 4058 1837 3973 1517 3973 
C 1325 3973 1037 3999 723 4139 
C 653 4171 640 4171 634 4171 
C 602 4171 595 4164 595 4037 
L 595 2203 
C 595 2089 595 2057 659 2057 
C 691 2057 704 2070 736 2114 
C 941 2401 1222 2522 1542 2522 
C 1766 2522 2246 2382 2246 1289 
C 2246 1085 2246 715 2054 421 
C 1894 159 1645 25 1370 25 
C 947 25 518 320 403 814 
C 429 807 480 795 506 795 
C 589 795 749 840 749 1038 
C 749 1210 627 1280 506 1280 
C 358 1280 262 1190 262 1011 
C 262 454 704 -128 1382 -128 
C 2042 -128 2669 440 2669 1264 
C 2669 2030 2170 2624 1549 2624 
C 1222 2624 947 2503 730 2274 
L 730 3692 
z
" transform="scale(0.015625)"/>
       </defs>
       <use xlink:href="#CMSY10-0" transform="scale(0.996264)"/>
       <use xlink:href="#CMR17-30" transform="translate(77.487468 0)scale(0.996264)"/>
       <use xlink:href="#CMMI12-3a" transform="translate(123.177945 0)scale(0.996264)"/>
       <use xlink:href="#CMR17-35" transform="translate(150.275122 0)scale(0.996264)"/>
      </g>
     </g>
    </g>
    <g id="ytick_9">
     <g id="line2d_27">
      <path d="M 47.534499 430.531069 
L 203.739657 430.531069 
" clip-path="url(#p7701fb7ca8)" style="fill: none; stroke: #cccccc; stroke-width: 0.8; stroke-linecap: round"/>
     </g>
     <g id="text_17">
      <!-- $\mathdefault{0.0}$ -->
      <g style="fill: #262626" transform="translate(27.80442 433.990318)scale(0.1 -0.1)">
       <use xlink:href="#CMR17-30" transform="scale(0.996264)"/>
       <use xlink:href="#CMMI12-3a" transform="translate(45.690477 0)scale(0.996264)"/>
       <use xlink:href="#CMR17-30" transform="translate(72.787654 0)scale(0.996264)"/>
      </g>
     </g>
    </g>
    <g id="ytick_10">
     <g id="line2d_28">
      <path d="M 47.534499 402.18645 
L 203.739657 402.18645 
" clip-path="url(#p7701fb7ca8)" style="fill: none; stroke: #cccccc; stroke-width: 0.8; stroke-linecap: round"/>
     </g>
     <g id="text_18">
      <!-- $\mathdefault{0.5}$ -->
      <g style="fill: #262626" transform="translate(27.80442 405.645699)scale(0.1 -0.1)">
       <use xlink:href="#CMR17-30" transform="scale(0.996264)"/>
       <use xlink:href="#CMMI12-3a" transform="translate(45.690477 0)scale(0.996264)"/>
       <use xlink:href="#CMR17-35" transform="translate(72.787654 0)scale(0.996264)"/>
      </g>
     </g>
    </g>
    <g id="ytick_11">
     <g id="line2d_29">
      <path d="M 47.534499 373.84183 
L 203.739657 373.84183 
" clip-path="url(#p7701fb7ca8)" style="fill: none; stroke: #cccccc; stroke-width: 0.8; stroke-linecap: round"/>
     </g>
     <g id="text_19">
      <!-- $\mathdefault{1.0}$ -->
      <g style="fill: #262626" transform="translate(27.80442 377.301079)scale(0.1 -0.1)">
       <use xlink:href="#CMR17-31" transform="scale(0.996264)"/>
       <use xlink:href="#CMMI12-3a" transform="translate(45.690477 0)scale(0.996264)"/>
       <use xlink:href="#CMR17-30" transform="translate(72.787654 0)scale(0.996264)"/>
      </g>
     </g>
    </g>
    <g id="ytick_12">
     <g id="line2d_30">
      <path d="M 47.534499 345.497211 
L 203.739657 345.497211 
" clip-path="url(#p7701fb7ca8)" style="fill: none; stroke: #cccccc; stroke-width: 0.8; stroke-linecap: round"/>
     </g>
     <g id="text_20">
      <!-- $\mathdefault{1.5}$ -->
      <g style="fill: #262626" transform="translate(27.80442 348.95646)scale(0.1 -0.1)">
       <use xlink:href="#CMR17-31" transform="scale(0.996264)"/>
       <use xlink:href="#CMMI12-3a" transform="translate(45.690477 0)scale(0.996264)"/>
       <use xlink:href="#CMR17-35" transform="translate(72.787654 0)scale(0.996264)"/>
      </g>
     </g>
    </g>
    <g id="text_21">
     <!-- glad -->
     <g style="fill: #262626" transform="translate(14.118498 427.614871)rotate(-90)scale(0.1 -0.1)">
      <defs>
       <path id="CMSS17-67" d="M 2848 2808 
C 2483 2808 2170 2738 1914 2617 
C 1702 2777 1485 2808 1338 2808 
C 781 2808 358 2349 358 1814 
C 358 1468 550 1207 563 1195 
C 448 1035 384 863 384 672 
C 384 448 474 289 544 200 
C 211 -3 166 -314 166 -435 
C 166 -898 749 -1280 1498 -1280 
C 2253 -1280 2835 -898 2835 -428 
C 2835 448 1856 448 1587 448 
L 1069 448 
C 973 448 717 448 717 791 
C 717 921 774 1004 781 1010 
C 877 940 1075 832 1338 832 
C 1869 832 2310 1278 2310 1827 
C 2310 2132 2170 2355 2112 2432 
L 2131 2432 
C 2150 2432 2419 2432 2515 2432 
C 2720 2432 2739 2429 2918 2419 
L 2848 2808 
z
M 1338 1182 
C 1120 1182 813 1315 813 1823 
C 813 2375 1165 2464 1331 2464 
C 1549 2464 1856 2331 1856 1823 
C 1856 1271 1504 1182 1338 1182 
z
M 1581 -10 
C 1734 -10 2381 -10 2381 -442 
C 2381 -714 1984 -929 1504 -929 
C 1018 -929 621 -720 621 -435 
C 621 -403 621 -10 1062 -10 
L 1581 -10 
z
" transform="scale(0.015625)"/>
       <path id="CMSS17-6c" d="M 947 4416 
L 474 4416 
L 474 0 
L 947 0 
L 947 4416 
z
" transform="scale(0.015625)"/>
       <path id="CMSS17-64" d="M 2611 4416 
L 2138 4416 
L 2138 2438 
C 1939 2603 1613 2756 1254 2756 
C 672 2756 211 2131 211 1347 
C 211 562 666 -64 1235 -64 
C 1677 -64 1971 172 2125 306 
L 2125 -13 
L 2611 -13 
L 2611 4416 
z
M 2125 836 
C 2125 747 2125 653 1926 482 
C 1798 375 1645 325 1498 325 
C 1152 325 698 576 698 1340 
C 698 2134 1210 2368 1562 2368 
C 1798 2368 1990 2254 2125 2065 
L 2125 836 
z
" transform="scale(0.015625)"/>
      </defs>
      <use xlink:href="#CMSS17-67" transform="scale(0.996264)"/>
      <use xlink:href="#CMSS17-6c" transform="translate(46.843624 0)scale(0.996264)"/>
      <use xlink:href="#CMSS17-61" transform="translate(69.024347 0)scale(0.996264)"/>
      <use xlink:href="#CMSS17-64" transform="translate(113.946267 0)scale(0.996264)"/>
     </g>
    </g>
   </g>
   <g id="PathCollection_2">
    <g clip-path="url(#p7701fb7ca8)">
     <use xlink:href="#m22bc38c6e5" x="153.985808" y="386.662265" style="fill: #1f77b4; stroke: #ffffff; stroke-width: 0.48"/>
     <use xlink:href="#m22bc38c6e5" x="162.779665" y="347.401349" style="fill: #1f77b4; stroke: #ffffff; stroke-width: 0.48"/>
     <use xlink:href="#m22bc38c6e5" x="159.235481" y="351.540358" style="fill: #1f77b4; stroke: #ffffff; stroke-width: 0.48"/>
     <use xlink:href="#m22bc38c6e5" x="152.31956" y="392.750347" style="fill: #1f77b4; stroke: #ffffff; stroke-width: 0.48"/>
     <use xlink:href="#m22bc38c6e5" x="159.299787" y="362.971794" style="fill: #1f77b4; stroke: #ffffff; stroke-width: 0.48"/>
     <use xlink:href="#m22bc38c6e5" x="153.850707" y="377.495141" style="fill: #1f77b4; stroke: #ffffff; stroke-width: 0.48"/>
     <use xlink:href="#m22bc38c6e5" x="148.095985" y="404.431946" style="fill: #1f77b4; stroke: #ffffff; stroke-width: 0.48"/>
     <use xlink:href="#m22bc38c6e5" x="151.526739" y="369.862003" style="fill: #1f77b4; stroke: #ffffff; stroke-width: 0.48"/>
     <use xlink:href="#m22bc38c6e5" x="155.201718" y="379.248012" style="fill: #1f77b4; stroke: #ffffff; stroke-width: 0.48"/>
     <use xlink:href="#m22bc38c6e5" x="129.255853" y="421.891835" style="fill: #1f77b4; stroke: #ffffff; stroke-width: 0.48"/>
     <use xlink:href="#m22bc38c6e5" x="141.008001" y="403.737913" style="fill: #1f77b4; stroke: #ffffff; stroke-width: 0.48"/>
     <use xlink:href="#m22bc38c6e5" x="141.761075" y="406.235663" style="fill: #1f77b4; stroke: #ffffff; stroke-width: 0.48"/>
     <use xlink:href="#m22bc38c6e5" x="138.987824" y="416.406653" style="fill: #1f77b4; stroke: #ffffff; stroke-width: 0.48"/>
     <use xlink:href="#m22bc38c6e5" x="133.815379" y="418.141823" style="fill: #1f77b4; stroke: #ffffff; stroke-width: 0.48"/>
     <use xlink:href="#m22bc38c6e5" x="139.737336" y="419.718621" style="fill: #1f77b4; stroke: #ffffff; stroke-width: 0.48"/>
     <use xlink:href="#m22bc38c6e5" x="139.849313" y="405.124651" style="fill: #1f77b4; stroke: #ffffff; stroke-width: 0.48"/>
     <use xlink:href="#m22bc38c6e5" x="127.487167" y="425.332751" style="fill: #1f77b4; stroke: #ffffff; stroke-width: 0.48"/>
     <use xlink:href="#m22bc38c6e5" x="138.96074" y="416.927291" style="fill: #1f77b4; stroke: #ffffff; stroke-width: 0.48"/>
     <use xlink:href="#m22bc38c6e5" x="115.791188" y="438.754527" style="fill: #1f77b4; stroke: #ffffff; stroke-width: 0.48"/>
     <use xlink:href="#m22bc38c6e5" x="111.760555" y="448.055151" style="fill: #1f77b4; stroke: #ffffff; stroke-width: 0.48"/>
     <use xlink:href="#m22bc38c6e5" x="120.798136" y="435.270641" style="fill: #1f77b4; stroke: #ffffff; stroke-width: 0.48"/>
     <use xlink:href="#m22bc38c6e5" x="113.850338" y="439.321326" style="fill: #1f77b4; stroke: #ffffff; stroke-width: 0.48"/>
     <use xlink:href="#m22bc38c6e5" x="116.438883" y="428.713408" style="fill: #1f77b4; stroke: #ffffff; stroke-width: 0.48"/>
     <use xlink:href="#m22bc38c6e5" x="112.082051" y="443.222529" style="fill: #1f77b4; stroke: #ffffff; stroke-width: 0.48"/>
     <use xlink:href="#m22bc38c6e5" x="100.543667" y="451.617625" style="fill: #1f77b4; stroke: #ffffff; stroke-width: 0.48"/>
     <use xlink:href="#m22bc38c6e5" x="96.001673" y="476.705684" style="fill: #1f77b4; stroke: #ffffff; stroke-width: 0.48"/>
     <use xlink:href="#m22bc38c6e5" x="100.953329" y="457.898435" style="fill: #1f77b4; stroke: #ffffff; stroke-width: 0.48"/>
     <use xlink:href="#m22bc38c6e5" x="102.796286" y="446.829557" style="fill: #1f77b4; stroke: #ffffff; stroke-width: 0.48"/>
     <use xlink:href="#m22bc38c6e5" x="105.993086" y="452.315957" style="fill: #1f77b4; stroke: #ffffff; stroke-width: 0.48"/>
     <use xlink:href="#m22bc38c6e5" x="91.06726" y="472.407947" style="fill: #1f77b4; stroke: #ffffff; stroke-width: 0.48"/>
     <use xlink:href="#m22bc38c6e5" x="102.457869" y="457.406777" style="fill: #1f77b4; stroke: #ffffff; stroke-width: 0.48"/>
     <use xlink:href="#m22bc38c6e5" x="93.460542" y="490.532109" style="fill: #1f77b4; stroke: #ffffff; stroke-width: 0.48"/>
     <use xlink:href="#m22bc38c6e5" x="99.402049" y="460.86425" style="fill: #1f77b4; stroke: #ffffff; stroke-width: 0.48"/>
     <use xlink:href="#m22bc38c6e5" x="100.400077" y="458.27014" style="fill: #1f77b4; stroke: #ffffff; stroke-width: 0.48"/>
     <use xlink:href="#m22bc38c6e5" x="94.095527" y="455.15193" style="fill: #1f77b4; stroke: #ffffff; stroke-width: 0.48"/>
     <use xlink:href="#m22bc38c6e5" x="94.908681" y="469.02155" style="fill: #1f77b4; stroke: #ffffff; stroke-width: 0.48"/>
     <use xlink:href="#m22bc38c6e5" x="88.494491" y="484.217619" style="fill: #1f77b4; stroke: #ffffff; stroke-width: 0.48"/>
     <use xlink:href="#m22bc38c6e5" x="103.732197" y="460.100268" style="fill: #1f77b4; stroke: #ffffff; stroke-width: 0.48"/>
     <use xlink:href="#m22bc38c6e5" x="103.912125" y="453.320631" style="fill: #1f77b4; stroke: #ffffff; stroke-width: 0.48"/>
     <use xlink:href="#m22bc38c6e5" x="99.07157" y="454.18573" style="fill: #1f77b4; stroke: #ffffff; stroke-width: 0.48"/>
    </g>
   </g>
   <g id="patch_10">
    <path d="M 47.534499 497.688647 
L 47.534499 340.244811 
" style="fill: none; stroke: #cccccc; stroke-width: 0.8; stroke-linejoin: miter; stroke-linecap: square"/>
   </g>
   <g id="patch_11">
    <path d="M 47.534499 497.688647 
L 203.739657 497.688647 
" style="fill: none; stroke: #cccccc; stroke-width: 0.8; stroke-linejoin: miter; stroke-linecap: square"/>
   </g>
   <g id="text_22">
    <!-- $\rho$ = 0.97 -->
    <g style="fill: #262626" transform="translate(63.155015 355.989194)scale(0.1 -0.1)">
     <defs>
      <path id="CMSS17-37" d="M 1389 3776 
C 1466 3776 1542 3776 1619 3776 
L 2355 3776 
C 1440 2711 915 1365 915 -32 
L 1427 -32 
C 1427 1323 1875 2696 2752 3795 
L 2752 4209 
L 250 4209 
L 250 3776 
L 1389 3776 
z
" transform="scale(0.015625)"/>
     </defs>
     <use xlink:href="#CMMI12-1a" transform="scale(0.996264)"/>
     <use xlink:href="#CMSS17-3d" transform="translate(81.543486 0)scale(0.996264)"/>
     <use xlink:href="#CMSS17-30" transform="translate(185.640533 0)scale(0.996264)"/>
     <use xlink:href="#CMSS17-2e" transform="translate(232.484157 0)scale(0.996264)"/>
     <use xlink:href="#CMSS17-39" transform="translate(258.508362 0)scale(0.996264)"/>
     <use xlink:href="#CMSS17-37" transform="translate(305.351985 0)scale(0.996264)"/>
    </g>
   </g>
  </g>
  <g id="axes_5">
   <g id="patch_12">
    <path d="M 208.864671 497.688647 
L 365.069828 497.688647 
L 365.069828 340.244811 
L 208.864671 340.244811 
z
" style="fill: #ffffff"/>
   </g>
   <g id="matplotlib.axis_7">
    <g id="xtick_19">
     <g id="line2d_31">
      <path d="M 245.115977 497.688647 
L 245.115977 340.244811 
" clip-path="url(#pd2637b05e7)" style="fill: none; stroke: #cccccc; stroke-width: 0.8; stroke-linecap: round"/>
     </g>
     <g id="text_23">
      <!-- $\mathdefault{0.0}$ -->
      <g style="fill: #262626" transform="translate(238.750938 511.607145)scale(0.1 -0.1)">
       <use xlink:href="#CMR17-30" transform="scale(0.996264)"/>
       <use xlink:href="#CMMI12-3a" transform="translate(45.690477 0)scale(0.996264)"/>
       <use xlink:href="#CMR17-30" transform="translate(72.787654 0)scale(0.996264)"/>
      </g>
     </g>
    </g>
    <g id="xtick_20">
     <g id="line2d_32">
      <path d="M 287.170696 497.688647 
L 287.170696 340.244811 
" clip-path="url(#pd2637b05e7)" style="fill: none; stroke: #cccccc; stroke-width: 0.8; stroke-linecap: round"/>
     </g>
     <g id="text_24">
      <!-- $\mathdefault{0.5}$ -->
      <g style="fill: #262626" transform="translate(280.805656 511.607145)scale(0.1 -0.1)">
       <use xlink:href="#CMR17-30" transform="scale(0.996264)"/>
       <use xlink:href="#CMMI12-3a" transform="translate(45.690477 0)scale(0.996264)"/>
       <use xlink:href="#CMR17-35" transform="translate(72.787654 0)scale(0.996264)"/>
      </g>
     </g>
    </g>
    <g id="xtick_21">
     <g id="line2d_33">
      <path d="M 329.225414 497.688647 
L 329.225414 340.244811 
" clip-path="url(#pd2637b05e7)" style="fill: none; stroke: #cccccc; stroke-width: 0.8; stroke-linecap: round"/>
     </g>
     <g id="text_25">
      <!-- $\mathdefault{1.0}$ -->
      <g style="fill: #262626" transform="translate(322.860374 511.607145)scale(0.1 -0.1)">
       <use xlink:href="#CMR17-31" transform="scale(0.996264)"/>
       <use xlink:href="#CMMI12-3a" transform="translate(45.690477 0)scale(0.996264)"/>
       <use xlink:href="#CMR17-30" transform="translate(72.787654 0)scale(0.996264)"/>
      </g>
     </g>
    </g>
    <g id="text_26">
     <!-- spam_score -->
     <g style="fill: #262626" transform="translate(263.947989 524.462822)scale(0.1 -0.1)">
      <use xlink:href="#CMSS17-73" transform="scale(0.996264)"/>
      <use xlink:href="#CMSS17-70" transform="translate(35.913542 0)scale(0.996264)"/>
      <use xlink:href="#CMSS17-61" transform="translate(84.118485 0)scale(0.996264)"/>
      <use xlink:href="#CMSS17-6d" transform="translate(129.040406 0)scale(0.996264)"/>
      <use xlink:href="#CMSS17-73" transform="translate(236.997155 0)scale(0.996264)"/>
      <use xlink:href="#CMSS17-63" transform="translate(272.910697 0)scale(0.996264)"/>
      <use xlink:href="#CMSS17-6f" transform="translate(314.54952 0)scale(0.996264)"/>
      <use xlink:href="#CMSS17-72" transform="translate(358.790689 0)scale(0.996264)"/>
      <use xlink:href="#CMSS17-65" transform="translate(390.700462 0)scale(0.996264)"/>
      <path d="M 208.890671 0 
L 236.997155 0 
L 236.997155 0.3985 
L 208.890671 0.3985 
L 208.890671 0 
z
"/>
     </g>
    </g>
   </g>
   <g id="matplotlib.axis_8">
    <g id="ytick_13">
     <g id="line2d_34">
      <path d="M 208.864671 487.220307 
L 365.069828 487.220307 
" clip-path="url(#pd2637b05e7)" style="fill: none; stroke: #cccccc; stroke-width: 0.8; stroke-linecap: round"/>
     </g>
    </g>
    <g id="ytick_14">
     <g id="line2d_35">
      <path d="M 208.864671 458.875688 
L 365.069828 458.875688 
" clip-path="url(#pd2637b05e7)" style="fill: none; stroke: #cccccc; stroke-width: 0.8; stroke-linecap: round"/>
     </g>
    </g>
    <g id="ytick_15">
     <g id="line2d_36">
      <path d="M 208.864671 430.531069 
L 365.069828 430.531069 
" clip-path="url(#pd2637b05e7)" style="fill: none; stroke: #cccccc; stroke-width: 0.8; stroke-linecap: round"/>
     </g>
    </g>
    <g id="ytick_16">
     <g id="line2d_37">
      <path d="M 208.864671 402.18645 
L 365.069828 402.18645 
" clip-path="url(#pd2637b05e7)" style="fill: none; stroke: #cccccc; stroke-width: 0.8; stroke-linecap: round"/>
     </g>
    </g>
    <g id="ytick_17">
     <g id="line2d_38">
      <path d="M 208.864671 373.84183 
L 365.069828 373.84183 
" clip-path="url(#pd2637b05e7)" style="fill: none; stroke: #cccccc; stroke-width: 0.8; stroke-linecap: round"/>
     </g>
    </g>
    <g id="ytick_18">
     <g id="line2d_39">
      <path d="M 208.864671 345.497211 
L 365.069828 345.497211 
" clip-path="url(#pd2637b05e7)" style="fill: none; stroke: #cccccc; stroke-width: 0.8; stroke-linecap: round"/>
     </g>
    </g>
   </g>
   <g id="PathCollection_3">
    <g clip-path="url(#pd2637b05e7)">
     <use xlink:href="#m22bc38c6e5" x="308.68402" y="386.662265" style="fill: #1f77b4; stroke: #ffffff; stroke-width: 0.48"/>
     <use xlink:href="#m22bc38c6e5" x="325.680305" y="347.401349" style="fill: #1f77b4; stroke: #ffffff; stroke-width: 0.48"/>
     <use xlink:href="#m22bc38c6e5" x="318.029947" y="351.540358" style="fill: #1f77b4; stroke: #ffffff; stroke-width: 0.48"/>
     <use xlink:href="#m22bc38c6e5" x="309.606369" y="392.750347" style="fill: #1f77b4; stroke: #ffffff; stroke-width: 0.48"/>
     <use xlink:href="#m22bc38c6e5" x="318.270419" y="362.971794" style="fill: #1f77b4; stroke: #ffffff; stroke-width: 0.48"/>
     <use xlink:href="#m22bc38c6e5" x="308.27165" y="377.495141" style="fill: #1f77b4; stroke: #ffffff; stroke-width: 0.48"/>
     <use xlink:href="#m22bc38c6e5" x="296.8413" y="404.431946" style="fill: #1f77b4; stroke: #ffffff; stroke-width: 0.48"/>
     <use xlink:href="#m22bc38c6e5" x="304.961507" y="369.862003" style="fill: #1f77b4; stroke: #ffffff; stroke-width: 0.48"/>
     <use xlink:href="#m22bc38c6e5" x="309.853245" y="379.248012" style="fill: #1f77b4; stroke: #ffffff; stroke-width: 0.48"/>
     <use xlink:href="#m22bc38c6e5" x="272.8955" y="421.891835" style="fill: #1f77b4; stroke: #ffffff; stroke-width: 0.48"/>
     <use xlink:href="#m22bc38c6e5" x="295.424285" y="403.737913" style="fill: #1f77b4; stroke: #ffffff; stroke-width: 0.48"/>
     <use xlink:href="#m22bc38c6e5" x="287.15798" y="406.235663" style="fill: #1f77b4; stroke: #ffffff; stroke-width: 0.48"/>
     <use xlink:href="#m22bc38c6e5" x="285.614238" y="416.406653" style="fill: #1f77b4; stroke: #ffffff; stroke-width: 0.48"/>
     <use xlink:href="#m22bc38c6e5" x="278.990122" y="418.141823" style="fill: #1f77b4; stroke: #ffffff; stroke-width: 0.48"/>
     <use xlink:href="#m22bc38c6e5" x="289.900756" y="419.718621" style="fill: #1f77b4; stroke: #ffffff; stroke-width: 0.48"/>
     <use xlink:href="#m22bc38c6e5" x="283.633412" y="405.124651" style="fill: #1f77b4; stroke: #ffffff; stroke-width: 0.48"/>
     <use xlink:href="#m22bc38c6e5" x="266.272409" y="425.332751" style="fill: #1f77b4; stroke: #ffffff; stroke-width: 0.48"/>
     <use xlink:href="#m22bc38c6e5" x="284.96845" y="416.927291" style="fill: #1f77b4; stroke: #ffffff; stroke-width: 0.48"/>
     <use xlink:href="#m22bc38c6e5" x="269.464748" y="438.754527" style="fill: #1f77b4; stroke: #ffffff; stroke-width: 0.48"/>
     <use xlink:href="#m22bc38c6e5" x="264.715944" y="448.055151" style="fill: #1f77b4; stroke: #ffffff; stroke-width: 0.48"/>
     <use xlink:href="#m22bc38c6e5" x="268.118649" y="435.270641" style="fill: #1f77b4; stroke: #ffffff; stroke-width: 0.48"/>
     <use xlink:href="#m22bc38c6e5" x="258.504897" y="439.321326" style="fill: #1f77b4; stroke: #ffffff; stroke-width: 0.48"/>
     <use xlink:href="#m22bc38c6e5" x="260.256011" y="428.713408" style="fill: #1f77b4; stroke: #ffffff; stroke-width: 0.48"/>
     <use xlink:href="#m22bc38c6e5" x="268.389264" y="443.222529" style="fill: #1f77b4; stroke: #ffffff; stroke-width: 0.48"/>
     <use xlink:href="#m22bc38c6e5" x="258.327153" y="451.617625" style="fill: #1f77b4; stroke: #ffffff; stroke-width: 0.48"/>
     <use xlink:href="#m22bc38c6e5" x="254.738256" y="476.705684" style="fill: #1f77b4; stroke: #ffffff; stroke-width: 0.48"/>
     <use xlink:href="#m22bc38c6e5" x="262.986202" y="457.898435" style="fill: #1f77b4; stroke: #ffffff; stroke-width: 0.48"/>
     <use xlink:href="#m22bc38c6e5" x="266.134273" y="446.829557" style="fill: #1f77b4; stroke: #ffffff; stroke-width: 0.48"/>
     <use xlink:href="#m22bc38c6e5" x="253.309862" y="452.315957" style="fill: #1f77b4; stroke: #ffffff; stroke-width: 0.48"/>
     <use xlink:href="#m22bc38c6e5" x="266.187958" y="472.407947" style="fill: #1f77b4; stroke: #ffffff; stroke-width: 0.48"/>
     <use xlink:href="#m22bc38c6e5" x="259.863629" y="457.406777" style="fill: #1f77b4; stroke: #ffffff; stroke-width: 0.48"/>
     <use xlink:href="#m22bc38c6e5" x="255.314932" y="490.532109" style="fill: #1f77b4; stroke: #ffffff; stroke-width: 0.48"/>
     <use xlink:href="#m22bc38c6e5" x="256.354637" y="460.86425" style="fill: #1f77b4; stroke: #ffffff; stroke-width: 0.48"/>
     <use xlink:href="#m22bc38c6e5" x="254.573593" y="458.27014" style="fill: #1f77b4; stroke: #ffffff; stroke-width: 0.48"/>
     <use xlink:href="#m22bc38c6e5" x="255.960891" y="455.15193" style="fill: #1f77b4; stroke: #ffffff; stroke-width: 0.48"/>
     <use xlink:href="#m22bc38c6e5" x="255.659591" y="469.02155" style="fill: #1f77b4; stroke: #ffffff; stroke-width: 0.48"/>
     <use xlink:href="#m22bc38c6e5" x="261.825914" y="484.217619" style="fill: #1f77b4; stroke: #ffffff; stroke-width: 0.48"/>
     <use xlink:href="#m22bc38c6e5" x="249.971725" y="460.100268" style="fill: #1f77b4; stroke: #ffffff; stroke-width: 0.48"/>
     <use xlink:href="#m22bc38c6e5" x="252.381698" y="453.320631" style="fill: #1f77b4; stroke: #ffffff; stroke-width: 0.48"/>
     <use xlink:href="#m22bc38c6e5" x="248.254194" y="454.18573" style="fill: #1f77b4; stroke: #ffffff; stroke-width: 0.48"/>
    </g>
   </g>
   <g id="patch_13">
    <path d="M 208.864671 497.688647 
L 208.864671 340.244811 
" style="fill: none; stroke: #cccccc; stroke-width: 0.8; stroke-linejoin: miter; stroke-linecap: square"/>
   </g>
   <g id="patch_14">
    <path d="M 208.864671 497.688647 
L 365.069828 497.688647 
" style="fill: none; stroke: #cccccc; stroke-width: 0.8; stroke-linejoin: miter; stroke-linecap: square"/>
   </g>
   <g id="text_27">
    <!-- $\rho$ = 0.94 -->
    <g style="fill: #262626" transform="translate(224.485187 355.989194)scale(0.1 -0.1)">
     <use xlink:href="#CMMI12-1a" transform="scale(0.996264)"/>
     <use xlink:href="#CMSS17-3d" transform="translate(81.543486 0)scale(0.996264)"/>
     <use xlink:href="#CMSS17-30" transform="translate(185.640533 0)scale(0.996264)"/>
     <use xlink:href="#CMSS17-2e" transform="translate(232.484157 0)scale(0.996264)"/>
     <use xlink:href="#CMSS17-39" transform="translate(258.508362 0)scale(0.996264)"/>
     <use xlink:href="#CMSS17-34" transform="translate(305.351985 0)scale(0.996264)"/>
    </g>
   </g>
  </g>
  <g id="axes_6">
   <g id="patch_15">
    <path d="M 370.194843 497.688647 
L 526.4 497.688647 
L 526.4 340.244811 
L 370.194843 340.244811 
z
" style="fill: #ffffff"/>
   </g>
   <g id="matplotlib.axis_9">
    <g id="xtick_22">
     <g id="line2d_40">
      <path d="M 376.958504 497.688647 
L 376.958504 340.244811 
" clip-path="url(#p477c04859a)" style="fill: none; stroke: #cccccc; stroke-width: 0.8; stroke-linecap: round"/>
     </g>
     <g id="text_28">
      <!-- $\mathdefault{−2}$ -->
      <g style="fill: #262626" transform="translate(370.593465 511.607145)scale(0.1 -0.1)">
       <use xlink:href="#CMSY10-0" transform="scale(0.996264)"/>
       <use xlink:href="#CMR17-32" transform="translate(77.487468 0)scale(0.996264)"/>
      </g>
     </g>
    </g>
    <g id="xtick_23">
     <g id="line2d_41">
      <path d="M 409.326502 497.688647 
L 409.326502 340.244811 
" clip-path="url(#p477c04859a)" style="fill: none; stroke: #cccccc; stroke-width: 0.8; stroke-linecap: round"/>
     </g>
     <g id="text_29">
      <!-- $\mathdefault{−1}$ -->
      <g style="fill: #262626" transform="translate(402.961463 511.607145)scale(0.1 -0.1)">
       <use xlink:href="#CMSY10-0" transform="scale(0.996264)"/>
       <use xlink:href="#CMR17-31" transform="translate(77.487468 0)scale(0.996264)"/>
      </g>
     </g>
    </g>
    <g id="xtick_24">
     <g id="line2d_42">
      <path d="M 441.694501 497.688647 
L 441.694501 340.244811 
" clip-path="url(#p477c04859a)" style="fill: none; stroke: #cccccc; stroke-width: 0.8; stroke-linecap: round"/>
     </g>
     <g id="text_30">
      <!-- $\mathdefault{0}$ -->
      <g style="fill: #262626" transform="translate(439.203833 511.607145)scale(0.1 -0.1)">
       <use xlink:href="#CMR17-30" transform="scale(0.996264)"/>
      </g>
     </g>
    </g>
    <g id="xtick_25">
     <g id="line2d_43">
      <path d="M 474.062499 497.688647 
L 474.062499 340.244811 
" clip-path="url(#p477c04859a)" style="fill: none; stroke: #cccccc; stroke-width: 0.8; stroke-linecap: round"/>
     </g>
     <g id="text_31">
      <!-- $\mathdefault{1}$ -->
      <g style="fill: #262626" transform="translate(471.571831 511.607145)scale(0.1 -0.1)">
       <use xlink:href="#CMR17-31" transform="scale(0.996264)"/>
      </g>
     </g>
    </g>
    <g id="xtick_26">
     <g id="line2d_44">
      <path d="M 506.430497 497.688647 
L 506.430497 340.244811 
" clip-path="url(#p477c04859a)" style="fill: none; stroke: #cccccc; stroke-width: 0.8; stroke-linecap: round"/>
     </g>
     <g id="text_32">
      <!-- $\mathdefault{2}$ -->
      <g style="fill: #262626" transform="translate(503.93983 511.607145)scale(0.1 -0.1)">
       <use xlink:href="#CMR17-32" transform="scale(0.996264)"/>
      </g>
     </g>
    </g>
    <g id="text_33">
     <!-- glad -->
     <g style="fill: #262626" transform="translate(439.649279 524.462822)scale(0.1 -0.1)">
      <use xlink:href="#CMSS17-67" transform="scale(0.996264)"/>
      <use xlink:href="#CMSS17-6c" transform="translate(46.843624 0)scale(0.996264)"/>
      <use xlink:href="#CMSS17-61" transform="translate(69.024347 0)scale(0.996264)"/>
      <use xlink:href="#CMSS17-64" transform="translate(113.946267 0)scale(0.996264)"/>
     </g>
    </g>
   </g>
   <g id="patch_16">
    <path d="M 370.194843 497.688647 
L 526.4 497.688647 
" style="fill: none; stroke: #cccccc; stroke-width: 0.8; stroke-linejoin: miter; stroke-linecap: square"/>
   </g>
  </g>
  <g id="axes_7">
   <g id="PolyCollection_1">
    <defs>
     <path id="m5a5b8de85b" d="M 54.634734 -369.183007 
L 54.634734 -368.956164 
L 55.348325 -368.956164 
L 56.061917 -368.956164 
L 56.775508 -368.956164 
L 57.489099 -368.956164 
L 58.202691 -368.956164 
L 58.916282 -368.956164 
L 59.629874 -368.956164 
L 60.343465 -368.956164 
L 61.057056 -368.956164 
L 61.770648 -368.956164 
L 62.484239 -368.956164 
L 63.197831 -368.956164 
L 63.911422 -368.956164 
L 64.625013 -368.956164 
L 65.338605 -368.956164 
L 66.052196 -368.956164 
L 66.765788 -368.956164 
L 67.479379 -368.956164 
L 68.19297 -368.956164 
L 68.906562 -368.956164 
L 69.620153 -368.956164 
L 70.333745 -368.956164 
L 71.047336 -368.956164 
L 71.760927 -368.956164 
L 72.474519 -368.956164 
L 73.18811 -368.956164 
L 73.901702 -368.956164 
L 74.615293 -368.956164 
L 75.328884 -368.956164 
L 76.042476 -368.956164 
L 76.756067 -368.956164 
L 77.469659 -368.956164 
L 78.18325 -368.956164 
L 78.896841 -368.956164 
L 79.610433 -368.956164 
L 80.324024 -368.956164 
L 81.037616 -368.956164 
L 81.751207 -368.956164 
L 82.464798 -368.956164 
L 83.17839 -368.956164 
L 83.891981 -368.956164 
L 84.605573 -368.956164 
L 85.319164 -368.956164 
L 86.032755 -368.956164 
L 86.746347 -368.956164 
L 87.459938 -368.956164 
L 88.17353 -368.956164 
L 88.887121 -368.956164 
L 89.600712 -368.956164 
L 90.314304 -368.956164 
L 91.027895 -368.956164 
L 91.741487 -368.956164 
L 92.455078 -368.956164 
L 93.168669 -368.956164 
L 93.882261 -368.956164 
L 94.595852 -368.956164 
L 95.309444 -368.956164 
L 96.023035 -368.956164 
L 96.736626 -368.956164 
L 97.450218 -368.956164 
L 98.163809 -368.956164 
L 98.877401 -368.956164 
L 99.590992 -368.956164 
L 100.304583 -368.956164 
L 101.018175 -368.956164 
L 101.731766 -368.956164 
L 102.445358 -368.956164 
L 103.158949 -368.956164 
L 103.87254 -368.956164 
L 104.586132 -368.956164 
L 105.299723 -368.956164 
L 106.013315 -368.956164 
L 106.726906 -368.956164 
L 107.440497 -368.956164 
L 108.154089 -368.956164 
L 108.86768 -368.956164 
L 109.581272 -368.956164 
L 110.294863 -368.956164 
L 111.008454 -368.956164 
L 111.722046 -368.956164 
L 112.435637 -368.956164 
L 113.149229 -368.956164 
L 113.86282 -368.956164 
L 114.576411 -368.956164 
L 115.290003 -368.956164 
L 116.003594 -368.956164 
L 116.717186 -368.956164 
L 117.430777 -368.956164 
L 118.144368 -368.956164 
L 118.85796 -368.956164 
L 119.571551 -368.956164 
L 120.285143 -368.956164 
L 120.998734 -368.956164 
L 121.712325 -368.956164 
L 122.425917 -368.956164 
L 123.139508 -368.956164 
L 123.8531 -368.956164 
L 124.566691 -368.956164 
L 125.280282 -368.956164 
L 125.993874 -368.956164 
L 126.707465 -368.956164 
L 127.421057 -368.956164 
L 128.134648 -368.956164 
L 128.848239 -368.956164 
L 129.561831 -368.956164 
L 130.275422 -368.956164 
L 130.989014 -368.956164 
L 131.702605 -368.956164 
L 132.416196 -368.956164 
L 133.129788 -368.956164 
L 133.843379 -368.956164 
L 134.556971 -368.956164 
L 135.270562 -368.956164 
L 135.984153 -368.956164 
L 136.697745 -368.956164 
L 137.411336 -368.956164 
L 138.124928 -368.956164 
L 138.838519 -368.956164 
L 139.55211 -368.956164 
L 140.265702 -368.956164 
L 140.979293 -368.956164 
L 141.692885 -368.956164 
L 142.406476 -368.956164 
L 143.120067 -368.956164 
L 143.833659 -368.956164 
L 144.54725 -368.956164 
L 145.260842 -368.956164 
L 145.974433 -368.956164 
L 146.688024 -368.956164 
L 147.401616 -368.956164 
L 148.115207 -368.956164 
L 148.828798 -368.956164 
L 149.54239 -368.956164 
L 150.255981 -368.956164 
L 150.969573 -368.956164 
L 151.683164 -368.956164 
L 152.396755 -368.956164 
L 153.110347 -368.956164 
L 153.823938 -368.956164 
L 154.53753 -368.956164 
L 155.251121 -368.956164 
L 155.964712 -368.956164 
L 156.678304 -368.956164 
L 157.391895 -368.956164 
L 158.105487 -368.956164 
L 158.819078 -368.956164 
L 159.532669 -368.956164 
L 160.246261 -368.956164 
L 160.959852 -368.956164 
L 161.673444 -368.956164 
L 162.387035 -368.956164 
L 163.100626 -368.956164 
L 163.814218 -368.956164 
L 164.527809 -368.956164 
L 165.241401 -368.956164 
L 165.954992 -368.956164 
L 166.668583 -368.956164 
L 167.382175 -368.956164 
L 168.095766 -368.956164 
L 168.809358 -368.956164 
L 169.522949 -368.956164 
L 170.23654 -368.956164 
L 170.950132 -368.956164 
L 171.663723 -368.956164 
L 172.377315 -368.956164 
L 173.090906 -368.956164 
L 173.804497 -368.956164 
L 174.518089 -368.956164 
L 175.23168 -368.956164 
L 175.945272 -368.956164 
L 176.658863 -368.956164 
L 177.372454 -368.956164 
L 178.086046 -368.956164 
L 178.799637 -368.956164 
L 179.513229 -368.956164 
L 180.22682 -368.956164 
L 180.940411 -368.956164 
L 181.654003 -368.956164 
L 182.367594 -368.956164 
L 183.081186 -368.956164 
L 183.794777 -368.956164 
L 184.508368 -368.956164 
L 185.22196 -368.956164 
L 185.935551 -368.956164 
L 186.649143 -368.956164 
L 187.362734 -368.956164 
L 188.076325 -368.956164 
L 188.789917 -368.956164 
L 189.503508 -368.956164 
L 190.2171 -368.956164 
L 190.930691 -368.956164 
L 191.644282 -368.956164 
L 192.357874 -368.956164 
L 193.071465 -368.956164 
L 193.785057 -368.956164 
L 194.498648 -368.956164 
L 195.212239 -368.956164 
L 195.925831 -368.956164 
L 196.639422 -368.956164 
L 196.639422 -369.154436 
L 196.639422 -369.154436 
L 195.925831 -369.199058 
L 195.212239 -369.252639 
L 194.498648 -369.316722 
L 193.785057 -369.393066 
L 193.071465 -369.483659 
L 192.357874 -369.590737 
L 191.644282 -369.716801 
L 190.930691 -369.864633 
L 190.2171 -370.03731 
L 189.503508 -370.238211 
L 188.789917 -370.471027 
L 188.076325 -370.739764 
L 187.362734 -371.048737 
L 186.649143 -371.402565 
L 185.935551 -371.806157 
L 185.22196 -372.264685 
L 184.508368 -372.783561 
L 183.794777 -373.368392 
L 183.081186 -374.02494 
L 182.367594 -374.75906 
L 181.654003 -375.576638 
L 180.940411 -376.48352 
L 180.22682 -377.485429 
L 179.513229 -378.587873 
L 178.799637 -379.796056 
L 178.086046 -381.114777 
L 177.372454 -382.548324 
L 176.658863 -384.100371 
L 175.945272 -385.773877 
L 175.23168 -387.570981 
L 174.518089 -389.492909 
L 173.804497 -391.539886 
L 173.090906 -393.711059 
L 172.377315 -396.00443 
L 171.663723 -398.416809 
L 170.950132 -400.943781 
L 170.23654 -403.57969 
L 169.522949 -406.317648 
L 168.809358 -409.149561 
L 168.095766 -412.066177 
L 167.382175 -415.057159 
L 166.668583 -418.111171 
L 165.954992 -421.215991 
L 165.241401 -424.358637 
L 164.527809 -427.525512 
L 163.814218 -430.70255 
L 163.100626 -433.87539 
L 162.387035 -437.029533 
L 161.673444 -440.150521 
L 160.959852 -443.224099 
L 160.246261 -446.236377 
L 159.532669 -449.173981 
L 158.819078 -452.024197 
L 158.105487 -454.775086 
L 157.391895 -457.415598 
L 156.678304 -459.935653 
L 155.964712 -462.326207 
L 155.251121 -464.579303 
L 154.53753 -466.688091 
L 153.823938 -468.646838 
L 153.110347 -470.450919 
L 152.396755 -472.096789 
L 151.683164 -473.581952 
L 150.969573 -474.904911 
L 150.255981 -476.065123 
L 149.54239 -477.062943 
L 148.828798 -477.899571 
L 148.115207 -478.577005 
L 147.401616 -479.098001 
L 146.688024 -479.46603 
L 145.974433 -479.68526 
L 145.260842 -479.760531 
L 144.54725 -479.697351 
L 143.833659 -479.501891 
L 143.120067 -479.180998 
L 142.406476 -478.742199 
L 141.692885 -478.193719 
L 140.979293 -477.54449 
L 140.265702 -476.804166 
L 139.55211 -475.983122 
L 138.838519 -475.092451 
L 138.124928 -474.143949 
L 137.411336 -473.15008 
L 136.697745 -472.123936 
L 135.984153 -471.079172 
L 135.270562 -470.02993 
L 134.556971 -468.990743 
L 133.843379 -467.976421 
L 133.129788 -467.001931 
L 132.416196 -466.082256 
L 131.702605 -465.232247 
L 130.989014 -464.466468 
L 130.275422 -463.799035 
L 129.561831 -463.243454 
L 128.848239 -462.812459 
L 128.134648 -462.517862 
L 127.421057 -462.370393 
L 126.707465 -462.379573 
L 125.993874 -462.553573 
L 125.280282 -462.899109 
L 124.566691 -463.421335 
L 123.8531 -464.123757 
L 123.139508 -465.008168 
L 122.425917 -466.074584 
L 121.712325 -467.321213 
L 120.998734 -468.744423 
L 120.285143 -470.338736 
L 119.571551 -472.096832 
L 118.85796 -474.00956 
L 118.144368 -476.065974 
L 117.430777 -478.253376 
L 116.717186 -480.557366 
L 116.003594 -482.961918 
L 115.290003 -485.449459 
L 114.576411 -488.000967 
L 113.86282 -490.596085 
L 113.149229 -493.213248 
L 112.435637 -495.829827 
L 111.722046 -498.422294 
L 111.008454 -500.966401 
L 110.294863 -503.43738 
L 109.581272 -505.810155 
L 108.86768 -508.059579 
L 108.154089 -510.160677 
L 107.440497 -512.088912 
L 106.726906 -513.820446 
L 106.013315 -515.332427 
L 105.299723 -516.603261 
L 104.586132 -517.612894 
L 103.87254 -518.343077 
L 103.158949 -518.777629 
L 102.445358 -518.902674 
L 101.731766 -518.706861 
L 101.018175 -518.181546 
L 100.304583 -517.320956 
L 99.590992 -516.122303 
L 98.877401 -514.58586 
L 98.163809 -512.714999 
L 97.450218 -510.516175 
L 96.736626 -507.998872 
L 96.023035 -505.175496 
L 95.309444 -502.06123 
L 94.595852 -498.673841 
L 93.882261 -495.033454 
L 93.168669 -491.162284 
L 92.455078 -487.084346 
L 91.741487 -482.825141 
L 91.027895 -478.411314 
L 90.314304 -473.870317 
L 89.600712 -469.230054 
L 88.887121 -464.518532 
L 88.17353 -459.763527 
L 87.459938 -454.992254 
L 86.746347 -450.231066 
L 86.032755 -445.505168 
L 85.319164 -440.838372 
L 84.605573 -436.252871 
L 83.891981 -431.769061 
L 83.17839 -427.405386 
L 82.464798 -423.178231 
L 81.751207 -419.101849 
L 81.037616 -415.188317 
L 80.324024 -411.44754 
L 79.610433 -407.887274 
L 78.896841 -404.513189 
L 78.18325 -401.328953 
L 77.469659 -398.336341 
L 76.756067 -395.535365 
L 76.042476 -392.924414 
L 75.328884 -390.500415 
L 74.615293 -388.258993 
L 73.901702 -386.194641 
L 73.18811 -384.30089 
L 72.474519 -382.570476 
L 71.760927 -380.995501 
L 71.047336 -379.567594 
L 70.333745 -378.27805 
L 69.620153 -377.117973 
L 68.906562 -376.078396 
L 68.19297 -375.15039 
L 67.479379 -374.325166 
L 66.765788 -373.594158 
L 66.052196 -372.949089 
L 65.338605 -372.382037 
L 64.625013 -371.885471 
L 63.911422 -371.452291 
L 63.197831 -371.075849 
L 62.484239 -370.749963 
L 61.770648 -370.468919 
L 61.057056 -370.227472 
L 60.343465 -370.020835 
L 59.629874 -369.844665 
L 58.916282 -369.695042 
L 58.202691 -369.568451 
L 57.489099 -369.461757 
L 56.775508 -369.372176 
L 56.061917 -369.29725 
L 55.348325 -369.234822 
L 54.634734 -369.183007 
z
" style="stroke: #1f77b4"/>
    </defs>
    <g clip-path="url(#p683644fe1d)">
     <use xlink:href="#m5a5b8de85b" x="0" y="533.6" style="fill: #1f77b4; fill-opacity: 0.25; stroke: #1f77b4"/>
    </g>
   </g>
  </g>
  <g id="axes_8">
   <g id="PolyCollection_2">
    <defs>
     <path id="m9be5477d0c" d="M 215.964906 -202.668116 
L 215.964906 -202.433759 
L 216.678497 -202.433759 
L 217.392088 -202.433759 
L 218.10568 -202.433759 
L 218.819271 -202.433759 
L 219.532863 -202.433759 
L 220.246454 -202.433759 
L 220.960045 -202.433759 
L 221.673637 -202.433759 
L 222.387228 -202.433759 
L 223.100819 -202.433759 
L 223.814411 -202.433759 
L 224.528002 -202.433759 
L 225.241594 -202.433759 
L 225.955185 -202.433759 
L 226.668776 -202.433759 
L 227.382368 -202.433759 
L 228.095959 -202.433759 
L 228.809551 -202.433759 
L 229.523142 -202.433759 
L 230.236733 -202.433759 
L 230.950325 -202.433759 
L 231.663916 -202.433759 
L 232.377508 -202.433759 
L 233.091099 -202.433759 
L 233.80469 -202.433759 
L 234.518282 -202.433759 
L 235.231873 -202.433759 
L 235.945465 -202.433759 
L 236.659056 -202.433759 
L 237.372647 -202.433759 
L 238.086239 -202.433759 
L 238.79983 -202.433759 
L 239.513422 -202.433759 
L 240.227013 -202.433759 
L 240.940604 -202.433759 
L 241.654196 -202.433759 
L 242.367787 -202.433759 
L 243.081379 -202.433759 
L 243.79497 -202.433759 
L 244.508561 -202.433759 
L 245.222153 -202.433759 
L 245.935744 -202.433759 
L 246.649336 -202.433759 
L 247.362927 -202.433759 
L 248.076518 -202.433759 
L 248.79011 -202.433759 
L 249.503701 -202.433759 
L 250.217293 -202.433759 
L 250.930884 -202.433759 
L 251.644475 -202.433759 
L 252.358067 -202.433759 
L 253.071658 -202.433759 
L 253.78525 -202.433759 
L 254.498841 -202.433759 
L 255.212432 -202.433759 
L 255.926024 -202.433759 
L 256.639615 -202.433759 
L 257.353207 -202.433759 
L 258.066798 -202.433759 
L 258.780389 -202.433759 
L 259.493981 -202.433759 
L 260.207572 -202.433759 
L 260.921164 -202.433759 
L 261.634755 -202.433759 
L 262.348346 -202.433759 
L 263.061938 -202.433759 
L 263.775529 -202.433759 
L 264.489121 -202.433759 
L 265.202712 -202.433759 
L 265.916303 -202.433759 
L 266.629895 -202.433759 
L 267.343486 -202.433759 
L 268.057078 -202.433759 
L 268.770669 -202.433759 
L 269.48426 -202.433759 
L 270.197852 -202.433759 
L 270.911443 -202.433759 
L 271.625035 -202.433759 
L 272.338626 -202.433759 
L 273.052217 -202.433759 
L 273.765809 -202.433759 
L 274.4794 -202.433759 
L 275.192992 -202.433759 
L 275.906583 -202.433759 
L 276.620174 -202.433759 
L 277.333766 -202.433759 
L 278.047357 -202.433759 
L 278.760949 -202.433759 
L 279.47454 -202.433759 
L 280.188131 -202.433759 
L 280.901723 -202.433759 
L 281.615314 -202.433759 
L 282.328906 -202.433759 
L 283.042497 -202.433759 
L 283.756088 -202.433759 
L 284.46968 -202.433759 
L 285.183271 -202.433759 
L 285.896863 -202.433759 
L 286.610454 -202.433759 
L 287.324045 -202.433759 
L 288.037637 -202.433759 
L 288.751228 -202.433759 
L 289.46482 -202.433759 
L 290.178411 -202.433759 
L 290.892002 -202.433759 
L 291.605594 -202.433759 
L 292.319185 -202.433759 
L 293.032777 -202.433759 
L 293.746368 -202.433759 
L 294.459959 -202.433759 
L 295.173551 -202.433759 
L 295.887142 -202.433759 
L 296.600734 -202.433759 
L 297.314325 -202.433759 
L 298.027916 -202.433759 
L 298.741508 -202.433759 
L 299.455099 -202.433759 
L 300.168691 -202.433759 
L 300.882282 -202.433759 
L 301.595873 -202.433759 
L 302.309465 -202.433759 
L 303.023056 -202.433759 
L 303.736648 -202.433759 
L 304.450239 -202.433759 
L 305.16383 -202.433759 
L 305.877422 -202.433759 
L 306.591013 -202.433759 
L 307.304605 -202.433759 
L 308.018196 -202.433759 
L 308.731787 -202.433759 
L 309.445379 -202.433759 
L 310.15897 -202.433759 
L 310.872562 -202.433759 
L 311.586153 -202.433759 
L 312.299744 -202.433759 
L 313.013336 -202.433759 
L 313.726927 -202.433759 
L 314.440519 -202.433759 
L 315.15411 -202.433759 
L 315.867701 -202.433759 
L 316.581293 -202.433759 
L 317.294884 -202.433759 
L 318.008476 -202.433759 
L 318.722067 -202.433759 
L 319.435658 -202.433759 
L 320.14925 -202.433759 
L 320.862841 -202.433759 
L 321.576433 -202.433759 
L 322.290024 -202.433759 
L 323.003615 -202.433759 
L 323.717207 -202.433759 
L 324.430798 -202.433759 
L 325.14439 -202.433759 
L 325.857981 -202.433759 
L 326.571572 -202.433759 
L 327.285164 -202.433759 
L 327.998755 -202.433759 
L 328.712347 -202.433759 
L 329.425938 -202.433759 
L 330.139529 -202.433759 
L 330.853121 -202.433759 
L 331.566712 -202.433759 
L 332.280304 -202.433759 
L 332.993895 -202.433759 
L 333.707486 -202.433759 
L 334.421078 -202.433759 
L 335.134669 -202.433759 
L 335.848261 -202.433759 
L 336.561852 -202.433759 
L 337.275443 -202.433759 
L 337.989035 -202.433759 
L 338.702626 -202.433759 
L 339.416218 -202.433759 
L 340.129809 -202.433759 
L 340.8434 -202.433759 
L 341.556992 -202.433759 
L 342.270583 -202.433759 
L 342.984175 -202.433759 
L 343.697766 -202.433759 
L 344.411357 -202.433759 
L 345.124949 -202.433759 
L 345.83854 -202.433759 
L 346.552132 -202.433759 
L 347.265723 -202.433759 
L 347.979314 -202.433759 
L 348.692906 -202.433759 
L 349.406497 -202.433759 
L 350.120089 -202.433759 
L 350.83368 -202.433759 
L 351.547271 -202.433759 
L 352.260863 -202.433759 
L 352.974454 -202.433759 
L 353.688046 -202.433759 
L 354.401637 -202.433759 
L 355.115228 -202.433759 
L 355.82882 -202.433759 
L 356.542411 -202.433759 
L 357.256003 -202.433759 
L 357.969594 -202.433759 
L 357.969594 -202.53011 
L 357.969594 -202.53011 
L 357.256003 -202.552078 
L 356.542411 -202.578476 
L 355.82882 -202.61006 
L 355.115228 -202.647689 
L 354.401637 -202.692329 
L 353.688046 -202.745063 
L 352.974454 -202.807094 
L 352.260863 -202.879755 
L 351.547271 -202.964512 
L 350.83368 -203.062965 
L 350.120089 -203.176853 
L 349.406497 -203.308052 
L 348.692906 -203.45857 
L 347.979314 -203.630547 
L 347.265723 -203.826243 
L 346.552132 -204.048029 
L 345.83854 -204.298373 
L 345.124949 -204.579825 
L 344.411357 -204.894997 
L 343.697766 -205.246539 
L 342.984175 -205.637117 
L 342.270583 -206.069382 
L 341.556992 -206.545945 
L 340.8434 -207.06934 
L 340.129809 -207.641997 
L 339.416218 -208.266201 
L 338.702626 -208.944062 
L 337.989035 -209.677476 
L 337.275443 -210.468095 
L 336.561852 -211.317287 
L 335.848261 -212.226107 
L 335.134669 -213.195265 
L 334.421078 -214.225096 
L 333.707486 -215.315531 
L 332.993895 -216.466077 
L 332.280304 -217.675792 
L 331.566712 -218.943266 
L 330.853121 -220.266613 
L 330.139529 -221.64345 
L 329.425938 -223.0709 
L 328.712347 -224.545582 
L 327.998755 -226.063617 
L 327.285164 -227.620635 
L 326.571572 -229.211786 
L 325.857981 -230.83176 
L 325.14439 -232.474812 
L 324.430798 -234.134793 
L 323.717207 -235.805189 
L 323.003615 -237.479171 
L 322.290024 -239.149648 
L 321.576433 -240.809329 
L 320.862841 -242.4508 
L 320.14925 -244.066598 
L 319.435658 -245.649303 
L 318.722067 -247.191633 
L 318.008476 -248.686538 
L 317.294884 -250.127309 
L 316.581293 -251.507684 
L 315.867701 -252.82195 
L 315.15411 -254.065051 
L 314.440519 -255.232679 
L 313.726927 -256.321373 
L 313.013336 -257.328588 
L 312.299744 -258.252767 
L 311.586153 -259.093384 
L 310.872562 -259.850977 
L 310.15897 -260.527153 
L 309.445379 -261.124577 
L 308.731787 -261.646932 
L 308.018196 -262.098865 
L 307.304605 -262.4859 
L 306.591013 -262.814336 
L 305.877422 -263.091133 
L 305.16383 -263.32377 
L 304.450239 -263.520102 
L 303.736648 -263.688206 
L 303.023056 -263.836226 
L 302.309465 -263.972218 
L 301.595873 -264.10401 
L 300.882282 -264.239063 
L 300.168691 -264.384364 
L 299.455099 -264.546324 
L 298.741508 -264.730719 
L 298.027916 -264.942639 
L 297.314325 -265.186483 
L 296.600734 -265.465972 
L 295.887142 -265.784195 
L 295.173551 -266.143684 
L 294.459959 -266.546506 
L 293.746368 -266.994382 
L 293.032777 -267.48882 
L 292.319185 -268.031253 
L 291.605594 -268.623184 
L 290.892002 -269.266329 
L 290.178411 -269.96275 
L 289.46482 -270.714964 
L 288.751228 -271.526044 
L 288.037637 -272.39968 
L 287.324045 -273.340214 
L 286.610454 -274.352633 
L 285.896863 -275.442535 
L 285.183271 -276.616041 
L 284.46968 -277.87968 
L 283.756088 -279.240231 
L 283.042497 -280.704529 
L 282.328906 -282.279245 
L 281.615314 -283.970643 
L 280.901723 -285.78431 
L 280.188131 -287.724887 
L 279.47454 -289.795789 
L 278.760949 -291.998936 
L 278.047357 -294.334491 
L 277.333766 -296.800627 
L 276.620174 -299.393319 
L 275.906583 -302.106175 
L 275.192992 -304.930303 
L 274.4794 -307.854238 
L 273.765809 -310.863902 
L 273.052217 -313.942638 
L 272.338626 -317.071279 
L 271.625035 -320.228291 
L 270.911443 -323.389951 
L 270.197852 -326.530588 
L 269.48426 -329.622871 
L 268.770669 -332.638129 
L 268.057078 -335.546722 
L 267.343486 -338.318427 
L 266.629895 -340.922862 
L 265.916303 -343.329911 
L 265.202712 -345.510172 
L 264.489121 -347.435391 
L 263.775529 -349.078895 
L 263.061938 -350.41601 
L 262.348346 -351.424453 
L 261.634755 -352.084692 
L 260.921164 -352.380269 
L 260.207572 -352.298085 
L 259.493981 -351.828628 
L 258.780389 -350.966149 
L 258.066798 -349.708789 
L 257.353207 -348.058633 
L 256.639615 -346.021713 
L 255.926024 -343.607943 
L 255.212432 -340.830998 
L 254.498841 -337.70813 
L 253.78525 -334.259928 
L 253.071658 -330.51003 
L 252.358067 -326.484785 
L 251.644475 -322.212875 
L 250.930884 -317.724911 
L 250.217293 -313.052994 
L 249.503701 -308.230269 
L 248.79011 -303.290467 
L 248.076518 -298.267446 
L 247.362927 -293.194753 
L 246.649336 -288.105189 
L 245.935744 -283.030416 
L 245.222153 -278.000583 
L 244.508561 -273.044002 
L 243.79497 -268.186864 
L 243.081379 -263.453004 
L 242.367787 -258.863714 
L 241.654196 -254.437613 
L 240.940604 -250.190563 
L 240.227013 -246.13564 
L 239.513422 -242.283152 
L 238.79983 -238.640699 
L 238.086239 -235.213278 
L 237.372647 -232.00342 
L 236.659056 -229.011359 
L 235.945465 -226.235224 
L 235.231873 -223.671252 
L 234.518282 -221.314009 
L 233.80469 -219.156627 
L 233.091099 -217.191029 
L 232.377508 -215.408166 
L 231.663916 -213.798233 
L 230.950325 -212.350885 
L 230.236733 -211.055431 
L 229.523142 -209.901014 
L 228.809551 -208.876772 
L 228.095959 -207.971983 
L 227.382368 -207.176187 
L 226.668776 -206.479282 
L 225.955185 -205.871615 
L 225.241594 -205.344042 
L 224.528002 -204.887976 
L 223.814411 -204.495415 
L 223.100819 -204.158965 
L 222.387228 -203.871838 
L 221.673637 -203.627851 
L 220.960045 -203.421406 
L 220.246454 -203.247472 
L 219.532863 -203.101551 
L 218.819271 -202.979654 
L 218.10568 -202.878258 
L 217.392088 -202.794272 
L 216.678497 -202.725004 
L 215.964906 -202.668116 
z
" style="stroke: #1f77b4"/>
    </defs>
    <g clip-path="url(#pb31ea00ad7)">
     <use xlink:href="#m9be5477d0c" x="0" y="533.6" style="fill: #1f77b4; fill-opacity: 0.25; stroke: #1f77b4"/>
    </g>
   </g>
  </g>
  <g id="axes_9">
   <g id="PolyCollection_3">
    <defs>
     <path id="m5b3157d8ff" d="M 377.295077 -36.043021 
L 377.295077 -35.911353 
L 378.008669 -35.911353 
L 378.72226 -35.911353 
L 379.435851 -35.911353 
L 380.149443 -35.911353 
L 380.863034 -35.911353 
L 381.576626 -35.911353 
L 382.290217 -35.911353 
L 383.003808 -35.911353 
L 383.7174 -35.911353 
L 384.430991 -35.911353 
L 385.144583 -35.911353 
L 385.858174 -35.911353 
L 386.571765 -35.911353 
L 387.285357 -35.911353 
L 387.998948 -35.911353 
L 388.71254 -35.911353 
L 389.426131 -35.911353 
L 390.139722 -35.911353 
L 390.853314 -35.911353 
L 391.566905 -35.911353 
L 392.280497 -35.911353 
L 392.994088 -35.911353 
L 393.707679 -35.911353 
L 394.421271 -35.911353 
L 395.134862 -35.911353 
L 395.848454 -35.911353 
L 396.562045 -35.911353 
L 397.275636 -35.911353 
L 397.989228 -35.911353 
L 398.702819 -35.911353 
L 399.416411 -35.911353 
L 400.130002 -35.911353 
L 400.843593 -35.911353 
L 401.557185 -35.911353 
L 402.270776 -35.911353 
L 402.984368 -35.911353 
L 403.697959 -35.911353 
L 404.41155 -35.911353 
L 405.125142 -35.911353 
L 405.838733 -35.911353 
L 406.552325 -35.911353 
L 407.265916 -35.911353 
L 407.979507 -35.911353 
L 408.693099 -35.911353 
L 409.40669 -35.911353 
L 410.120282 -35.911353 
L 410.833873 -35.911353 
L 411.547464 -35.911353 
L 412.261056 -35.911353 
L 412.974647 -35.911353 
L 413.688239 -35.911353 
L 414.40183 -35.911353 
L 415.115421 -35.911353 
L 415.829013 -35.911353 
L 416.542604 -35.911353 
L 417.256196 -35.911353 
L 417.969787 -35.911353 
L 418.683378 -35.911353 
L 419.39697 -35.911353 
L 420.110561 -35.911353 
L 420.824153 -35.911353 
L 421.537744 -35.911353 
L 422.251335 -35.911353 
L 422.964927 -35.911353 
L 423.678518 -35.911353 
L 424.39211 -35.911353 
L 425.105701 -35.911353 
L 425.819292 -35.911353 
L 426.532884 -35.911353 
L 427.246475 -35.911353 
L 427.960067 -35.911353 
L 428.673658 -35.911353 
L 429.387249 -35.911353 
L 430.100841 -35.911353 
L 430.814432 -35.911353 
L 431.528024 -35.911353 
L 432.241615 -35.911353 
L 432.955206 -35.911353 
L 433.668798 -35.911353 
L 434.382389 -35.911353 
L 435.09598 -35.911353 
L 435.809572 -35.911353 
L 436.523163 -35.911353 
L 437.236755 -35.911353 
L 437.950346 -35.911353 
L 438.663937 -35.911353 
L 439.377529 -35.911353 
L 440.09112 -35.911353 
L 440.804712 -35.911353 
L 441.518303 -35.911353 
L 442.231894 -35.911353 
L 442.945486 -35.911353 
L 443.659077 -35.911353 
L 444.372669 -35.911353 
L 445.08626 -35.911353 
L 445.799851 -35.911353 
L 446.513443 -35.911353 
L 447.227034 -35.911353 
L 447.940626 -35.911353 
L 448.654217 -35.911353 
L 449.367808 -35.911353 
L 450.0814 -35.911353 
L 450.794991 -35.911353 
L 451.508583 -35.911353 
L 452.222174 -35.911353 
L 452.935765 -35.911353 
L 453.649357 -35.911353 
L 454.362948 -35.911353 
L 455.07654 -35.911353 
L 455.790131 -35.911353 
L 456.503722 -35.911353 
L 457.217314 -35.911353 
L 457.930905 -35.911353 
L 458.644497 -35.911353 
L 459.358088 -35.911353 
L 460.071679 -35.911353 
L 460.785271 -35.911353 
L 461.498862 -35.911353 
L 462.212454 -35.911353 
L 462.926045 -35.911353 
L 463.639636 -35.911353 
L 464.353228 -35.911353 
L 465.066819 -35.911353 
L 465.780411 -35.911353 
L 466.494002 -35.911353 
L 467.207593 -35.911353 
L 467.921185 -35.911353 
L 468.634776 -35.911353 
L 469.348368 -35.911353 
L 470.061959 -35.911353 
L 470.77555 -35.911353 
L 471.489142 -35.911353 
L 472.202733 -35.911353 
L 472.916325 -35.911353 
L 473.629916 -35.911353 
L 474.343507 -35.911353 
L 475.057099 -35.911353 
L 475.77069 -35.911353 
L 476.484282 -35.911353 
L 477.197873 -35.911353 
L 477.911464 -35.911353 
L 478.625056 -35.911353 
L 479.338647 -35.911353 
L 480.052239 -35.911353 
L 480.76583 -35.911353 
L 481.479421 -35.911353 
L 482.193013 -35.911353 
L 482.906604 -35.911353 
L 483.620196 -35.911353 
L 484.333787 -35.911353 
L 485.047378 -35.911353 
L 485.76097 -35.911353 
L 486.474561 -35.911353 
L 487.188153 -35.911353 
L 487.901744 -35.911353 
L 488.615335 -35.911353 
L 489.328927 -35.911353 
L 490.042518 -35.911353 
L 490.75611 -35.911353 
L 491.469701 -35.911353 
L 492.183292 -35.911353 
L 492.896884 -35.911353 
L 493.610475 -35.911353 
L 494.324067 -35.911353 
L 495.037658 -35.911353 
L 495.751249 -35.911353 
L 496.464841 -35.911353 
L 497.178432 -35.911353 
L 497.892024 -35.911353 
L 498.605615 -35.911353 
L 499.319206 -35.911353 
L 500.032798 -35.911353 
L 500.746389 -35.911353 
L 501.459981 -35.911353 
L 502.173572 -35.911353 
L 502.887163 -35.911353 
L 503.600755 -35.911353 
L 504.314346 -35.911353 
L 505.027938 -35.911353 
L 505.741529 -35.911353 
L 506.45512 -35.911353 
L 507.168712 -35.911353 
L 507.882303 -35.911353 
L 508.595895 -35.911353 
L 509.309486 -35.911353 
L 510.023077 -35.911353 
L 510.736669 -35.911353 
L 511.45026 -35.911353 
L 512.163852 -35.911353 
L 512.877443 -35.911353 
L 513.591034 -35.911353 
L 514.304626 -35.911353 
L 515.018217 -35.911353 
L 515.731809 -35.911353 
L 516.4454 -35.911353 
L 517.158991 -35.911353 
L 517.872583 -35.911353 
L 518.586174 -35.911353 
L 519.299766 -35.911353 
L 519.299766 -36.052754 
L 519.299766 -36.052754 
L 518.586174 -36.087299 
L 517.872583 -36.129234 
L 517.158991 -36.179871 
L 516.4454 -36.240697 
L 515.731809 -36.313378 
L 515.018217 -36.399771 
L 514.304626 -36.501923 
L 513.591034 -36.622075 
L 512.877443 -36.762657 
L 512.163852 -36.926282 
L 511.45026 -37.115725 
L 510.736669 -37.333912 
L 510.023077 -37.583888 
L 509.309486 -37.868783 
L 508.595895 -38.191778 
L 507.882303 -38.556054 
L 507.168712 -38.964745 
L 506.45512 -39.420881 
L 505.741529 -39.927325 
L 505.027938 -40.486714 
L 504.314346 -41.101396 
L 503.600755 -41.773365 
L 502.887163 -42.5042 
L 502.173572 -43.295016 
L 501.459981 -44.146409 
L 500.746389 -45.058418 
L 500.032798 -46.030496 
L 499.319206 -47.061492 
L 498.605615 -48.149646 
L 497.892024 -49.292595 
L 497.178432 -50.487401 
L 496.464841 -51.730584 
L 495.751249 -53.018171 
L 495.037658 -54.345764 
L 494.324067 -55.708604 
L 493.610475 -57.101659 
L 492.896884 -58.519707 
L 492.183292 -59.957428 
L 491.469701 -61.409496 
L 490.75611 -62.870664 
L 490.042518 -64.33586 
L 489.328927 -65.800254 
L 488.615335 -67.259339 
L 487.901744 -68.708987 
L 487.188153 -70.145504 
L 486.474561 -71.565668 
L 485.76097 -72.966759 
L 485.047378 -74.346581 
L 484.333787 -75.703472 
L 483.620196 -77.036304 
L 482.906604 -78.344483 
L 482.193013 -79.627941 
L 481.479421 -80.887119 
L 480.76583 -82.122957 
L 480.052239 -83.336877 
L 479.338647 -84.530767 
L 478.625056 -85.706962 
L 477.911464 -86.868227 
L 477.197873 -88.017735 
L 476.484282 -89.159046 
L 475.77069 -90.296078 
L 475.057099 -91.433071 
L 474.343507 -92.57455 
L 473.629916 -93.725271 
L 472.916325 -94.890162 
L 472.202733 -96.07425 
L 471.489142 -97.282579 
L 470.77555 -98.520117 
L 470.061959 -99.791648 
L 469.348368 -101.10167 
L 468.634776 -102.454271 
L 467.921185 -103.853016 
L 467.207593 -105.300833 
L 466.494002 -106.799903 
L 465.780411 -108.351567 
L 465.066819 -109.956246 
L 464.353228 -111.613378 
L 463.639636 -113.32139 
L 462.926045 -115.07769 
L 462.212454 -116.87869 
L 461.498862 -118.719864 
L 460.785271 -120.59584 
L 460.071679 -122.500519 
L 459.358088 -124.427229 
L 458.644497 -126.368896 
L 457.930905 -128.318249 
L 457.217314 -130.268026 
L 456.503722 -132.211199 
L 455.790131 -134.14119 
L 455.07654 -136.052087 
L 454.362948 -137.938839 
L 453.649357 -139.797422 
L 452.935765 -141.624982 
L 452.222174 -143.419925 
L 451.508583 -145.18197 
L 450.794991 -146.912148 
L 450.0814 -148.61274 
L 449.367808 -150.287169 
L 448.654217 -151.939828 
L 447.940626 -153.575861 
L 447.227034 -155.200892 
L 446.513443 -156.820717 
L 445.799851 -158.440961 
L 445.08626 -160.066718 
L 444.372669 -161.70218 
L 443.659077 -163.35027 
L 442.945486 -165.012293 
L 442.231894 -166.687619 
L 441.518303 -168.373415 
L 440.804712 -170.064428 
L 440.09112 -171.752842 
L 439.377529 -173.428208 
L 438.663937 -175.077465 
L 437.950346 -176.685036 
L 437.236755 -178.233027 
L 436.523163 -179.7015 
L 435.809572 -181.068829 
L 435.09598 -182.312135 
L 434.382389 -183.407764 
L 433.668798 -184.331825 
L 432.955206 -185.060751 
L 432.241615 -185.571871 
L 431.528024 -185.843976 
L 430.814432 -185.857864 
L 430.100841 -185.596835 
L 429.387249 -185.047135 
L 428.673658 -184.198326 
L 427.960067 -183.043568 
L 427.246475 -181.579812 
L 426.532884 -179.807895 
L 425.819292 -177.732536 
L 425.105701 -175.362232 
L 424.39211 -172.709062 
L 423.678518 -169.788415 
L 422.964927 -166.618627 
L 422.251335 -163.220581 
L 421.537744 -159.617245 
L 420.824153 -155.833186 
L 420.110561 -151.894074 
L 419.39697 -147.826187 
L 418.683378 -143.655932 
L 417.969787 -139.409394 
L 417.256196 -135.111938 
L 416.542604 -130.787845 
L 415.829013 -126.460021 
L 415.115421 -122.149759 
L 414.40183 -117.876563 
L 413.688239 -113.658036 
L 412.974647 -109.509828 
L 412.261056 -105.44563 
L 411.547464 -101.47722 
L 410.833873 -97.61455 
L 410.120282 -93.865856 
L 409.40669 -90.237796 
L 408.693099 -86.735598 
L 407.979507 -83.363222 
L 407.265916 -80.123511 
L 406.552325 -77.018343 
L 405.838733 -74.048768 
L 405.125142 -71.215136 
L 404.41155 -68.517199 
L 403.697959 -65.954207 
L 402.984368 -63.524975 
L 402.270776 -61.227942 
L 401.557185 -59.061213 
L 400.843593 -57.022582 
L 400.130002 -55.109558 
L 399.416411 -53.31937 
L 398.702819 -51.648976 
L 397.989228 -50.095068 
L 397.275636 -48.654078 
L 396.562045 -47.322183 
L 395.848454 -46.095317 
L 395.134862 -44.969188 
L 394.421271 -43.939296 
L 393.707679 -43.000962 
L 392.994088 -42.149355 
L 392.280497 -41.37953 
L 391.566905 -40.686463 
L 390.853314 -40.065094 
L 390.139722 -39.510367 
L 389.426131 -39.017272 
L 388.71254 -38.580883 
L 387.998948 -38.196398 
L 387.285357 -37.85917 
L 386.571765 -37.56474 
L 385.858174 -37.308863 
L 385.144583 -37.087525 
L 384.430991 -36.896963 
L 383.7174 -36.733676 
L 383.003808 -36.594426 
L 382.290217 -36.476245 
L 381.576626 -36.376428 
L 380.863034 -36.292532 
L 380.149443 -36.22236 
L 379.435851 -36.163955 
L 378.72226 -36.115581 
L 378.008669 -36.075715 
L 377.295077 -36.043021 
z
" style="stroke: #1f77b4"/>
    </defs>
    <g clip-path="url(#p477c04859a)">
     <use xlink:href="#m5b3157d8ff" x="0" y="533.6" style="fill: #1f77b4; fill-opacity: 0.25; stroke: #1f77b4"/>
    </g>
   </g>
  </g>
 </g>
 <defs>
  <clipPath id="p683644fe1d">
   <rect x="47.534499" y="7.2" width="156.205157" height="157.443836"/>
  </clipPath>
  <clipPath id="p2bd730cd9b">
   <rect x="47.534499" y="173.722405" width="156.205157" height="157.443836"/>
  </clipPath>
  <clipPath id="pb31ea00ad7">
   <rect x="208.864671" y="173.722405" width="156.205157" height="157.443836"/>
  </clipPath>
  <clipPath id="p7701fb7ca8">
   <rect x="47.534499" y="340.244811" width="156.205157" height="157.443836"/>
  </clipPath>
  <clipPath id="pd2637b05e7">
   <rect x="208.864671" y="340.244811" width="156.205157" height="157.443836"/>
  </clipPath>
  <clipPath id="p477c04859a">
   <rect x="370.194843" y="340.244811" width="156.205157" height="157.443836"/>
  </clipPath>
 </defs>
</svg>
