<?xml version="1.0" encoding="UTF-8" standalone="no"?>
<svg
   width="273.50101pt"
   height="202.9335pt"
   viewBox="0 0 273.50101 202.9335"
   version="1.2"
   id="svg18402"
   sodipodi:docname="schema_crowdsourcing.svg"
   inkscape:version="1.2.2 (b0a8486541, 2022-12-01)"
   inkscape:export-filename="schema_crowdsourcing_en_with_notation.pdf"
   inkscape:export-xdpi="96"
   inkscape:export-ydpi="96"
   xml:space="preserve"
   xmlns:inkscape="http://www.inkscape.org/namespaces/inkscape"
   xmlns:sodipodi="http://sodipodi.sourceforge.net/DTD/sodipodi-0.dtd"
   xmlns="http://www.w3.org/2000/svg"
   xmlns:svg="http://www.w3.org/2000/svg"><sodipodi:namedview
     id="namedview18404"
     pagecolor="#ffffff"
     bordercolor="#666666"
     borderopacity="1.0"
     inkscape:pageshadow="2"
     inkscape:pageopacity="0.0"
     inkscape:pagecheckerboard="false"
     inkscape:document-units="pt"
     showgrid="true"
     inkscape:zoom="0.57994452"
     inkscape:cx="1013.0279"
     inkscape:cy="-24.14024"
     inkscape:window-width="2048"
     inkscape:window-height="1083"
     inkscape:window-x="0"
     inkscape:window-y="32"
     inkscape:window-maximized="1"
     inkscape:current-layer="svg18402"
     inkscape:object-paths="true"
     inkscape:snap-midpoints="true"
     inkscape:snap-object-midpoints="true"
     inkscape:showpageshadow="2"
     inkscape:deskcolor="#d1d1d1"
     showguides="false"><inkscape:grid
       type="xygrid"
       id="grid38700"
       originx="-169.22949"
       originy="-134.14654" /></sodipodi:namedview><defs
     id="defs3143"><clipPath
       id="clip-0-3"><path
         clip-rule="nonzero"
         d="M 133,96 H 273.5 V 202.93359 H 133 Z m 0,0"
         id="path118672" /></clipPath></defs><g
     id="g118812"
     transform="translate(9.9397864e-4,0.00190603)"><path
       fill="none"
       stroke-width="1.46475"
       stroke-linecap="round"
       stroke-linejoin="round"
       stroke="#000000"
       stroke-opacity="0.818282"
       stroke-miterlimit="4"
       d="m 129.84375,91.777344 c 0,11.914066 -9.66016,21.574216 -21.57422,21.574216 -11.914061,0 -21.570311,-9.66015 -21.570311,-21.574216 0,-11.914063 9.65625,-21.570313 21.570311,-21.570313 11.91406,0 21.57422,9.65625 21.57422,21.570313 z m 0,0"
       id="path118677" /><path
       fill="none"
       stroke-width="1.46475"
       stroke-linecap="round"
       stroke-linejoin="round"
       stroke="#000000"
       stroke-opacity="0.818282"
       stroke-miterlimit="4"
       d="m 54.84375,91.777344 c 0,11.914066 -9.660156,21.574216 -21.574219,21.574216 -11.914062,0 -21.570312,-9.66015 -21.570312,-21.574216 0,-11.914063 9.65625,-21.570313 21.570312,-21.570313 11.914063,0 21.574219,9.65625 21.574219,21.570313 z m 0,0"
       id="path118679" /><path
       fill="none"
       stroke-width="1.46475"
       stroke-linecap="round"
       stroke-linejoin="round"
       stroke="#000000"
       stroke-opacity="0.818282"
       stroke-miterlimit="4"
       d="m 264.84375,145.77734 c 0,11.91407 -9.66016,21.57422 -21.57422,21.57422 -11.91406,0 -21.57031,-9.66015 -21.57031,-21.57422 0,-11.91406 9.65625,-21.57031 21.57031,-21.57031 11.91406,0 21.57422,9.65625 21.57422,21.57031 z m 0,0"
       id="path118681" /><path
       fill-rule="evenodd"
       fill="#a39b9b"
       fill-opacity="1"
       stroke-width="1.46475"
       stroke-linecap="round"
       stroke-linejoin="round"
       stroke="#000000"
       stroke-opacity="0.818282"
       stroke-miterlimit="4"
       d="m 189.84375,145.77734 c 0,11.91407 -9.66016,21.57422 -21.57422,21.57422 -11.91406,0 -21.57031,-9.66015 -21.57031,-21.57422 0,-11.91406 9.65625,-21.57031 21.57031,-21.57031 11.91406,0 21.57422,9.65625 21.57422,21.57031 z m 0,0"
       id="path118683" /><path
       fill="none"
       stroke-width="1.46475"
       stroke-linecap="round"
       stroke-linejoin="round"
       stroke="#000000"
       stroke-opacity="0.818282"
       stroke-miterlimit="4"
       d="m 126.51953,108.44922 16.47656,17.61719"
       id="path118685" /><path
       fill-rule="evenodd"
       fill="#000000"
       fill-opacity="1"
       d="m 144.58984,121.76563 4.71094,11.03906 -10.70312,-5.4336 c 3.14843,-0.13671 5.64062,-2.46875 5.99218,-5.60546 z m 0,0"
       id="path118687" /><path
       fill="none"
       stroke-width="1.46475"
       stroke-linecap="round"
       stroke-linejoin="round"
       stroke="#000000"
       stroke-opacity="0.818282"
       stroke-miterlimit="4"
       d="M 219.69922,145.94922 H 200.24219"
       id="path118689" /><path
       fill-rule="evenodd"
       fill="#000000"
       fill-opacity="1"
       d="m 202.29297,150.05078 -11.27735,-4.10156 11.27735,-4.10156 c -2.05078,2.39062 -2.05078,5.80468 0,8.20312 z m 0,0"
       id="path118691" /><path
       fill="none"
       stroke-width="1.46475"
       stroke-linecap="round"
       stroke-linejoin="round"
       stroke="#000000"
       stroke-opacity="0.818282"
       stroke-miterlimit="4"
       d="M 56.945312,93.449219 H 76.40625"
       id="path118693" /><path
       fill-rule="evenodd"
       fill="#000000"
       fill-opacity="1"
       d="m 74.355469,89.347656 11.277343,4.101563 -11.277343,4.101562 c 2.050781,-2.386719 2.050781,-5.800781 0,-8.203125 z m 0,0"
       id="path118695" /><path
       fill="none"
       stroke-width="1.46475"
       stroke-linecap="round"
       stroke-linejoin="round"
       stroke="#000000"
       stroke-opacity="0.818282"
       stroke-miterlimit="4"
       d="m 107.76953,48.449219 0.0156,10.855469"
       id="path118697" /><path
       fill-rule="evenodd"
       fill="#000000"
       fill-opacity="1"
       d="m 111.88281,57.25 -4.08593,11.28125 -4.11719,-11.269531 c 2.39062,2.046875 5.80469,2.039062 8.20312,-0.01172 z m 0,0"
       id="path118699" /><path
       fill-rule="nonzero"
       fill="#000000"
       fill-opacity="1"
       d="m 164.96094,145.29297 c 0,-0.3086 -0.25,-0.47656 -0.53125,-0.47656 -0.16797,0 -0.44922,0.11328 -0.61719,0.36328 -0.0273,0.11328 -0.19531,0.64843 -0.25391,0.98437 l -0.36328,1.42969 -0.8125,3.22266 c -0.0586,0.2539 -0.84375,1.51562 -2.01953,1.51562 -0.89844,0 -1.09375,-0.78516 -1.09375,-1.45703 0,-0.8125 0.30859,-1.9375 0.89453,-3.50781 0.28125,-0.72657 0.36719,-0.92188 0.36719,-1.28907 0,-0.78515 -0.5625,-1.45703 -1.46094,-1.45703 -1.70703,0 -2.35547,2.60938 -2.35547,2.7461 0,0.19922 0.19922,0.19922 0.19922,0.19922 0.19531,0 0.19531,-0.0586 0.27735,-0.33594 0.50781,-1.6836 1.20703,-2.21875 1.82421,-2.21875 0.14063,0 0.44922,0 0.44922,0.5625 0,0.44922 -0.19531,0.92578 -0.30859,1.26172 -0.73047,1.90625 -1.03906,2.91797 -1.03906,3.75781 0,1.59766 1.125,2.13281 2.1875,2.13281 0.70312,0 1.29297,-0.30859 1.79687,-0.8164 -0.22656,0.92578 -0.44922,1.82421 -1.15234,2.77734 -0.47656,0.58984 -1.14844,1.12109 -1.96094,1.12109 -0.25391,0 -1.06641,-0.0547 -1.375,-0.7539 0.28125,0 0.53516,0 0.75781,-0.22657 0.19532,-0.14062 0.36328,-0.39062 0.36328,-0.73046 0,-0.5586 -0.47656,-0.61329 -0.64453,-0.61329 -0.41797,0 -1.00781,0.27735 -1.00781,1.14844 0,0.89844 0.78516,1.57031 1.90625,1.57031 1.82422,0 3.67188,-1.625 4.17969,-3.64453 l 1.71094,-6.84375 c 0.082,-0.2539 0.082,-0.28125 0.082,-0.42187 z m 0,0"
       id="path118701" /><path
       fill-rule="nonzero"
       fill="#000000"
       fill-opacity="1"
       d="m 169.59766,146.24609 c 0,-0.0273 -0.0273,-0.0859 -0.0547,-0.0859 -1.29297,-0.98047 -2.16016,-3.47657 -2.16016,-5.4961 v -1.03515 c 0,-2.01954 0.86719,-4.51563 2.16016,-5.5 0.0273,0 0.0547,-0.0547 0.0547,-0.082 0,-0.0547 -0.0547,-0.14062 -0.11329,-0.14062 -0.0273,0 -0.0547,0.0273 -0.082,0.0273 -1.375,1.03907 -2.69531,3.5625 -2.69531,5.69532 v 1.03515 c 0,2.13281 1.32031,4.65625 2.69531,5.69531 0.0273,0 0.0547,0.0273 0.082,0.0273 0.0586,0 0.11329,-0.0859 0.11329,-0.14063 z m 0,0"
       id="path118703" /><path
       fill-rule="nonzero"
       fill="#000000"
       fill-opacity="1"
       d="m 175.8125,135.44922 c 0,-0.19531 -0.16797,-0.47656 -0.50391,-0.47656 -0.36328,0 -0.70312,0.36328 -0.70312,0.69921 0,0.19922 0.14062,0.47657 0.50781,0.47657 0.33594,0 0.69922,-0.33594 0.69922,-0.69922 z m -0.47656,3.47656 c 0,-0.67187 -0.58985,-1.17578 -1.31641,-1.17578 -1.40234,0 -2.1875,1.73828 -2.1875,1.93359 0,0.14063 0.16797,0.14063 0.19531,0.14063 0.14063,0 0.16797,-0.0273 0.25,-0.22656 0.3086,-0.72657 0.95703,-1.48438 1.6836,-1.48438 0.30859,0 0.42187,0.19531 0.42187,0.61719 0,0.14062 0,0.30859 -0.0273,0.36328 l -1.20703,4.79687 c -0.19532,0.86719 -0.8711,1.57032 -1.59766,1.57032 -0.16797,0 -0.30859,0 -0.44922,-0.0547 0.3086,-0.17188 0.42188,-0.44922 0.42188,-0.64844 0,-0.30859 -0.25391,-0.44531 -0.50782,-0.44531 -0.36328,0 -0.69921,0.33594 -0.69921,0.72656 0,0.47656 0.47656,0.78516 1.23437,0.78516 0.75781,0 2.21484,-0.44922 2.60547,-1.96094 l 1.125,-4.48828 c 0.0273,-0.14063 0.0547,-0.25391 0.0547,-0.44922 z m 0,0"
       id="path118705" /><path
       fill-rule="nonzero"
       fill="#000000"
       fill-opacity="1"
       d="m 179.82422,140.66406 v -1.03515 c 0,-2.13282 -1.28906,-4.65625 -2.66406,-5.69532 -0.0273,0 -0.0547,-0.0273 -0.082,-0.0273 -0.0586,0 -0.14062,0.0859 -0.14062,0.14062 0,0.0273 0.0273,0.082 0.0547,0.082 1.32031,0.98437 2.16015,3.48046 2.16015,5.5 v 1.03515 c 0,2.01953 -0.83984,4.51563 -2.16015,5.4961 -0.0273,0 -0.0547,0.0586 -0.0547,0.0859 0,0.0547 0.082,0.14063 0.14062,0.14063 0.0273,0 0.0547,-0.0273 0.082,-0.0273 1.375,-1.03906 2.66406,-3.5625 2.66406,-5.69531 z m 0,0"
       id="path118707" /><path
       fill-rule="nonzero"
       fill="#000000"
       fill-opacity="1"
       d="m 169.01172,149.71094 c 0,-0.19532 -0.16797,-0.47657 -0.50391,-0.47657 -0.33594,0 -0.70312,0.33594 -0.70312,0.70313 0,0.19531 0.14062,0.47656 0.50781,0.47656 0.33594,0 0.69922,-0.36719 0.69922,-0.70312 z m 0.30859,6.03125 c 0,-0.16797 -0.16797,-0.16797 -0.19531,-0.16797 -0.16797,0 -0.19531,0.082 -0.25391,0.22265 -0.28125,1.01172 -0.8125,1.51563 -1.3164,1.51563 -0.25391,0 -0.3086,-0.16797 -0.3086,-0.44922 0,-0.28125 0.082,-0.50391 0.19532,-0.78516 l 0.39453,-1.00781 0.61718,-1.60156 c 0.0547,-0.10938 0.082,-0.25 0.082,-0.39063 0,-0.58984 -0.50391,-1.0664 -1.17579,-1.0664 -1.26171,0 -1.82421,1.71094 -1.82421,1.93359 0,0.14063 0.16796,0.14063 0.22265,0.14063 0.16797,0 0.16797,-0.0547 0.22656,-0.19532 0.3086,-1.0664 0.86719,-1.51562 1.31641,-1.51562 0.19531,0 0.30859,0.0859 0.30859,0.42187 0,0.3086 -0.0547,0.47657 -0.36328,1.26172 l -0.78515,2.01953 c -0.0586,0.16797 -0.11328,0.3086 -0.11328,0.53125 0,0.58985 0.47656,1.03907 1.17968,1.03907 1.23438,0 1.79297,-1.71094 1.79297,-1.90625 z m 0,0"
       id="path118709" /><path
       fill-rule="nonzero"
       fill="#000000"
       fill-opacity="1"
       d="m 240.67578,146.31641 c 0,-0.42188 -0.39453,-0.42188 -0.73047,-0.42188 h -6 c -0.39453,0 -1.0664,0 -1.85156,0.84375 C 231.47656,147.4375 231,148.25 231,148.33594 c 0,0 0,0.19531 0.22266,0.19531 0.14062,0 0.17187,-0.082 0.28125,-0.22266 0.87109,-1.375 1.90625,-1.375 2.27343,-1.375 h 1.00782 c -0.5586,2.16016 -1.51172,4.32032 -2.26954,5.94532 -0.14062,0.28125 -0.14062,0.30859 -0.14062,0.44921 0,0.33594 0.28125,0.47657 0.50391,0.47657 0.53125,0 0.67187,-0.50391 0.89843,-1.14844 0.25,-0.84375 0.25,-0.87109 0.47657,-1.76953 l 1.00781,-3.95313 h 2.01953 c -0.58984,2.63672 -0.75781,3.42188 -0.75781,4.62891 0,0.25 0,0.72656 0.14062,1.34375 0.19922,0.78516 0.39453,0.89844 0.64453,0.89844 0.36719,0 0.75782,-0.3086 0.75782,-0.67188 0,-0.11328 0,-0.14062 -0.11329,-0.39453 -0.53125,-1.28906 -0.53125,-2.46875 -0.53125,-2.97266 0,-0.92578 0.14063,-1.90625 0.33594,-2.83203 h 2.01953 c 0.25391,0 0.89844,0 0.89844,-0.61718 z m 0,0"
       id="path118711" /><path
       fill-rule="nonzero"
       fill="#000000"
       fill-opacity="1"
       d="m 245.3125,150.08984 c 0,-0.0273 -0.0273,-0.082 -0.0547,-0.082 -1.28906,-0.98437 -2.16015,-3.48047 -2.16015,-5.5 v -1.03515 c 0,-2.01954 0.87109,-4.51563 2.16015,-5.4961 0.0273,0 0.0547,-0.0586 0.0547,-0.0859 0,-0.0547 -0.0547,-0.14062 -0.10938,-0.14062 -0.0312,0 -0.0586,0.0273 -0.0859,0.0273 -1.375,1.03907 -2.69141,3.5625 -2.69141,5.69532 v 1.03515 c 0,2.13281 1.31641,4.65625 2.69141,5.69531 0.0273,0 0.0547,0.0273 0.0859,0.0273 0.0547,0 0.10938,-0.082 0.10938,-0.14063 z m 0,0"
       id="path118713" /><path
       fill-rule="nonzero"
       fill="#000000"
       fill-opacity="1"
       d="m 251.52734,139.29297 c 0,-0.19531 -0.16797,-0.47656 -0.5039,-0.47656 -0.36328,0 -0.69922,0.36328 -0.69922,0.70312 0,0.19531 0.14062,0.47656 0.5039,0.47656 0.33594,0 0.69922,-0.33984 0.69922,-0.70312 z m -0.47656,3.47656 c 0,-0.67187 -0.58594,-1.17578 -1.31641,-1.17578 -1.40234,0 -2.1875,1.73828 -2.1875,1.93359 0,0.14063 0.16797,0.14063 0.19532,0.14063 0.14062,0 0.16797,-0.0273 0.2539,-0.22266 0.3086,-0.73047 0.95313,-1.48828 1.6836,-1.48828 0.30859,0 0.41797,0.19531 0.41797,0.61719 0,0.14062 0,0.30859 -0.0273,0.36328 l -1.20703,4.79687 c -0.19531,0.8711 -0.86719,1.57032 -1.59766,1.57032 -0.16796,0 -0.30859,0 -0.44921,-0.0547 0.30859,-0.16797 0.42187,-0.44922 0.42187,-0.64453 0,-0.3086 -0.25391,-0.44922 -0.50391,-0.44922 -0.36718,0 -0.70312,0.33594 -0.70312,0.72656 0,0.47656 0.47656,0.78516 1.23437,0.78516 0.75782,0 2.21485,-0.44531 2.60938,-1.96094 l 1.12109,-4.48828 c 0.0273,-0.14063 0.0547,-0.25 0.0547,-0.44922 z m 0,0"
       id="path118715" /><path
       fill-rule="nonzero"
       fill="#000000"
       fill-opacity="1"
       d="m 255.54297,144.50781 v -1.03515 c 0,-2.13282 -1.29297,-4.65625 -2.66406,-5.69532 -0.0312,0 -0.0586,-0.0273 -0.0859,-0.0273 -0.0547,0 -0.14063,0.0859 -0.14063,0.14062 0,0.0273 0.0273,0.0859 0.0547,0.0859 1.32031,0.98047 2.16016,3.47656 2.16016,5.4961 v 1.03515 c 0,2.01953 -0.83985,4.51563 -2.16016,5.5 -0.0273,0 -0.0547,0.0547 -0.0547,0.082 0,0.0586 0.0859,0.14063 0.14063,0.14063 0.0273,0 0.0547,-0.0273 0.0859,-0.0273 1.37109,-1.03906 2.66406,-3.5625 2.66406,-5.69531 z m 0,0"
       id="path118717" /><path
       fill="none"
       stroke-width="1.46475"
       stroke-linecap="round"
       stroke-linejoin="round"
       stroke="#000000"
       stroke-opacity="0.818282"
       stroke-miterlimit="4"
       d="m 129.84375,22.304688 c 0,11.914062 -9.66016,21.570312 -21.57422,21.570312 -11.914061,0 -21.570311,-9.65625 -21.570311,-21.570312 0,-11.914063 9.65625,-21.574219 21.570311,-21.574219 11.91406,0 21.57422,9.660156 21.57422,21.574219 z m 0,0"
       id="path118719" /><path
       fill-rule="nonzero"
       fill="#000000"
       fill-opacity="1"
       d="m 112.49219,19.332031 c 0,-1.90625 -1.17969,-2.917969 -2.46875,-2.917969 -1.73828,0 -3.61719,1.796876 -4.15235,3.984376 l -1.76562,7.011718 c -0.0547,0.222656 -0.0547,0.308594 -0.0547,0.308594 0,0.25 0.19531,0.476562 0.50391,0.476562 0.36328,0 0.58984,-0.339843 0.61719,-0.394531 0.11328,-0.140625 0.67187,-2.550781 1.14843,-4.488281 0.36719,0.730469 0.92578,1.207031 1.76953,1.207031 2.10157,0 4.40235,-2.523437 4.40235,-5.1875 z m -1.28906,-0.757812 c 0,0.980469 -0.50782,2.972656 -0.98438,3.84375 -0.58594,1.148437 -1.45703,1.710937 -2.12891,1.710937 -1.26171,0 -1.54296,-1.433594 -1.54296,-1.601562 0,-0.05469 0.082,-0.417969 0.14062,-0.644532 0.50391,-2.019531 0.67188,-2.664062 1.06641,-3.363281 0.78515,-1.320312 1.67968,-1.710937 2.21484,-1.710937 0.67188,0 1.23438,0.53125 1.23438,1.765625 z m 0,0"
       id="path118721" /><path
       fill-rule="nonzero"
       fill="#000000"
       fill-opacity="1"
       d="m 109.03906,88.441406 c 0,-0.308594 -0.2539,-0.476562 -0.53515,-0.476562 -0.16797,0 -0.44922,0.109375 -0.61719,0.363281 -0.0273,0.113281 -0.19531,0.644531 -0.25,0.980469 l -0.36719,1.429687 -0.8125,3.226563 c -0.0547,0.253906 -0.83984,1.515625 -2.01953,1.515625 -0.89453,0 -1.09375,-0.785157 -1.09375,-1.460938 0,-0.8125 0.30859,-1.933593 0.89844,-3.503906 0.28125,-0.730469 0.36328,-0.925781 0.36328,-1.289063 0,-0.785156 -0.55859,-1.460937 -1.45703,-1.460937 -1.71094,0 -2.35547,2.609375 -2.35547,2.75 0,0.195313 0.19531,0.195313 0.19531,0.195313 0.19531,0 0.19531,-0.05469 0.28125,-0.335938 0.50391,-1.683594 1.20703,-2.214844 1.82422,-2.214844 0.14063,0 0.44922,0 0.44922,0.558594 0,0.449219 -0.19922,0.925781 -0.30859,1.261719 -0.73047,1.910156 -1.03907,2.917969 -1.03907,3.757812 0,1.601563 1.1211,2.132813 2.1875,2.132813 0.69922,0 1.28907,-0.308594 1.79297,-0.8125 -0.22265,0.925781 -0.44531,1.824218 -1.14844,2.777344 -0.47656,0.585937 -1.14843,1.121093 -1.96484,1.121093 -0.25,0 -1.0625,-0.05859 -1.37109,-0.757812 0.27734,0 0.53125,0 0.75781,-0.222657 0.19531,-0.140624 0.36328,-0.394531 0.36328,-0.730468 0,-0.5625 -0.47656,-0.617188 -0.64453,-0.617188 -0.42188,0 -1.01172,0.28125 -1.01172,1.148438 0,0.898437 0.78516,1.570312 1.90625,1.570312 1.82422,0 3.67578,-1.625 4.17969,-3.644531 l 1.71094,-6.84375 c 0.0859,-0.25 0.0859,-0.28125 0.0859,-0.417969 z m 0,0"
       id="path118723" /><path
       fill-rule="nonzero"
       fill="#000000"
       fill-opacity="1"
       d="m 115.75,85.371094 c -0.0273,-0.05469 -0.0586,-0.08594 -0.0859,-0.08594 l -2.55078,0.421875 -0.36328,-2.523437 c -0.0312,-0.02734 -0.0586,-0.08594 -0.11328,-0.08594 -0.0273,0 -0.0586,0.05859 -0.0859,0.08594 l -0.36328,2.523437 -2.55078,-0.421875 c -0.0312,0 -0.0586,0.03125 -0.0859,0.08594 0,0.02734 0,0.08594 0.0547,0.08594 l 2.30078,1.148438 -1.20703,2.269531 c -0.0273,0.05859 0,0.08594 0.0312,0.113281 0.0547,0.02734 0.082,0.02734 0.10937,0 l 1.79688,-1.824219 1.82031,1.824219 c 0.0312,0.02734 0.0586,0.02734 0.11328,0 0.0273,-0.02734 0.0586,-0.05469 0.0273,-0.113281 l -1.20313,-2.269531 2.29688,-1.148438 c 0.0586,0 0.0586,-0.05859 0.0586,-0.08594 z m 0,0"
       id="path118725" /><path
       fill-rule="nonzero"
       fill="#000000"
       fill-opacity="1"
       d="m 113.08984,92.519531 c 0,-0.195312 -0.16796,-0.476562 -0.50781,-0.476562 -0.33594,0 -0.69922,0.335937 -0.69922,0.699219 0,0.199218 0.14063,0.476562 0.50391,0.476562 0.33594,0 0.70312,-0.363281 0.70312,-0.699219 z m 0.3086,6.027344 c 0,-0.167969 -0.16797,-0.167969 -0.19922,-0.167969 -0.16797,0 -0.19531,0.08594 -0.25,0.226563 -0.28125,1.007812 -0.8125,1.515621 -1.32031,1.515621 -0.25,0 -0.3086,-0.171871 -0.3086,-0.449215 0,-0.28125 0.0859,-0.507813 0.19922,-0.785156 l 0.39063,-1.011719 0.61718,-1.597656 c 0.0547,-0.113282 0.0859,-0.253906 0.0859,-0.394532 0,-0.585937 -0.50781,-1.0625 -1.17969,-1.0625 -1.26171,0 -1.82421,1.710938 -1.82421,1.933594 0,0.140625 0.17187,0.140625 0.22656,0.140625 0.16797,0 0.16797,-0.05469 0.22265,-0.195312 0.3086,-1.066407 0.8711,-1.515625 1.32032,-1.515625 0.19531,0 0.30859,0.08203 0.30859,0.421875 0,0.308593 -0.0586,0.476562 -0.36719,1.261719 l -0.78515,2.019531 c -0.0547,0.167969 -0.10938,0.308593 -0.10938,0.53125 0,0.589841 0.47656,1.039061 1.17578,1.039061 1.23438,0 1.79688,-1.710936 1.79688,-1.910155 z m 0,0"
       id="path118727" /><path
       fill-rule="nonzero"
       fill="#000000"
       fill-opacity="1"
       d="m 35.125,86.738281 c 0,-0.925781 -1.039062,-1.179687 -1.652344,-1.179687 -1.039062,0 -1.65625,0.953125 -1.878906,1.347656 -0.449219,-1.179688 -1.402344,-1.347656 -1.9375,-1.347656 -1.851562,0 -2.886719,2.300781 -2.886719,2.75 0,0.195312 0.222657,0.195312 0.222657,0.195312 0.140624,0 0.195312,-0.05469 0.226562,-0.195312 0.613281,-1.90625 1.792969,-2.355469 2.410156,-2.355469 0.335938,0 0.953125,0.167969 0.953125,1.203125 0,0.5625 -0.308593,1.742188 -0.953125,4.265625 -0.28125,1.09375 -0.925781,1.851563 -1.710937,1.851563 -0.113281,0 -0.503907,0 -0.898438,-0.226563 0.449219,-0.113281 0.84375,-0.476563 0.84375,-0.980469 0,-0.476562 -0.394531,-0.617187 -0.644531,-0.617187 -0.5625,0 -0.984375,0.449219 -0.984375,1.039062 0,0.8125 0.871094,1.175781 1.65625,1.175781 1.207031,0 1.851563,-1.261718 1.878906,-1.347656 0.222657,0.648438 0.867188,1.347656 1.933594,1.347656 1.851563,0 2.863281,-2.300781 2.863281,-2.746093 0,-0.199219 -0.140625,-0.199219 -0.199218,-0.199219 -0.167969,0 -0.195313,0.08594 -0.25,0.199219 -0.589844,1.933593 -1.796876,2.355469 -2.355469,2.355469 -0.703125,0 -0.984375,-0.5625 -0.984375,-1.179688 0,-0.390625 0.08594,-0.785156 0.28125,-1.570312 l 0.617187,-2.46875 c 0.113281,-0.449219 0.53125,-2.101563 1.765625,-2.101563 0.08594,0 0.535156,0 0.898438,0.222656 C 33.835938,86.289062 33.5,86.710938 33.5,87.15625 c 0,0.28125 0.195312,0.617188 0.671875,0.617188 0.394531,0 0.953125,-0.308594 0.953125,-1.035157 z m 0,0"
       id="path118729" /><path
       fill-rule="nonzero"
       fill="#000000"
       fill-opacity="1"
       d="m 39.996094,90.058594 c 0,-0.195313 -0.167969,-0.476563 -0.503906,-0.476563 -0.335938,0 -0.699219,0.335938 -0.699219,0.703125 0,0.195313 0.140625,0.476563 0.503906,0.476563 0.335937,0 0.699219,-0.367188 0.699219,-0.703125 z m 0.308594,6.03125 c 0,-0.167969 -0.167969,-0.167969 -0.195313,-0.167969 -0.167969,0 -0.195313,0.08203 -0.25,0.222656 -0.28125,1.007813 -0.816406,1.515625 -1.320313,1.515625 -0.253906,0 -0.308593,-0.167968 -0.308593,-0.449218 0,-0.28125 0.08594,-0.503907 0.195312,-0.785157 l 0.394531,-1.011719 0.617188,-1.597656 c 0.05469,-0.113281 0.08203,-0.25 0.08203,-0.390625 0,-0.589843 -0.503906,-1.066406 -1.175781,-1.066406 -1.261719,0 -1.824219,1.710937 -1.824219,1.933594 0,0.140625 0.167969,0.140625 0.226563,0.140625 0.167968,0 0.167968,-0.05469 0.222656,-0.195313 0.308594,-1.066406 0.871094,-1.515625 1.316406,-1.515625 0.199219,0 0.308594,0.08594 0.308594,0.421875 0,0.308594 -0.05469,0.476563 -0.363281,1.261719 l -0.785157,2.019531 c -0.05469,0.167969 -0.113281,0.308594 -0.113281,0.53125 0,0.589844 0.476563,1.039063 1.179688,1.039063 1.234375,0 1.792969,-1.710938 1.79297,-1.90625 z m 0,0"
       id="path118731" /><path
       fill="none"
       stroke-width="1.5098"
       stroke-linecap="round"
       stroke-linejoin="round"
       stroke="#000000"
       stroke-opacity="0.818282"
       stroke-miterlimit="4"
       d="M 0.753906,52.953125 H 208.26562 V 179.67578 H 0.753906 Z m 0,0"
       id="path118733" /><g
       clip-path="url(#clip-0-3)"
       id="g118737"><path
         fill="none"
         stroke-width="1.46475"
         stroke-linecap="round"
         stroke-linejoin="round"
         stroke="#000000"
         stroke-opacity="0.818282"
         stroke-miterlimit="4"
         d="m 134.01953,97.199219 h 138.75 V 202.19922 h -138.75 z m 0,0"
         id="path118735" /></g><path
       fill-rule="nonzero"
       fill="#000000"
       fill-opacity="1"
       d="m 15.734375,166.80469 c 0,-0.19922 -0.140625,-0.19922 -0.199219,-0.19922 -0.195312,0 -0.195312,0.0586 -0.277344,0.33984 -0.367187,1.20313 -0.953124,2.21485 -1.824218,2.21485 -0.308594,0 -0.421875,-0.16797 -0.421875,-0.58985 0,-0.44922 0.140625,-0.87109 0.308593,-1.26172 0.335938,-0.95312 1.09375,-2.91797 1.09375,-3.95312 0,-1.17969 -0.757812,-1.91016 -2.046874,-1.91016 -1.625,0 -2.496094,1.15235 -2.804688,1.57031 -0.082031,-1.00781 -0.8125,-1.57031 -1.652344,-1.57031 -0.816406,0 -1.152344,0.70313 -1.320312,1.01172 -0.308594,0.61719 -0.53125,1.68359 -0.53125,1.73828 0,0.19531 0.195312,0.19531 0.195312,0.19531 0.195313,0 0.195313,-0.0273 0.308594,-0.41796 0.308594,-1.26563 0.671875,-2.13282 1.316406,-2.13282 0.339844,0 0.535156,0.22266 0.535156,0.8125 0,0.39453 -0.054687,0.58985 -0.28125,1.51563 l -1.039062,4.12109 c -0.054688,0.28125 -0.167969,0.70313 -0.167969,0.78516 0,0.30859 0.253907,0.47656 0.535157,0.47656 0.222656,0 0.53125,-0.14062 0.671874,-0.50391 0,-0.0273 0.226563,-0.87109 0.335938,-1.3164 l 0.394531,-1.60156 c 0.082031,-0.41797 0.195313,-0.8125 0.308594,-1.20313 l 0.222656,-0.89844 c 0.253907,-0.5625 1.207031,-2.1875 2.917969,-2.1875 0.8125,0 0.953125,0.67188 0.953125,1.26172 0,1.09375 -0.871094,3.39453 -1.148437,4.15235 -0.171876,0.41796 -0.199219,0.64453 -0.199219,0.83984 0,0.83984 0.644531,1.45703 1.488281,1.45703 1.683594,0 2.328125,-2.60547 2.328125,-2.74609 z m 0,0"
       id="path118739" /><path
       fill-rule="nonzero"
       fill="#000000"
       fill-opacity="1"
       d="M 20.9375,172.19922 V 171.5 h -0.421875 v 0.67187 c 0,0.8711 -0.390625,1.31641 -0.894531,1.31641 -0.84375,0 -0.84375,-1.03516 -0.84375,-1.26172 v -3.39062 h 1.9375 v -0.44922 h -1.9375 v -2.30078 h -0.449219 c 0,1.12109 -0.503906,2.35547 -1.707031,2.38281 v 0.36719 h 1.148437 v 3.36328 c 0,1.40234 1.066407,1.68359 1.765625,1.68359 0.84375,0 1.402344,-0.70312 1.402344,-1.68359 z m 0,0"
       id="path118741" /><path
       fill-rule="nonzero"
       fill="#000000"
       fill-opacity="1"
       d="m 28.652344,172.64844 v -0.69922 h -0.449219 v 0.67187 c 0,0.14063 0,0.73047 -0.449219,0.73047 -0.476562,0 -0.476562,-0.58984 -0.476562,-0.73047 v -2.21484 c 0,-0.64453 0,-1.12109 -0.5625,-1.59766 -0.503906,-0.42187 -1.121094,-0.61718 -1.847656,-0.61718 -1.179688,0 -2.019532,0.44531 -2.019532,1.20312 0,0.42188 0.25,0.61719 0.585938,0.61719 0.339844,0 0.589844,-0.25 0.589844,-0.58985 0,-0.19531 -0.113282,-0.47656 -0.449219,-0.55859 0.449219,-0.30859 1.179687,-0.30859 1.261719,-0.30859 0.703124,0 1.460937,0.44922 1.460937,1.51562 v 0.36328 c -0.675781,0.0273 -1.515625,0.082 -2.414063,0.42188 -1.121093,0.39062 -1.484374,1.09375 -1.484374,1.65234 0,1.06641 1.289062,1.375 2.1875,1.375 1.007812,0 1.597656,-0.5625 1.851562,-1.03906 0.05469,0.50781 0.390625,0.98437 0.953125,0.98437 0,0 1.261719,0 1.261719,-1.17968 z m -2.355469,-0.64453 c 0,1.20703 -1.039063,1.54296 -1.601563,1.54296 -0.644531,0 -1.230468,-0.42187 -1.230468,-1.03906 0,-0.69922 0.585937,-1.65234 2.832031,-1.73828 z m 0,0"
       id="path118743" /><path
       fill-rule="nonzero"
       fill="#000000"
       fill-opacity="1"
       d="m 34.0625,172.14453 c 0,-0.47656 -0.222656,-0.87109 -0.5625,-1.14844 -0.476562,-0.44922 -1.035156,-0.5625 -1.484375,-0.61718 -0.980469,-0.19922 -1.796875,-0.33985 -1.796875,-1.01172 0,-0.39063 0.339844,-0.86719 1.515625,-0.86719 1.457031,0 1.515625,1.00781 1.542969,1.37109 0,0.14063 0.167968,0.14063 0.195312,0.14063 0.226563,0 0.226563,-0.082 0.226563,-0.33594 v -1.14844 c 0,-0.22656 0,-0.33593 -0.167969,-0.33593 -0.05859,0 -0.08594,0 -0.253906,0.13671 -0.02734,0.0312 -0.140625,0.14063 -0.222656,0.19922 -0.394532,-0.2539 -0.84375,-0.33593 -1.320313,-0.33593 -1.792969,0 -2.214844,0.95312 -2.214844,1.57031 0,0.39062 0.167969,0.72656 0.476563,0.98047 0.476562,0.39062 0.953125,0.47656 1.738281,0.61718 0.617187,0.11329 1.625,0.28125 1.625,1.1211 0,0.47656 -0.335937,1.0664 -1.539063,1.0664 -1.207031,0 -1.628906,-0.78515 -1.851562,-1.6289 -0.05859,-0.16797 -0.05859,-0.22266 -0.226562,-0.22266 -0.222657,0 -0.222657,0.0859 -0.222657,0.33594 v 1.54297 c 0,0.19531 0,0.30859 0.167969,0.30859 0.113281,0 0.363281,-0.2539 0.617188,-0.53125 0.53125,0.53125 1.207031,0.53125 1.515624,0.53125 1.625,0 2.242188,-0.87109 2.242188,-1.73828 z m 0,0"
       id="path118745" /><path
       fill-rule="nonzero"
       fill="#000000"
       fill-opacity="1"
       d="m 41.78125,173.76953 v -0.44922 c -0.449219,0 -0.730469,-0.0273 -1.09375,-0.47656 l -2.019531,-2.46484 c 1.542969,-1.17969 1.964843,-1.51563 2.804687,-1.54297 v -0.44922 c -0.253906,0.0273 -0.589844,0.0547 -0.839844,0.0547 -0.507812,0 -1.011718,-0.0273 -1.488281,-0.0547 v 0.44922 c 0.140625,0.0273 0.226563,0.10937 0.226563,0.22265 0,0.19532 -0.253906,0.42188 -0.394532,0.53516 L 37.125,171.02344 v -5.94532 l -1.878906,0.14063 v 0.44531 c 0.84375,0 0.925781,0.11328 0.925781,0.70313 v 6.42187 c 0,0.53125 -0.113281,0.53125 -0.925781,0.53125 v 0.44922 c 0.449218,-0.0273 0.925781,-0.0547 1.375,-0.0547 0.476562,0 0.925781,0.0273 1.402344,0.0547 v -0.44922 c -0.8125,0 -0.953126,0 -0.953126,-0.53125 v -1.20703 l 0.925782,-0.69922 1.34375,1.71094 c 0.140625,0.14062 0.28125,0.33594 0.28125,0.50391 0,0.19531 -0.222656,0.22265 -0.335938,0.22265 v 0.44922 c 0.167969,0 1.039063,-0.0547 1.402344,-0.0547 0.363281,0 0.730469,0.0273 1.09375,0.0547 z m 0,0"
       id="path118747" /><path
       fill-rule="nonzero"
       fill="#000000"
       fill-opacity="1"
       d="m 227.89062,191.625 c 0,-0.19922 -0.14062,-0.19922 -0.19531,-0.19922 -0.19922,0 -0.19922,0.0586 -0.28125,0.33594 -0.36719,1.20703 -0.95312,2.21875 -1.82422,2.21875 -0.30859,0 -0.42187,-0.16797 -0.42187,-0.58985 0,-0.44921 0.14062,-0.87109 0.30859,-1.26171 0.33985,-0.95313 1.09375,-2.91797 1.09375,-3.95704 0,-1.17578 -0.7539,-1.90625 -2.04687,-1.90625 -1.625,0 -2.4961,1.15235 -2.80469,1.57032 -0.082,-1.00782 -0.8125,-1.57032 -1.65234,-1.57032 -0.8125,0 -1.15235,0.70313 -1.32032,1.01172 -0.30859,0.61719 -0.53125,1.67969 -0.53125,1.73828 0,0.19532 0.19532,0.19532 0.19532,0.19532 0.19531,0 0.19531,-0.0273 0.30859,-0.42188 0.30859,-1.26172 0.67187,-2.1289 1.32031,-2.1289 0.33594,0 0.53125,0.22265 0.53125,0.8125 0,0.39453 -0.0547,0.58984 -0.28125,1.51562 l -1.03515,4.12109 c -0.0586,0.28125 -0.17188,0.70313 -0.17188,0.78516 0,0.30859 0.25391,0.47656 0.53516,0.47656 0.22265,0 0.53125,-0.14062 0.67187,-0.5039 0,-0.0273 0.22656,-0.8711 0.33594,-1.32032 l 0.39453,-1.59765 c 0.082,-0.41797 0.19531,-0.8125 0.30859,-1.20313 l 0.22266,-0.89843 c 0.25391,-0.5625 1.20703,-2.1875 2.91797,-2.1875 0.8125,0 0.95312,0.67187 0.95312,1.26171 0,1.09375 -0.87109,3.39454 -1.14843,4.14844 -0.16797,0.42188 -0.19922,0.64844 -0.19922,0.84375 0,0.83985 0.64844,1.45703 1.48828,1.45703 1.68359,0 2.32812,-2.60937 2.32812,-2.74609 z m 0,0"
       id="path118749" /><path
       fill-rule="nonzero"
       fill="#000000"
       fill-opacity="1"
       d="m 238.22656,193.65625 v -0.44922 c -0.33594,0.0273 -0.5625,0.0547 -0.89844,0.0547 -0.39062,0 -0.86718,-0.0273 -1.23437,-0.0547 v 0.44922 c 0.42187,0 0.64844,0.25 0.64844,0.53125 0,0.11328 0,0.14062 -0.0859,0.30859 l -1.20703,3.11328 -1.34375,-3.42187 c -0.0312,-0.0547 -0.0586,-0.14063 -0.0586,-0.22266 0,-0.28125 0.3086,-0.30859 0.67579,-0.30859 v -0.44922 c -0.44922,0.0273 -0.89844,0.0547 -1.34766,0.0547 -0.36328,0 -0.75781,-0.0273 -1.12109,-0.0547 v 0.44922 c 0.30859,0 0.55859,0 0.72656,0.082 0.17187,0.14063 0.28125,0.5625 0.28125,0.5625 0,0 -0.0273,0.10938 -0.0547,0.14063 l -1.17969,3 -1.26172,-3.25391 c -0.0547,-0.16797 -0.0547,-0.16797 -0.0547,-0.22266 0,-0.30859 0.44922,-0.30859 0.67187,-0.30859 V 193.207 c 0,0 -0.92578,0.0547 -1.42969,0.0547 -0.39062,0 -0.78515,-0.0273 -1.17578,-0.0547 v 0.44922 c 0.50391,0 0.78516,0 0.89453,0.36328 l 1.73829,4.40234 c 0.0859,0.19532 0.11328,0.28125 0.36718,0.28125 0.22266,0 0.25,-0.0859 0.3086,-0.2539 l 1.42968,-3.5625 1.375,3.53515 c 0.082,0.16797 0.10938,0.28125 0.36329,0.28125 0.22265,0 0.2539,-0.0859 0.33593,-0.28125 l 1.57032,-4.01171 c 0.2539,-0.61719 0.67578,-0.75391 1.0664,-0.75391 z m 0,0"
       id="path118751" /><path
       fill-rule="nonzero"
       fill="#000000"
       fill-opacity="1"
       d="m 244.85547,195.92578 c 0,-1.57031 -1.34766,-2.91797 -3.0586,-2.91797 -1.73828,0 -3.08593,1.34766 -3.08593,2.91797 0,1.54297 1.375,2.77734 3.08593,2.77734 1.6836,0 3.0586,-1.23437 3.0586,-2.77734 z m -1.15235,-0.11328 c 0,0.58984 -0.0273,1.26172 -0.39062,1.76953 -0.33594,0.47656 -0.89844,0.72656 -1.51563,0.72656 -0.47656,0 -1.14843,-0.14062 -1.57031,-0.7539 -0.33594,-0.50782 -0.36328,-1.15235 -0.36328,-1.74219 0,-0.53125 0,-1.28906 0.44922,-1.82031 0.30859,-0.36719 0.83984,-0.61719 1.48437,-0.61719 0.73047,0 1.26172,0.33594 1.54297,0.72656 0.33594,0.48047 0.36328,1.125 0.36328,1.71094 z m 0,0"
       id="path118753" /><path
       fill-rule="nonzero"
       fill="#000000"
       fill-opacity="1"
       d="m 250.46484,193.87891 c 0,-0.42188 -0.42187,-0.8125 -1.01172,-0.8125 -0.61718,0 -1.3164,0.39062 -1.67968,1.34375 v -1.34375 l -1.79688,0.14062 v 0.44922 c 0.83985,0 0.92578,0.082 0.92578,0.69922 v 3.2539 c 0,0.53125 -0.11328,0.53125 -0.92578,0.53125 v 0.44922 c 0.0547,0 0.89844,-0.0547 1.42969,-0.0547 l 1.62891,0.0547 v -0.44922 h -0.25391 c -0.92578,0 -0.92578,-0.14062 -0.92578,-0.55859 v -1.85156 c 0,-1.03906 0.47656,-2.30078 1.68359,-2.30078 -0.11328,0.0859 -0.22656,0.2539 -0.22656,0.44922 0,0.42187 0.33984,0.5625 0.5625,0.5625 0.30859,0 0.58984,-0.19922 0.58984,-0.5625 z m 0,0"
       id="path118755" /><path
       fill-rule="nonzero"
       fill="#000000"
       fill-opacity="1"
       d="m 258.09375,198.58984 v -0.44922 c -0.44922,0 -0.73047,-0.0273 -1.09375,-0.47656 l -2.01953,-2.46875 c 1.54297,-1.17578 1.96094,-1.51172 2.80469,-1.53906 v -0.44922 c -0.25391,0.0273 -0.58985,0.0547 -0.84375,0.0547 -0.50391,0 -1.00782,-0.0273 -1.48438,-0.0547 v 0.44922 c 0.14063,0.0273 0.22266,0.10937 0.22266,0.22266 0,0.19531 -0.25,0.42187 -0.39063,0.53125 l -1.85156,1.43359 v -5.94531 l -1.87891,0.13672 v 0.44921 c 0.83985,0 0.92578,0.11329 0.92578,0.70313 v 6.42187 c 0,0.53125 -0.11328,0.53125 -0.92578,0.53125 v 0.44922 c 0.44922,-0.0273 0.92578,-0.0547 1.375,-0.0547 0.47657,0 0.92578,0.0273 1.40235,0.0547 v -0.44922 c -0.8125,0 -0.95313,0 -0.95313,-0.53125 v -1.20703 l 0.92578,-0.69922 1.34375,1.71094 c 0.14063,0.14063 0.28125,0.33594 0.28125,0.50391 0,0.19531 -0.22265,0.22265 -0.33593,0.22265 v 0.44922 c 0.16796,0 1.03515,-0.0547 1.40234,-0.0547 0.36328,0 0.72656,0.0273 1.09375,0.0547 z m 0,0"
       id="path118757" /><path
       fill-rule="nonzero"
       fill="#000000"
       fill-opacity="1"
       d="m 263.92578,197.07422 c 0,-0.0273 -0.0273,-0.16797 -0.22656,-0.16797 -0.16797,0 -0.19531,0.0859 -0.22266,0.19922 -0.39453,1.00781 -1.34765,1.20312 -1.79687,1.20312 -0.58594,0 -1.14844,-0.25 -1.51172,-0.72656 -0.47656,-0.58984 -0.47656,-1.34766 -0.47656,-1.85156 h 3.86718 c 0.28125,0 0.36719,0 0.36719,-0.25391 0,-1.12109 -0.61719,-2.46875 -2.49609,-2.46875 -1.62891,0 -2.89063,1.29297 -2.89063,2.83594 0,1.59766 1.40235,2.85937 3.0586,2.85937 1.68359,0 2.32812,-1.34765 2.32812,-1.6289 z m -0.87109,-1.65235 h -3.36328 c 0.14062,-1.76562 1.26171,-2.04687 1.73828,-2.04687 1.54297,0 1.59765,1.73828 1.625,2.04687 z m 0,0"
       id="path118759" /><path
       fill-rule="nonzero"
       fill="#000000"
       fill-opacity="1"
       d="m 269.52734,193.87891 c 0,-0.42188 -0.42187,-0.8125 -1.01172,-0.8125 -0.61718,0 -1.3164,0.39062 -1.67968,1.34375 v -1.34375 l -1.79688,0.14062 v 0.44922 c 0.83985,0 0.92578,0.082 0.92578,0.69922 v 3.2539 c 0,0.53125 -0.11328,0.53125 -0.92578,0.53125 v 0.44922 c 0.0547,0 0.89844,-0.0547 1.42969,-0.0547 l 1.62891,0.0547 v -0.44922 h -0.25391 c -0.92578,0 -0.92578,-0.14062 -0.92578,-0.55859 v -1.85156 c 0,-1.03906 0.47656,-2.30078 1.68359,-2.30078 -0.11328,0.0859 -0.22656,0.2539 -0.22656,0.44922 0,0.42187 0.33984,0.5625 0.5625,0.5625 0.30859,0 0.58984,-0.19922 0.58984,-0.5625 z m 0,0"
       id="path118761" /></g></svg>
